<svg width="395" height="282" viewBox="0 0 395 282" fill="none" xmlns="http://www.w3.org/2000/svg">
<path d="M101.049 122.992C104.811 122.992 104.811 117.113 101.049 117.113C97.2859 117.113 97.2859 122.992 101.049 122.992Z" fill="black"/>
<path d="M360.084 36.5679H0.164062V281.61H360.084V36.5679Z" fill="#E1EAF9"/>
<path d="M44.9575 44.5634C45.3103 45.8568 46.6037 46.6799 48.0147 46.5623L51.6597 46.092C53.1883 45.8568 54.2465 44.4458 54.1289 42.9172L53.3059 36.4502H42.4883L44.9575 44.5634Z" fill="#16205B"/>
<path d="M52.9553 63.9643C56.527 63.9643 59.4224 61.069 59.4224 57.4973C59.4224 53.9257 56.527 51.0303 52.9553 51.0303C49.3837 51.0303 46.4883 53.9257 46.4883 57.4973C46.4883 61.069 49.3837 63.9643 52.9553 63.9643Z" fill="#16205B"/>
<path d="M50.1347 5.40903L59.1885 4.2332C60.8347 3.99804 62.3632 5.29145 62.3632 7.05518V38.6849C62.3632 40.2134 61.0698 41.5069 59.5413 41.5069H55.7786C54.3676 41.5069 53.1918 40.5662 52.9566 39.1552L47.6654 8.70134C47.4303 7.05519 48.4885 5.64419 50.1347 5.40903Z" fill="#0075E7"/>
<path d="M59.3108 59.2622C62.8824 59.2622 65.7778 56.3668 65.7778 52.7952C65.7778 49.2235 62.8824 46.3281 59.3108 46.3281C55.7391 46.3281 52.8438 49.2235 52.8438 52.7952C52.8438 56.3668 55.7391 59.2622 59.3108 59.2622Z" fill="#0075E7"/>
<path d="M360.078 217.763H269.304L149.723 231.873L360.078 241.985V217.763Z" fill="#16205B"/>
<path d="M139.144 231.872H364.903C369.371 231.872 373.016 228.227 373.016 223.759V76.5453C373.016 72.0772 369.371 68.4321 364.903 68.4321H139.144C134.676 68.4321 131.031 72.0772 131.031 76.5453V223.759C131.149 228.227 134.676 231.872 139.144 231.872Z" fill="#FFD215"/>
<path d="M315.519 122.873H253.553C249.908 122.873 246.969 119.933 246.969 116.288V106.411C246.969 102.766 249.908 99.8267 253.553 99.8267H315.519C319.164 99.8267 322.104 102.766 322.104 106.411V116.288C322.104 119.933 319.164 122.873 315.519 122.873Z" fill="#E8E9E9"/>
<path d="M365.02 68.4321H139.262C134.794 68.4321 131.148 72.0772 131.148 76.5453V78.4266H373.016V76.5453C373.016 72.0772 369.371 68.4321 365.02 68.4321Z" fill="#F9AE16"/>
<path d="M337.503 146.859H250.727C248.728 146.859 247.082 145.213 247.082 143.214C247.082 141.215 248.728 139.569 250.727 139.569H337.503C339.502 139.569 341.148 141.215 341.148 143.214C341.266 145.213 339.619 146.859 337.503 146.859Z" fill="white"/>
<path d="M337.503 164.497H250.727C248.728 164.497 247.082 162.85 247.082 160.852C247.082 158.853 248.728 157.207 250.727 157.207H337.503C339.502 157.207 341.148 158.853 341.148 160.852C341.266 162.85 339.619 164.497 337.503 164.497Z" fill="white"/>
<path d="M149.962 211.177H229.683C233.799 211.177 237.091 207.885 237.091 203.769V107.469C237.091 103.354 233.799 100.062 229.683 100.062H149.962C145.847 100.062 142.555 103.354 142.555 107.469V203.769C142.555 207.767 145.847 211.177 149.962 211.177Z" fill="white"/>
<path d="M218.277 183.428H161.25C156.194 183.428 152.078 179.313 152.078 174.257V117.229C152.078 112.173 156.194 108.058 161.25 108.058H218.277C223.333 108.058 227.449 112.173 227.449 117.229V174.257C227.449 179.313 223.333 183.428 218.277 183.428Z" fill="#0075E7"/>
<path d="M154.991 196.275V191.287H157.982V191.823H155.595V193.509H157.758V194.044H155.595V196.275H154.991ZM160.183 196.353C159.846 196.353 159.549 196.273 159.294 196.112C159.041 195.951 158.843 195.727 158.7 195.438C158.559 195.149 158.488 194.811 158.488 194.424C158.488 194.035 158.559 193.694 158.7 193.404C158.843 193.113 159.041 192.888 159.294 192.727C159.549 192.566 159.846 192.486 160.183 192.486C160.521 192.486 160.817 192.566 161.07 192.727C161.325 192.888 161.523 193.113 161.664 193.404C161.807 193.694 161.879 194.035 161.879 194.424C161.879 194.811 161.807 195.149 161.664 195.438C161.523 195.727 161.325 195.951 161.07 196.112C160.817 196.273 160.521 196.353 160.183 196.353ZM160.183 195.837C160.44 195.837 160.651 195.771 160.817 195.64C160.982 195.508 161.105 195.335 161.184 195.121C161.264 194.907 161.304 194.674 161.304 194.424C161.304 194.174 161.264 193.941 161.184 193.725C161.105 193.509 160.982 193.335 160.817 193.202C160.651 193.069 160.44 193.002 160.183 193.002C159.927 193.002 159.716 193.069 159.55 193.202C159.385 193.335 159.262 193.509 159.182 193.725C159.103 193.941 159.063 194.174 159.063 194.424C159.063 194.674 159.103 194.907 159.182 195.121C159.262 195.335 159.385 195.508 159.55 195.64C159.716 195.771 159.927 195.837 160.183 195.837ZM162.756 196.275V192.534H163.311V193.099H163.35C163.418 192.914 163.542 192.764 163.72 192.649C163.899 192.534 164.1 192.476 164.324 192.476C164.367 192.476 164.419 192.477 164.483 192.478C164.546 192.48 164.594 192.482 164.626 192.486V193.07C164.607 193.065 164.562 193.058 164.493 193.048C164.424 193.037 164.352 193.031 164.276 193.031C164.094 193.031 163.932 193.069 163.789 193.146C163.647 193.22 163.535 193.324 163.453 193.457C163.371 193.589 163.331 193.739 163.331 193.908V196.275H162.756ZM166.704 197.756C166.426 197.756 166.188 197.72 165.988 197.649C165.788 197.579 165.622 197.487 165.489 197.371C165.357 197.258 165.252 197.136 165.174 197.006L165.632 196.685C165.684 196.753 165.75 196.831 165.83 196.918C165.909 197.008 166.018 197.085 166.156 197.15C166.296 197.216 166.478 197.25 166.704 197.25C167.006 197.25 167.255 197.177 167.452 197.03C167.648 196.884 167.746 196.655 167.746 196.344V195.584H167.698C167.656 195.652 167.595 195.736 167.517 195.837C167.441 195.936 167.331 196.025 167.186 196.102C167.043 196.179 166.85 196.217 166.607 196.217C166.305 196.217 166.033 196.145 165.793 196.003C165.554 195.86 165.365 195.652 165.226 195.379C165.088 195.106 165.019 194.775 165.019 194.385C165.019 194.002 165.086 193.669 165.221 193.384C165.356 193.099 165.543 192.878 165.783 192.722C166.024 192.564 166.301 192.486 166.616 192.486C166.86 192.486 167.053 192.526 167.196 192.607C167.341 192.687 167.451 192.778 167.527 192.88C167.605 192.981 167.665 193.064 167.707 193.129H167.766V192.534H168.321V196.383C168.321 196.704 168.248 196.965 168.102 197.167C167.958 197.37 167.763 197.518 167.517 197.613C167.274 197.708 167.003 197.756 166.704 197.756ZM166.685 195.701C166.915 195.701 167.11 195.648 167.269 195.542C167.428 195.437 167.549 195.285 167.632 195.087C167.715 194.889 167.756 194.652 167.756 194.376C167.756 194.106 167.716 193.868 167.634 193.662C167.553 193.456 167.433 193.294 167.274 193.177C167.115 193.06 166.918 193.002 166.685 193.002C166.441 193.002 166.238 193.064 166.076 193.187C165.915 193.31 165.794 193.476 165.713 193.684C165.633 193.892 165.593 194.122 165.593 194.376C165.593 194.635 165.634 194.865 165.715 195.065C165.798 195.263 165.92 195.419 166.081 195.533C166.243 195.645 166.444 195.701 166.685 195.701ZM170.942 196.353C170.581 196.353 170.271 196.274 170.009 196.115C169.749 195.954 169.549 195.73 169.408 195.442C169.268 195.153 169.198 194.817 169.198 194.434C169.198 194.051 169.268 193.713 169.408 193.421C169.549 193.127 169.745 192.898 169.997 192.734C170.25 192.568 170.546 192.486 170.883 192.486C171.078 192.486 171.271 192.518 171.461 192.583C171.651 192.648 171.824 192.754 171.979 192.9C172.135 193.044 172.26 193.236 172.352 193.474C172.445 193.713 172.491 194.007 172.491 194.356V194.6H169.607V194.103H171.906C171.906 193.892 171.864 193.703 171.78 193.538C171.697 193.372 171.578 193.241 171.424 193.146C171.272 193.05 171.091 193.002 170.883 193.002C170.655 193.002 170.456 193.059 170.289 193.172C170.124 193.285 169.996 193.431 169.907 193.611C169.817 193.791 169.773 193.984 169.773 194.191V194.522C169.773 194.804 169.822 195.044 169.919 195.24C170.018 195.435 170.155 195.584 170.331 195.686C170.506 195.787 170.71 195.837 170.942 195.837C171.093 195.837 171.229 195.816 171.351 195.774C171.474 195.73 171.581 195.665 171.67 195.579C171.759 195.491 171.828 195.382 171.877 195.252L172.432 195.408C172.374 195.597 172.276 195.762 172.138 195.905C172 196.046 171.829 196.157 171.626 196.236C171.423 196.314 171.195 196.353 170.942 196.353ZM174.992 192.534V193.021H173.054V192.534H174.992ZM173.619 191.638H174.193V195.204C174.193 195.366 174.217 195.488 174.264 195.569C174.313 195.649 174.374 195.702 174.449 195.73C174.525 195.756 174.606 195.769 174.69 195.769C174.754 195.769 174.806 195.766 174.846 195.759C174.887 195.751 174.919 195.744 174.944 195.74L175.06 196.256C175.021 196.271 174.967 196.285 174.897 196.3C174.827 196.316 174.739 196.324 174.632 196.324C174.469 196.324 174.31 196.289 174.154 196.219C174 196.15 173.872 196.043 173.77 195.9C173.669 195.757 173.619 195.577 173.619 195.36V191.638ZM177.864 196.275V191.287H179.549C179.941 191.287 180.26 191.358 180.509 191.499C180.759 191.639 180.944 191.828 181.064 192.067C181.184 192.305 181.244 192.572 181.244 192.866C181.244 193.159 181.184 193.427 181.064 193.667C180.946 193.907 180.762 194.099 180.514 194.242C180.265 194.383 179.947 194.454 179.559 194.454H178.351V193.918H179.539C179.807 193.918 180.023 193.871 180.185 193.779C180.347 193.686 180.465 193.561 180.538 193.404C180.613 193.245 180.65 193.065 180.65 192.866C180.65 192.666 180.613 192.487 180.538 192.33C180.465 192.172 180.346 192.049 180.182 191.96C180.018 191.869 179.801 191.823 179.53 191.823H178.468V196.275H177.864ZM183.24 196.363C183.003 196.363 182.788 196.318 182.595 196.229C182.402 196.138 182.248 196.007 182.135 195.837C182.021 195.665 181.964 195.457 181.964 195.213C181.964 194.999 182.006 194.825 182.091 194.692C182.175 194.558 182.288 194.452 182.429 194.376C182.571 194.299 182.726 194.242 182.897 194.205C183.069 194.166 183.242 194.135 183.416 194.113C183.643 194.083 183.827 194.061 183.969 194.047C184.111 194.031 184.215 194.004 184.28 193.966C184.347 193.929 184.38 193.864 184.38 193.772V193.752C184.38 193.512 184.314 193.325 184.183 193.192C184.053 193.059 183.856 192.992 183.591 192.992C183.317 192.992 183.102 193.052 182.946 193.172C182.79 193.293 182.68 193.421 182.617 193.557L182.071 193.362C182.169 193.135 182.299 192.958 182.461 192.831C182.625 192.703 182.804 192.614 182.997 192.564C183.192 192.512 183.383 192.486 183.572 192.486C183.692 192.486 183.83 192.5 183.986 192.529C184.143 192.557 184.295 192.615 184.441 192.702C184.589 192.79 184.711 192.922 184.809 193.099C184.906 193.276 184.955 193.513 184.955 193.811V196.275H184.38V195.769H184.351C184.312 195.85 184.247 195.937 184.156 196.029C184.065 196.122 183.944 196.201 183.793 196.266C183.642 196.331 183.458 196.363 183.24 196.363ZM183.328 195.847C183.555 195.847 183.747 195.802 183.903 195.713C184.06 195.623 184.179 195.508 184.258 195.367C184.34 195.226 184.38 195.077 184.38 194.921V194.395C184.356 194.424 184.302 194.451 184.219 194.476C184.138 194.498 184.044 194.519 183.937 194.536C183.831 194.553 183.728 194.567 183.628 194.58C183.529 194.592 183.448 194.601 183.386 194.609C183.237 194.629 183.097 194.661 182.968 194.704C182.839 194.747 182.735 194.811 182.656 194.897C182.578 194.981 182.539 195.097 182.539 195.243C182.539 195.442 182.613 195.593 182.761 195.696C182.91 195.796 183.099 195.847 183.328 195.847ZM188.654 193.372L188.138 193.518C188.105 193.432 188.057 193.349 187.994 193.267C187.932 193.185 187.848 193.116 187.741 193.063C187.633 193.009 187.496 192.982 187.329 192.982C187.1 192.982 186.909 193.035 186.757 193.141C186.606 193.245 186.53 193.377 186.53 193.538C186.53 193.681 186.582 193.794 186.686 193.876C186.79 193.959 186.952 194.028 187.173 194.083L187.728 194.22C188.063 194.301 188.312 194.425 188.476 194.592C188.64 194.758 188.722 194.972 188.722 195.233C188.722 195.447 188.66 195.639 188.537 195.808C188.415 195.977 188.245 196.11 188.026 196.207C187.806 196.305 187.551 196.353 187.261 196.353C186.879 196.353 186.563 196.271 186.313 196.105C186.063 195.939 185.905 195.697 185.838 195.379L186.384 195.243C186.436 195.444 186.534 195.595 186.679 195.696C186.825 195.796 187.016 195.847 187.251 195.847C187.519 195.847 187.732 195.79 187.889 195.676C188.048 195.561 188.128 195.423 188.128 195.262C188.128 195.132 188.082 195.024 187.992 194.936C187.901 194.847 187.761 194.78 187.573 194.736L186.949 194.59C186.606 194.509 186.355 194.383 186.194 194.212C186.035 194.04 185.955 193.825 185.955 193.567C185.955 193.356 186.015 193.169 186.133 193.007C186.253 192.844 186.417 192.717 186.623 192.624C186.831 192.532 187.066 192.486 187.329 192.486C187.699 192.486 187.99 192.567 188.201 192.729C188.414 192.892 188.565 193.106 188.654 193.372ZM192.237 193.372L191.721 193.518C191.689 193.432 191.641 193.349 191.577 193.267C191.516 193.185 191.431 193.116 191.324 193.063C191.217 193.009 191.08 192.982 190.912 192.982C190.683 192.982 190.493 193.035 190.34 193.141C190.189 193.245 190.114 193.377 190.114 193.538C190.114 193.681 190.165 193.794 190.269 193.876C190.373 193.959 190.536 194.028 190.757 194.083L191.312 194.22C191.646 194.301 191.896 194.425 192.06 194.592C192.224 194.758 192.306 194.972 192.306 195.233C192.306 195.447 192.244 195.639 192.12 195.808C191.999 195.977 191.828 196.11 191.609 196.207C191.39 196.305 191.135 196.353 190.844 196.353C190.463 196.353 190.147 196.271 189.897 196.105C189.647 195.939 189.488 195.697 189.422 195.379L189.967 195.243C190.019 195.444 190.118 195.595 190.262 195.696C190.408 195.796 190.599 195.847 190.834 195.847C191.102 195.847 191.315 195.79 191.473 195.676C191.632 195.561 191.711 195.423 191.711 195.262C191.711 195.132 191.666 195.024 191.575 194.936C191.484 194.847 191.344 194.78 191.156 194.736L190.532 194.59C190.19 194.509 189.938 194.383 189.777 194.212C189.618 194.04 189.539 193.825 189.539 193.567C189.539 193.356 189.598 193.169 189.717 193.007C189.837 192.844 190 192.717 190.206 192.624C190.414 192.532 190.649 192.486 190.912 192.486C191.283 192.486 191.573 192.567 191.784 192.729C191.997 192.892 192.148 193.106 192.237 193.372ZM194.018 196.275L192.878 192.534H193.483L194.291 195.399H194.33L195.129 192.534H195.743L196.532 195.389H196.571L197.379 192.534H197.983L196.844 196.275H196.279L195.46 193.401H195.402L194.583 196.275H194.018ZM200.136 196.353C199.798 196.353 199.502 196.273 199.247 196.112C198.994 195.951 198.796 195.727 198.653 195.438C198.511 195.149 198.441 194.811 198.441 194.424C198.441 194.035 198.511 193.694 198.653 193.404C198.796 193.113 198.994 192.888 199.247 192.727C199.502 192.566 199.798 192.486 200.136 192.486C200.474 192.486 200.769 192.566 201.022 192.727C201.277 192.888 201.475 193.113 201.617 193.404C201.76 193.694 201.831 194.035 201.831 194.424C201.831 194.811 201.76 195.149 201.617 195.438C201.475 195.727 201.277 195.951 201.022 196.112C200.769 196.273 200.474 196.353 200.136 196.353ZM200.136 195.837C200.392 195.837 200.604 195.771 200.769 195.64C200.935 195.508 201.057 195.335 201.137 195.121C201.216 194.907 201.256 194.674 201.256 194.424C201.256 194.174 201.216 193.941 201.137 193.725C201.057 193.509 200.935 193.335 200.769 193.202C200.604 193.069 200.392 193.002 200.136 193.002C199.879 193.002 199.668 193.069 199.503 193.202C199.337 193.335 199.214 193.509 199.135 193.725C199.055 193.941 199.016 194.174 199.016 194.424C199.016 194.674 199.055 194.907 199.135 195.121C199.214 195.335 199.337 195.508 199.503 195.64C199.668 195.771 199.879 195.837 200.136 195.837ZM202.708 196.275V192.534H203.264V193.099H203.303C203.371 192.914 203.494 192.764 203.673 192.649C203.852 192.534 204.053 192.476 204.277 192.476C204.319 192.476 204.372 192.477 204.435 192.478C204.499 192.48 204.547 192.482 204.579 192.486V193.07C204.56 193.065 204.515 193.058 204.445 193.048C204.377 193.037 204.305 193.031 204.228 193.031C204.046 193.031 203.884 193.069 203.741 193.146C203.6 193.22 203.488 193.324 203.405 193.457C203.324 193.589 203.283 193.739 203.283 193.908V196.275H202.708ZM206.559 196.353C206.247 196.353 205.972 196.275 205.733 196.117C205.495 195.958 205.308 195.734 205.173 195.445C205.038 195.154 204.971 194.811 204.971 194.415C204.971 194.022 205.038 193.681 205.173 193.392C205.308 193.103 205.496 192.879 205.736 192.722C205.976 192.564 206.254 192.486 206.569 192.486C206.812 192.486 207.005 192.526 207.146 192.607C207.289 192.687 207.398 192.778 207.472 192.88C207.549 192.981 207.608 193.064 207.65 193.129H207.699V191.287H208.274V196.275H207.718V195.701H207.65C207.608 195.769 207.548 195.855 207.47 195.959C207.392 196.061 207.281 196.153 207.136 196.234C206.992 196.314 206.799 196.353 206.559 196.353ZM206.637 195.837C206.868 195.837 207.062 195.777 207.222 195.657C207.381 195.535 207.502 195.367 207.584 195.153C207.667 194.937 207.709 194.687 207.709 194.405C207.709 194.126 207.668 193.881 207.587 193.672C207.506 193.461 207.386 193.297 207.226 193.18C207.067 193.061 206.871 193.002 206.637 193.002C206.393 193.002 206.191 193.064 206.028 193.19C205.867 193.313 205.746 193.481 205.665 193.694C205.586 193.905 205.546 194.142 205.546 194.405C205.546 194.671 205.587 194.913 205.668 195.131C205.75 195.347 205.872 195.519 206.033 195.647C206.195 195.774 206.397 195.837 206.637 195.837ZM210.156 194.873V194.843C210.16 194.533 210.192 194.286 210.254 194.103C210.316 193.919 210.403 193.771 210.517 193.657C210.631 193.543 210.767 193.439 210.926 193.343C211.022 193.285 211.108 193.216 211.184 193.136C211.261 193.055 211.321 192.961 211.364 192.856C211.41 192.75 211.433 192.633 211.433 192.505C211.433 192.346 211.395 192.208 211.321 192.091C211.246 191.974 211.146 191.884 211.021 191.821C210.896 191.757 210.757 191.726 210.605 191.726C210.471 191.726 210.343 191.753 210.22 191.809C210.096 191.864 209.993 191.951 209.91 192.069C209.828 192.188 209.78 192.343 209.767 192.534H209.153C209.166 192.258 209.237 192.022 209.367 191.826C209.499 191.629 209.672 191.479 209.886 191.375C210.102 191.271 210.342 191.219 210.605 191.219C210.89 191.219 211.139 191.276 211.35 191.39C211.563 191.503 211.727 191.659 211.842 191.857C211.959 192.055 212.017 192.281 212.017 192.534C212.017 192.713 211.99 192.875 211.934 193.019C211.881 193.164 211.803 193.293 211.701 193.406C211.6 193.52 211.478 193.621 211.335 193.708C211.192 193.798 211.078 193.892 210.992 193.991C210.906 194.088 210.843 194.204 210.804 194.339C210.765 194.474 210.744 194.642 210.741 194.843V194.873H210.156ZM210.468 196.314C210.348 196.314 210.245 196.271 210.159 196.185C210.073 196.099 210.03 195.996 210.03 195.876C210.03 195.756 210.073 195.653 210.159 195.567C210.245 195.481 210.348 195.438 210.468 195.438C210.588 195.438 210.691 195.481 210.778 195.567C210.864 195.653 210.907 195.756 210.907 195.876C210.907 195.956 210.886 196.029 210.846 196.095C210.807 196.162 210.754 196.215 210.687 196.256C210.622 196.295 210.549 196.314 210.468 196.314Z" fill="#16205B"/>
<path opacity="0.51" d="M227.448 134.748V117.229C227.448 115.23 226.86 113.466 225.802 111.938C225.802 112.173 225.684 112.29 225.684 112.525C225.449 119.698 224.391 126.753 221.687 133.455C219.335 139.334 215.69 144.625 211.222 149.094C206.754 153.444 201.698 157.089 196.289 160.146C190.174 163.556 183.472 165.79 177.358 168.965C171.126 172.257 165.482 176.961 162.66 183.428H169.245C171.949 178.96 176.535 175.902 181.121 173.668C187.352 170.494 193.937 168.26 200.051 164.85C211.339 158.5 221.569 149.211 226.743 137.1C226.86 136.395 227.213 135.572 227.448 134.748Z" fill="white"/>
<path opacity="0.51" d="M227.451 157.56C224.393 161.793 219.808 164.967 215.104 167.319C206.403 171.669 196.762 173.786 188.178 178.372C185.474 179.783 182.887 181.546 180.535 183.545H191.118C195.115 181.429 199.466 179.783 203.699 178.254C212.047 175.197 220.748 172.14 227.451 166.261V157.56Z" fill="white"/>
<path opacity="0.51" d="M211.928 108.058C208.518 119.346 198.876 127.694 189.234 134.043C177.006 142.157 163.601 148.976 154.783 161.087C153.842 162.498 152.901 163.909 152.078 165.32V174.257C152.078 176.02 152.548 177.784 153.489 179.195C154.9 167.319 164.307 157.677 173.831 150.975C185.589 142.744 198.994 136.513 208.518 125.46C212.868 120.404 216.396 114.525 217.924 108.058H211.928Z" fill="white"/>
<path d="M219.804 68.4321C219.099 80.7783 217.923 93.1244 216.512 105.353C215.689 111.938 214.866 118.405 213.572 124.872C212.396 130.398 210.985 136.042 208.399 141.098C205.812 146.154 202.284 150.505 196.993 152.856C195.582 153.562 195.229 155.561 195.935 156.854C196.758 158.383 198.522 158.618 199.933 157.912C210.633 153.091 215.571 141.216 218.275 130.516C220.039 123.696 220.98 116.641 221.921 109.586C222.861 102.531 223.567 95.3585 224.272 88.3036C224.86 81.7189 225.33 75.0167 225.801 68.4321H219.804Z" fill="#16205B"/>
<path d="M198.17 149.446C197.347 153.209 193.82 155.09 190.41 155.913C185.824 157.089 180.886 157.089 176.183 157.442C165.953 158.147 155.723 158.735 145.376 159.088C140.673 159.206 135.852 159.323 131.148 159.441V165.32C141.143 165.202 151.137 164.85 161.014 164.262C166.423 164.027 171.832 163.674 177.241 163.203C182.414 162.851 187.941 162.733 192.879 161.322C197.818 159.794 202.521 156.266 203.697 150.975C204.637 147.33 198.994 145.684 198.17 149.446Z" fill="#16205B"/>
<path opacity="0.29" d="M373.012 223.759V76.5453C373.012 74.8991 372.542 73.3706 371.601 72.0771L133.262 229.285C134.79 230.931 136.789 231.872 139.141 231.872H364.899C369.367 231.872 373.012 228.227 373.012 223.759Z" fill="white"/>
<path d="M267.188 11.4055C264.954 8.23078 262.25 5.52637 258.84 3.64506C255.077 1.41099 250.844 0.587918 246.611 0.23517C243.319 5.37899e-06 240.027 0 236.617 0C233.325 0 230.032 0 226.858 0C222.272 0 217.686 0 213.1 0C207.809 0 202.518 0 197.344 0C191.936 0 186.527 0 181.118 0C176.179 0 171.123 0 166.185 0C162.305 0 158.307 0 154.427 0C152.075 0 149.723 0 147.372 0C147.254 0 147.137 0 147.137 0C147.019 0 147.019 0 146.901 0C136.437 0 125.501 3.9978 119.034 12.4637C112.215 21.4 111.039 33.1583 110.333 44.0934C109.393 57.733 108.922 71.3726 108.805 85.0121C108.805 98.6517 109.275 112.409 110.216 126.048C110.451 129.341 110.686 132.751 111.039 136.043C111.274 139.335 111.509 142.51 111.979 145.802C112.685 151.093 114.801 156.737 119.857 159.207C120.328 159.442 120.798 159.559 121.268 159.795C119.74 159.795 118.211 159.795 116.683 159.795C115.977 159.795 115.977 160.97 116.683 160.97C135.966 160.97 155.25 160.97 174.416 160.97C179.001 160.97 183.705 160.97 188.29 160.97C188.408 160.97 188.408 161.088 188.526 161.088C192.759 161.088 197.227 160.97 200.989 158.854C204.399 156.973 206.751 153.68 208.515 150.388C210.514 146.508 212.042 142.392 213.336 138.159C214.629 133.809 215.687 129.341 216.51 124.873C218.156 115.936 218.744 106.765 219.215 97.5935C219.685 87.8341 220.038 77.9572 220.39 68.1978C220.743 58.2033 221.096 48.0912 221.566 38.0967C221.566 37.8616 221.566 37.744 221.566 37.5088C234.736 37.5088 248.022 37.5088 261.192 37.5088C264.954 37.5088 268.717 37.5088 272.48 37.5088C273.067 37.5088 273.185 36.9209 272.95 36.5681C273.538 27.7495 272.244 18.578 267.188 11.4055Z" fill="#0D98EE"/>
<path d="M267.185 11.4063C264.951 8.23154 262.247 5.52714 258.837 3.64582C255.309 1.52933 251.312 0.706263 247.314 0.353516C245.197 0.823845 242.963 1.64692 240.964 2.70516C234.733 6.11506 230.029 11.9942 226.737 18.226C223.68 24.1052 221.681 30.5722 221.328 37.1568C234.497 37.1568 247.784 37.1568 260.953 37.1568C264.716 37.1568 268.479 37.1568 272.241 37.1568C272.829 37.1568 272.947 36.5689 272.712 36.2162C273.535 27.7502 272.241 18.5788 267.185 11.4063Z" fill="#0975E7"/>
<path d="M234.971 12.9334C238.616 7.52458 244.025 2.11578 250.492 0.704793C249.434 0.58721 248.493 0.352051 247.435 0.352051C245.318 0.822381 243.084 1.64546 241.085 2.7037C234.854 6.11359 230.15 11.9927 226.858 18.2246C223.801 24.1037 221.802 30.5707 221.449 37.1554C223.213 37.1554 224.859 37.1554 226.623 37.1554C227.328 28.5718 230.15 20.2235 234.971 12.9334Z" fill="#16205B"/>
<path opacity="0.69" d="M212.985 74.0769C208.635 82.5429 203.109 90.3033 195.936 96.5352C188.881 102.649 180.65 107.353 172.184 111.115C163.366 114.996 154.312 117.818 145.023 120.404C134.44 123.462 123.623 126.166 112.688 127.224C111.865 127.342 111.041 127.342 110.336 127.459C110.336 128.047 110.454 128.635 110.454 129.106C124.916 128.635 139.379 128.4 153.841 128.518C157.839 128.518 161.955 128.635 165.952 128.753C165.835 131.81 166.54 134.749 167.363 137.571C168.187 140.511 169.01 143.451 170.303 146.155C172.419 150.741 175.947 154.621 180.415 157.208C183.825 159.207 187.47 160.265 191.233 160.5C194.643 160.382 198.052 159.912 200.992 158.266C204.402 156.385 206.754 153.092 208.517 149.8C210.516 145.92 212.045 141.804 213.338 137.571C214.632 133.221 215.69 128.753 216.513 124.285C218.159 115.348 218.747 106.177 219.217 97.0055C219.688 87.2462 220.04 77.3693 220.393 67.6099C220.511 62.9066 220.746 58.2033 220.863 53.5C218.747 60.7901 216.278 67.6099 212.985 74.0769Z" fill="#0975E7"/>
<path opacity="0.28" d="M197.344 0C191.936 0 186.527 0 181.118 0C176.179 0 171.123 0 166.185 0C162.305 0 158.307 0 154.427 0C152.075 0 149.723 0 147.372 0C147.254 0 147.137 0 147.137 0C147.019 0 147.019 0 146.901 0C136.437 0 125.501 3.9978 119.034 12.4637C112.215 21.4 111.039 33.1583 110.333 44.0934C109.393 57.733 108.922 71.3726 108.805 85.0121C108.805 98.6517 109.275 112.409 110.216 126.048C110.333 126.989 110.333 127.93 110.451 128.87H139.141C140.905 116.995 140.67 104.884 140.552 92.8902C140.434 73.6066 141.963 54.3231 151.37 37.1561C160.071 21.2824 174.416 10.1121 191.348 4.23297C196.404 2.46923 201.695 1.17583 206.868 0.23517C203.694 5.37899e-06 200.519 0 197.344 0Z" fill="white"/>
<path d="M208.634 80.1912H188.057C186.411 80.1912 185 78.7802 185 77.1341V75.0176C185 73.3714 186.411 71.9604 188.057 71.9604H208.634C210.28 71.9604 211.691 73.3714 211.691 75.0176V77.1341C211.691 78.8978 210.398 80.1912 208.634 80.1912Z" fill="#E1EAF9"/>
<path d="M208.634 65.8465H188.057C186.411 65.8465 185 64.4355 185 62.7894V60.6729C185 59.0267 186.411 57.6157 188.057 57.6157H208.634C210.28 57.6157 211.691 59.0267 211.691 60.6729V62.7894C211.691 64.4355 210.398 65.8465 208.634 65.8465Z" fill="#E1EAF9"/>
<path d="M207.099 20.1071H159.596C158.067 20.1071 157.127 18.5785 157.832 17.1675L160.537 12.1115C160.889 11.406 161.595 11.0532 162.3 11.0532H209.804C211.332 11.0532 212.273 12.5818 211.567 13.9928L208.863 19.0488C208.51 19.7543 207.805 20.1071 207.099 20.1071Z" fill="white"/>
<path d="M170.184 61.6131H168.303L168.656 51.2658C168.891 42.3296 161.718 34.9219 152.782 34.9219C144.198 34.9219 137.261 41.7417 136.908 50.3252L136.556 61.6131H135.85C133.498 61.6131 131.617 63.3768 131.5 65.7285L129.618 100.063C129.501 102.532 131.5 104.648 133.969 104.648H168.303C170.654 104.648 172.536 102.885 172.653 100.533L174.535 66.1988C174.652 63.612 172.653 61.6131 170.184 61.6131ZM140.671 51.3834C140.906 44.7988 146.197 39.6252 152.782 39.6252C159.602 39.6252 165.128 45.2691 164.893 52.0889L164.658 61.6131H140.436L140.671 51.3834Z" fill="#16205B"/>
<path d="M150.431 32.5708C141.847 32.5708 134.91 39.3906 134.557 47.9741L133.852 72.0785H165.481L166.187 48.9148C166.539 39.9785 159.367 32.5708 150.431 32.5708ZM161.954 67.3752H137.732L138.32 48.9148C138.555 42.3301 143.846 37.1565 150.431 37.1565C157.25 37.1565 162.777 42.8005 162.542 49.6203L161.954 67.3752Z" fill="#E1EAF9"/>
<path d="M165.951 102.18H131.617C129.148 102.18 127.149 100.063 127.267 97.594L129.148 63.2599C129.266 60.9083 131.147 59.1445 133.499 59.1445H167.833C170.302 59.1445 172.301 61.261 172.183 63.7302L170.302 98.0643C170.184 100.416 168.303 102.18 165.951 102.18Z" fill="#FFD215"/>
<path d="M150.197 82.3079C151.608 81.6024 152.666 80.0739 152.666 78.4277C152.666 76.076 150.667 74.0771 148.315 74.0771C145.964 74.0771 143.965 76.076 143.965 78.4277C143.965 79.9563 144.67 81.2497 145.846 81.9552L144.2 90.0684C144.082 90.6563 144.553 91.1266 145.141 91.1266H151.49C152.078 91.1266 152.548 90.5387 152.313 89.9508L150.197 82.3079Z" fill="#16205B"/>
<path d="M174.3 57.3802C175.711 56.0868 177.004 54.7934 178.415 53.6175C178.885 53.1472 178.885 52.3241 178.415 51.9714C177.945 51.5011 177.239 51.5011 176.769 51.9714C175.358 53.2648 174.065 54.5582 172.654 55.734C172.183 56.2044 172.183 57.0274 172.654 57.3802C173.124 57.8505 173.829 57.8505 174.3 57.3802Z" fill="white"/>
<path d="M176.41 62.5543C178.174 62.3191 179.82 61.9664 181.584 61.7312C182.172 61.6136 182.642 60.7905 182.407 60.3202C182.172 59.6147 181.584 59.3796 180.996 59.4971C179.232 59.7323 177.586 60.0851 175.822 60.3202C175.235 60.4378 174.764 61.2609 174.999 61.7312C175.117 62.4367 175.705 62.6719 176.41 62.5543Z" fill="white"/>
<path d="M123.499 103.472C122.559 104.648 121.618 105.824 120.56 106.999C120.325 107.235 120.207 107.47 120.207 107.822C120.207 108.058 120.325 108.41 120.56 108.646C120.795 108.881 121.03 108.998 121.383 108.998C121.618 108.998 121.971 108.881 122.206 108.646C123.147 107.47 124.087 106.294 125.145 105.118C125.381 104.883 125.498 104.648 125.498 104.295C125.498 104.06 125.381 103.707 125.145 103.472C124.91 103.237 124.675 103.119 124.322 103.119C123.97 103.119 123.734 103.237 123.499 103.472Z" fill="white"/>
<path d="M118.445 101.356C119.856 101.238 121.15 101.121 122.561 101.003C123.149 101.003 123.737 100.533 123.737 99.8272C123.737 99.2393 123.266 98.6514 122.561 98.6514C121.15 98.7689 119.856 98.8865 118.445 99.0041C117.857 99.0041 117.27 99.4744 117.27 100.18C117.27 100.768 117.74 101.473 118.445 101.356Z" fill="white"/>
<path d="M127.508 106.882C127.508 108.411 127.508 109.94 127.508 111.468C127.508 112.056 128.096 112.644 128.684 112.644C129.272 112.644 129.859 112.174 129.859 111.468C129.859 109.94 129.859 108.411 129.859 106.882C129.859 106.294 129.272 105.707 128.684 105.707C127.978 105.707 127.508 106.177 127.508 106.882Z" fill="white"/>
<path d="M172.654 107.352C173.477 108.175 174.3 108.881 175.123 109.704C175.358 109.939 175.593 110.057 175.946 110.057C176.181 110.057 176.534 109.939 176.769 109.704C177.004 109.469 177.122 109.234 177.122 108.881C177.122 108.528 177.004 108.293 176.769 108.058C175.946 107.235 175.123 106.529 174.3 105.706C174.065 105.471 173.829 105.354 173.477 105.354C173.241 105.354 172.889 105.471 172.654 105.706C172.418 105.941 172.301 106.177 172.301 106.529C172.418 106.882 172.418 107.235 172.654 107.352Z" fill="white"/>
<path d="M121.622 129.34C133.028 129.34 144.433 129.34 155.839 129.34C159.013 129.34 162.306 129.34 165.481 129.34C165.833 129.34 165.833 128.752 165.481 128.752C154.075 128.752 142.67 128.752 131.264 128.752C128.089 128.752 124.797 128.752 121.622 128.752C121.152 128.752 121.152 129.34 121.622 129.34Z" fill="white"/>
<path d="M165.477 128.987C166.064 136.395 168.063 143.802 172.532 149.799C176.647 155.326 182.879 159.206 189.699 159.911C193.461 160.264 197.341 159.676 200.751 157.912C201.104 157.795 200.751 157.207 200.399 157.442C194.402 160.617 187.112 159.794 181.233 156.619C175.001 153.327 170.65 147.212 168.299 140.628C167.005 136.865 166.182 132.867 165.947 128.869C166.064 128.634 165.477 128.634 165.477 128.987Z" fill="white"/>
<path d="M246.256 0.470716C237.202 2.82237 229.912 9.99489 225.914 18.3432C223.68 23.0465 222.504 28.2202 221.799 33.3938C221.093 38.8026 220.741 44.2114 220.505 49.6202C220.27 55.8521 220.153 62.0839 220.035 68.3158C220.035 68.6685 220.623 68.6685 220.623 68.3158C220.858 57.7334 220.976 47.0334 222.034 36.451C222.622 31.1597 223.445 25.8685 225.326 20.9301C227.09 16.3444 229.794 12.229 233.204 8.70149C236.849 5.05643 241.318 2.11687 246.374 0.823467C246.726 0.941049 246.609 0.353133 246.256 0.470716Z" fill="white"/>
<g opacity="0.46">
<path d="M132.56 66.1985C132.09 69.6084 131.972 73.1359 132.207 76.5458C132.325 78.0744 133.501 79.603 135.147 79.4854C136.676 79.3678 138.204 78.192 138.087 76.5458C137.851 73.1359 137.969 69.6084 138.439 66.1985C138.557 65.4931 138.087 64.5524 137.616 64.0821C137.146 63.6117 136.323 63.1414 135.5 63.259C134.794 63.259 133.971 63.4942 133.383 64.0821C132.913 64.67 132.678 65.3755 132.56 66.1985Z" fill="white"/>
</g>
<g opacity="0.46">
<path d="M133.974 90.5378C137.737 90.5378 137.737 84.6587 133.974 84.6587C130.212 84.6587 130.212 90.5378 133.974 90.5378Z" fill="white"/>
</g>
<path d="M377.125 174.727V207.65L356.312 198.479V183.428L377.125 174.727Z" fill="#99D6FF"/>
<path d="M304.227 146.86V187.191L326.567 251.391L347.379 229.403L380.655 252.096L395 238.457V217.762L363.371 190.365L377.128 174.727L304.227 146.86Z" fill="#4AADFF"/>
<path d="M326.567 251.391L347.379 229.403L380.655 252.096V251.979L378.774 233.871L347.379 205.651L328.213 223.641L304.227 146.86V187.191L326.567 251.391Z" fill="#99D6FF"/>
<path d="M380.416 251.978L380.651 252.096L394.996 238.456V217.762L378.77 233.871L380.416 251.978Z" fill="#0975E7"/>
<path d="M328.213 223.641L326.566 251.39L347.378 229.403V205.651L328.213 223.641Z" fill="#0975E7"/>
<path d="M86.6954 182.017C86.225 179.078 85.8723 176.138 85.402 173.199C85.2844 172.728 84.6965 172.376 84.2261 172.376C70.7041 171.67 57.1822 171.435 43.6602 171.67C43.1898 171.67 42.8371 172.023 42.6019 172.376C42.2492 172.493 42.014 172.728 42.014 173.199C41.6613 175.786 41.1909 178.49 40.8382 181.077C40.7206 181.782 41.1909 182.605 42.014 182.605C56.5942 182.488 71.0569 182.841 85.6371 183.664C86.4602 183.546 86.813 182.723 86.6954 182.017Z" fill="#16205B"/>
<path d="M43.6599 171.553C43.1895 171.553 42.8368 171.906 42.6016 172.259C42.2489 172.376 42.0137 172.612 42.0137 173.082C41.7785 174.493 41.5434 175.904 41.4258 177.315C56.1236 176.374 70.939 175.669 85.7544 175.198C85.6368 174.493 85.5192 173.905 85.5192 173.199C85.4016 172.729 84.8137 172.376 84.3434 172.376C70.8214 171.671 57.1818 171.436 43.6599 171.553Z" fill="black"/>
<path d="M40.9558 180.371C40.9558 180.606 40.9558 180.724 40.8382 180.959C40.7206 181.665 41.1909 182.488 42.014 182.488C56.5942 182.37 71.0569 182.723 85.6371 183.546C86.4602 183.546 86.9305 182.723 86.8129 182.017C86.5778 180.842 86.4602 179.666 86.225 178.49C71.1745 176.138 55.8887 177.784 40.9558 180.371Z" fill="black"/>
<path d="M111.039 147.566C108.687 138.394 107.864 128.87 108.57 119.346C109.275 110.645 110.451 101.826 107.159 93.4779C104.572 86.8932 99.8686 81.3669 94.1071 77.2515C80.8202 67.9625 63.1829 68.5504 48.9554 75.3702C41.4301 78.8976 34.7279 84.1888 30.2598 91.3614C25.7917 98.5339 23.7928 107 23.3224 115.348C22.9697 120.051 23.2048 124.872 23.6752 129.693C24.1455 134.279 24.851 138.982 24.6158 143.686C24.4983 146.037 24.1455 148.271 23.3224 150.388C22.6169 152.504 21.5587 154.386 20.5004 156.384C18.5015 160.147 16.3851 164.027 15.7972 168.378C15.562 170.377 15.6796 172.376 16.2675 174.257C16.3851 174.61 16.7378 174.727 17.0906 174.61C29.907 174.61 42.7235 174.61 55.6576 174.61C68.4741 174.61 81.4082 174.61 94.2247 174.61C101.515 174.61 108.687 174.61 115.977 174.61C116.213 174.61 116.33 174.492 116.448 174.375C116.8 174.375 117.036 174.257 117.036 173.787C116.683 164.85 113.391 156.267 111.039 147.566Z" fill="#F15928"/>
<path d="M122.912 136.513C122.677 134.984 122.442 133.456 122.324 131.81C122.324 131.104 122.324 130.281 122.677 129.576C122.912 128.988 123.5 128.517 123.853 128.047C125.616 125.695 123.97 123.344 122.089 121.815C120.913 120.992 119.737 120.169 118.914 118.993C118.209 117.935 117.621 116.642 117.268 115.466C116.445 112.761 115.739 110.057 114.799 107.353C112.682 101.238 109.743 95.2416 106.098 89.8328C106.098 89.7152 105.157 89.0098 104.922 89.3625C104.687 89.4801 104.687 89.8328 104.922 90.1856C104.922 90.3032 105.039 90.3032 105.039 90.4207C107.391 99.8273 108.096 110.645 102.57 119.111C100.454 116.642 97.9844 114.29 94.6921 114.055C91.3998 113.82 88.5778 116.171 87.402 119.111C86.2261 121.933 86.4613 125.225 87.6371 128.047C88.9305 131.104 91.2822 133.574 94.2217 135.102C97.5141 136.866 101.277 137.689 104.922 137.924C105.275 141.569 107.273 144.744 108.92 147.919C111.036 151.799 112.447 156.032 113.74 160.147C113.74 160.265 113.858 160.382 113.976 160.5C113.976 160.617 114.093 160.617 114.093 160.735C115.504 162.499 118.091 162.734 120.09 161.793C122.324 160.735 123.617 158.266 124.088 155.914C124.676 152.857 124.323 149.565 124.088 146.39C123.617 142.98 123.265 139.688 122.912 136.513Z" fill="#16205B"/>
<path d="M87.3984 118.405C88.4567 117.465 89.6325 116.759 91.0435 116.289C95.0413 115.231 99.3919 117.347 101.391 120.992C102.096 122.168 103.742 122.05 104.448 120.992C110.445 111.938 109.622 100.65 106.564 90.6559C106.329 90.4207 106.212 90.068 105.976 89.8328C105.976 89.7152 105.036 89.0098 104.801 89.3625C104.565 89.4801 104.565 89.8328 104.801 90.1856C104.801 90.3032 104.918 90.3032 104.918 90.4207C107.27 99.8273 107.975 110.645 102.449 119.111C100.333 116.642 97.8633 114.29 94.571 114.055C91.3962 113.584 88.6918 115.701 87.3984 118.405Z" fill="black"/>
<path d="M105.273 138.277C104.92 137.454 103.745 137.219 103.039 137.571C103.627 137.689 104.215 137.689 104.803 137.689C105.156 141.334 107.154 144.509 108.801 147.683C110.917 151.564 112.328 155.797 113.621 159.912C113.621 160.03 113.739 160.147 113.857 160.265C113.857 160.382 113.974 160.382 113.974 160.5C114.797 161.441 115.973 162.028 117.267 162.028C115.62 153.21 109.389 146.272 105.273 138.277Z" fill="black"/>
<path d="M97.5123 187.897C87.9881 178.49 72.1145 178.02 59.5331 178.372C49.5386 178.725 28.9617 178.608 26.6101 191.542C26.0221 194.481 28.8441 196.245 31.0782 195.892C31.5485 196.01 32.1364 196.01 32.7243 195.775C52.8309 190.248 73.643 189.425 94.1024 193.776C97.3947 194.481 100.099 190.601 97.5123 187.897Z" fill="#0975E7"/>
<path d="M161.362 265.501C159.951 257.622 158.188 249.862 155.953 242.219C153.837 234.811 151.485 227.521 148.663 220.349C146.194 214.235 143.019 208.238 138.316 203.535C133.025 198.361 125.852 195.539 118.915 193.187C111.39 190.6 103.629 188.719 95.7512 187.661C87.638 186.485 79.2896 186.132 71.0589 186.132C62.8281 186.015 54.5973 186.015 46.4841 186.368C31.6687 187.073 16.5006 189.425 3.21379 196.715C2.15554 197.303 1.0973 198.008 0.0390625 198.596V281.492H162.656C162.656 281.492 162.656 281.492 162.773 281.492C163.949 280.316 163.361 278.199 163.126 276.788C162.656 273.026 162.068 269.263 161.362 265.501Z" fill="white"/>
<path d="M99.9848 230.109C99.8672 225.171 99.8672 220.35 99.8672 215.411C99.8672 214.706 98.6914 214.706 98.6914 215.411C95.7518 232.931 95.3991 250.804 97.5155 268.441C98.1035 272.792 98.6914 277.26 99.632 281.61H107.157C101.984 264.914 100.338 247.511 99.9848 230.109Z" fill="black"/>
<path d="M99.043 215.412C99.043 232.579 99.5133 249.864 102.806 266.795C103.746 271.499 104.922 276.202 106.215 280.788C106.451 281.493 107.626 281.258 107.391 280.435C102.453 264.091 100.807 246.924 100.336 229.875C100.219 225.054 100.219 220.233 100.101 215.412C100.219 214.706 99.043 214.706 99.043 215.412Z" fill="#E1EAF9"/>
<g opacity="0.46">
<path d="M51.5453 11.6408C52.2508 16.1089 52.8387 20.6946 53.1914 25.1628C53.309 26.1034 53.8969 26.9265 54.9552 26.9265C55.8958 26.9265 56.8365 26.1034 56.7189 25.1628C56.2486 20.3419 55.6607 15.521 54.8376 10.7001C54.72 9.75945 53.5442 9.28912 52.7211 9.52428C51.7804 9.75945 51.4277 10.7001 51.5453 11.6408Z" fill="white"/>
</g>
<g opacity="0.46">
<path d="M55.5271 33.276C57.7612 33.276 57.7612 29.7485 55.5271 29.7485C53.293 29.7485 53.293 33.276 55.5271 33.276Z" fill="white"/>
</g>
<g opacity="0.46">
<path d="M54.4805 51.5013C54.5981 52.4419 54.8332 53.3826 55.3036 54.2057C55.7739 55.0287 56.4794 55.7342 57.3024 56.2046C57.6552 56.4397 58.2431 56.5573 58.7134 56.4397C59.0662 56.3221 59.5365 55.9694 59.7717 55.6166C60.0068 55.2639 60.1244 54.676 60.0069 54.2057C59.8893 53.7353 59.6541 53.3826 59.1838 53.1474C59.0662 53.0298 58.9486 53.0298 58.831 52.9122C58.9486 53.0298 59.0662 53.1474 59.1838 53.1474C58.9486 52.9123 58.5959 52.6771 58.3607 52.3243C58.4783 52.4419 58.5959 52.5595 58.5959 52.6771C58.3607 52.3243 58.1255 52.0892 58.0079 51.7364C58.1255 51.854 58.1255 51.9716 58.2431 52.2068C58.1255 51.854 58.0079 51.5013 58.0079 51.1485C58.0079 51.2661 58.008 51.5013 58.1255 51.6188C58.1255 51.5013 58.1255 51.5013 58.1255 51.3837C58.1255 51.1485 58.1255 50.9133 58.0079 50.6782C57.8904 50.443 57.7728 50.3254 57.6552 50.0903C57.3025 49.7375 56.8321 49.5024 56.3618 49.6199C55.8915 49.6199 55.4211 49.7375 55.0684 50.0903C54.7156 50.5606 54.4805 51.0309 54.4805 51.5013Z" fill="white"/>
</g>
</svg>
