<svg width="336" height="322" viewBox="0 0 336 322" fill="none" xmlns="http://www.w3.org/2000/svg">
<path d="M313.629 42.7656H22.4023V218.885H313.629V42.7656Z" fill="#E1EAF9"/>
<path d="M26.0776 34.9364C35.2417 34.9364 42.6707 27.5073 42.6707 18.3432C42.6707 9.17902 35.2417 1.75 26.0776 1.75C16.9134 1.75 9.48438 9.17902 9.48438 18.3432C9.48438 27.5073 16.9134 34.9364 26.0776 34.9364Z" fill="#27AAE1"/>
<path d="M40.1974 9.66406L36.8997 12.5151L27.9378 18.9205L26.8164 26.2668L42.3167 14.9385C41.9202 13.0712 41.2031 11.2866 40.1974 9.66406Z" fill="#17205B"/>
<path d="M45.5146 1.14992C39.1218 7.99247 32.5074 14.6228 25.6712 21.0408C23.9225 19.8529 22.1834 18.6459 20.4822 17.382C20.0746 17.1444 19.6055 17.0336 19.1346 17.0637C18.6638 17.0938 18.2125 17.2633 17.8384 17.5508C17.4643 17.8383 17.1843 18.2306 17.034 18.6778C16.8836 19.1251 16.8699 19.6069 16.9944 20.062C17.1811 20.6448 17.5596 21.1473 18.0683 21.4875C20.1876 23.0556 22.3544 24.5762 24.5593 26.0207C24.915 26.2504 25.3336 26.3634 25.7567 26.3438C26.1011 26.3902 26.4516 26.3568 26.7811 26.2465C27.1106 26.1361 27.4104 25.9515 27.6574 25.7071C34.9561 18.8835 42.0299 11.8161 48.8788 4.50467C50.9696 2.27134 47.6148 -1.09291 45.5146 1.14992Z" fill="white"/>
<path d="M313.628 126.309C312.881 126.035 312.116 125.816 311.337 125.654C308.824 125.13 306.224 125.197 303.742 125.848C301.259 126.499 298.961 127.718 297.029 129.408C295.097 131.097 293.583 133.212 292.607 135.586C291.63 137.96 291.218 140.528 291.402 143.089C291.586 145.649 292.362 148.131 293.668 150.341C294.974 152.551 296.775 154.427 298.929 155.823C301.083 157.219 303.532 158.096 306.082 158.385C308.633 158.675 311.216 158.368 313.628 157.49V126.309Z" fill="#17205B"/>
<path d="M308.871 153.741C318.035 153.741 325.464 146.312 325.464 137.148C325.464 127.984 318.035 120.555 308.871 120.555C299.706 120.555 292.277 127.984 292.277 137.148C292.277 146.312 299.706 153.741 308.871 153.741Z" fill="#27AAE1"/>
<path d="M324.453 131.5L320.652 133.648L310.597 138.057L308.021 145.024L325.479 137.079C325.464 135.174 325.117 133.286 324.453 131.5Z" fill="#17205B"/>
<path d="M331.371 124.213C323.731 129.63 315.915 134.797 307.926 139.713C306.444 138.199 304.993 136.656 303.573 135.085C303.338 134.874 303.063 134.712 302.764 134.61C302.466 134.507 302.15 134.465 301.834 134.486C301.216 134.532 300.639 134.81 300.219 135.265C300.009 135.503 299.848 135.78 299.745 136.08C299.643 136.38 299.6 136.698 299.62 137.014C299.697 137.62 299.971 138.184 300.399 138.62C302.167 140.597 303.982 142.507 305.854 144.379C306.161 144.671 306.548 144.864 306.966 144.93C307.29 145.042 307.634 145.078 307.974 145.035C308.313 144.992 308.638 144.872 308.924 144.683C317.471 139.475 325.828 133.976 333.994 128.185C336.484 126.418 333.88 122.445 331.371 124.213Z" fill="white"/>
<path d="M278.755 93.5352H249.722C246.505 93.5352 243.896 96.1434 243.896 99.3608V109.72C243.896 112.937 246.505 115.545 249.722 115.545H278.755C281.973 115.545 284.581 112.937 284.581 109.72V99.3608C284.581 96.1434 281.973 93.5352 278.755 93.5352Z" fill="#16205B"/>
<path d="M215.201 93.5352H186.167C182.95 93.5352 180.342 96.1434 180.342 99.3608V109.72C180.342 112.937 182.95 115.545 186.167 115.545H215.201C218.418 115.545 221.026 112.937 221.026 109.72V99.3608C221.026 96.1434 218.418 93.5352 215.201 93.5352Z" fill="#16205B"/>
<path d="M283.473 61.9336H183.628C180.411 61.9336 177.803 64.5418 177.803 67.7593V78.1181C177.803 81.3355 180.411 83.9438 183.628 83.9438H283.473C286.69 83.9438 289.298 81.3355 289.298 78.1181V67.7593C289.298 64.5418 286.69 61.9336 283.473 61.9336Z" fill="#16205B"/>
<path d="M283.473 59.082H183.628C180.411 59.082 177.803 61.6903 177.803 64.9077V75.2665C177.803 78.484 180.411 81.0922 183.628 81.0922H283.473C286.69 81.0922 289.298 78.484 289.298 75.2665V64.9077C289.298 61.6903 286.69 59.082 283.473 59.082Z" fill="#FFD215"/>
<path opacity="0.19" d="M283.473 59.082H183.628C182.084 59.0845 180.604 59.6991 179.512 60.7911C178.42 61.8831 177.805 63.3634 177.803 64.9077V75.2571C177.803 76.7413 178.371 78.1693 179.39 79.2485L285.62 59.5002C284.938 59.225 284.209 59.0831 283.473 59.082Z" fill="white"/>
<path d="M283.473 30.3359H183.628C180.411 30.3359 177.803 32.9442 177.803 36.1616V46.5205C177.803 49.7379 180.411 52.3461 183.628 52.3461H283.473C286.69 52.3461 289.298 49.7379 289.298 46.5205V36.1616C289.298 32.9442 286.69 30.3359 283.473 30.3359Z" fill="#16205B"/>
<path d="M283.473 27.4844H183.628C180.411 27.4844 177.803 30.0926 177.803 33.31V43.6689C177.803 46.8863 180.411 49.4946 183.628 49.4946H283.473C286.69 49.4946 289.298 46.8863 289.298 43.6689V33.31C289.298 30.0926 286.69 27.4844 283.473 27.4844Z" fill="#FFD215"/>
<g style="mix-blend-mode:overlay" opacity="0.61">
<path d="M177.803 42.7652V43.7156C177.805 45.2599 178.42 46.7402 179.512 47.8322C180.604 48.9242 182.084 49.5387 183.628 49.5412H283.473C284.245 49.5413 285.01 49.3879 285.723 49.0899C286.436 48.7919 287.083 48.3553 287.626 47.8054C288.169 47.2554 288.597 46.6032 288.886 45.8864C289.174 45.1697 289.318 44.4027 289.308 43.63V42.6797L177.803 42.7652Z" fill="white"/>
</g>
<path d="M278.755 90.6836H249.722C246.505 90.6836 243.896 93.2918 243.896 96.5093V106.868C243.896 110.086 246.505 112.694 249.722 112.694H278.755C281.973 112.694 284.581 110.086 284.581 106.868V96.5093C284.581 93.2918 281.973 90.6836 278.755 90.6836Z" fill="#0075E7"/>
<path d="M215.201 90.6836H186.167C182.95 90.6836 180.342 93.2918 180.342 96.5093V106.868C180.342 110.086 182.95 112.694 186.167 112.694H215.201C218.418 112.694 221.026 110.086 221.026 106.868V96.5093C221.026 93.2918 218.418 90.6836 215.201 90.6836Z" fill="#0075E7"/>
<path opacity="0.19" d="M283.473 27.474H183.628C182.878 27.4576 182.132 27.5896 181.432 27.8623C180.733 28.1349 180.094 28.543 179.553 29.0631C179.012 29.5831 178.579 30.2049 178.278 30.8928C177.978 31.5807 177.816 32.3211 177.803 33.0716V43.0028C177.808 43.8797 178.023 44.7427 178.43 45.5196C178.837 46.2966 179.423 46.9651 180.141 47.4695L287.455 29.0041C286.364 28.0154 284.944 27.4697 283.473 27.474Z" fill="white"/>
<path opacity="0.19" d="M278.746 90.6837H249.722C248.177 90.6837 246.695 91.2975 245.603 92.39C244.51 93.4825 243.896 94.9643 243.896 96.5094V106.859C243.896 107.75 244.101 108.629 244.495 109.428C244.888 110.228 245.461 110.925 246.168 111.468L279.934 90.8073C279.544 90.7224 279.145 90.681 278.746 90.6837Z" fill="white"/>
<path opacity="0.19" d="M215.191 90.6836H186.167C184.622 90.6836 183.141 91.2974 182.048 92.3899C180.956 93.4824 180.342 94.9642 180.342 96.5093V106.859C180.343 107.757 180.552 108.644 180.953 109.448C181.353 110.253 181.935 110.954 182.651 111.496L219.924 93.1165C219.387 92.3625 218.677 91.7482 217.853 91.3249C217.03 90.9017 216.117 90.6817 215.191 90.6836Z" fill="white"/>
<path d="M234.888 321.325C235.411 317.771 235.962 314.188 235.078 310.643C234.724 309.125 234.064 307.695 233.139 306.441C232.215 305.186 231.044 304.132 229.699 303.344C226.848 301.662 223.494 300.883 220.291 300.151C216.718 299.334 213.106 298.687 209.542 297.842C206.032 297.095 202.615 295.961 199.355 294.458C197.816 293.734 196.402 292.772 195.164 291.607C193.964 290.393 193.04 288.934 192.455 287.331C191.939 285.758 191.536 284.151 191.248 282.522C190.868 280.84 189.186 280.935 187.789 280.83C184.539 280.536 181.269 280.536 178.019 280.83C174.867 281.09 171.815 282.066 169.095 283.681C166.567 285.278 164.125 288.433 160.789 287.901C160.098 287.794 159.463 287.46 158.984 286.951C158.924 286.887 158.847 286.843 158.762 286.824C158.677 286.805 158.589 286.813 158.508 286.846C157.765 286.043 156.79 285.492 155.719 285.268C154.647 285.045 153.533 285.162 152.531 285.601C151.162 286.276 151.286 287.673 151.504 288.965C151.916 290.52 152.174 292.112 152.274 293.717C152.088 295.357 151.601 296.948 150.839 298.412C150.202 299.904 149.537 301.377 148.891 302.86C147.584 305.705 146.627 308.698 146.04 311.774C145.389 315.075 145.72 318.494 146.99 321.61C147.015 321.674 147.056 321.731 147.109 321.775C147.162 321.818 147.226 321.846 147.294 321.857C147.354 321.867 147.415 321.867 147.475 321.857H234.451C234.519 321.859 234.586 321.845 234.647 321.817C234.709 321.789 234.763 321.747 234.806 321.695C234.849 321.643 234.88 321.581 234.896 321.516C234.912 321.45 234.912 321.381 234.898 321.315C234.898 321.315 234.888 321.334 234.888 321.325Z" fill="#F15928"/>
<path d="M305.621 227.363C305.358 226.541 304.902 225.795 304.291 225.186C303.261 223.838 302.134 222.567 300.917 221.385C298.541 219.133 295.538 217.394 292.164 217.641C290.292 217.847 288.47 218.384 286.785 219.228C284.885 220.102 282.984 221.071 281.15 222.003L269.422 227.838L263.654 230.689C261.865 231.654 259.944 232.349 257.952 232.751C256.075 233.061 254.151 232.662 252.554 231.63C251.139 230.603 249.787 229.492 248.505 228.304C248.244 228.011 247.912 227.791 247.54 227.666C247.168 227.541 246.771 227.515 246.386 227.591C245.625 227.912 244.93 228.37 244.333 228.94C242.974 229.976 241.634 231.041 240.342 232.162C237.781 234.278 235.61 236.825 233.927 239.689C233.125 241.138 232.542 242.697 232.197 244.317C231.798 246.218 231.798 248.29 231.133 250.162C230.91 250.944 230.499 251.659 229.935 252.246C229.372 252.832 228.674 253.272 227.901 253.526L227.778 253.583C226.162 253.421 224.404 253.326 222.969 254.191C222.311 254.546 221.78 255.098 221.451 255.769C221.122 256.441 221.012 257.198 221.135 257.936C221.534 259.542 223.273 260.502 224.366 261.604C225.655 262.914 226.75 264.402 227.616 266.023C229.517 269.511 230.03 273.502 231.703 277.066C233.179 280.347 235.449 283.208 238.308 285.391C238.992 285.898 239.827 286.161 240.678 286.137C241.529 286.112 242.348 285.803 243.003 285.258C244.603 284.03 246.138 282.72 247.602 281.333C250.852 278.501 254.087 275.65 257.305 272.78C263.711 267.078 270.078 261.319 276.408 255.503C282.737 249.687 289.041 243.858 295.32 238.016C298.475 235.089 301.658 232.191 304.766 229.225C305.055 229.013 305.285 228.731 305.435 228.405C305.585 228.079 305.649 227.72 305.621 227.363Z" fill="#F15928"/>
<path d="M243.945 245.239C242.417 244.475 240.827 243.839 239.194 243.338C238.45 243.106 237.768 242.71 237.198 242.179C236.918 241.842 236.755 241.425 236.733 240.988C236.71 240.551 236.83 240.118 237.074 239.755C238.061 237.969 239.223 236.284 240.543 234.728C241.826 233.124 243.2 231.594 244.658 230.147C244.695 230.109 244.724 230.064 244.744 230.014C244.801 229.976 244.849 229.926 244.884 229.868C244.92 229.809 244.942 229.744 244.949 229.676C244.956 229.608 244.949 229.539 244.926 229.474C244.904 229.409 244.867 229.351 244.82 229.302C240.017 224.233 235.367 219.019 230.869 213.659C230.821 213.601 230.759 213.557 230.689 213.532C230.619 213.506 230.543 213.501 230.469 213.516C230.392 213.526 230.317 213.552 230.251 213.592C222.222 218.713 214.472 224.258 207.034 230.204C206.99 230.235 206.954 230.275 206.926 230.32C206.899 230.366 206.882 230.417 206.876 230.47C206.869 230.523 206.874 230.576 206.89 230.627C206.906 230.678 206.932 230.725 206.967 230.765C206.919 230.851 206.898 230.95 206.907 231.048C206.915 231.146 206.953 231.24 207.015 231.316L221.802 249.962L225.993 255.246C226.045 255.311 226.115 255.36 226.193 255.389L226.307 255.446C229.832 256.59 233.558 256.988 237.245 256.615C238.952 256.405 240.62 255.951 242.197 255.265C243.667 254.68 244.972 253.743 245.998 252.538C248.051 249.858 246.464 246.76 243.945 245.239Z" fill="#16205B"/>
<path d="M188.485 272.911C188.556 272.83 188.6 272.729 188.61 272.621C188.62 272.514 188.596 272.406 188.542 272.312C188.542 272.16 188.542 272.008 188.542 271.856C188.589 271.248 187.639 271.258 187.591 271.856V272.113C179.988 272.217 172.69 269.956 165.325 268.454C163.196 268.017 161.057 267.646 158.9 267.399C158.387 267.333 158.32 268.007 158.672 268.254C157.836 274.28 157.091 280.299 156.439 286.311C156.425 286.394 156.439 286.479 156.479 286.553C156.518 286.627 156.581 286.685 156.657 286.72L160.079 291.614C161.002 293.014 162.018 294.351 163.12 295.615C164.191 296.828 165.523 297.783 167.016 298.409C168.557 299.001 170.205 299.26 171.853 299.169C173.241 299.148 174.58 298.659 175.655 297.782C176.183 297.251 176.575 296.601 176.799 295.886C177.022 295.171 177.07 294.413 176.938 293.676C176.637 291.912 176.179 290.179 175.569 288.497C175.142 287.09 174.277 285.133 175.028 283.688C175.29 283.31 175.634 282.994 176.033 282.764C176.432 282.534 176.878 282.395 177.337 282.358C178.42 282.111 179.513 281.93 180.616 281.787C182.865 281.488 185.133 281.364 187.401 281.417C187.469 281.418 187.536 281.405 187.597 281.376C187.659 281.348 187.713 281.307 187.756 281.254C187.799 281.202 187.83 281.141 187.846 281.075C187.862 281.01 187.862 280.941 187.848 280.875C188.019 278.243 188.247 275.582 188.485 272.911Z" fill="#16205B"/>
<path d="M184.063 281.503C182.685 281.339 181.297 281.278 179.91 281.323C178.01 281.31 176.12 281.602 174.312 282.188C170.045 283.851 171.632 288.393 173.067 291.53C173.618 292.737 174.369 294.134 174.151 295.502C173.917 296.532 173.32 297.443 172.469 298.068C171.813 298.577 171.064 298.951 170.264 299.171C170.795 299.208 171.329 299.208 171.86 299.171C173.248 299.149 174.587 298.66 175.662 297.783C176.19 297.252 176.582 296.602 176.806 295.887C177.029 295.173 177.077 294.415 176.945 293.677C176.644 291.914 176.186 290.18 175.576 288.498C175.149 287.092 174.284 285.134 175.034 283.689C175.297 283.311 175.64 282.995 176.04 282.765C176.439 282.535 176.884 282.396 177.344 282.359C178.427 282.112 179.52 281.931 180.623 281.789C181.725 281.646 182.903 281.57 184.063 281.503Z" fill="black"/>
<path d="M230.945 213.62C230.898 213.562 230.836 213.518 230.765 213.493C230.695 213.467 230.619 213.462 230.546 213.477C230.468 213.487 230.394 213.513 230.327 213.553C228.113 214.96 225.927 216.404 223.76 217.887C218.128 222.246 212.587 226.731 207.139 231.344L211.453 236.78C218.657 229.899 226.035 223.215 233.587 216.727C232.665 215.691 231.781 214.694 230.945 213.62Z" fill="black"/>
<path d="M188.486 272.914C188.557 272.833 188.601 272.732 188.611 272.624C188.622 272.517 188.598 272.409 188.543 272.316C188.543 272.164 188.543 272.011 188.543 271.859C188.543 271.707 188.543 271.859 188.543 271.802L187.593 272.097H187.517C177.878 274.815 167.59 274.055 158.455 269.949C158.227 271.574 158.018 273.199 157.809 274.815C167.445 278.757 178.11 279.425 188.163 276.716C188.277 275.518 188.372 274.197 188.486 272.914Z" fill="black"/>
<path d="M215.622 179.607C213.579 173.658 208.39 169.305 202.612 167.148C195.38 164.439 187.321 165.133 179.936 166.777C172.725 168.452 165.736 170.972 159.114 174.285C152.426 177.634 145.98 181.445 139.822 185.689C133.17 190.165 126.812 194.946 120.52 199.859C114.229 204.772 107.786 210.075 101.513 215.293L96.9516 219.094C96.9014 219.136 96.8615 219.188 96.8351 219.247C96.8087 219.307 96.7965 219.371 96.7995 219.436C96.7164 219.493 96.653 219.574 96.6181 219.668C96.5831 219.763 96.5784 219.866 96.6045 219.963C96.6306 220.06 96.6863 220.146 96.7638 220.21C96.8413 220.274 96.9368 220.313 97.0371 220.32H163.258C161.794 232.675 160.137 245.01 158.287 257.327C157.654 261.433 157.02 265.551 156.387 269.682V269.729C156.368 269.776 156.359 269.826 156.361 269.876C156.362 269.926 156.373 269.976 156.393 270.022C156.413 270.068 156.442 270.109 156.479 270.144C156.515 270.178 156.558 270.205 156.605 270.223C166.846 274.748 178.052 276.649 189.212 275.754C192.368 275.517 195.505 275.069 198.601 274.414C198.699 274.398 198.787 274.346 198.848 274.269C198.909 274.192 198.94 274.095 198.934 273.996C199.617 265.893 200.753 257.834 202.336 249.857C203.923 241.95 204.959 232.969 207.411 225.291C209.863 217.612 214.007 211.235 215.28 203.195C215.917 199.175 216.278 195.098 216.563 191.03C216.839 187.2 216.877 183.266 215.622 179.607Z" fill="white"/>
<path d="M205.541 171.139C206.179 171.66 206.954 171.985 207.772 172.072C208.591 172.16 209.417 172.008 210.15 171.634C207.935 169.688 205.38 168.167 202.614 167.148C195.382 164.439 187.323 165.133 179.939 166.777C178.995 166.986 178.063 167.214 177.145 167.462C169.124 173.762 161.939 181.232 154.146 187.809C138.826 200.809 122.119 211.216 102.827 214.19L101.525 215.274L96.9633 219.075C96.9131 219.117 96.8732 219.169 96.8468 219.228C96.8204 219.288 96.8083 219.352 96.8112 219.417C96.7282 219.474 96.6648 219.555 96.6298 219.649C96.5949 219.744 96.5901 219.847 96.6162 219.944C96.6423 220.041 96.698 220.127 96.7755 220.191C96.853 220.255 96.9485 220.294 97.0488 220.301H121.188C132.218 216.151 142.551 210.341 151.827 203.071C160.637 196.314 168.858 188.864 177.107 181.451C184.377 174.922 195.334 163.822 205.541 171.139Z" fill="black"/>
<path d="M65.1628 48.6405C64.2012 48.1431 63.1254 47.9084 62.044 47.9602C60.9627 48.0119 59.9142 48.3482 59.0045 48.9351C58.7977 49.0866 58.6095 49.2621 58.4438 49.4578C57.9654 49.4762 57.5059 49.6491 57.1341 49.9507C56.7623 50.2522 56.4983 50.6661 56.3815 51.1304C55.0637 55.6541 53.7395 60.1746 52.409 64.6919C51.8293 66.6687 51.2021 68.7119 51.6963 70.7742C51.971 71.8363 52.5825 72.7808 53.4392 73.4661C54.2958 74.1515 55.3515 74.5407 56.448 74.5756C60.8767 74.8417 63.5947 70.6697 65.0677 67.0963C65.8997 65.0867 66.6044 63.0267 67.1775 60.9285C67.8993 58.7592 68.3245 56.5023 68.4415 54.219C68.4753 53.0749 68.1855 51.9444 67.6055 50.9576C67.0255 49.9707 66.1788 49.1676 65.1628 48.6405Z" fill="#299EFF"/>
<path d="M125.76 153.873V153.787C125.745 152.318 126.223 150.886 127.117 149.72C128.011 148.554 129.27 147.72 130.692 147.353L150.897 142.126L161.912 104.701C162.184 103.743 162.718 102.881 163.453 102.209C164.188 101.538 165.096 101.084 166.074 100.9L219.36 90.864C219.859 90.7799 220.37 90.8296 220.843 91.0082C221.316 91.1868 221.732 91.4878 222.05 91.8803C222.369 92.2729 222.577 92.7429 222.653 93.2423C222.73 93.7417 222.673 94.2525 222.487 94.7225L205.124 136.472C204.737 137.398 204.125 138.213 203.343 138.844C202.562 139.474 201.635 139.9 200.648 140.083L125.76 153.873Z" fill="#E8E9E9"/>
<path d="M166.074 100.889C165.096 101.073 164.188 101.527 163.453 102.198C162.718 102.87 162.184 103.733 161.912 104.69L150.897 142.115L130.692 147.342C129.27 147.709 128.011 148.543 127.117 149.709C126.223 150.875 125.745 152.307 125.76 153.776V153.871L154.622 148.568L167.129 102.077C167.17 101.925 167.173 101.765 167.137 101.611C167.1 101.458 167.027 101.316 166.922 101.198C166.817 101.08 166.685 100.99 166.537 100.936C166.389 100.882 166.23 100.866 166.074 100.889Z" fill="#D1D1D1"/>
<path d="M75.9688 92.3278C75.8168 91.4915 75.6837 90.6552 75.5317 89.8189C75.5253 89.5441 75.4288 89.279 75.2571 89.0644C75.0854 88.8498 74.848 88.6975 74.5813 88.6309L72.443 88.0227C72.6715 86.8486 72.5996 85.6358 72.234 84.4969C72.0539 83.3657 71.4488 82.346 70.5423 81.6458C69.4334 81.01 68.2304 80.5544 66.9785 80.2963C65.8602 79.9314 64.8463 79.3022 64.0229 78.4621C62.4358 76.9131 61.1148 75.0409 58.9955 74.176C57.7209 73.7188 56.3772 73.4841 55.023 73.4823C53.6651 73.3868 52.3007 73.4441 50.9555 73.6533C49.5965 73.9099 49.0548 74.8318 48.4561 75.9817L47.5247 77.7494C47.2872 78.2341 46.793 78.8803 47.0401 79.441C47.2872 80.0017 47.9904 80.3438 48.3896 80.6955L50.2903 82.2541L53.7591 85.1051C56.0019 86.9298 58.2162 88.802 60.5351 90.5316C62.6737 92.231 65.0833 93.5578 67.6628 94.4566C69.0999 94.9188 70.6007 95.1529 72.1104 95.1504C72.8444 95.1408 73.576 95.0645 74.2962 94.9223C74.8094 94.8177 75.6457 94.7227 75.9974 94.276C76.349 93.8294 76.0354 92.8695 75.9688 92.3278Z" fill="white"/>
<path d="M238.707 211.842C238.742 211.778 238.76 211.706 238.76 211.633C238.76 211.56 238.742 211.488 238.707 211.424C233.277 199.886 227.838 188.355 222.39 176.831L214.245 159.572C212.078 154.982 210.064 150.221 207.07 146.096C204.513 142.57 201.092 139.491 196.702 138.626C193.777 138.187 190.796 138.316 187.92 139.007C184.784 139.605 181.667 140.261 178.55 140.907L141.163 148.51C130.367 150.696 117.176 154.573 107.34 147.455C106.441 146.798 105.613 146.049 104.869 145.222C104.891 145.14 104.892 145.055 104.872 144.973C104.852 144.891 104.812 144.815 104.755 144.753C104.698 144.69 104.627 144.643 104.547 144.615C104.467 144.588 104.382 144.581 104.299 144.595C95.6035 146.435 87.0532 148.902 78.7151 151.979C70.4058 155.048 62.3263 158.707 54.5381 162.927C50.1411 165.322 45.8455 167.888 41.6513 170.625C41.5548 170.689 41.4851 170.786 41.4554 170.898C41.4256 171.01 41.4378 171.129 41.4897 171.233C44.93 185.146 51.516 199.002 62.3975 208.601C68.0597 213.595 74.8496 217.14 82.1839 218.931C90.3049 220.782 98.7252 220.895 106.893 219.264C124.094 216.033 139.262 206.444 153.394 196.579C160.778 191.428 168.039 186.125 175.623 181.25C179.32 178.893 183.168 176.194 187.388 174.882C189.247 174.276 191.223 174.123 193.153 174.437C195.082 174.752 196.909 175.523 198.479 176.688C205.616 181.83 206.538 191.248 206.87 199.335C207.251 208.773 206.889 218.227 205.787 227.608C205.511 229.984 205.179 232.36 204.837 234.698C204.742 235.296 205.264 235.296 205.787 234.954C205.787 234.954 205.787 234.897 205.787 234.878C214.422 229.316 222.95 223.582 231.37 217.677C233.772 215.985 236.163 214.284 238.546 212.573C238.608 212.54 238.663 212.493 238.706 212.436C238.749 212.38 238.779 212.314 238.794 212.245C238.81 212.175 238.81 212.103 238.795 212.034C238.78 211.964 238.75 211.899 238.707 211.842Z" fill="white"/>
<path d="M55.1925 53.1331C55.6202 53.1331 56.3425 53.0571 56.5135 53.5608C56.6846 54.0644 56.333 54.9008 56.1999 55.4615C55.969 56.2291 56.03 57.0549 56.371 57.7803C56.54 58.1247 56.8006 58.4159 57.1241 58.6221C57.4476 58.8283 57.8216 58.9414 58.2052 58.9493C59.8398 58.9493 61.0562 57.2861 61.8355 56.0982C62.5103 55.1479 63.5271 53.5037 64.9622 53.8839C65.1956 53.9261 65.4363 53.8794 65.6371 53.7532C65.8379 53.6269 65.9842 53.4302 66.0473 53.2016C66.1104 52.9729 66.0857 52.729 65.9782 52.5176C65.8706 52.3062 65.6878 52.1427 65.4659 52.0592C64.6526 51.8985 63.8101 51.9804 63.043 52.2947C62.2759 52.609 61.618 53.1418 61.1513 53.8269C60.6666 54.4161 60.2674 55.0623 59.8113 55.7276C59.6039 56.0107 59.3751 56.2776 59.127 56.5259C58.9037 56.7845 58.6148 56.9783 58.2907 57.0866C57.8535 57.0866 57.9581 56.3833 58.0151 56.1362C58.2501 55.3925 58.3968 54.6238 58.4523 53.8459C58.4369 53.45 58.3367 53.062 58.1584 52.7083C57.9801 52.3545 57.7278 52.0432 57.4187 51.7954C57.1096 51.5475 56.7509 51.369 56.3668 51.2719C55.9827 51.1748 55.5823 51.1613 55.1925 51.2324C54.9405 51.2324 54.6988 51.3325 54.5205 51.5107C54.3423 51.689 54.2422 51.9307 54.2422 52.1827C54.2422 52.4348 54.3423 52.6765 54.5205 52.8547C54.6988 53.033 54.9405 53.1331 55.1925 53.1331Z" fill="black"/>
<path d="M96.4016 46.3393C96.8861 45.2067 97.1382 43.9884 97.1429 42.7565C97.0277 41.6841 96.619 40.6643 95.9618 39.8092C95.3045 38.9541 94.4241 38.2968 93.4175 37.9097C92.3759 37.5145 91.3602 37.0542 90.3764 36.5317C89.4596 35.9349 88.7338 35.0871 88.2856 34.0893C87.8663 33.1373 87.3368 32.2379 86.708 31.4093C86.3503 30.9961 85.914 30.6582 85.4246 30.4151C84.9352 30.172 84.4023 30.0286 83.8569 29.9932C81.215 29.7366 78.7631 31.2952 76.1876 31.6088C74.7956 31.7409 73.3922 31.5423 72.0916 31.0291C70.9744 30.5859 69.8057 30.2858 68.6133 30.1358C66.5131 29.9814 64.4158 30.4721 62.602 31.542C60.7882 32.6119 59.3443 34.2102 58.4635 36.123C58.1452 37.1055 57.5789 37.9892 56.8194 38.689C55.869 39.3447 54.6241 39.0216 53.8638 39.991C53.6115 40.3868 53.4552 40.8361 53.4073 41.3031C53.3595 41.77 53.4214 42.2417 53.5882 42.6805C53.8923 43.8589 54.9187 45.0849 54.6431 46.3488C54.4055 47.3942 53.1795 47.8789 52.5618 48.6772C52.2722 49.0706 52.0915 49.5335 52.0381 50.0191C51.9847 50.5047 52.0605 50.9958 52.2577 51.4427C52.696 52.4121 53.4983 53.17 54.491 53.5525C55.0604 53.7772 55.6534 53.9366 56.2587 54.0277C56.5384 54.0466 56.8155 54.0943 57.0855 54.1702C57.4846 54.3128 57.4941 54.5789 57.4371 54.9495C57.3041 55.8999 56.9619 56.7837 57.7222 57.5155C58.0626 57.8115 58.4852 57.9965 58.9336 58.0458C59.3819 58.095 59.8347 58.0062 60.2311 57.7911C61.267 57.2684 61.7897 56.204 62.493 55.3392C62.7021 55.0731 63.5289 54.1132 63.8235 54.4649C64.1181 54.8165 63.928 55.5578 64.0326 55.9189C64.1354 56.2614 64.3145 56.5762 64.5565 56.8396C64.7984 57.103 65.0969 57.3081 65.4296 57.4395V57.506C66.8076 59.5302 69.174 60.2905 71.4928 60.5946C72.9659 60.7942 74.4484 60.8512 75.893 61.1553C77.1834 61.4411 78.4534 61.8126 79.6944 62.2673C82.1083 63.2695 84.6265 63.9994 87.2022 64.4436C88.2671 64.6278 89.3627 64.4888 90.3479 64.0444C90.7855 63.8157 91.1657 63.4908 91.4598 63.0941C91.7542 62.5597 92.115 62.0648 92.5337 61.621C93.332 60.9463 94.4344 60.7752 95.0331 59.8344C95.2638 59.3555 95.3945 58.8347 95.4174 58.3037C95.4402 57.7727 95.3548 57.2426 95.1662 56.7457C94.9452 56.1294 94.786 55.4927 94.691 54.845C94.6647 54.2142 94.8485 53.5924 95.2137 53.0773C95.8516 52.3066 96.3036 51.3993 96.5347 50.4258C96.5526 49.8123 96.4592 49.2005 96.2591 48.6202C96.0715 47.8633 96.1213 47.067 96.4016 46.3393Z" fill="#0975E7"/>
<path d="M58.1234 71.2974C58.4204 70.7626 58.5042 70.1352 58.3579 69.5411C58.2116 68.9471 57.846 68.4304 57.3346 68.0947C57.1677 67.9516 57.012 67.7959 56.8689 67.629C56.7432 67.438 56.632 67.2379 56.5363 67.0303C56.2786 66.3543 56.0907 65.6537 55.9756 64.9395C55.947 64.6583 55.947 64.3749 55.9756 64.0937C55.9766 63.7814 55.9159 63.472 55.7968 63.1833C55.6777 62.8946 55.5027 62.6323 55.2818 62.4116C54.8325 61.9706 54.2292 61.7218 53.5997 61.7178C53.4922 61.7086 53.3841 61.7086 53.2765 61.7178L52.4117 64.6544C52.1183 65.5906 51.8772 66.5425 51.6895 67.5055C51.7655 67.7621 51.8415 68.0282 51.9365 68.2848C52.1798 68.9898 52.5188 69.6582 52.9439 70.271C53.4519 71.0188 54.0968 71.6637 54.8446 72.1717C55.3957 72.4892 56.0501 72.5755 56.6645 72.4116C57.279 72.2477 57.8036 71.8471 58.1234 71.2974Z" fill="black"/>
<path d="M53.5963 74.9363L52.2753 74.8792C51.8339 74.8107 51.382 74.8701 50.9733 75.0503C50.9002 75.0917 50.8394 75.1519 50.797 75.2245C50.7547 75.2971 50.7324 75.3796 50.7324 75.4637C50.7324 75.5478 50.7547 75.6303 50.797 75.7029C50.8394 75.7756 50.9002 75.8357 50.9733 75.8771C51.5862 76.3346 52.2494 76.7204 52.95 77.027C53.0498 77.0845 53.1667 77.1045 53.2799 77.0836C53.3931 77.0627 53.4951 77.0023 53.5678 76.913C53.6421 76.8254 53.6829 76.7143 53.6829 76.5994C53.6829 76.4845 53.6421 76.3734 53.5678 76.2858L52.7505 75.3354L52.4179 76.1527L53.7198 76.2668C53.8451 76.2643 53.9646 76.2135 54.0531 76.1249C54.1417 76.0363 54.1926 75.9168 54.195 75.7916C54.1926 75.6663 54.1417 75.5469 54.0531 75.4583C53.9646 75.3697 53.8451 75.3188 53.7198 75.3164L52.4179 75.2024C52.3248 75.2008 52.2335 75.2271 52.1556 75.2779C52.0777 75.3287 52.0167 75.4017 51.9807 75.4875C51.9462 75.5748 51.9369 75.67 51.9537 75.7624C51.9705 75.8547 52.0127 75.9406 52.0757 76.0102L52.893 76.913L53.4727 76.1622C52.7707 75.8544 52.1073 75.4653 51.496 75.0028V75.8296H51.5625H51.6956C51.6196 75.8296 51.6956 75.8296 51.6956 75.8296H51.8191H52.3988L53.6533 75.8866C53.7786 75.8842 53.898 75.8333 53.9866 75.7448C54.0752 75.6562 54.1261 75.5367 54.1285 75.4114C54.1261 75.2862 54.0752 75.1667 53.9866 75.0781C53.898 74.9895 53.7786 74.9387 53.6533 74.9363H53.5963Z" fill="#B7B7B7"/>
<path d="M246.26 252.224C247.942 249.677 246.374 246.702 243.941 245.239C242.412 244.475 240.823 243.839 239.189 243.338C238.445 243.106 237.763 242.709 237.193 242.178C236.914 241.842 236.75 241.424 236.728 240.987C236.706 240.55 236.826 240.118 237.07 239.755C237.241 239.422 237.431 239.099 237.63 238.805C237.516 238.957 237.383 239.09 237.269 239.242C236.129 240.734 235.435 242.359 236.652 244.079C238.4 246.531 241.841 246.236 244.017 248.147C245.267 249.161 246.072 250.624 246.26 252.224Z" fill="black"/>
<path d="M90.0729 56.7537C89.4076 53.3704 87.64 50.1012 84.5133 48.3715C84.4679 48.3466 84.4176 48.332 84.366 48.3288C84.3144 48.3256 84.2626 48.3338 84.2145 48.3528C84.1664 48.3719 84.1231 48.4014 84.0877 48.4391C84.0523 48.4768 84.0256 48.5219 84.0096 48.5711C84.0065 48.5995 84.0065 48.6282 84.0096 48.6566C83.4649 50.065 82.4743 51.2565 81.1891 52.0493C79.9038 52.842 78.3945 53.1925 76.8915 53.0473C75.8585 52.8895 74.8495 52.6022 73.8883 52.192C73.0269 51.8309 72.0783 51.7318 71.1608 51.9069C70.3593 52.162 69.6451 52.636 69.0986 53.2754C68.52 54.0532 67.8463 54.7556 67.0933 55.3661C66.8749 55.5239 66.6263 55.6349 66.363 55.6921C66.0997 55.7493 65.8274 55.7516 65.5632 55.6988C65.4259 55.6679 65.2962 55.6094 65.1823 55.5267C65.0683 55.4441 64.9723 55.3391 64.9003 55.2181C64.8282 55.0972 64.7816 54.9628 64.7633 54.8232C64.7449 54.6836 64.7552 54.5418 64.7935 54.4063C64.8177 54.3219 64.8085 54.2313 64.7678 54.1535C64.7271 54.0757 64.658 54.0165 64.5749 53.9881C64.5386 53.9281 64.4857 53.8799 64.4225 53.8495C64.3593 53.8191 64.2886 53.8077 64.2191 53.8168C64.1495 53.8259 64.0842 53.855 64.0309 53.9006C63.9776 53.9462 63.9388 54.0063 63.9191 54.0737C63.0005 57.5646 62.0026 61.0493 60.9255 64.5276C60.6784 65.3259 60.4218 66.1337 60.1557 66.9415C60.0417 67.3026 59.9181 67.6637 59.8041 68.0344C59.7376 68.2339 59.671 68.443 59.595 68.6331C59.5483 68.8204 59.4415 68.9873 59.2909 69.1083C59.0533 69.1083 58.9298 69.0037 58.9393 68.7947C58.8291 68.4462 58.762 68.0855 58.7397 67.7207C58.6542 67.2931 58.5686 66.8654 58.4736 66.4378C58.293 65.5825 58.084 64.7366 57.8559 63.8908C57.4329 62.2723 56.8995 60.6846 56.2593 59.1391C55.7746 57.9701 55.2424 56.402 53.9024 55.9744C52.5624 55.5467 51.5645 56.7156 51.0513 57.8751C50.5072 59.2344 50.3494 60.7177 50.5952 62.1612C51.107 65.3329 52.6581 68.2446 55.0048 70.4388C54.0545 72.4725 53.2086 74.5538 52.4389 76.6636C52.4124 76.7276 52.4093 76.7989 52.4302 76.8649C52.451 76.9309 52.4945 76.9875 52.5529 77.0247C52.5793 77.0751 52.6148 77.1202 52.6574 77.1578C57.1621 80.7121 61.7555 84.1524 66.4376 87.4786H66.4851C66.124 88.7141 65.7248 89.9305 65.2686 91.1375C65.2487 91.2078 65.2518 91.2826 65.2774 91.351C65.3031 91.4194 65.35 91.4778 65.4112 91.5176C65.4346 91.5672 65.4707 91.6098 65.5157 91.6412C67.8468 93.3604 70.6341 94.3524 73.5272 94.4922C73.5808 94.4964 73.6346 94.4863 73.683 94.4629C73.7314 94.4395 73.7727 94.4037 73.8028 94.3592C73.8489 94.3294 73.887 94.2886 73.9135 94.2405C73.94 94.1924 73.9542 94.1385 73.9549 94.0836C74.0499 91.9674 74.1291 89.8513 74.1925 87.7352C77.1509 88.238 80.1912 87.6468 82.7456 86.0721C85.3401 84.3044 86.6516 81.3203 87.6685 78.4693C88.909 75.0185 89.7539 71.4381 90.1869 67.7968C90.7286 64.1326 90.6901 60.4059 90.0729 56.7537Z" fill="#16205B"/>
<path d="M71.8833 86.1477C70.6707 85.2499 69.5643 84.2168 68.5856 83.0685C66.6817 80.8412 65.2754 78.2329 64.461 75.4182C64.461 75.3516 64.461 75.2851 64.461 75.2091C64.4692 75.1587 64.4609 75.1071 64.4374 75.0619C64.414 75.0166 64.3766 74.9801 64.3308 74.9577C64.2849 74.9353 64.2331 74.9283 64.183 74.9376C64.1329 74.9469 64.0871 74.9722 64.0524 75.0095C64.0221 75.0159 63.9934 75.0287 63.9684 75.047C63.9434 75.0653 63.9226 75.0887 63.9073 75.1156C63.892 75.1426 63.8827 75.1725 63.8798 75.2034C63.877 75.2342 63.8807 75.2653 63.8908 75.2946C63.8908 75.3516 63.8908 75.3992 63.8908 75.4562C63.6601 77.3065 63.8385 79.1849 64.4135 80.9587C64.99 82.9479 65.7504 84.8792 66.6849 86.7274C68.1856 89.8269 70.481 92.4732 73.3373 94.3967H73.4704C73.524 94.4009 73.5777 94.3908 73.6262 94.3674C73.6746 94.344 73.7159 94.3082 73.746 94.2637C73.7921 94.2339 73.8302 94.1931 73.8567 94.145C73.8832 94.0969 73.8974 94.043 73.8981 93.9881C73.9931 91.872 74.0723 89.7558 74.1356 87.6397L74.6488 87.6872C73.6528 87.3204 72.7198 86.801 71.8833 86.1477Z" fill="black"/>
<path d="M85.5403 49.0273C85.2127 48.7868 84.8698 48.5678 84.5139 48.3715C84.4686 48.3466 84.4183 48.332 84.3666 48.3288C84.315 48.3256 84.2632 48.3338 84.2151 48.3528C84.167 48.3719 84.1237 48.4014 84.0883 48.4391C84.0529 48.4768 84.0262 48.5219 84.0102 48.5711C84.0071 48.5995 84.0071 48.6282 84.0102 48.6566C83.4655 50.065 82.4749 51.2565 81.1897 52.0493C79.9044 52.842 78.3951 53.1925 76.8921 53.0473C75.8591 52.8895 74.8501 52.6022 73.889 52.192C73.0276 51.8309 72.0789 51.7318 71.1614 51.9069C70.851 51.9892 70.5558 52.1207 70.2871 52.2965C70.8799 52.0775 71.5139 51.9928 72.1434 52.0487C72.7728 52.1046 73.382 52.2996 73.927 52.6196C76.4739 53.8076 78.8403 54.5203 81.5298 53.2469C83.3273 52.3639 84.7498 50.8673 85.5403 49.0273Z" fill="black"/>
<path d="M64.5306 53.9878C64.4943 53.9278 64.4413 53.8796 64.3782 53.8492C64.315 53.8187 64.2443 53.8074 64.1748 53.8164C64.1052 53.8255 64.0398 53.8546 63.9866 53.9002C63.9333 53.9459 63.8945 54.006 63.8748 54.0733C63.8083 54.3394 63.7228 54.6055 63.6562 54.8716C63.8333 55.4105 64.1635 55.886 64.6066 56.2401C65.0521 56.5063 65.5731 56.618 66.0886 56.5579C66.6041 56.4977 67.0854 56.2691 67.4577 55.9075C68.237 55.2137 68.484 54.1588 69.0448 53.332C68.4845 54.0931 67.8263 54.777 67.087 55.3658C66.8686 55.5235 66.62 55.6345 66.3567 55.6917C66.0934 55.749 65.8212 55.7512 65.557 55.6984C65.4196 55.6676 65.29 55.609 65.176 55.5264C65.062 55.4437 64.966 55.3387 64.894 55.2178C64.822 55.0968 64.7753 54.9624 64.757 54.8229C64.7386 54.6833 64.7489 54.5414 64.7872 54.4059C64.7984 54.3616 64.8007 54.3155 64.7939 54.2702C64.787 54.225 64.7711 54.1816 64.7472 54.1427C64.7233 54.1037 64.6918 54.0699 64.6546 54.0433C64.6174 54.0167 64.5752 53.9978 64.5306 53.9878Z" fill="black"/>
<path d="M128.239 146.21C125.711 141.078 121.71 136.859 118.982 131.85C116.228 126.784 114.506 121.222 113.917 115.485C113.318 109.603 114.326 103.644 113.404 97.7897C112.644 92.9429 110.382 88.2292 105.925 85.8153C101.962 83.658 97.1433 83.5629 92.8382 84.6368C87.9914 85.8533 84.0475 88.9134 79.7044 91.2323C77.5207 92.5198 75.0875 93.3265 72.5672 93.5987C71.2818 93.694 69.9902 93.5358 68.7658 93.133C67.5265 92.6581 66.3714 91.9875 65.3445 91.1468C60.7828 87.6875 56.6488 83.7055 52.0396 80.2462C49.7585 78.4545 47.3259 76.8646 44.7694 75.4944C42.3397 74.2361 39.7725 73.2634 37.119 72.5959C31.7305 71.2368 25.6292 70.9232 20.3358 72.8619C11.4404 76.1122 6.94527 85.3306 4.47435 93.8648C2.92756 99.367 1.79349 104.977 1.08158 110.648C0.300572 116.673 -0.0582706 122.744 0.00768066 128.819C0.0481969 134.894 0.508633 140.959 1.38569 146.971C1.82286 149.917 2.33605 152.863 3.0013 155.771C3.57748 158.587 4.48671 161.324 5.7098 163.925C7.92413 168.392 11.7826 172.269 16.848 173.124C19.7288 173.486 22.6491 173.38 25.4962 172.811C28.5278 172.354 31.5309 171.746 34.496 171.005C34.8382 170.919 35.1708 170.815 35.5034 170.72C37.043 174.065 34.7811 178.057 36.2257 181.487C37.7462 185.089 41.9278 186.097 45.4061 186.401C45.4769 186.408 45.5485 186.398 45.614 186.37C45.6796 186.342 45.737 186.298 45.7808 186.242C45.8246 186.186 45.8533 186.12 45.8642 186.049C45.8752 185.979 45.8679 185.907 45.8433 185.84C45.9049 185.788 45.9483 185.717 45.9671 185.639C45.9859 185.56 45.9791 185.477 45.9478 185.403C44.6622 182.103 43.7351 178.675 43.1823 175.177C48.8179 168.829 57.0669 165.816 64.9549 163.288C69.8682 161.711 74.8005 160.18 79.7234 158.622C84.4751 157.12 89.2269 155.695 93.8836 153.994C98.5234 152.392 102.983 150.309 107.189 147.778C110.828 150.216 115.013 151.718 119.372 152.15C120.661 152.275 121.957 152.3 123.25 152.226C124.442 152.208 125.627 152.035 126.775 151.713C127.274 151.581 127.733 151.328 128.111 150.977C128.489 150.626 128.775 150.186 128.942 149.698C129.143 148.489 128.892 147.248 128.239 146.21Z" fill="#0075E7"/>
<path d="M114.459 151.209C114.769 150.787 114.978 150.299 115.068 149.783C115.159 149.267 115.129 148.737 114.982 148.234C114.545 146.938 113.743 145.797 112.672 144.946C111.499 143.908 110.438 142.748 109.508 141.487C108.602 140.152 107.816 138.74 107.16 137.267C107.037 136.992 106.628 137.267 106.752 137.514C107.83 140.066 109.384 142.388 111.332 144.357C112.395 145.21 113.33 146.212 114.107 147.331C114.476 147.887 114.661 148.544 114.637 149.211C114.614 149.877 114.382 150.519 113.974 151.047L114.459 151.209Z" fill="#E1EAF9"/>
<path d="M80.8919 113.006L83.9521 147.969C83.9838 148.336 84.0911 148.693 84.2672 149.016C84.4433 149.34 84.6844 149.623 84.9753 149.849C85.2663 150.075 85.6008 150.238 85.9579 150.328C86.315 150.419 86.6869 150.434 87.0502 150.374L105.202 147.371C106.163 147.211 107.033 146.706 107.648 145.95C108.262 145.193 108.579 144.239 108.538 143.265L107.065 108.473C107.025 107.568 106.783 106.683 106.357 105.884C105.931 105.085 105.331 104.391 104.602 103.853C103.873 103.316 103.033 102.948 102.144 102.777C101.255 102.606 100.338 102.636 99.4618 102.865L85.3776 106.667C84.0035 107.027 82.8003 107.859 81.9798 109.019C81.1592 110.178 80.774 111.59 80.8919 113.006Z" fill="#F15928"/>
<path d="M86.8492 149.768L83.789 114.805C83.667 113.39 84.0467 111.978 84.8617 110.815C85.6767 109.653 86.8749 108.814 88.2462 108.447L102.321 104.645C103.369 104.36 104.475 104.36 105.524 104.645C104.775 103.807 103.808 103.193 102.73 102.873C101.653 102.552 100.508 102.538 99.4224 102.83L85.3381 106.632C83.9676 106.999 82.7704 107.838 81.957 109.001C81.1436 110.164 80.766 111.576 80.8905 112.99L83.9506 147.953C83.9819 148.314 84.0865 148.665 84.2579 148.985C84.4293 149.304 84.664 149.586 84.9477 149.812C85.2313 150.037 85.558 150.203 85.9078 150.299C86.2576 150.394 86.6231 150.417 86.9822 150.367C86.9149 150.173 86.8702 149.972 86.8492 149.768Z" fill="#D6390F"/>
<path d="M44.3119 98.0657C44.1888 109.12 42.6494 120.114 39.7312 130.777C38.8949 133.799 37.9445 136.789 36.8801 139.748C36.7851 140.043 37.2413 140.166 37.3458 139.881C41.0405 129.417 43.3816 118.523 44.3119 107.465C44.578 104.338 44.7205 101.202 44.7586 98.0657C44.7586 98.0027 44.7335 97.9423 44.689 97.8977C44.6444 97.8532 44.584 97.8281 44.521 97.8281C44.458 97.8281 44.3975 97.8532 44.353 97.8977C44.3084 97.9423 44.2834 98.0027 44.2834 98.0657H44.3119Z" fill="#E1EAF9"/>
<path d="M27.9095 145.805C30.775 143.287 34.1098 141.36 37.7224 140.135C41.3349 138.91 45.1539 138.412 48.9599 138.667C51.1253 138.813 53.2659 139.215 55.3368 139.865C55.3972 139.883 55.4623 139.875 55.5175 139.845C55.5728 139.815 55.6137 139.764 55.6314 139.703C55.649 139.643 55.6419 139.578 55.6116 139.523C55.5813 139.467 55.5303 139.426 55.4698 139.409C51.7423 138.279 47.8273 137.901 43.9525 138.297C40.0776 138.694 36.3203 139.856 32.8989 141.718C30.9797 142.773 29.1904 144.049 27.5674 145.52C27.3393 145.729 27.6814 146.061 27.9095 145.862V145.805Z" fill="#E1EAF9"/>
<path d="M118.092 144.492C117.661 144.935 117.327 145.462 117.11 146.04C116.893 146.619 116.798 147.236 116.831 147.852C116.864 148.469 117.024 149.073 117.302 149.624C117.579 150.176 117.968 150.665 118.443 151.059C120.391 152.571 122.857 153.253 125.305 152.96C129.639 152.598 134.409 150.783 136.215 146.516C136.716 145.401 136.924 144.176 136.817 142.959C136.711 141.741 136.294 140.571 135.607 139.56L131.872 142.411C131.872 142.411 132.252 142.857 132.081 142.61C131.91 142.363 132.176 142.81 132.214 142.867C132.433 143.218 132.214 142.686 132.214 142.924C132.214 143.161 132.309 143.247 132.347 143.399C132.385 143.551 132.347 143.551 132.347 143.352C132.347 143.523 132.347 143.684 132.347 143.855C132.347 144.026 132.347 144.254 132.347 143.922C132.347 144.093 132.281 144.254 132.243 144.416C132.205 144.577 132.138 144.739 132.091 144.901C132.148 144.692 132.205 144.673 132.091 144.901L131.777 145.423C131.9 145.224 131.872 145.328 131.777 145.423C131.538 145.7 131.274 145.955 130.988 146.184C131.254 145.975 130.988 146.184 130.855 146.26L130.38 146.535L129.99 146.744C129.373 147.048 130.209 146.668 129.838 146.801C129.489 146.931 129.134 147.042 128.774 147.134L128.232 147.248C128.175 147.248 127.595 147.343 127.88 147.315C128.166 147.286 127.5 147.315 127.51 147.315H127.054C126.674 147.315 126.284 147.315 125.904 147.315C126.255 147.315 125.904 147.315 125.752 147.315L125.191 147.191L124.763 147.058C124.108 146.858 124.944 147.162 124.592 147.001C124.218 146.822 123.858 146.612 123.518 146.374L121.694 150.717C124.296 151.122 126.96 150.763 129.363 149.684C131.765 148.604 133.802 146.85 135.227 144.635C135.54 144.087 135.626 143.439 135.466 142.83C135.306 142.22 134.913 141.698 134.371 141.375C133.824 141.072 133.18 140.992 132.575 141.151C131.97 141.31 131.449 141.697 131.121 142.23C130.969 142.468 130.817 142.705 130.655 142.933C130.941 142.534 130.522 143.066 130.494 143.104C130.17 143.473 129.82 143.819 129.449 144.14C129.354 144.226 128.945 144.53 129.277 144.292L128.574 144.768C128.187 145.007 127.787 145.225 127.377 145.423L127.092 145.556C127.329 145.452 127.329 145.452 127.092 145.556L126.493 145.765C126.018 145.908 125.543 146.013 125.058 146.108C124.573 146.203 125.381 146.108 124.858 146.108C124.573 146.108 124.298 146.108 124.022 146.108H123.385C123.281 146.108 122.435 146.003 122.977 146.108C122.422 145.972 121.837 146.035 121.324 146.287C120.812 146.539 120.404 146.963 120.173 147.486C119.954 148.012 119.929 148.6 120.103 149.143C120.278 149.686 120.639 150.149 121.123 150.451C124.554 152.874 129.905 152.617 133.345 150.318C134.262 149.75 135.054 149.002 135.675 148.12C136.295 147.239 136.731 146.24 136.956 145.186C137.188 144.098 137.15 142.97 136.847 141.901C136.544 140.831 135.985 139.851 135.217 139.046C134.806 138.644 134.262 138.404 133.688 138.371C133.113 138.338 132.546 138.514 132.091 138.866C131.632 139.213 131.317 139.716 131.204 140.28C131.092 140.844 131.191 141.43 131.482 141.926C131.606 142.088 131.701 142.268 131.824 142.43C132.129 142.829 131.824 142.154 131.919 142.591C131.976 142.791 132.015 142.981 132.072 143.18C131.929 142.696 132.072 143.18 132.072 143.352C132.072 143.523 132.072 143.76 132.072 143.96C132.072 143.437 132.072 144.036 132.014 144.15C131.957 144.264 131.9 144.549 131.834 144.749C131.957 144.359 131.834 144.796 131.739 144.939C131.644 145.081 131.53 145.3 131.416 145.471C131.169 145.87 131.634 145.3 131.245 145.67C131.083 145.822 130.941 145.994 130.77 146.146C130.598 146.298 130.285 146.545 130.494 146.383L130.095 146.649C129.905 146.773 129.705 146.877 129.506 146.991L128.897 147.286C128.745 147.353 128.755 147.353 128.897 147.286L128.574 147.41C127.72 147.715 126.843 147.95 125.951 148.113C125.162 148.265 126.341 148.113 125.533 148.179L124.754 148.236C124.488 148.236 124.231 148.236 123.965 148.236C123.965 148.236 123.205 148.179 123.566 148.236C123.049 148.165 122.542 148.034 122.055 147.847C122.444 147.999 121.931 147.761 121.827 147.714C121.38 147.514 122.074 147.828 121.608 147.571L121.456 147.41C121.608 147.619 121.608 147.6 121.456 147.41L121.551 147.628C121.494 147.41 121.485 147.391 121.551 147.628C121.618 147.866 121.551 147.799 121.551 147.571C121.494 147.856 121.494 147.913 121.551 147.742C121.608 147.571 121.551 147.619 121.485 147.885C121.418 148.151 121.276 148.141 121.485 147.951C121.927 147.503 122.175 146.899 122.175 146.269C122.175 145.639 121.927 145.035 121.485 144.587C121.033 144.154 120.432 143.913 119.807 143.913C119.182 143.913 118.581 144.154 118.13 144.587L118.092 144.492Z" fill="white"/>
<path d="M133.761 127.435C133.298 125.327 132.61 123.275 131.708 121.314C130.69 119.456 129.207 117.894 127.403 116.781C123.326 113.987 119.277 111.127 115.105 108.475C114.105 107.822 113.068 107.229 111.998 106.698C111.342 106.384 110.439 106.08 109.878 106.698C108.757 108 110.829 110.015 111.637 110.861C114.573 113.959 118.441 116.211 120.675 119.946C120.912 120.343 121.121 120.756 121.302 121.181C119.506 119.623 117.852 117.855 115.704 116.791C114.379 116.19 112.974 115.783 111.532 115.584C109.974 115.318 108.396 115.118 106.78 115.004C105.754 114.928 104.214 114.624 103.359 115.403C102.504 116.182 102.988 117.304 103.701 117.903C104.751 118.673 105.953 119.21 107.227 119.48C108.677 119.837 110.085 120.347 111.428 121.001C112.908 121.936 114.221 123.112 115.315 124.479C116.426 125.715 117.472 127.017 118.47 128.357C115.951 127.71 113.718 126.228 111.38 125.211C110.18 124.669 108.892 124.348 107.579 124.26C106.033 124.239 104.496 124.503 103.045 125.04C101.962 125.401 100.337 125.743 99.6147 126.741C99.4898 126.959 99.4093 127.2 99.3781 127.449C99.3468 127.698 99.3653 127.951 99.4324 128.194C99.4996 128.436 99.6141 128.662 99.7694 128.86C99.9246 129.057 100.118 129.222 100.337 129.345C102.599 130.97 105.849 130.039 108.405 130.01C110.109 129.962 111.78 130.48 113.157 131.483C114.108 132.139 115.058 132.823 116.008 133.507C112.684 132.115 109.1 131.453 105.497 131.569C104.671 131.569 103.597 131.645 103.169 132.453C103.085 132.604 103.033 132.771 103.016 132.944C103 133.117 103.019 133.291 103.072 133.456C103.126 133.62 103.212 133.773 103.327 133.902C103.442 134.032 103.582 134.137 103.739 134.211C105.497 135.332 107.826 135.104 109.755 135.798C113.784 137.261 115.058 141.956 117.358 145.111C118.342 146.649 119.812 147.812 121.535 148.417C123.257 149.022 125.132 149.032 126.861 148.447C130.558 147.345 133.058 144.18 134.17 140.588C135.538 136.282 134.873 131.711 133.761 127.435Z" fill="#16205B"/>
<path d="M62.1143 157.141C61.3731 161.645 56.8589 163.736 53.0575 165.19C48.6668 166.863 44.2128 168.352 39.6955 169.657C38.308 170.066 36.9205 170.446 35.5234 170.807C35.5805 170.959 35.647 171.101 35.6945 171.253C39.2773 170.303 42.8222 169.267 46.329 168.089C48.6668 167.309 50.9825 166.483 53.2761 165.608C55.3741 164.902 57.3564 163.89 59.1587 162.605C60.9254 161.32 62.1434 159.416 62.5705 157.274C62.618 156.97 62.1619 156.846 62.1143 157.141Z" fill="#E1EAF9"/>
<path d="M105.879 116.97C106.181 116.901 106.445 116.722 106.621 116.467C106.708 116.319 106.746 116.148 106.731 115.978C106.716 115.807 106.647 115.646 106.535 115.516C106.304 115.294 106 115.166 105.68 115.155C105.404 115.155 105.119 115.089 104.834 115.07C104.657 115.06 104.479 115.06 104.302 115.07C103.951 115.121 103.622 115.269 103.351 115.497C103.174 115.649 103.042 115.846 102.968 116.067C102.895 116.288 102.882 116.525 102.933 116.752C103.313 116.847 103.703 116.932 104.093 116.989C104.683 117.104 105.291 117.097 105.879 116.97Z" fill="white"/>
<path d="M89.4532 117.38L96.0391 115.631C96.6466 115.464 97.1625 115.061 97.4735 114.513C97.7845 113.965 97.8651 113.316 97.6975 112.709C97.5299 112.101 97.1278 111.585 96.5798 111.274C96.0317 110.963 95.3826 110.883 94.7751 111.05L88.1892 112.799C87.5865 112.972 87.0757 113.375 86.7665 113.92C86.4573 114.466 86.3744 115.111 86.5356 115.717C86.7108 116.318 87.1133 116.828 87.6577 117.139C88.2022 117.449 88.8461 117.536 89.4532 117.38Z" fill="#D6390F"/>
<path d="M103.4 115.441C103.167 115.651 103.014 115.935 102.966 116.245C102.917 116.554 102.977 116.871 103.134 117.142C104.008 116.439 104.854 115.698 105.671 114.937C104.877 114.804 104.063 114.985 103.4 115.441Z" fill="black"/>
<path d="M110.904 125.046C110.466 124.87 110.018 124.718 109.564 124.59C107.91 127.27 102.607 126.719 99.6612 126.738C99.5128 126.938 99.4161 127.173 99.3796 127.42C99.3431 127.666 99.368 127.919 99.4521 128.154C103.177 128.068 108.842 128.8 110.904 125.046Z" fill="black"/>
<path d="M62.3899 136.547C59.7954 135.397 56.4502 135.406 54.4544 137.735C52.4587 140.063 52.7913 143.817 53.238 146.734C53.6469 149.522 54.6764 152.182 56.2506 154.518C57.9517 156.96 60.5652 159.612 63.8059 159.27C64.7415 159.151 65.6331 158.803 66.401 158.256C67.169 157.709 67.7891 156.979 68.2061 156.133C68.9624 154.368 69.2378 152.433 69.0043 150.526C68.9925 150.008 68.817 149.506 68.503 149.093C68.1889 148.68 67.7524 148.377 67.2557 148.227C66.7509 148.093 66.2163 148.127 65.7328 148.325C65.2493 148.522 64.8432 148.871 64.5757 149.319C64.106 150.426 63.3189 151.368 62.3139 152.028L63.5113 151.705H63.2262L64.4236 152.028C64.8513 152.56 64.9653 152.674 64.7563 152.37C64.6707 152.247 64.5852 152.113 64.5092 151.98C64.4332 151.847 64.2336 151.534 64.11 151.315C63.8249 150.821 63.5588 150.317 63.3117 149.804C62.8781 148.861 62.5191 147.886 62.2378 146.887C61.6431 144.799 61.3864 142.63 61.4775 140.462H56.7258C56.7845 142.734 57.1034 144.991 57.6761 147.191C58.1798 149.262 58.6265 151.334 60.0995 152.959C60.3149 153.2 60.5772 153.395 60.8704 153.531C61.1635 153.667 61.4813 153.742 61.8044 153.751C62.1275 153.76 62.449 153.703 62.7493 153.583C63.0496 153.464 63.3223 153.284 63.5509 153.056C63.7794 152.827 63.9589 152.555 64.0784 152.254C64.1979 151.954 64.2549 151.632 64.2458 151.309C64.2368 150.986 64.1619 150.669 64.0258 150.375C63.8897 150.082 63.6952 149.82 63.4543 149.605C63.1493 149.167 62.9359 148.673 62.827 148.15C62.5895 147.305 62.3804 146.449 62.1713 145.594C61.7341 143.916 61.4854 142.195 61.43 140.462C61.3825 137.402 56.7828 137.412 56.6783 140.462C56.5467 144.625 57.4478 148.755 59.3012 152.484C60.2516 154.48 61.6866 157.236 64.3761 156.219C66.2198 155.506 67.7974 153.368 68.6337 151.686L64.2051 150.488C64.2716 151.269 64.2716 152.055 64.2051 152.836C64.1764 153.216 64.0731 153.588 63.901 153.929C63.8338 154.113 63.7109 154.273 63.5493 154.385C63.5493 154.385 63.2072 154.556 63.3783 154.499C63.5493 154.442 62.9696 154.499 63.2642 154.546C63.2072 154.546 62.7035 154.394 62.7605 154.413C60.8598 153.625 59.4628 151.097 58.7785 149.367C57.8938 147.122 57.4922 144.716 57.6001 142.306C57.5852 141.848 57.6628 141.393 57.8282 140.966C57.7427 141.175 58.0658 140.557 57.8947 140.89C58.1038 140.7 58.1133 140.671 57.9422 140.804C58.0686 140.717 58.2021 140.641 58.3414 140.576C57.9897 140.738 58.598 140.519 58.6645 140.5C59.1492 140.377 58.4839 140.434 58.9876 140.5C59.0541 140.5 59.7289 140.576 59.3297 140.5C59.4343 140.5 60.2801 140.776 59.919 140.633C60.4672 140.934 61.1099 141.013 61.7146 140.853C62.3192 140.694 62.8399 140.309 63.1692 139.778C63.4844 139.233 63.5713 138.585 63.4111 137.977C63.2509 137.368 62.8565 136.847 62.3139 136.528L62.3899 136.547Z" fill="white"/>
<path d="M102.161 129.723C103.074 129.857 103.978 130.044 104.869 130.284C105.934 130.217 106.998 130.075 107.986 130.027C106.295 129.124 104.447 128.553 102.541 128.345C101.638 128.212 101.258 129.571 102.161 129.723Z" fill="black"/>
<path d="M106.649 131.559C105.687 131.911 104.658 132.048 103.637 131.958C103.442 132.083 103.279 132.252 103.162 132.452C103.072 132.592 103.016 132.75 102.996 132.914C102.976 133.079 102.994 133.245 103.048 133.402C104.948 133.355 107.438 133.535 108.569 131.787C108.612 131.761 108.65 131.729 108.683 131.692C108.008 131.616 107.324 131.568 106.649 131.559Z" fill="black"/>
<path d="M109.652 123.793C109.334 123.445 108.916 123.205 108.454 123.109C107.732 122.909 106.972 122.785 106.231 122.652C102.993 122.094 99.7013 121.918 96.4229 122.13C98.2001 120.628 99.9582 119.117 101.669 117.54C102.936 116.355 104.203 115.145 105.47 113.909C106.212 113.187 107.875 112.008 107.609 110.754C107.342 109.5 105.508 109.68 104.605 109.946C103.044 110.513 101.528 111.199 100.072 111.999C96.8664 113.539 93.6986 115.122 90.5687 116.751C87.572 118.29 84.6005 119.874 81.6544 121.503C81.5404 120.277 81.4168 119.06 81.3028 117.834C81.3028 117.692 81.1887 117.578 81.0462 117.578C81.012 117.568 80.9759 117.568 80.9417 117.578L80.8846 117.635C76.8361 123.65 69.6895 126.102 64.6716 131.092C62.2001 133.42 60.6117 136.534 60.1764 139.901C59.9195 143.699 60.6668 147.498 62.3432 150.916C62.7424 151.819 63.17 152.703 63.6167 153.577C63.9383 154.339 64.3847 155.043 64.9377 155.658C66.1256 156.818 68.1974 156.732 69.7465 156.675C73.2187 156.539 76.578 155.404 79.4211 153.406C82.4242 151.268 84.5625 148.217 87.1285 145.613C89.8702 142.993 92.7745 140.549 95.8242 138.295C97.3353 137.098 98.8368 135.881 100.262 134.579C100.85 134.046 101.405 133.478 101.925 132.878L102.439 132.812C103.446 132.707 104.453 132.679 105.461 132.612C106.298 132.647 107.134 132.504 107.913 132.194C108.025 132.135 108.124 132.055 108.205 131.957C108.285 131.859 108.345 131.746 108.381 131.625C108.418 131.504 108.429 131.376 108.416 131.251C108.402 131.125 108.364 131.003 108.302 130.892C107.828 130.296 107.191 129.85 106.468 129.609C104.807 128.808 103.055 128.211 101.251 127.832C100.757 127.731 100.262 127.645 99.7682 127.575C101.051 127.366 102.334 127.176 103.57 126.986L105.945 126.625C106.785 126.53 107.617 126.377 108.435 126.169C109.395 125.912 110.488 124.81 109.652 123.793Z" fill="#16205B"/>
<path d="M102.644 129.457C101.547 129.477 100.469 129.744 99.4885 130.236C99.3989 130.289 99.329 130.37 99.2895 130.466C99.2501 130.562 99.2432 130.668 99.2699 130.769C99.3442 130.956 99.4763 131.116 99.6472 131.223C99.8181 131.331 100.019 131.381 100.22 131.367C100.661 131.354 101.1 131.303 101.532 131.215C101.932 131.139 102.323 131.025 102.701 130.873C102.819 130.838 102.928 130.774 103.017 130.688C103.106 130.602 103.174 130.496 103.214 130.379C103.236 130.308 103.243 130.234 103.236 130.161C103.228 130.088 103.206 130.016 103.171 129.952C103.135 129.887 103.087 129.83 103.029 129.784C102.971 129.739 102.905 129.705 102.834 129.685C102.712 129.653 102.582 129.67 102.472 129.732C102.361 129.794 102.28 129.897 102.245 130.018C102.217 130.14 102.236 130.268 102.297 130.377C102.359 130.486 102.458 130.568 102.577 130.607L102.368 130.493L102.321 130.427L102.254 130.189C102.254 130.084 102.321 130.056 102.359 129.98C102.397 129.904 102.406 129.98 102.359 129.98H102.254L101.883 130.103C101.627 130.178 101.367 130.238 101.104 130.284C100.862 130.325 100.618 130.351 100.372 130.36H100.173C100.173 130.36 100.03 130.36 100.173 130.36H100.106C100.049 130.36 100.059 130.36 100.106 130.36C100.154 130.36 100.106 130.36 100.106 130.36C100.106 130.36 100.192 130.531 100.173 130.455L99.9542 130.987C100.787 130.579 101.698 130.359 102.625 130.341C102.751 130.341 102.872 130.291 102.961 130.202C103.05 130.113 103.1 129.992 103.1 129.866C103.097 129.741 103.047 129.621 102.958 129.532C102.869 129.444 102.75 129.393 102.625 129.391L102.644 129.457Z" fill="white"/>
<path d="M71.4058 156.551L71.3393 156.494C68.0571 154.202 65.4074 151.117 63.6363 147.527C61.8652 143.936 61.0301 139.957 61.2085 135.957C60.6359 137.219 60.264 138.562 60.1061 139.939C59.8492 143.737 60.5965 147.536 62.2729 150.954C62.6721 151.856 63.0997 152.74 63.5464 153.615C63.8679 154.377 64.3144 155.08 64.8674 155.696C66.0553 156.855 68.1271 156.77 69.6762 156.713C70.2559 156.722 70.8356 156.627 71.4058 156.551Z" fill="black"/>
<path d="M101.611 129.446C100.754 129.56 99.9178 129.8 99.1309 130.159C95.8386 131.567 92.8671 133.63 90.3971 136.222C90.2926 136.327 90.4541 136.498 90.5587 136.384C92.5744 134.283 94.9212 132.527 97.5058 131.185C98.8535 130.369 100.36 129.851 101.925 129.665C102.514 129.665 103.331 129.807 103.189 130.615C103.094 130.958 102.936 131.281 102.723 131.566C102.305 132.212 101.849 132.83 101.374 133.466C101.535 133.286 101.706 133.124 101.858 132.944H102.096C102.429 132.497 102.752 132.041 103.046 131.566C103.225 131.349 103.346 131.091 103.399 130.815C103.452 130.54 103.435 130.255 103.35 129.988C103.027 129.332 102.172 129.389 101.611 129.446Z" fill="black"/>
<path d="M96.4222 122.13L96.6313 121.949C92.7973 122.44 89.0377 123.397 85.4361 124.8C85.2935 124.857 85.3506 125.085 85.4931 125.028C89.3919 123.524 93.4727 122.543 97.6291 122.111L96.4222 122.13Z" fill="black"/>
<path d="M99.6995 127.612L100.498 127.488C96.2234 127.621 92.0204 128.62 88.1432 130.425C88.0102 130.491 88.1432 130.691 88.2668 130.624C92.0576 128.873 96.1625 127.903 100.336 127.773L99.6995 127.612Z" fill="black"/>
<path d="M102.332 111.4C102.332 112.208 103.121 112.512 103.796 112.436C104.54 112.352 105.269 112.167 105.962 111.885C106.579 111.668 107.138 111.314 107.597 110.849C107.602 110.82 107.602 110.791 107.597 110.763C107.321 109.49 105.497 109.689 104.594 109.955C103.901 110.176 103.224 110.446 102.57 110.763C102.43 110.948 102.348 111.169 102.332 111.4Z" fill="white"/>
<path d="M109.87 124.963C109.945 124.766 109.964 124.554 109.925 124.347C109.887 124.141 109.792 123.95 109.652 123.794C109.334 123.445 108.915 123.206 108.454 123.109C107.732 122.91 106.972 122.786 106.23 122.653C105.803 122.577 105.375 122.53 104.947 122.473C104.981 122.71 105.065 122.938 105.193 123.141C105.32 123.344 105.489 123.518 105.689 123.651C106.376 124.232 107.195 124.637 108.074 124.83C108.514 124.928 108.964 124.969 109.414 124.953L109.87 124.963Z" fill="white"/>
<path d="M108.237 130.929C107.763 130.333 107.125 129.888 106.403 129.646C105.804 129.361 105.196 129.105 104.578 128.867C104.451 128.951 104.346 129.063 104.272 129.195C104.197 129.328 104.156 129.476 104.15 129.627C104.15 130.331 104.958 130.578 105.481 130.796C106.095 131.068 106.731 131.287 107.382 131.452C107.693 131.532 108.011 131.583 108.332 131.604C108.385 131.375 108.351 131.135 108.237 130.929Z" fill="white"/>
<path d="M117.99 135.207C118.114 135.292 118.285 135.131 118.161 135.036C117.087 134.18 115.957 133.401 114.807 132.641L116.014 133.515L115.32 133.249C116.232 133.914 117.125 134.513 117.99 135.207Z" fill="black"/>
<path d="M119.911 129.801C119.455 129.317 118.96 128.851 118.485 128.385L118 128.242C118.608 128.794 119.188 129.374 119.74 129.973C119.844 130.115 120.016 129.916 119.911 129.801Z" fill="black"/>
<path d="M120.977 120.525L120.91 120.449C121.043 120.706 121.186 120.953 121.3 121.219L120.91 120.867C121.433 121.656 121.861 122.511 122.326 123.338C122.402 123.471 122.611 123.338 122.535 123.215C122.032 122.312 121.566 121.381 120.977 120.525Z" fill="black"/>
<path d="M110.577 108.664C110.887 108.919 111.279 109.054 111.68 109.044C111.891 109.034 112.095 108.961 112.265 108.834C112.434 108.707 112.562 108.532 112.63 108.331C112.664 108.112 112.642 107.888 112.566 107.68C112.489 107.473 112.361 107.288 112.193 107.143C111.964 106.886 111.706 106.656 111.423 106.459C111.172 106.344 110.891 106.308 110.619 106.358C110.348 106.407 110.097 106.538 109.903 106.735C109.678 106.998 109.566 107.339 109.589 107.685C109.875 108.052 110.207 108.381 110.577 108.664Z" fill="white"/>
<path d="M43.1628 175.178C43.1905 175.155 43.216 175.129 43.2389 175.102C42.3306 175.962 41.5584 176.955 40.9485 178.048C40.5292 178.802 40.1915 179.598 39.9411 180.424C39.7757 180.828 39.7002 181.264 39.7199 181.7C39.7396 182.137 39.854 182.564 40.0552 182.951C40.602 183.639 41.3777 184.108 42.241 184.272C43.1508 184.5 44.0885 184.596 45.0255 184.558H45.6052C44.4895 181.517 43.6716 178.376 43.1628 175.178Z" fill="#00558E"/>
<path d="M112.776 146.917C111.889 146.711 110.957 146.811 110.134 147.202C109.403 147.512 108.708 147.9 108.062 148.362C109.729 149.386 111.505 150.221 113.356 150.852C114.154 149.512 114.572 147.459 112.776 146.917Z" fill="#00558E"/>
<path d="M89.5766 116.075H89.6336C89.7627 116.081 89.8908 116.051 90.0044 115.99C90.1191 115.951 90.2232 115.886 90.3086 115.8C90.3998 115.713 90.4684 115.605 90.5083 115.486C90.5677 115.375 90.5941 115.25 90.5844 115.125V114.868C90.5359 114.711 90.4513 114.568 90.3372 114.45L90.147 114.307C90.0002 114.22 89.8328 114.174 89.6621 114.174H89.6051C89.4756 114.163 89.346 114.193 89.2343 114.26C89.1196 114.299 89.0155 114.364 88.93 114.45C88.8419 114.539 88.7722 114.644 88.7249 114.76C88.6776 114.876 88.6536 115 88.6543 115.125V115.381C88.7049 115.537 88.7893 115.68 88.9015 115.8L89.0917 115.942C89.2384 116.029 89.4059 116.075 89.5766 116.075Z" fill="white"/>
<path d="M94.7047 114.3C94.9568 114.3 95.1987 114.2 95.377 114.021C95.5553 113.843 95.6554 113.601 95.6554 113.349C95.6554 113.097 95.5553 112.855 95.377 112.677C95.1987 112.499 94.9568 112.398 94.7047 112.398C94.4525 112.398 94.2107 112.499 94.0324 112.677C93.8541 112.855 93.7539 113.097 93.7539 113.349C93.7539 113.601 93.8541 113.843 94.0324 114.021C94.2107 114.2 94.4525 114.3 94.7047 114.3Z" fill="white"/>
<path d="M163.259 220.282C163.145 221.232 163.022 222.23 162.898 223.209C164.204 216.778 165.439 210.335 166.605 203.879C166.709 203.28 165.797 203.023 165.654 203.622C164.647 209.178 163.586 214.732 162.471 220.282H163.259Z" fill="#E1EAF9"/>
<path d="M208.822 213.488C208.898 205.553 209.136 197.275 207.035 189.558C206.048 185.681 204.229 182.065 201.704 178.962C201.573 178.795 201.405 178.661 201.214 178.569C201.023 178.476 200.814 178.429 200.602 178.43C205.829 183.78 206.608 192.039 206.902 199.252C207.283 208.69 206.921 218.144 205.819 227.525C205.629 229.15 205.41 230.766 205.173 232.372C205.106 233.265 205.04 234.158 204.964 235.052C205.135 235.166 205.448 235.052 205.752 234.871C205.752 234.871 205.752 234.814 205.752 234.795L207.891 233.408C208.461 226.765 208.765 220.131 208.822 213.488Z" fill="black"/>
<path d="M211.367 298.251C209.86 301.429 207.428 304.079 204.391 305.854C202.766 306.72 200.949 307.164 199.107 307.146C198.67 307.146 198.223 307.146 197.786 307.08C200.092 302.936 203.566 299.562 207.774 297.377L206.425 297.015C202.324 299.349 198.964 302.791 196.731 306.947C195.63 306.787 194.538 306.565 193.462 306.281L192.968 306.139C195.854 302.014 199.725 298.675 204.229 296.426C203.821 296.303 203.422 296.16 203.013 296.018C198.614 298.384 194.85 301.774 192.036 305.901C190.211 305.347 188.452 304.595 186.79 303.658C189.482 299.341 193.372 295.9 197.986 293.756C197.663 293.575 197.349 293.376 197.035 293.176C192.483 295.413 188.647 298.879 185.964 303.183C185.275 302.751 184.609 302.285 183.968 301.786L183.892 301.72C186.61 297.264 190.803 293.901 195.743 292.216C195.543 292.045 195.344 291.884 195.154 291.703C194.964 291.522 195.03 291.56 194.964 291.484C190.06 293.292 185.904 296.692 183.16 301.14C180.971 299.157 179.141 296.81 177.753 294.202C177.277 293.328 176.802 292.435 176.432 291.532C176.652 292.272 176.811 293.028 176.907 293.794C176.932 294.11 176.932 294.428 176.907 294.744C178.469 297.785 180.66 300.458 183.334 302.588C186.008 304.718 189.104 306.256 192.417 307.099C196.066 308.144 200.067 308.819 203.688 307.317C207.584 305.702 210.34 302.337 212.241 298.679C212.245 298.644 212.245 298.609 212.241 298.574L211.367 298.251Z" fill="white"/>
<path d="M234.907 315.962H212.431C212.158 312.913 212.668 309.845 213.912 307.048C215.156 304.25 217.093 301.817 219.54 299.977L218.333 299.711C215.964 301.664 214.106 304.164 212.919 306.995C211.731 309.826 211.251 312.904 211.519 315.962H209.343C209.324 312.835 209.967 309.738 211.23 306.877C212.493 304.016 214.347 301.454 216.67 299.36L215.529 299.122C213.254 301.294 211.448 303.909 210.22 306.805C208.993 309.701 208.371 312.817 208.392 315.962H195.258H195.201C192.193 315.936 189.19 315.714 186.211 315.297C183.381 315.009 180.597 314.371 177.924 313.396C173.328 311.348 169.619 307.72 167.47 303.171C166.603 301.399 165.922 299.542 165.436 297.63C165.008 297.344 164.601 297.026 164.22 296.68C165.19 301.397 167.401 305.77 170.625 309.348C172.318 311.168 174.327 312.666 176.555 313.767C179.063 314.873 181.716 315.612 184.434 315.962H146.249C146.123 315.962 146.002 316.012 145.913 316.102C145.823 316.191 145.773 316.312 145.773 316.438C145.773 316.564 145.823 316.684 145.913 316.774C146.002 316.863 146.123 316.913 146.249 316.913H234.907C235.033 316.913 235.154 316.863 235.243 316.774C235.332 316.684 235.382 316.564 235.382 316.438C235.382 316.312 235.332 316.191 235.243 316.102C235.154 316.012 235.033 315.962 234.907 315.962Z" fill="white"/>
<path d="M161.795 311.459C160.313 312.038 158.726 312.504 157.338 311.459C156.798 311.06 156.382 310.516 156.138 309.89C155.894 309.264 155.832 308.582 155.96 307.923C156.111 307.254 156.421 306.632 156.865 306.109C157.308 305.586 157.872 305.178 158.507 304.92C159.225 304.622 160.025 304.582 160.769 304.806C161.471 305.102 162.04 305.647 162.366 306.336C162.846 307.115 163.054 308.031 162.958 308.941C162.861 309.85 162.466 310.703 161.833 311.363C161.387 311.791 162.061 312.456 162.499 312.038C163.19 311.338 163.657 310.449 163.842 309.483C164.026 308.516 163.919 307.517 163.535 306.612C163.203 305.686 162.608 304.877 161.824 304.283C161.037 303.781 160.089 303.598 159.172 303.77C158.313 303.919 157.505 304.285 156.825 304.832C156.145 305.378 155.616 306.089 155.285 306.897C154.964 307.691 154.876 308.56 155.033 309.402C155.189 310.244 155.584 311.024 156.169 311.649C156.79 312.341 157.622 312.809 158.536 312.979C159.743 313.094 160.959 312.878 162.052 312.352C162.613 312.133 162.366 311.211 161.795 311.402V311.459Z" fill="white"/>
<path d="M245.087 270.643C244.041 271.879 242.587 273.285 240.81 273.009C240.039 272.882 239.326 272.519 238.768 271.972C238.21 271.424 237.835 270.718 237.693 269.949C237.599 269.262 237.709 268.562 238.008 267.935C238.306 267.309 238.782 266.784 239.375 266.424C239.992 266.078 240.691 265.905 241.398 265.922C242.105 265.938 242.795 266.145 243.395 266.519C244.073 266.983 244.606 267.628 244.933 268.381C245.261 269.134 245.37 269.964 245.248 270.776C245.248 271.033 245.495 271.242 245.723 271.251C245.848 271.249 245.968 271.198 246.057 271.109C246.145 271.021 246.196 270.901 246.198 270.776C246.308 269.888 246.192 268.987 245.859 268.156C245.527 267.325 244.99 266.592 244.298 266.024C243.598 265.48 242.763 265.135 241.883 265.028C241.002 264.921 240.109 265.055 239.299 265.416C238.517 265.779 237.857 266.361 237.4 267.091C236.943 267.822 236.708 268.669 236.723 269.531C236.758 270.449 237.064 271.336 237.604 272.079C238.144 272.822 238.893 273.387 239.755 273.703C242.131 274.654 244.288 273.066 245.761 271.337C246.151 270.871 245.486 270.196 245.087 270.662V270.643Z" fill="white"/>
<path d="M302.943 224.741L286.064 239.643C281.617 235.043 278.927 228.504 280.695 222.223L279.573 222.783C278.129 229.113 280.904 235.651 285.361 240.279L283.764 241.686C279.564 236.687 276.551 230.149 278.005 223.563L276.931 224.095C275.772 230.747 278.832 237.257 283.061 242.313L277.064 247.616L270.811 253.128C268.874 254.504 266.862 255.773 264.786 256.93C262.501 258.268 260.083 259.366 257.573 260.208C252.433 261.641 246.949 261.168 242.129 258.878C240.595 258.185 239.112 257.385 237.691 256.483L237.245 256.559C236.893 256.606 236.541 256.635 236.199 256.654C239.921 259.263 244.177 261.013 248.658 261.776C251.29 262.175 253.972 262.072 256.565 261.472C259.201 260.761 261.736 259.72 264.111 258.374C264.757 258.032 265.404 257.671 266.012 257.31C261.057 261.669 256.1 266.034 251.139 270.406C246.292 274.663 241.436 278.921 236.57 283.178C236.104 283.587 236.779 284.252 237.245 283.853C245.893 276.25 254.535 268.647 263.17 261.045C265.907 258.64 268.644 256.217 271.372 253.803L271.856 253.47C271.933 253.407 271.992 253.325 272.028 253.233L286.197 240.726C286.31 240.679 286.404 240.595 286.463 240.488L289.048 238.208C293.889 233.931 298.723 229.645 303.551 225.349C304.121 224.998 303.399 224.332 302.943 224.741Z" fill="white"/>
<path d="M274.471 225.34L273.596 225.777C274.421 228.367 274.623 231.115 274.186 233.798C273.539 236.735 271.392 239.044 269.101 240.869L268.826 241.059C268.213 238.341 268.164 235.527 268.683 232.791C268.913 230.907 269.476 229.079 270.346 227.393L269.396 227.849L268.921 228.086C268.358 229.523 267.96 231.018 267.733 232.544C267.15 235.563 267.232 238.673 267.97 241.657C267 242.338 265.981 242.945 264.92 243.473C264.119 238.506 264.942 233.413 267.267 228.951L265.861 229.645C263.847 234.109 263.219 239.075 264.055 243.9C262.275 244.694 260.414 245.293 258.505 245.687C257.908 241.032 258.653 236.304 260.653 232.059C260.254 232.211 259.845 232.353 259.436 232.467C257.62 236.682 256.963 241.305 257.536 245.858C256.889 245.972 256.234 246.067 255.635 246.143C254.971 241.572 255.79 236.909 257.973 232.838C257.608 232.894 257.239 232.923 256.87 232.924C254.819 237.038 254.064 241.677 254.703 246.229C253.972 246.295 253.24 246.333 252.499 246.343C249.872 246.38 247.247 246.173 244.658 245.725C245.08 246.061 245.462 246.444 245.799 246.865C250.957 247.679 256.231 247.355 261.251 245.915C264.126 245.058 266.828 243.704 269.234 241.914C271.582 240.146 273.891 237.856 274.841 235.005C275.887 231.869 275.279 228.514 274.471 225.34Z" fill="white"/>
<path opacity="0.41" d="M219.36 90.854L166.074 100.89C165.096 101.074 164.188 101.528 163.453 102.199C162.718 102.87 162.184 103.733 161.912 104.691L150.897 142.116L130.692 147.343C129.27 147.71 128.011 148.543 127.117 149.71C126.223 150.876 125.745 152.308 125.76 153.777V153.872L154.917 148.474L221.442 91.3007C220.835 90.882 220.086 90.7214 219.36 90.854Z" fill="white"/>
<path d="M189.393 126.169C196.122 126.169 196.131 115.715 189.393 115.715C182.655 115.715 182.655 126.169 189.393 126.169Z" fill="white"/>
</svg>
