<svg width="120" height="32" viewBox="0 0 120 32" fill="none" xmlns="http://www.w3.org/2000/svg">
<path fill-rule="evenodd" clip-rule="evenodd" d="M20.6768 29.9459C28.352 27.1555 32.3064 18.6701 29.5091 10.9933C26.7118 3.31654 18.2222 -0.644654 10.547 2.14575C2.87172 4.93616 -1.08265 13.4215 1.71463 21.0983C4.51191 28.7751 13.0016 32.7363 20.6768 29.9459Z" fill="#F5F8FD"/>
<path fill-rule="evenodd" clip-rule="evenodd" d="M27.5297 8.02955C27.6686 7.97907 27.8078 7.93147 27.9472 7.88672C28.5759 8.83732 29.1037 9.87603 29.5109 10.9935C31.7803 17.2218 29.6056 23.9823 24.6053 27.8019C22.8978 26.5226 21.5302 24.7492 20.7453 22.5952C18.5953 16.6947 21.6328 10.1734 27.5297 8.02955Z" fill="#CAD2E0"/>
<path fill-rule="evenodd" clip-rule="evenodd" d="M1.36289 17.5419C7.25985 15.398 13.7832 18.4434 15.9333 24.3439C16.7196 26.5019 16.812 28.7429 16.3245 30.8224C10.0233 31.1225 3.98917 27.3375 1.71558 21.0979C1.30861 19.981 1.04455 18.847 0.914062 17.7159C1.06194 17.6549 1.21147 17.597 1.36289 17.5419Z" fill="#CAD2E0"/>
<path fill-rule="evenodd" clip-rule="evenodd" d="M10.5486 2.14575C14.2319 0.806662 18.1027 1.02243 21.442 2.45754C20.94 6.56498 18.2049 10.2473 14.051 11.7575C9.89705 13.2677 5.43229 12.203 2.4043 9.37915C4.03898 6.13546 6.86536 3.48485 10.5486 2.14575Z" fill="#CAD2E0"/>
<path fill-rule="evenodd" clip-rule="evenodd" d="M28.0332 9.35488C28.6457 9.1322 29.2659 8.97338 29.8866 8.875C30.1554 9.41447 30.3965 9.97447 30.6077 10.554C32.8342 16.6644 31.1087 23.2481 26.7358 27.5062C24.6531 26.3865 22.9577 24.527 22.0845 22.1305C20.1985 16.9548 22.8619 11.235 28.0332 9.35488Z" fill="#F5F8FD"/>
<path fill-rule="evenodd" clip-rule="evenodd" d="M1.8662 18.8675C7.03753 16.9874 12.7586 19.659 14.6445 24.8347C15.5259 27.2537 15.4136 29.7915 14.516 32.0006C8.37882 31.5895 2.76161 27.6425 0.520451 21.4919C0.313015 20.9226 0.139883 20.3492 0 19.774C0.577785 19.4145 1.20126 19.1092 1.8662 18.8675Z" fill="#F5F8FD"/>
<path fill-rule="evenodd" clip-rule="evenodd" d="M10.1052 0.967681C13.4623 -0.252824 16.9633 -0.280276 20.1436 0.66858C20.3268 4.89757 17.7841 8.93542 13.598 10.4573C9.39829 11.9841 4.836 10.509 2.25977 7.12853C4.08472 4.38524 6.77059 2.18002 10.1052 0.967681Z" fill="#F5F8FD"/>
<path d="M47.054 9.08398C49.5562 9.08398 51.5893 11.0808 51.6297 13.5592L51.6303 13.6344V16.4454C51.6303 18.9335 49.6222 20.9551 47.1297 20.9953L47.054 20.9959H39.5781V9.08398H47.054ZM41.8401 18.7464L47.054 18.7466C48.3171 18.7466 49.3438 17.7404 49.3678 16.4902L49.3682 16.4454V13.6344C49.3682 12.3785 48.3564 11.3576 47.099 11.3337L47.054 11.3332H41.8401V18.7464Z" fill="#F5F8FD"/>
<path d="M114.847 20.9961H112.256L112.098 20.9947C112.073 20.9944 112.047 20.994 112.022 20.9935L111.874 20.9901L111.731 20.9852L111.593 20.9787C111.571 20.9775 111.549 20.9763 111.526 20.9749L111.397 20.9661L111.271 20.9557C111.251 20.9538 111.231 20.9519 111.21 20.9498L111.092 20.9369L110.977 20.9221C110.939 20.9169 110.902 20.9114 110.866 20.9056L110.758 20.8872C110.37 20.8164 110.045 20.7073 109.724 20.5494L109.636 20.5051C109.621 20.4975 109.606 20.4898 109.592 20.482C108.927 20.1284 108.398 19.6027 108.043 18.9415C108.027 18.9124 108.012 18.8833 107.997 18.8542L107.953 18.7669C107.946 18.7523 107.94 18.7377 107.933 18.7231L107.893 18.6353C107.745 18.2976 107.649 17.9448 107.592 17.5076L107.578 17.3916C107.576 17.3719 107.574 17.3521 107.572 17.3321L107.561 17.2098L107.551 17.083C107.547 17.0184 107.543 16.952 107.54 16.8837L107.534 16.7444C107.533 16.7207 107.532 16.6968 107.532 16.6727L107.528 16.5251C107.527 16.4749 107.527 16.4237 107.526 16.3715L107.525 16.2119V13.8687L107.526 13.7091C107.526 13.683 107.527 13.6571 107.527 13.6315L107.53 13.481C107.531 13.4318 107.532 13.3836 107.534 13.3362L107.54 13.1969C107.543 13.1286 107.547 13.0622 107.551 12.9976L107.561 12.8708L107.572 12.7486C107.574 12.7285 107.576 12.7087 107.578 12.689L107.592 12.573C107.666 12.0027 107.807 11.5762 108.043 11.1391C108.398 10.4779 108.927 9.95221 109.592 9.59858C110.031 9.36482 110.46 9.22454 111.034 9.1509L111.151 9.13705C111.17 9.13489 111.19 9.1328 111.21 9.13078L111.333 9.11951L111.461 9.10989C111.483 9.10843 111.504 9.10703 111.526 9.10569L111.661 9.09848L111.801 9.0928C111.825 9.09198 111.849 9.09122 111.874 9.09052L112.022 9.08706C112.072 9.08615 112.124 9.08547 112.176 9.08502L112.337 9.08435H114.766L114.927 9.08502C114.953 9.08524 114.979 9.08553 115.005 9.08587L115.156 9.08861C115.205 9.08976 115.254 9.09116 115.302 9.0928L115.442 9.09848L115.577 9.10569C115.599 9.10703 115.62 9.10843 115.642 9.10989L115.77 9.11951L115.893 9.13078C115.913 9.1328 115.933 9.13489 115.952 9.13705L116.069 9.1509C116.566 9.21472 116.955 9.32859 117.336 9.51L117.423 9.55307C117.453 9.56783 117.482 9.583 117.511 9.59858C118.176 9.95221 118.705 10.4779 119.06 11.1391C119.303 11.5908 119.446 12.0311 119.518 12.6305L119.531 12.7486C119.533 12.7686 119.535 12.7888 119.537 12.8091L119.547 12.9337L119.556 13.0628C119.557 13.0848 119.559 13.1069 119.56 13.1292L119.566 13.2659L119.571 13.4079C119.573 13.4562 119.574 13.5054 119.575 13.5555L119.577 13.7091C119.577 13.7352 119.577 13.7615 119.577 13.7881V16.2925L119.576 16.4491C119.575 16.5002 119.574 16.5504 119.573 16.5996L119.569 16.7444C119.568 16.768 119.567 16.7915 119.566 16.8147L119.56 16.9514C119.559 16.9737 119.557 16.9959 119.556 17.0178L119.547 17.147L119.537 17.2715C119.535 17.2918 119.533 17.312 119.531 17.3321L119.518 17.4501C119.516 17.4694 119.513 17.4886 119.511 17.5076L119.495 17.6198L119.477 17.7284C119.397 18.1918 119.264 18.5627 119.06 18.9415C118.705 19.6027 118.176 20.1284 117.511 20.482L117.467 20.5051L117.379 20.5494C117.175 20.6499 116.969 20.7306 116.746 20.7943L116.649 20.8205C116.552 20.8457 116.45 20.8679 116.345 20.8872L116.237 20.9056C116.164 20.9172 116.089 20.9276 116.011 20.9369L115.893 20.9498C115.872 20.9519 115.852 20.9538 115.832 20.9557L115.706 20.9661L115.577 20.9749C115.554 20.9763 115.532 20.9775 115.51 20.9787L115.372 20.9852L115.229 20.9901L115.081 20.9935L114.927 20.9956C114.9 20.9958 114.874 20.9961 114.847 20.9961ZM112.213 18.7466H114.89L115.006 18.7455L115.117 18.7437L115.27 18.7394L115.366 18.7356L115.455 18.7309L115.54 18.7254L115.62 18.719L115.695 18.7116L115.766 18.7034C115.777 18.7019 115.789 18.7004 115.8 18.6989L115.865 18.6891C115.897 18.684 115.927 18.6785 115.957 18.6726L116.014 18.6603C116.023 18.6582 116.032 18.656 116.041 18.6538L116.095 18.6398L116.146 18.6248C116.162 18.6196 116.179 18.6142 116.195 18.6087L116.242 18.5914C116.25 18.5884 116.258 18.5854 116.265 18.5823L116.311 18.5632L116.356 18.5429L116.4 18.5214L116.444 18.4985C116.715 18.3546 116.921 18.15 117.066 17.8807L117.089 17.8369L117.11 17.7928L117.131 17.7482L117.15 17.7028C117.153 17.6951 117.156 17.6874 117.159 17.6797L117.176 17.6324C117.182 17.6165 117.187 17.6002 117.193 17.5836L117.208 17.5329C117.21 17.5243 117.213 17.5155 117.215 17.5067L117.228 17.4525L117.241 17.3957C117.247 17.3666 117.252 17.3363 117.257 17.3048L117.267 17.2399L117.276 17.1713L117.284 17.0987L117.291 17.0217L117.297 16.94L117.302 16.8534L117.306 16.7614L117.31 16.6639L117.312 16.5605L117.314 16.4509L117.315 16.2742V13.8064L117.314 13.6297L117.312 13.5201L117.308 13.3672L117.304 13.2725L117.299 13.1833L117.294 13.0992L117.287 13.0199C117.286 13.007 117.285 12.9944 117.284 12.9819L117.276 12.9093L117.267 12.8407L117.257 12.7758C117.252 12.7443 117.247 12.714 117.241 12.6849L117.228 12.6281L117.215 12.5739L117.2 12.5221L117.185 12.4724C117.182 12.4642 117.179 12.4562 117.176 12.4482L117.159 12.4009C117.156 12.3932 117.153 12.3855 117.15 12.3778L117.131 12.3324L117.11 12.2878L117.089 12.2437L117.066 12.1999C116.921 11.9306 116.715 11.7261 116.444 11.5821L116.399 11.5588C116.392 11.555 116.384 11.5513 116.377 11.5476L116.331 11.5263L116.285 11.5062C116.23 11.4836 116.174 11.4635 116.112 11.4458L116.059 11.4312C116.05 11.4289 116.04 11.4266 116.031 11.4244L115.973 11.4115C115.954 11.4073 115.934 11.4034 115.913 11.3997L115.849 11.3889C115.838 11.3872 115.827 11.3856 115.815 11.3839L115.746 11.3748L115.672 11.3666L115.594 11.3594L115.51 11.3531L115.422 11.3478L115.328 11.3434L115.228 11.3398L115.067 11.336L114.951 11.3345L114.829 11.3338H112.274L112.154 11.3345L111.986 11.3369L111.882 11.3396L111.784 11.343L111.692 11.3472L111.605 11.3523L111.523 11.3583C111.509 11.3594 111.496 11.3605 111.483 11.3616L111.408 11.369L111.337 11.3773L111.27 11.3865L111.207 11.3967C111.196 11.3985 111.186 11.4004 111.176 11.4022L111.117 11.414L111.062 11.4269C111.044 11.4313 111.026 11.436 111.008 11.4408L110.957 11.4558C110.941 11.461 110.924 11.4664 110.908 11.4719L110.861 11.4892L110.815 11.5077L110.769 11.5274C110.762 11.5308 110.754 11.5342 110.747 11.5377L110.703 11.5592L110.659 11.5821C110.388 11.7261 110.182 11.9306 110.037 12.1999L110.014 12.2447L109.992 12.2898L109.971 12.3354L109.951 12.3819L109.933 12.4296C109.927 12.4458 109.922 12.4622 109.916 12.4789L109.9 12.53C109.898 12.5387 109.895 12.5475 109.893 12.5564L109.879 12.6109L109.866 12.6682C109.862 12.6878 109.858 12.7078 109.854 12.7285L109.843 12.7921C109.841 12.803 109.84 12.814 109.838 12.8252L109.829 12.8945L109.821 12.9679L109.813 13.0458L109.807 13.1285L109.802 13.2164L109.797 13.3097L109.792 13.4608L109.79 13.5692L109.788 13.6843L109.788 13.8064V16.2742L109.788 16.3937L109.791 16.5605L109.793 16.6639L109.797 16.7614L109.801 16.8534L109.806 16.94L109.812 17.0217C109.813 17.0349 109.814 17.0479 109.816 17.0607L109.823 17.1355L109.831 17.2061L109.841 17.2728L109.851 17.3359C109.853 17.3461 109.855 17.3562 109.856 17.3662L109.868 17.4245L109.881 17.4799C109.886 17.498 109.89 17.5156 109.895 17.5329L109.91 17.5836C109.913 17.5919 109.916 17.6001 109.918 17.6083L109.935 17.6562C109.938 17.6641 109.941 17.6719 109.944 17.6797L109.963 17.7256L109.982 17.7706L110.003 17.8149L110.026 17.8588C110.029 17.8661 110.033 17.8734 110.037 17.8807C110.182 18.15 110.388 18.3546 110.659 18.4985L110.703 18.5214L110.747 18.5429L110.792 18.5632L110.838 18.5823L110.884 18.6002C110.9 18.6059 110.916 18.6115 110.933 18.6169L110.983 18.6325L111.035 18.6469C111.053 18.6516 111.071 18.656 111.089 18.6603L111.146 18.6726C111.176 18.6785 111.206 18.684 111.238 18.6891L111.303 18.6989C111.325 18.7019 111.348 18.7049 111.372 18.7076L111.445 18.7154L111.523 18.7223L111.605 18.7283L111.692 18.7334L111.784 18.7376L111.882 18.7411L111.986 18.7437L112.097 18.7455L112.213 18.7466Z" fill="#F5F8FD"/>
<path d="M64.0925 9.08398C61.9043 9.08398 60.1263 10.8302 60.0909 12.9977L60.0904 13.0635V17.0164C60.0904 19.1922 61.8465 20.9602 64.0263 20.9954L64.0925 20.9959H72.1426V14.1373H65.6844V16.3867L69.8805 16.3866V18.7464L64.0925 18.7466C63.1461 18.7466 62.3761 17.9952 62.353 17.0597L62.3525 17.0164V13.0635C62.3525 12.1224 63.1081 11.3568 64.0489 11.3338L64.0925 11.3333H72.1426V9.08398H64.0925Z" fill="#F5F8FD"/>
<path d="M81.1443 9.08398V20.9959H83.4064L83.4065 11.3332L88.8202 11.3333C89.7666 11.3333 90.5365 12.0846 90.5596 13.0202L90.5602 13.0635V20.9959H92.8223V13.0635C92.8223 10.8876 91.0661 9.11966 88.8863 9.08452L88.8202 9.08398H81.1443Z" fill="#F5F8FD"/>
<path d="M92.2492 14.1426V16.3919H81.9492V14.1426H92.2492Z" fill="#F5F8FD"/>
<path d="M57.1078 9.11328V20.9996H54.8457V9.11328H57.1078Z" fill="#F5F8FD"/>
<path d="M77.6625 9V20.8863H75.4004V9H77.6625Z" fill="#F5F8FD"/>
<path d="M101.493 9.08398V20.9959H99.2305V9.08398H101.493Z" fill="#F5F8FD"/>
<path d="M105.914 9.14062V11.3899H94.5801V9.14062H105.914Z" fill="#F5F8FD"/>
</svg>
