<svg width="120" height="32" viewBox="0 0 120 32" fill="none" xmlns="http://www.w3.org/2000/svg">
<path fill-rule="evenodd" clip-rule="evenodd" d="M20.6768 29.9464C28.352 27.156 32.3064 18.6706 29.5091 10.9938C26.7118 3.31703 18.2222 -0.644166 10.547 2.14624C2.87172 4.93665 -1.08265 13.422 1.71463 21.0988C4.51191 28.7756 13.0016 32.7368 20.6768 29.9464Z" fill="#3391EC"/>
<path fill-rule="evenodd" clip-rule="evenodd" d="M27.5297 8.02979C27.6686 7.97932 27.8078 7.93172 27.9472 7.88696C28.5759 8.83757 29.1037 9.87628 29.5109 10.9937C31.7803 17.222 29.6056 23.9825 24.6053 27.8022C22.8978 26.5229 21.5302 24.7494 20.7453 22.5955C18.5953 16.695 21.6328 10.1737 27.5297 8.02979Z" fill="#0075E7"/>
<path fill-rule="evenodd" clip-rule="evenodd" d="M1.36289 17.5429C7.25985 15.399 13.7832 18.4443 15.9333 24.3449C16.7196 26.5028 16.812 28.7438 16.3245 30.8234C10.0233 31.1235 3.98917 27.3385 1.71558 21.0989C1.30861 19.982 1.04455 18.848 0.914062 17.7169C1.06194 17.6559 1.21147 17.598 1.36289 17.5429Z" fill="#0075E7"/>
<path fill-rule="evenodd" clip-rule="evenodd" d="M10.5486 2.14624C14.2319 0.80715 18.1027 1.02292 21.442 2.45803C20.94 6.56546 18.2049 10.2478 14.051 11.758C9.89705 13.2682 5.43229 12.2035 2.4043 9.37964C4.03898 6.13594 6.86536 3.48533 10.5486 2.14624Z" fill="#0075E7"/>
<path fill-rule="evenodd" clip-rule="evenodd" d="M28.0332 9.35391C28.6457 9.13123 29.2659 8.9724 29.8866 8.87402C30.1554 9.41349 30.3965 9.9735 30.6077 10.5531C32.8342 16.6634 31.1087 23.2471 26.7358 27.5052C24.6531 26.3856 22.9577 24.526 22.0845 22.1296C20.1985 16.9538 22.8619 11.234 28.0332 9.35391Z" fill="#3391EC"/>
<path fill-rule="evenodd" clip-rule="evenodd" d="M1.8662 18.867C7.03753 16.9869 12.7586 19.6585 14.6445 24.8342C15.5259 27.2532 15.4136 29.791 14.516 32.0001C8.37882 31.589 2.76161 27.642 0.520451 21.4914C0.313015 20.9221 0.139883 20.3487 0 19.7735C0.577785 19.414 1.20126 19.1087 1.8662 18.867Z" fill="#3391EC"/>
<path fill-rule="evenodd" clip-rule="evenodd" d="M10.1052 0.967681C13.4623 -0.252824 16.9633 -0.280276 20.1436 0.66858C20.3268 4.89757 17.7841 8.93542 13.598 10.4573C9.39829 11.9841 4.836 10.509 2.25977 7.12853C4.08472 4.38524 6.77059 2.18002 10.1052 0.967681Z" fill="#3391EC"/>
<path d="M47.054 9.08374C49.5562 9.08374 51.5893 11.0805 51.6297 13.559L51.6303 13.6342V16.4452C51.6303 18.9332 49.6222 20.9549 47.1297 20.995L47.054 20.9957H39.5781V9.08374H47.054ZM41.8401 18.7462L47.054 18.7463C48.3171 18.7463 49.3438 17.7402 49.3678 16.4899L49.3682 16.4452V13.6342C49.3682 12.3783 48.3564 11.3573 47.099 11.3335L47.054 11.333H41.8401V18.7462Z" fill="#16205B"/>
<path d="M114.847 20.9956H112.256L112.098 20.9943C112.073 20.9939 112.047 20.9935 112.022 20.9931L111.874 20.9896L111.731 20.9847L111.593 20.9782C111.571 20.977 111.549 20.9758 111.526 20.9744L111.397 20.9656L111.271 20.9552C111.251 20.9533 111.231 20.9514 111.21 20.9493L111.092 20.9364L110.977 20.9216C110.939 20.9164 110.902 20.9109 110.866 20.9051L110.758 20.8867C110.37 20.8159 110.045 20.7068 109.724 20.5489L109.636 20.5046C109.621 20.497 109.606 20.4893 109.592 20.4815C108.927 20.1279 108.398 19.6023 108.043 18.941C108.027 18.9119 108.012 18.8828 107.997 18.8537L107.953 18.7664C107.946 18.7518 107.94 18.7372 107.933 18.7226L107.893 18.6348C107.745 18.2971 107.649 17.9443 107.592 17.5071L107.578 17.3911C107.576 17.3714 107.574 17.3516 107.572 17.3316L107.561 17.2093L107.551 17.0825C107.547 17.0179 107.543 16.9515 107.54 16.8832L107.534 16.7439C107.533 16.7202 107.532 16.6963 107.532 16.6722L107.528 16.5246C107.527 16.4744 107.527 16.4232 107.526 16.3711L107.525 16.2114V13.8683L107.526 13.7086C107.526 13.6825 107.527 13.6566 107.527 13.6311L107.53 13.4805C107.531 13.4313 107.532 13.3831 107.534 13.3357L107.54 13.1964C107.543 13.1281 107.547 13.0617 107.551 12.9972L107.561 12.8703L107.572 12.7481C107.574 12.728 107.576 12.7082 107.578 12.6885L107.592 12.5725C107.666 12.0022 107.807 11.5757 108.043 11.1386C108.398 10.4774 108.927 9.95172 109.592 9.59809C110.031 9.36433 110.46 9.22405 111.034 9.15041L111.151 9.13656C111.17 9.1344 111.19 9.13231 111.21 9.13029L111.333 9.11902L111.461 9.1094C111.483 9.10794 111.504 9.10654 111.526 9.1052L111.661 9.09799L111.801 9.09231C111.825 9.09149 111.849 9.09073 111.874 9.09003L112.022 9.08657C112.072 9.08566 112.124 9.08498 112.176 9.08453L112.337 9.08386H114.766L114.927 9.08453C114.953 9.08475 114.979 9.08504 115.005 9.08538L115.156 9.08812C115.205 9.08927 115.254 9.09067 115.302 9.09231L115.442 9.09799L115.577 9.1052C115.599 9.10654 115.62 9.10794 115.642 9.1094L115.77 9.11902L115.893 9.13029C115.913 9.13231 115.933 9.1344 115.952 9.13656L116.069 9.15041C116.566 9.21423 116.955 9.32811 117.336 9.50951L117.423 9.55258C117.453 9.56734 117.482 9.58251 117.511 9.59809C118.176 9.95172 118.705 10.4774 119.06 11.1386C119.303 11.5903 119.446 12.0306 119.518 12.63L119.531 12.7481C119.533 12.7681 119.535 12.7883 119.537 12.8087L119.547 12.9332L119.556 13.0623C119.557 13.0843 119.559 13.1064 119.56 13.1288L119.566 13.2654L119.571 13.4074C119.573 13.4557 119.574 13.5049 119.575 13.5551L119.577 13.7086C119.577 13.7347 119.577 13.761 119.577 13.7876V16.292L119.576 16.4486C119.575 16.4997 119.574 16.5499 119.573 16.5991L119.569 16.7439C119.568 16.7676 119.567 16.791 119.566 16.8142L119.56 16.9509C119.559 16.9732 119.557 16.9954 119.556 17.0173L119.547 17.1465L119.537 17.271C119.535 17.2914 119.533 17.3116 119.531 17.3316L119.518 17.4496C119.516 17.4689 119.513 17.4881 119.511 17.5071L119.495 17.6193L119.477 17.7279C119.397 18.1913 119.264 18.5622 119.06 18.941C118.705 19.6023 118.176 20.1279 117.511 20.4815L117.467 20.5046L117.379 20.5489C117.175 20.6494 116.969 20.7301 116.746 20.7938L116.649 20.82C116.552 20.8452 116.45 20.8674 116.345 20.8867L116.237 20.9051C116.164 20.9167 116.089 20.9271 116.011 20.9364L115.893 20.9493C115.872 20.9514 115.852 20.9533 115.832 20.9552L115.706 20.9656L115.577 20.9744C115.554 20.9758 115.532 20.977 115.51 20.9782L115.372 20.9847L115.229 20.9896L115.081 20.9931L114.927 20.9951C114.9 20.9953 114.874 20.9956 114.847 20.9956ZM112.213 18.7461H114.89L115.006 18.745L115.117 18.7432L115.27 18.739L115.366 18.7351L115.455 18.7305L115.54 18.7249L115.62 18.7185L115.695 18.7112L115.766 18.7029C115.777 18.7014 115.789 18.6999 115.8 18.6984L115.865 18.6886C115.897 18.6835 115.927 18.678 115.957 18.6721L116.014 18.6598C116.023 18.6577 116.032 18.6555 116.041 18.6533L116.095 18.6394L116.146 18.6243C116.162 18.6191 116.179 18.6138 116.195 18.6082L116.242 18.5909C116.25 18.5879 116.258 18.5849 116.265 18.5818L116.311 18.5627L116.356 18.5424L116.4 18.5209L116.444 18.4981C116.715 18.3541 116.921 18.1495 117.066 17.8803L117.089 17.8364L117.11 17.7923L117.131 17.7477L117.15 17.7023C117.153 17.6947 117.156 17.687 117.159 17.6792L117.176 17.632C117.182 17.616 117.187 17.5997 117.193 17.5831L117.208 17.5324C117.21 17.5238 117.213 17.515 117.215 17.5062L117.228 17.4521L117.241 17.3952C117.247 17.3661 117.252 17.3358 117.257 17.3043L117.267 17.2394L117.276 17.1708L117.284 17.0982L117.291 17.0212L117.297 16.9395L117.302 16.8529L117.306 16.7609L117.31 16.6634L117.312 16.56L117.314 16.4504L117.315 16.2737V13.8059L117.314 13.6292L117.312 13.5196L117.308 13.3667L117.304 13.272L117.299 13.1828L117.294 13.0987L117.287 13.0194C117.286 13.0065 117.285 12.9939 117.284 12.9814L117.276 12.9088L117.267 12.8402L117.257 12.7753C117.252 12.7438 117.247 12.7135 117.241 12.6844L117.228 12.6276L117.215 12.5734L117.2 12.5216L117.185 12.4719C117.182 12.4637 117.179 12.4557 117.176 12.4477L117.159 12.4004C117.156 12.3927 117.153 12.385 117.15 12.3773L117.131 12.3319L117.11 12.2873L117.089 12.2432L117.066 12.1994C116.921 11.9301 116.715 11.7256 116.444 11.5816L116.399 11.5583C116.392 11.5545 116.384 11.5508 116.377 11.5471L116.331 11.5258L116.285 11.5057C116.23 11.4831 116.174 11.463 116.112 11.4453L116.059 11.4307C116.05 11.4284 116.04 11.4261 116.031 11.4239L115.973 11.411C115.954 11.4068 115.934 11.4029 115.913 11.3992L115.849 11.3884C115.838 11.3867 115.827 11.3851 115.815 11.3835L115.746 11.3743L115.672 11.3661L115.594 11.3589L115.51 11.3526L115.422 11.3473L115.328 11.3429L115.228 11.3393L115.067 11.3355L114.951 11.334L114.829 11.3333H112.274L112.154 11.334L111.986 11.3365L111.882 11.3391L111.784 11.3425L111.692 11.3467L111.605 11.3518L111.523 11.3578C111.509 11.3589 111.496 11.36 111.483 11.3611L111.408 11.3685L111.337 11.3768L111.27 11.386L111.207 11.3963C111.196 11.3981 111.186 11.3999 111.176 11.4018L111.117 11.4135L111.062 11.4264C111.044 11.4308 111.026 11.4355 111.008 11.4403L110.957 11.4553C110.941 11.4605 110.924 11.4659 110.908 11.4714L110.861 11.4887L110.815 11.5072L110.769 11.5269C110.762 11.5303 110.754 11.5337 110.747 11.5372L110.703 11.5588L110.659 11.5816C110.388 11.7256 110.182 11.9301 110.037 12.1994L110.014 12.2442L109.992 12.2893L109.971 12.3349L109.951 12.3814L109.933 12.4291C109.927 12.4453 109.922 12.4617 109.916 12.4784L109.9 12.5295C109.898 12.5382 109.895 12.547 109.893 12.5559L109.879 12.6105L109.866 12.6677C109.862 12.6873 109.858 12.7073 109.854 12.728L109.843 12.7916C109.841 12.8025 109.84 12.8135 109.838 12.8247L109.829 12.894L109.821 12.9674L109.813 13.0453L109.807 13.128L109.802 13.2159L109.797 13.3092L109.792 13.4603L109.79 13.5688L109.788 13.6839L109.788 13.8059V16.2737L109.788 16.3932L109.791 16.56L109.793 16.6634L109.797 16.7609L109.801 16.8529L109.806 16.9395L109.812 17.0212C109.813 17.0344 109.814 17.0474 109.816 17.0603L109.823 17.135L109.831 17.2056L109.841 17.2723L109.851 17.3354C109.853 17.3456 109.855 17.3557 109.856 17.3657L109.868 17.424L109.881 17.4795C109.886 17.4975 109.89 17.5151 109.895 17.5324L109.91 17.5831C109.913 17.5914 109.916 17.5996 109.918 17.6078L109.935 17.6558C109.938 17.6636 109.941 17.6714 109.944 17.6792L109.963 17.7251L109.982 17.7701L110.003 17.8144L110.026 17.8583C110.029 17.8656 110.033 17.8729 110.037 17.8803C110.182 18.1495 110.388 18.3541 110.659 18.4981L110.703 18.5209L110.747 18.5424L110.792 18.5627L110.838 18.5818L110.884 18.5997C110.9 18.6054 110.916 18.611 110.933 18.6164L110.983 18.632L111.035 18.6464C111.053 18.6511 111.071 18.6555 111.089 18.6598L111.146 18.6721C111.176 18.678 111.206 18.6835 111.238 18.6886L111.303 18.6984C111.325 18.7014 111.348 18.7044 111.372 18.7071L111.445 18.7149L111.523 18.7218L111.605 18.7278L111.692 18.7329L111.784 18.7371L111.882 18.7406L111.986 18.7432L112.097 18.745L112.213 18.7461Z" fill="#16205B"/>
<path d="M64.0925 9.08374C61.9043 9.08374 60.1263 10.83 60.0909 12.9974L60.0904 13.0632V17.0162C60.0904 19.192 61.8465 20.96 64.0263 20.9951L64.0925 20.9957H72.1426V14.1371H65.6844V16.3864L69.8805 16.3864V18.7462L64.0925 18.7463C63.1461 18.7463 62.3761 17.995 62.353 17.0595L62.3525 17.0162V13.0632C62.3525 12.1222 63.1081 11.3566 64.0489 11.3336L64.0925 11.3331H72.1426V9.08374H64.0925Z" fill="#16205B"/>
<path d="M81.1443 9.08374V20.9957H83.4064L83.4065 11.333L88.8202 11.3331C89.7666 11.3331 90.5365 12.0844 90.5596 13.0199L90.5602 13.0632V20.9957H92.8223V13.0632C92.8223 10.8874 91.0661 9.11942 88.8863 9.08427L88.8202 9.08374H81.1443Z" fill="#16205B"/>
<path d="M92.2492 14.1426V16.3919H81.9492V14.1426H92.2492Z" fill="#16205B"/>
<path d="M57.1078 9.11377V21.0001H54.8457V9.11377H57.1078Z" fill="#16205B"/>
<path d="M77.6625 9V20.8863H75.4004V9H77.6625Z" fill="#16205B"/>
<path d="M101.493 9.08374V20.9957H99.2305V9.08374H101.493Z" fill="#16205B"/>
<path d="M105.914 9.14062V11.3899H94.5801V9.14062H105.914Z" fill="#16205B"/>
</svg>
