<svg width="606" height="603" fill="none" xmlns="http://www.w3.org/2000/svg"><path d="M544.426 46.035H51.672v392.856h492.754V46.035z" fill="#0075E7"/><path d="M518.632 59.814l18.922-13.779h-4.815l-17.654 5.878a6.32 6.32 0 01-7.286-2.57l-2.118-3.308h-8.25l1.958 7.387a6.297 6.297 0 01-2.953 7.066l-23.608 13.635 28.311-6.263a6.271 6.271 0 016.596 2.665l14.974 22.483-6.42-26.626a6.297 6.297 0 012.343-6.568zM60.238 135.888l15.44-9.459-17.398 4.304a2.394 2.394 0 01-2.696-1.204l-3.916-7.275v17.039a2.426 2.426 0 011.83 1.204l8.41 15.112-2.793-17.28a2.442 2.442 0 011.123-2.441zM544.44 378.094c-3.932.899-7.912 1.606-11.892 2.264-6.243.964-12.518 1.606-18.825 2.024-5.489.273-10.994.385-16.483.562-3.354.096-6.692.224-10.047.401a47.86 47.86 0 00-6.724.45c-1.765.144-3.515.305-5.28.514-6.42.738-13.915 1.365-19.259 5.588a11.764 11.764 0 00-3.21 15.642c3.033 5.685 9.357 8.881 15.086 11.241 12.647 5.107 26.882 6.071 40.396 5.942a152.917 152.917 0 0036.238-4.609v-40.019zM99.304 242.087a58.867 58.867 0 00-8.024-.578c-5.633 0-11.235.433-16.9.594a211.16 211.16 0 01-16.867-.193c-1.926-.112-3.852-.273-5.794-.433v25.903c8.76-.083 17.492-.997 26.08-2.73 6.018-1.044 21.441-6.616 25.678-10.888 2.6-2.666 4.317-6.761 1.123-9.636a9.813 9.813 0 00-5.296-2.039z" fill="#16205B"/><path d="M592.763 364.586a12.135 12.135 0 00-2.616-6.424 10.616 10.616 0 00-7.511-3.468c-6.821-.498-13.096 3.212-18.97 6.15a131.556 131.556 0 01-39.16 11.82 217.742 217.742 0 01-18.809 2.007c-5.505.273-11.01.402-16.499.562a525.34 525.34 0 00-10.03.418 50.922 50.922 0 00-6.725.434c-1.765.144-3.531.321-5.296.513-6.42.739-13.915 1.365-19.259 5.589a11.82 11.82 0 00-3.21 15.658c3.033 5.685 9.357 8.881 15.086 11.241 12.663 5.091 26.898 6.055 40.412 5.926a150.916 150.916 0 0039.802-5.556 114.773 114.773 0 0035.644-16.622 50.152 50.152 0 0012.759-12.847 23.404 23.404 0 004.382-15.401z" fill="#FFD215"/><path d="M104.551 241.767a9.751 9.751 0 00-5.136-2.184 58.679 58.679 0 00-8.025-.787c-5.633-.225-11.234.112-16.915.128a202.592 202.592 0 01-16.852-.658 201.071 201.071 0 01-32.82-5.412c-4.815-1.237-10.304-3.549-15.407-2.345-3.884.9-7.335 4.128-7.078 8.335.257 4.481 3.98 7.773 7.27 10.31a64.627 64.627 0 0011.235 6.954 78.233 78.233 0 0025.887 7.162c10.191 1.076 20.462-.225 30.59-1.702 6.05-.899 21.617-6.038 25.951-10.198 2.584-2.585 4.413-6.696 1.3-9.603z" fill="#E1F7FF"/><path d="M544.439 152.348l-2.359-1.943-11.475-5.3s-12.133 23.736 13.834 36.423v-29.18z" fill="#16205B"/><path d="M547.008 169.644c9.803 0 17.75-7.952 17.75-17.761 0-9.81-7.947-17.762-17.75-17.762s-17.75 7.952-17.75 17.762c0 9.809 7.947 17.761 17.75 17.761z" fill="#27AAE1"/><path d="M516.482 123.122c7.304 0 13.225-5.925 13.225-13.233 0-7.308-5.921-13.233-13.225-13.233-7.303 0-13.224 5.925-13.224 13.233 0 7.308 5.921 13.233 13.224 13.233z" fill="#E1F7FF"/><path d="M308.808 367.587a4.575 4.575 0 004.574-4.577 4.575 4.575 0 10-9.148 0 4.575 4.575 0 004.574 4.577z" fill="#27AAE1"/><path d="M339.845 266.273c7.693 0 13.93-6.241 13.93-13.939 0-7.699-6.237-13.939-13.93-13.939-7.694 0-13.931 6.24-13.931 13.939 0 7.698 6.237 13.939 13.931 13.939z" fill="#FFD215"/><path d="M275.087 259.38a8.332 8.332 0 008.33-8.334c0-4.603-3.729-8.335-8.33-8.335-4.6 0-8.329 3.732-8.329 8.335 0 4.603 3.729 8.334 8.329 8.334zm242.888-37.543a3.918 3.918 0 003.916-3.919 3.917 3.917 0 10-7.832 0 3.917 3.917 0 003.916 3.919z" fill="#E1F7FF"/><path d="M80.043 177.511c7.765 0 14.06-6.299 14.06-14.068 0-7.77-6.295-14.068-14.06-14.068-7.764 0-14.059 6.298-14.059 14.068 0 7.769 6.295 14.068 14.06 14.068z" fill="#FFD215"/><path d="M73.896 221.323c4.928 0 8.923-3.998 8.923-8.929 0-4.932-3.995-8.929-8.923-8.929s-8.923 3.997-8.923 8.929c0 4.931 3.995 8.929 8.923 8.929z" fill="#27AAE1"/><path d="M499.55 15.75l16.178 25.133a6.257 6.257 0 007.27 2.57l26.433-8.801-22.966 16.701a6.32 6.32 0 00-2.424 6.584l6.5 26.627-14.974-22.483a6.31 6.31 0 00-6.596-2.65l-28.326 6.247 23.672-13.618a6.278 6.278 0 002.937-7.066L499.55 15.75z" fill="#FFD215"/><path d="M102.688 46.035l10.993 151.92 10.994-124.507 61.74-27.413h-83.727zm192.124 0l20.864 103.341 9.614-103.34h-30.478z" fill="#16205B"/><path d="M49.81 102.195l9.067 16.879a2.428 2.428 0 002.696 1.204l17.397-4.304-15.439 9.459a2.395 2.395 0 00-1.107 2.441l2.776 17.231-8.41-15.111a2.419 2.419 0 00-2.439-1.221l-18.312 2.554 16.61-7.339a2.41 2.41 0 001.365-2.73l-4.205-19.063zm35.306 218.856l.915 19.142a2.397 2.397 0 001.926 2.233l17.557 3.613-18.007 1.895a2.394 2.394 0 00-2.054 1.718l-4.927 16.798-1.091-17.264a2.381 2.381 0 00-1.605-2.135l-17.654-5.589 18.135.514a2.393 2.393 0 002.408-1.863l4.397-19.062zm216.999-119.578l.449 9.218a1.14 1.14 0 00.915 1.076l8.458 1.734-8.667.915a1.16 1.16 0 00-.995.819l-2.359 8.03-.53-8.319a1.17 1.17 0 00-.818-1.027l-8.474-2.682 8.73.241a1.143 1.143 0 001.156-.9l2.135-9.105zm-19.741 151.824l6.42 10.117a1.607 1.607 0 001.749.626l10.657-3.468-9.212 6.6a1.492 1.492 0 00-.578 1.606l2.504 10.647-5.922-9.057a1.512 1.512 0 00-1.605-.643l-11.235 2.409 10.015-5.315a1.499 1.499 0 00.738-1.767l-3.531-11.755z" fill="#FFD215"/><path d="M113.684 208.747V62.143a4.819 4.819 0 013.386-4.529L308.407.877a4.81 4.81 0 015.524 2.426 4.82 4.82 0 01.542 2.087l1.236 148.499a4.72 4.72 0 01-3.434 4.593l-192.589 54.826a4.714 4.714 0 01-5.514-2.452 4.716 4.716 0 01-.488-2.109z" fill="#27AAE1"/><path d="M113.684 68.52l24.25-7.163a9.626 9.626 0 006.05-5.22l.129-.272a9.63 9.63 0 015.986-5.203l31.312-9.491a9.845 9.845 0 015.456 0l7.238 2.007a9.625 9.625 0 005.393 0L314.473 9.133" stroke="#fff" stroke-width=".5" stroke-miterlimit="10"/><path d="M120.968 62.946a1.604 1.604 0 001.135-2.741 1.604 1.604 0 10-2.27 2.27c.301.302.71.471 1.135.471zm6.531-2.183a1.604 1.604 0 001.605-1.606 1.606 1.606 0 00-1.605-1.606 1.604 1.604 0 00-1.604 1.606 1.606 1.606 0 001.604 1.606zm6.536-2.168a1.603 1.603 0 001.604-1.606 1.606 1.606 0 00-2.739-1.136 1.606 1.606 0 001.135 2.742z" fill="#fff"/><path d="M148.831 73.017l129.853-36.358a4.412 4.412 0 015.601 4.24v79.653a4.416 4.416 0 01-3.033 4.192l-129.837 42.99a4.439 4.439 0 01-3.971-.616 4.446 4.446 0 01-1.348-1.567 4.453 4.453 0 01-.491-2.008v-86.27a4.428 4.428 0 013.226-4.256z" fill="#0075E7"/><path d="M278.684 36.657L148.831 73.015a4.434 4.434 0 00-3.21 4.095l129.516-36.26a4.395 4.395 0 015.633 4.24v79.827l.53-.176a4.417 4.417 0 003.033-4.192V40.897a4.41 4.41 0 00-1.765-3.533 4.414 4.414 0 00-3.884-.707z" fill="#005FAD"/><path d="M173.145 129.896l4.236-1.301c.241 0 .129-.45-.112-.386l-4.221 1.285a.206.206 0 00-.124.242.21.21 0 00.221.16z" fill="#fff"/><path d="M177.671 128.453v-18.677a.214.214 0 00-.075-.109.209.209 0 00-.326.109v18.758a.209.209 0 00.401 0v-.081z" fill="#fff"/><path d="M177.412 109.775l6.885 16.22c.113.241.45 0 .354-.193l-6.902-16.236c-.096-.225-.449 0-.337.209z" fill="#fff"/><path d="M184.7 126.204l2.985-.787a.217.217 0 00.084-.103.206.206 0 00.005-.132.209.209 0 00-.201-.151l-2.97.787a.2.2 0 00-.144.241.199.199 0 00.241.145z" fill="#fff"/><path d="M188.023 125.207c-.594-13.635-.289-27.301-.899-40.903a.208.208 0 00-.401 0c.61 13.618.305 27.3.898 40.903 0 .256.418.256.402 0zm-15.729-37.145c-.128 13.875.723 27.75.61 41.641a.21.21 0 00.402 0c.112-13.891-.739-27.766-.61-41.641a.21.21 0 00-.402 0z" fill="#fff"/><path d="M172.567 88.175l3.563-.964a.21.21 0 00.04-.377.207.207 0 00-.152-.024l-3.547.98a.198.198 0 10.096.385z" fill="#fff"/><path d="M175.777 87.037l6.692 16.733c.097.225.482.129.386-.112l-6.693-16.718c-.096-.24-.481-.144-.385.097z" fill="#fff"/><path d="M183.192 103.833c.385-6.153.321-12.325-.193-18.468 0-.257-.417-.257-.401 0 .54 6.14.631 12.313.273 18.468 0 .257.385.257.401 0h-.08z" fill="#fff"/><path d="M182.872 85.573a46.097 46.097 0 013.868-1.092.198.198 0 10-.097-.385c-1.316.305-2.6.674-3.884 1.092-.24 0-.144.465.113.385zm13.463 37.546c-3.081 1.397-4.814-2.987-5.472-5.139a32.334 32.334 0 01-1.317-7.628c-.32-5.107-.304-10.567 2.055-15.256 1.011-1.976 3.29-5.766 5.97-4.48 2.247 1.075 3.21 4.175 3.755 6.423a38.564 38.564 0 01.402 15.112 29.17 29.17 0 01-1.878 6.552 8.03 8.03 0 01-3.515 4.432c-.24.112 0 .45.193.353a7.688 7.688 0 003.386-3.966 28.12 28.12 0 002.103-6.713c.5-2.727.704-5.5.609-8.27a33.737 33.737 0 00-1.267-8.945c-.626-2.008-1.75-4.642-3.884-5.444-2.135-.803-4.189 1.493-5.296 3.211-3.323 5.01-3.419 11.418-3.018 17.2a28.934 28.934 0 001.942 9.25c.899 2.136 2.745 4.818 5.425 3.693.241-.112 0-.449-.193-.353v-.032z" fill="#fff"/><path d="M196.079 112.744c-2.263.723-3.113-2.714-3.209-4.287a8.708 8.708 0 01.834-5.557 4.064 4.064 0 012.006-1.863c1.204-.321 2.135.803 2.568 1.767a9.858 9.858 0 01.433 5.813c-.321 1.494-1.075 3.598-2.664 4.127-.24.081-.144.482.113.386 1.605-.546 2.471-2.537 2.872-4.095a9.916 9.916 0 00-.577-6.761 2.958 2.958 0 00-2.215-1.606 3.208 3.208 0 00-2.456 1.381 8.33 8.33 0 00-1.428 6.424c.193 1.83 1.22 5.492 3.804 4.673.24 0 .128-.466-.113-.385l.032-.017zm12.198-34.62v40.148a.21.21 0 00.402 0V78.124a.213.213 0 00-.075-.11.212.212 0 00-.252 0 .213.213 0 00-.075.11z" fill="#fff"/><path d="M208.548 118.673a106.282 106.282 0 015.023-1.606c.241 0 .144-.466-.096-.386-1.605.514-3.371 1.076-5.04 1.606-.24 0-.144.482.113.386z" fill="#fff"/><path d="M213.827 116.873v-9.636a.208.208 0 00-.326-.109.208.208 0 00-.075.109v9.636a.204.204 0 00.075.109c.036.028.08.042.125.042.046 0 .09-.014.126-.042a.204.204 0 00.075-.109z" fill="#fff"/><path d="M208.55 78.313a29.16 29.16 0 014.814-1.606 5.324 5.324 0 015.537 1.22c2.359 2.667 2.584 7.05 2.536 10.407-.08 6.424-.738 15.867-7.784 18.645-.225.096-.128.498.112.401 5.569-2.216 7.19-8.415 7.736-13.81a37.739 37.739 0 000-10.15c-.417-2.441-1.236-5.444-3.515-6.777a6.11 6.11 0 00-4.365-.401 28.752 28.752 0 00-5.248 1.605c-.225.097-.128.482.112.386l.065.08z" fill="#fff"/><path d="M214.023 96.511c-1.156 0-1.204-1.605-1.284-2.44a29.095 29.095 0 01-.096-2.971c-.028-.96.059-1.92.257-2.859.224-.867.93-1.815 1.958-1.606 1.027.209 1.043 1.3 1.091 2.088.048.787.112 1.847.096 2.778 0 .965-.097 1.928-.289 2.875a7.25 7.25 0 01-.369 1.316 1.153 1.153 0 01-1.364.852c-.257 0-.257.385 0 .401a1.49 1.49 0 001.685-.963 9.943 9.943 0 00.642-2.73 21.579 21.579 0 000-3.052 12.985 12.985 0 00-.225-2.617 1.704 1.704 0 00-1.203-1.333 1.959 1.959 0 00-1.766.578 3.42 3.42 0 00-.85 2.055 21.953 21.953 0 00-.145 3.212c-.021 1.104.07 2.207.273 3.292a1.72 1.72 0 001.509 1.526c.257 0 .257-.385 0-.401h.08zm20.911-16.477v30.175a.208.208 0 10.401 0V80.034a.207.207 0 00-.201-.151.207.207 0 00-.2.151z" fill="#fff"/><path d="M234.997 79.776l-2.697.723a.428.428 0 00-.417.288 4.53 4.53 0 000 .659v1.397c0 .273.385.273.401 0v-1.83c0-.21 0-.097.113-.13l.321-.08 2.407-.642c.257 0 .144-.45-.112-.385h-.016zm-.03 30.385a15.32 15.32 0 01-1.83.786l-.465.145s-.112 0 0 0v-.257l-.144-1.076a.193.193 0 00-.193-.193c-.096 0-.225.081-.209.193l.161 1.269c0 .176 0 .385.192.482.193.096.354 0 .514 0a19.141 19.141 0 002.231-.916c.225-.112 0-.466-.209-.353l-.048-.08z" fill="#fff"/><path d="M232.285 109.614a1.424 1.424 0 00-.722.096.258.258 0 00-.097.128.165.165 0 000 .145.182.182 0 00.113.096.29.29 0 00.16 0h.241a.611.611 0 01.241 0 .257.257 0 00.16 0 .22.22 0 00.096-.112.276.276 0 000-.161.22.22 0 00-.112-.096l-.08-.096z" fill="#fff"/><path d="M231.402 109.92c-.77 2.104-2.953 3.854-5.168 2.489a8.993 8.993 0 01-2.985-4.689 32.915 32.915 0 01-1.509-10.23 30.526 30.526 0 011.397-10.358 11.79 11.79 0 012.519-4.657 3.575 3.575 0 012.632-1.124 3.465 3.465 0 012.665 1.927c.16.208.497 0 .353-.21a4.08 4.08 0 00-2.873-2.2 4.167 4.167 0 00-3.403 1.607 18.414 18.414 0 00-3.386 9.362 40.85 40.85 0 000 10.744 18.367 18.367 0 003.098 8.977 3.866 3.866 0 003.899 1.606 4.81 4.81 0 001.943-1.226c.54-.559.936-1.24 1.155-1.986.096-.241-.289-.353-.385-.113l.048.081z" fill="#fff"/><path d="M231.289 83.34l.722-.321a.221.221 0 00.096-.113.292.292 0 000-.16.223.223 0 00-.112-.096.258.258 0 00-.161 0l-.722.32-.096.113a.275.275 0 000 .16.254.254 0 00.128.097.323.323 0 00.161 0h-.016zm-2.037 19.386c-1.38.321-1.878-1.381-2.151-2.393a14.332 14.332 0 01-.513-3.388 14.014 14.014 0 01.273-3.389c.224-1.012.641-2.184 1.749-2.505 2.471-.723 2.68 4.127 2.712 5.573a16.135 16.135 0 01-.305 3.629c-.208 1.124-.497 2.216-1.765 2.473-.257 0-.145.434.112.385 2.103-.433 2.199-3.115 2.327-4.817a18.762 18.762 0 00-.128-3.678 8.045 8.045 0 00-.883-2.955 2.068 2.068 0 00-3.036-.542 2.07 2.07 0 00-.671.928 7.717 7.717 0 00-.706 2.874 14.028 14.028 0 000 3.581c.192 1.606.738 5.187 3.049 4.658.257 0 .144-.45-.112-.386l.048-.048zm17.283-26.241l-.241 2.553.145-.192h-.53a3.508 3.508 0 00-.578 0 .194.194 0 00-.15.162.205.205 0 00.006.078.221.221 0 00.183.18c.03.005.06.004.09-.003h.529c.193.016.386.016.578 0 .097 0 .145-.112.145-.193l.24-2.553c0-.257-.369-.257-.401 0l-.016-.032z" fill="#fff"/><path d="M246.859 76.533l2.022-.867c.096 0 .112-.193 0-.273a.19.19 0 00-.136-.057.19.19 0 00-.137.057l-2.022.85a.208.208 0 000 .274.208.208 0 00.273 0v.016z" fill="#fff"/><path d="M248.672 75.585v32.584a.204.204 0 00.075.109.204.204 0 00.251 0 .204.204 0 00.075-.109V75.585a.207.207 0 00-.201-.151.207.207 0 00-.2.151z" fill="#fff"/><path d="M248.672 108.249c.122 2.183-.2 4.369-.947 6.424-.674 1.895-1.605 4.256-3.595 5.203a3.042 3.042 0 01-3.033 0 4.234 4.234 0 01-1.605-2.313 26.104 26.104 0 01-1.155-6.664c0-.257-.434-.257-.402 0 .122 2.038.439 4.06.947 6.038a4.944 4.944 0 002.391 3.517 3.883 3.883 0 004.189-1.044 11.755 11.755 0 002.68-4.657 16.73 16.73 0 00.947-6.424c0-.257-.417-.257-.401 0l-.016-.08z" fill="#fff"/><path d="M245.363 104.522c.113.889.145 1.787.096 2.682a8.355 8.355 0 01-.481 2.585 1.85 1.85 0 01-1.701 1.269c-.819 0-1.156-.916-1.397-1.606-.08-.241-.465-.145-.385.096a2.554 2.554 0 001.413 1.831 1.987 1.987 0 002.038-.771 5.069 5.069 0 00.834-2.682 13.625 13.625 0 000-3.436c0-.257-.433-.257-.401 0l-.016.032z" fill="#fff"/><path d="M241.609 109.391a34.867 34.867 0 01-3.209 1.188c-.241 0-.129.466.112.385a34.703 34.703 0 003.354-1.22.207.207 0 00.107-.211.202.202 0 00-.027-.078.207.207 0 00-.272 0l-.065-.064zm3.851-5.142l-.593.144a.212.212 0 00-.072.032.206.206 0 00-.053.057.197.197 0 00-.02.152.189.189 0 00.089.124.182.182 0 00.074.026.186.186 0 00.078-.005l.61-.129a.225.225 0 00.144-.257.24.24 0 00-.257-.144z" fill="#fff"/><path d="M244.628 104.635a4.163 4.163 0 01-1.396 1.944c-1.172.738-2.344-.257-3.002-1.173a14.897 14.897 0 01-1.958-4.512 32.703 32.703 0 01-1.348-9.636c.025-3.23.567-6.433 1.605-9.491a12.864 12.864 0 012.022-4.336c1.734-2.007 3.964-.225 4.703 1.606.096.24.481.128.385-.112-.803-2.024-3.21-4.031-5.168-2.056a10.231 10.231 0 00-1.99 3.758 27.858 27.858 0 00-1.348 4.818 32.45 32.45 0 00-.337 9.732 26.348 26.348 0 002.584 9.378c.61 1.092 1.605 2.505 2.969 2.553 1.364.049 2.183-1.3 2.696-2.408.096-.241-.241-.434-.353-.209l-.064.144z" fill="#fff"/><path d="M242.011 97.106a5.612 5.612 0 01-2.038-4.224 10.572 10.572 0 01.578-5.187 3.85 3.85 0 011.605-2.087c1.155-.563 2.022.176 2.375 1.252.505 1.751.684 3.58.53 5.396a9.304 9.304 0 01-.642 3.1c-.402 1.011-1.252 2.232-2.488 1.75-.257 0-.353.305-.112.385 2.118.82 3.21-2.103 3.466-3.661a15.423 15.423 0 00-.321-6.906 2.085 2.085 0 00-3.771-1.076 8.293 8.293 0 00-1.734 5.91c.081 2.056.482 4.497 2.328 5.701.208.129.417-.209.192-.353h.032zm13.079-5.721c2.6-.642 5.19-1.343 7.768-2.104.241 0 .145-.465-.112-.385A212.283 212.283 0 01254.994 91a.201.201 0 00-.122.09.21.21 0 00-.026.073.184.184 0 00.004.078.194.194 0 00.163.148.197.197 0 00.077-.004z" fill="#fff"/><path d="M263.116 89.074c-.161-2.794-.337-5.588-.707-8.367a12.09 12.09 0 00-2.198-6.423 3.216 3.216 0 00-2.253-1.122 3.205 3.205 0 00-2.369.849 11.246 11.246 0 00-3.355 5.396 35.628 35.628 0 00-1.043 15.224c.433 3.212 1.493 10.39 6.243 9.748 2.055-.289 3.403-2.457 4.109-4.208a23.511 23.511 0 001.187-7.612c0-.257-.385-.257-.401 0-.144 3.565-.321 8.801-3.739 10.952-2.151 1.349-4.366-.369-5.329-2.312a21.99 21.99 0 01-1.604-6.247 38.989 38.989 0 01.353-13.024 16.308 16.308 0 012.038-5.492c1.155-1.831 3.595-4.176 5.681-2.104 1.717 1.718 2.055 4.529 2.343 6.809.337 2.634.498 5.283.658 7.917 0 .257.418.257.402 0l-.016.016z" fill="#fff"/><path d="M262.472 92.398l-3.209.595c-.257 0-.145.45.112.4l3.21-.61c.256 0 .16-.433-.097-.385h-.016z" fill="#fff"/><path d="M259.105 93.268a3.388 3.388 0 01-.642 2.136 1.604 1.604 0 01-1.958.417 2.83 2.83 0 01-1.123-1.91 13.175 13.175 0 01-.289-2.635.213.213 0 00-.075-.109.212.212 0 00-.252 0 .213.213 0 00-.075.11c.015.818.096 1.635.241 2.44.1.715.376 1.394.803 1.976a1.954 1.954 0 001.604.755 2.234 2.234 0 001.605-.948 3.82 3.82 0 00.61-2.216.207.207 0 00-.326-.11.207.207 0 00-.075.11l-.048-.016zm-4.558-7.133a6.427 6.427 0 01.353-3.1 2.702 2.702 0 011.894-1.927c1.043-.192 1.685.739 1.878 1.606.117.483.155.982.112 1.478a1.179 1.179 0 01-.931.883c-.529.176-1.091.273-1.605.401l-1.845.45c-.241 0-.145.434.112.385l1.99-.481a10.61 10.61 0 001.701-.45 1.448 1.448 0 00.963-.915 3.984 3.984 0 000-1.606 2.31 2.31 0 00-1.862-2.136 2.633 2.633 0 00-2.455 1.606 6.73 6.73 0 00-.61 3.918c0 .257.417.145.385-.112h-.08z" fill="#fff"/><path opacity=".15" d="M308.407.877L117.07 57.615a4.811 4.811 0 00-3.386 4.528v146.605a4.711 4.711 0 00.754 2.561 4.711 4.711 0 002.022 1.743L310.75.813a4.474 4.474 0 00-2.343.064z" fill="#fff"/><path d="M419.707 57.357c.204-1.791.274-3.595.208-5.396-.192-4.818-.802-9.925-3.691-13.86a19.003 19.003 0 00-9.95-6.744 31.535 31.535 0 00-15.038-.209c-4.382.851-8.795 2.586-11.475 6.344-2.985 4.175-1.734 9.089-.835 13.73a96.535 96.535 0 011.782 16.348c-.172 2.515.056 5.04.674 7.484a7.268 7.268 0 004.654 4.432c2.6.916 5.489.755 8.201 1.124a5.23 5.23 0 003.579-.546 9.268 9.268 0 002.247-2.296 15.668 15.668 0 0012.438-5.075 18.272 18.272 0 002.953-3.212 15.828 15.828 0 004.253-12.124z" fill="#FFD215"/><path d="M416.978 57.147a9.804 9.804 0 00-5.907-.722c-.481 0-1.364.176-1.749-.193-.385-.37-.481-1.43-.674-1.927a11.096 11.096 0 00-3.29-4.08 8.431 8.431 0 01-2.311-4.078 16.282 16.282 0 00-3.114-4.32c-.979-1.285.418-3.324.723-4.69.2-1.091.312-2.198.337-3.308 0-.642 0-1.75.61-2.168.415-.266.74-.652.93-1.108a30.474 30.474 0 00-5.681-.16 10.714 10.714 0 00-.674 3.436 13.978 13.978 0 01-.706 3.806 9.731 9.731 0 00-.706 3.646 5.954 5.954 0 001.332 3.437c.61.77 1.46 1.365 2.022 2.167.467.931.828 1.912 1.075 2.923a8.78 8.78 0 001.83 2.94c1.3 1.396 2.808 2.215 3.418 4.11a5.634 5.634 0 004.719 4.304 16.03 16.03 0 003.611 0 3.53 3.53 0 012.872.98 12.014 12.014 0 003.21 1.943 14.02 14.02 0 00.995-4.818c-1.059-.498-2.102-1.702-2.872-2.12z" fill="#000"/><path d="M413.479 79.646a315.796 315.796 0 01-2.376-5.316.608.608 0 00-.818-.209 14.436 14.436 0 01-11.234.852 10.802 10.802 0 01-6.42-6.568 10.17 10.17 0 006.227-10.133 4.541 4.541 0 00-3.306-4.352c-2.359-.386-4.382 1.605-5.473 3.468a18.757 18.757 0 00-1.974 6.713c-.176 1.22-.337 2.44-.562 3.661a7.174 7.174 0 01-.401 1.734c-.433.996-.931-.626-1.027-1.043a10.717 10.717 0 010-4.047c.177-1.606.353-3.373.514-5.059.304-3.083.561-6.183.738-9.282.176-3.1.176-6.087-1.461-8.592a6.42 6.42 0 00-6.162-3.212.417.417 0 00-.241 0 .51.51 0 00-.385.273 8.03 8.03 0 00-2.825 4.995c-.498 2.521-.128 5.3-1.364 7.644a4.392 4.392 0 01-2.68 2.393 5.71 5.71 0 00-2.472 1.028c-1.846 1.766 0 4.063.514 5.91.674 2.617-.963 5.299-1.477 7.82a17.376 17.376 0 00-.16 5.974 12.925 12.925 0 006.804 9.78 26.277 26.277 0 0013.562 2.184l2.487 6.376a.646.646 0 00.739.417 33.312 33.312 0 0021.505-12.397.67.67 0 00-.034-.834.675.675 0 00-.238-.178z" fill="#16205B"/><path d="M436.848 43.93a6.926 6.926 0 01-.289-3.66 5.943 5.943 0 00-.209-3.662 4.975 4.975 0 00-2.279-2.056 12.73 12.73 0 01-2.744-1.525 8.015 8.015 0 01-1.685-2.843c-.851-1.991-1.862-3.854-4.205-4.24a37.595 37.595 0 01-4.269-.304l-.386-.129a14.553 14.553 0 00-2.936-2.313 7.143 7.143 0 00-6.597.627c-1.043.562-2.006 1.236-3.049 1.815a13.567 13.567 0 01-3.595 1.3c-2.054.498-4.06 1.237-4.927 3.34-.867 2.104-.546 4.465-1.605 6.569a10.266 10.266 0 00-1.22 3.083 5.819 5.819 0 00.626 3.308 23.783 23.783 0 011.605 3.212 31.5 31.5 0 01.578 3.212 6.55 6.55 0 001.123 2.794 8.815 8.815 0 002.697 1.96c1.813 1.075 2.311 3.115 3.755 4.544a3.994 3.994 0 002.215 1.14c1.38.21 2.728-.417 4.108-.16a13.81 13.81 0 013.114 1.381 6.592 6.592 0 003.483.723c1.107-.097 2.182-.418 3.209-.61 1.028-.193 2.745.337 4.029-.097.861-.416 1.63-1 2.263-1.718a10.387 10.387 0 012.953-1.478 4.364 4.364 0 003.001-4.352 10.037 10.037 0 01.112-3.533c.401-1.108 1.156-2.055 1.461-3.212a5.26 5.26 0 00-.337-3.115z" fill="#FFD215"/><path d="M397.674 91.709l-.241-6.777c0-.466-.514-.98-1.027-.77a36.401 36.401 0 01-7.672 2.183h.241l2.536 6.295a.64.64 0 00.738.418 31.885 31.885 0 005.473-1.285l-.048-.064zm13.432-17.392a.613.613 0 00-.819-.21 14.436 14.436 0 01-11.234.852 10.805 10.805 0 01-6.42-6.424.862.862 0 00-.16.932 15.137 15.137 0 008.024 8.03 12.158 12.158 0 0011.395-1.27l-.786-1.91zm-16.61-19.642a3.53 3.53 0 013.675 2.104.71.71 0 00.466.401 4.109 4.109 0 00-3.098-3.292c-2.359-.385-4.381 1.606-5.473 3.469a18.798 18.798 0 00-1.974 6.713c-.176 1.22-.337 2.44-.561 3.661 0 .241 0 .514-.129.787a.707.707 0 001.108-.45c.385-1.862.786-3.725 1.171-5.588a19.41 19.41 0 011.493-5.075 4.808 4.808 0 013.322-2.73zm-7.29-2.712c0-.626.097-1.237.129-1.863.176-2.875.176-6.086-1.461-8.592a6.418 6.418 0 00-6.163-3.212.416.416 0 00-.24 0 .511.511 0 00-.385.273 4.905 4.905 0 00-.723.691.666.666 0 00.562.177 6.416 6.416 0 016.099 3.115 16.08 16.08 0 012.086 7.564c.048.626.064 1.205.096 1.847z" fill="#000"/><path d="M402.389 28.822a4.172 4.172 0 00-1.765 5.058c.851 2.168 3.049 2.666 5.104 3.116a11.235 11.235 0 016.419 4.03 13.07 13.07 0 004.622 4.32c4.109 1.607 9.63-1.14 11.363-5.01 1.605-3.34 1.412-9.635-2.375-11.578a5.65 5.65 0 00-2.777-.418 3.48 3.48 0 01-2.503-.658c-.434-.37-.787-.835-1.188-1.253a7.3 7.3 0 00-5.633-2.007 9.454 9.454 0 00-5.441 2.826c-1.011.851-2.215 1.317-3.21 2.104a2.076 2.076 0 00-.898 2.023c.433 2.41 3.482 2.329 5.28 2.875 2.921.915 4.558 3.115 6.227 5.524 1.219 1.767 2.873 3.614 5.168 3.758 2.295.145 3.739-1.879 4.541-3.822a6.423 6.423 0 00-.369-6.536 4.443 4.443 0 00-2.953-1.606c-.786-.129-1.605-.129-2.343-.321a7.525 7.525 0 01-2.263-1.076 4.813 4.813 0 00-3.097-1.076 2.104 2.104 0 00-1.814 1.51c-.513 2.65 3.868 2.36 5.088 3.452.192.177.481-.112.289-.273-1.316-1.172-3.676-.626-4.703-2.104a1.401 1.401 0 01.323-1.883c.188-.142.408-.234.64-.268a3.08 3.08 0 011.958.337c.883.433 1.605 1.076 2.536 1.461 1.926.851 4.333.177 5.874 1.863 1.541 1.686 1.268 4.529.353 6.6-.915 2.072-2.841 4.144-5.441 2.987-2.182-.931-3.29-3.083-4.606-4.914a10.367 10.367 0 00-4.028-3.565 11.29 11.29 0 00-2.584-.803c-1.236-.24-2.728-.417-3.418-1.606-.69-1.188.337-2.216 1.412-2.794a14.618 14.618 0 002.375-1.606 8.792 8.792 0 015.441-2.73 6.897 6.897 0 015.248 2.12 6.413 6.413 0 001.749 1.606 5.52 5.52 0 002.552.273c4.718-.08 5.681 6.054 4.815 9.635a9.338 9.338 0 01-9.341 6.986c-2.536 0-4.173-1.606-5.665-3.485a15.595 15.595 0 00-4.349-4.111c-1.926-1.06-4.141-1.028-6.083-1.975a3.763 3.763 0 01-.369-6.616c.208-.145 0-.483-.209-.354l.048-.016z" fill="#F15928"/><path d="M434.264 39.563a1.606 1.606 0 00-1.059-1.83 2.277 2.277 0 00-2.423.963 9.997 9.997 0 00-1.236 3.517 6.938 6.938 0 01-2.616 4.03c-2.552 1.703-6.323 1.607-9.132.643a16.323 16.323 0 01-4.173-2.152 4.651 4.651 0 00-3.097-1.028 5.344 5.344 0 00-4.237 4.818 18.677 18.677 0 000 4.545 7.047 7.047 0 001.203 3.533 3.685 3.685 0 002.584 1.526c1.461.112 2.873-.964 4.318-.547 1.444.418 1.909 1.719 3.033 2.313a4.299 4.299 0 003.531 0 14.158 14.158 0 014.381-1.493c1.445.185 2.911.12 4.333-.193a9.203 9.203 0 002.969-2.056 3.943 3.943 0 00.931-3.1c0-2.938 1.766-5.523 1.605-8.446-.096-1.606-1.605-4.641-3.21-2.473a12.088 12.088 0 00-1.412 3.308 7.887 7.887 0 01-2.841 3.661 10.39 10.39 0 01-9.292 1.06c-2.52-.819-5.104-2.698-7.896-2.087-2.311.497-2.408 3.099-1.172 4.817 1.701 2.265 4.574 2.104 7.078 1.702a9.51 9.51 0 013.017-.08c.835.16 1.605.45 2.504.578a9.204 9.204 0 003.803-.208 14.97 14.97 0 003.98-1.767c.787-.498 1.991-1.124 2.007-2.2 0-2.73-3.868.145-4.671.562a10.458 10.458 0 01-5.103 1.22.21.21 0 00-.11.326.211.211 0 00.11.076c2.354-.015 4.65-.73 6.596-2.056a4.57 4.57 0 011.605-.85c1.605-.13 1.107.995.722 1.605a3.795 3.795 0 01-.979.755 15.652 15.652 0 01-3.675 1.815 9.497 9.497 0 01-3.611.482c-1.332-.113-2.584-.659-3.916-.755-2.761-.21-5.521 1.3-8.025-.418a3.642 3.642 0 01-1.685-3.645c.417-1.783 2.696-1.606 4.109-1.35 2.327.547 4.365 1.928 6.724 2.394 3.98.786 8.522-.498 10.577-4.24.418-.865.766-1.762 1.043-2.682.132-.389.299-.765.497-1.124.353-.658.369-.739 1.172-.739.802 0 .786 0 1.123.627.195.36.331.751.401 1.156.514 2.521-.946 4.818-1.364 7.242-.176.98 0 1.976-.128 2.971-.161 1.494-1.493 2.425-2.68 3.212-2.247 1.446-4.911.193-7.319 1.14a18.82 18.82 0 01-3.29 1.333 3.928 3.928 0 01-3.755-1.477 3.677 3.677 0 00-1.91-1.14 7.506 7.506 0 00-2.905.465c-3.579.787-4.526-3.019-4.702-5.733-.177-2.714 0-5.781 2.439-7.29 2.44-1.51 5.007 1.188 7.351 2.184a13.697 13.697 0 007.302.947 6.867 6.867 0 005.392-3.389c.493-1.02.855-2.1 1.076-3.211.145-.81.445-1.584.882-2.28.193-.282.445-.518.739-.691.85-.466 2.295-.129 2.054 1.172 0 .257.353.353.385.112l.048-.08z" fill="#F15928"/><path d="M404.203 50.629a6.885 6.885 0 012.167-5.621c1.107-1.028 3.21-2.522 2.102-4.304a4.541 4.541 0 00-2.102-1.462l-3.21-1.525a4.106 4.106 0 00-2.552-.61 2.805 2.805 0 00-1.765 1.108c-1.14 1.606-.209 3.565.61 5.026a7.672 7.672 0 011.171 3.212 22.465 22.465 0 000 2.746c.096.53.433 1.43 1.091 1.446.658.016.787-1.044.867-1.606.106-1.053.299-2.095.578-3.116.305-.931 1.043-1.606 1.348-2.553a2.584 2.584 0 00-.626-2.457c-.497-.643-1.171-1.478-2.022-1.606a1.14 1.14 0 00-1.364.995c0 1.108 1.396 1.446 1.605 2.41 0 .24.465.144.385-.113a2.922 2.922 0 00-1.108-1.35c-.433-.4-.866-1.14-.128-1.477a1.332 1.332 0 011.38.402 4.818 4.818 0 011.461 1.991c.257.9-.289 1.606-.755 2.313a10.85 10.85 0 00-1.187 4.32 2.82 2.82 0 01-.225 1.044c-.578.754-.931-.579-.995-.932-.056-.748-.056-1.5 0-2.248a8.68 8.68 0 00-1.396-3.919c-.787-1.445-1.605-3.629 0-4.817 1.605-1.189 3.482.257 4.959.963 1.476.707 4.125 1.381 3.563 3.34a5.037 5.037 0 01-1.814 2.2 7.178 7.178 0 00-2.632 6.2c0 .256.434.256.402 0h.192zm196.603 280.008c-.433-3.115-2.375-6.054-3.788-8.816-3.001-5.91-6.082-11.771-9.308-17.553a234.22 234.22 0 00-21.65-32.905 145.28 145.28 0 00-15.151-16.268.831.831 0 00-.979-.128 136.77 136.77 0 01-19.74 11.241 17.985 17.985 0 00-6.949 4.705c-2.183 2.795-1.734 6.183-1.172 9.459.747 4.239.958 8.556.626 12.848a4.474 4.474 0 00-1.813 2.987 43.478 43.478 0 00-.626 5.781 91.298 91.298 0 00-.225 6.295c-.15 1.738.035 3.488.546 5.155 1.284 3.212 4.814 3.437 7.816 3.453 4.215 0 8.436-.139 12.662-.418a79.443 79.443 0 0112.358-.321 27.412 27.412 0 0110.849 3.34c6.227 3.405 11.234 8.496 16.98 12.655a22.17 22.17 0 0011.443 4.818c1.95.196 3.916-.131 5.697-.948a2.65 2.65 0 001.028-1.076 1.34 1.34 0 00.513-.224c1.075-.916 1.043-2.859.883-4.08zm-2.745 3.598c0-.081.081-.081 0 0zm-236.916 147.84a8.03 8.03 0 00-5.248-4.545.767.767 0 00-.658-.541.77.77 0 00-.754.396l-2.937 5.782c-.145.273-.401 1.06-.706 1.124-.305.064-.61-.562-.755-.787a10.492 10.492 0 01-1.235-2.65 57.485 57.485 0 00-3.483-9.202 30.99 30.99 0 00-13.529-13.506c-2.905-1.413-6.42-2.537-9.036.113a16.522 16.522 0 00-2.536 4.127c-.802 1.606-1.605 3.212-2.487 4.738a64.416 64.416 0 01-12.631 16.83 39.399 39.399 0 01-9.036 6.15 102.306 102.306 0 01-10.704 4.256c-6.42 2.313-14.027 4.818-18.248 10.535-1.846 2.505-2.905 6.038.144 8.029a10.085 10.085 0 003.997 1.398c1.974.337 3.948.594 5.938.819a167.704 167.704 0 0024.924.77c16.867-.562 33.703-2.649 50.57-2.328 2.071 0 4.125.112 6.179.225a.819.819 0 00.803-.803l1.733-21.584c.257-3.019.963-6.456-.305-9.346z" fill="#F15928"/><path d="M535.775 280.258a23.007 23.007 0 00-4.814-6.183 3.987 3.987 0 00-3.13-1.285 13.615 13.615 0 00-3.9 1.702l-9.966 4.818c-.546-.401-1.493.305-1.156 1.108a429.846 429.846 0 007.334 16.316.82.82 0 001.268.161c1.766-1.927 5.168-1.349 7.495-1.301 3.21.096 6.42.225 9.63.434a.819.819 0 00.802-.803 29.842 29.842 0 00-3.563-14.967zM360.518 460.059c-7.912 2.489-16.803 3.485-24.587 0a1.172 1.172 0 00-1.396 1.509 49.36 49.36 0 013.129 3.469 16.569 16.569 0 012.728 4.095c.691 1.735-.144 2.939-1.235 4.224-1.092 1.285-2.215 2.569-3.322 3.693a356.543 356.543 0 01-3.483 3.501c-.899.868-1.027 1.783 0 2.586a21.957 21.957 0 005.713 3.035 34.98 34.98 0 0013.016 2.28c1.572.03 3.137-.22 4.622-.738a3.331 3.331 0 002.103-1.831 23.99 23.99 0 00.85-4.272 312.007 312.007 0 002.889-20.78.797.797 0 00-.321-.643.79.79 0 00-.338-.147.79.79 0 00-.368.019z" fill="#FFD215"/><path d="M339.847 170.335a76.414 76.414 0 00-5.281-10.021 12.137 12.137 0 00-2.92-3.405 13.182 13.182 0 00-4.318-1.895c-1.829-.546-3.675-1.059-5.504-1.605l-3.082-.884a3.851 3.851 0 00-1.605-.289c-.738.177-.818.755-.545 1.494l-.578-.594c-1.605-1.815-3.114-3.79-4.719-5.637-.754-.9-2.856-3.485-4.269-2.313-.594.482-.465 1.413-.401 2.088.09 1.003.262 1.996.514 2.971a2.679 2.679 0 00-2.472 1.782 5.231 5.231 0 00.915 4.353c-2.006 1.188-1.268 3.789-.321 5.604-2.119 1.606 0 5.107.995 6.874a37.413 37.413 0 005.505 7.804 13.416 13.416 0 007.655 4.304c1.605.305 3.354.45 5.007.819a24.379 24.379 0 015.425 1.959.378.378 0 00.351.028.384.384 0 00.227-.268c.866-5.316 3.21-11.242 8.65-13.105l.161.337c.128.482.818.065.61-.401zm26.271-63.547a42.8 42.8 0 01-4.285-9.154c-1.044-2.826-1.942-5.925-3.981-8.206a68.293 68.293 0 00-7.928-6.825l-6.419-5.171-.177-.193a21.017 21.017 0 00-3.033-2.939 1.492 1.492 0 00-2.199.225c-.69.948-.16 2.136.241 3.067a43.8 43.8 0 004.413 7.356c.803 1.172 1.605 2.328 2.359 3.517.434.658.947 1.413 1.381 2.184-2.023-2.104-4.077-4.208-6.276-6.151a54.474 54.474 0 00-3.996-3.212c-.722-.514-1.46-1.044-2.231-1.51a2.387 2.387 0 00-1.604-.481 1.602 1.602 0 00-1.244 1.635c.011.25.08.492.2.71a6.95 6.95 0 001.268 1.782c.594.723 1.22 1.413 1.846 2.12 1.059 1.172 2.166 2.296 3.21 3.388l-.995-.61a3.21 3.21 0 00-4.446.37 4.818 4.818 0 00-.738 3.211 1.604 1.604 0 00-1.605 1.606 2.811 2.811 0 001.605 2.329 27.447 27.447 0 017.366 6.295c1.846 2.521 3.21 5.364 5.088 7.885a39.136 39.136 0 006.291 6.552c2.648 2.216 5.489 4.208 8.33 6.183.385.273.754-.305.465-.626a22.73 22.73 0 016.821-14.695.415.415 0 00.341-.449.43.43 0 00-.068-.193z" fill="#D1D1D1"/><path d="M338.035 168.872a17.656 17.656 0 00-9.212 6.552 16.367 16.367 0 00-2.905 6.841c1.322.393 2.61.892 3.852 1.494a.389.389 0 00.496-.079.376.376 0 00.081-.162c.867-5.316 3.21-11.242 8.651-13.105l.16.338c.209.465.899 0 .691-.418l-.739-1.606a3.558 3.558 0 00-1.075.145zm27.138-63.657h-.642a13.653 13.653 0 00-9.934 9.138 15.577 15.577 0 00-.867 4.673c1.605 1.22 3.307 2.393 4.992 3.565.385.273.754-.305.465-.626a22.728 22.728 0 016.821-14.695.413.413 0 000-.481c-.177-.514-.53-1.044-.835-1.574z" fill="#000"/><path d="M336.653 181.798l-.289-.192.819.626a5.49 5.49 0 01-.61-.61l.626.819a4.573 4.573 0 01-.61-1.044l.401.963a6.575 6.575 0 01-.369-1.365l.144 1.076a6.95 6.95 0 010-1.413l-.144 1.06a8.202 8.202 0 01.481-1.734l-.401.963c.391-.889.892-1.726 1.493-2.489l-.626.803a17.103 17.103 0 012.76-2.842l-.818.626a8.132 8.132 0 011.605-.932l-.963.402c.41-.157.835-.275 1.267-.353l-1.059.144a5.886 5.886 0 011.3 0l-1.075-.144c.363.054.719.151 1.059.289l-.963-.402c.281.115.545.266.787.45l-.819-.626.289.24a4.01 4.01 0 006.796-2.862 4.018 4.018 0 00-1.131-2.822 8.355 8.355 0 00-8.393-1.735 14.173 14.173 0 00-6.275 4.818 12.734 12.734 0 00-3.21 7.756 8.74 8.74 0 003.9 7.468 4.023 4.023 0 005.488-1.445 4.128 4.128 0 00-1.444-5.493h-.016zm30.62-58.805l-.465-.53c-.434-.498 0-.257 0 0 0-.321-.594-.867-.771-1.156a20.715 20.715 0 01-.658-1.237c-.208-.417.177.53 0 0-.176-.53-.16-.434-.224-.658a9.243 9.243 0 01-.338-1.349c0-.129-.192-.932 0-.289.193.642 0-.209 0-.289a12.054 12.054 0 010-1.317c0-.755-.144.642 0 .144 0-.209.001-.433.113-.642.112-.209.241-.851.369-1.269.128-.417 0 0-.112.225.133-.227.251-.463.353-.707.262-.348.493-.719.69-1.108 0 .193-.498.595-.129.193l.434-.466c.08-.08.369-.449.481-.449-.385.289-.465.353-.224.192.24-.16.16-.112-.097 0l-.561.097c-.61-.113-.755-.129-.45 0 .305.128.161 0-.128 0-.706-.37.224.128.208.144-.016.016-.722-.626 0 0 .37.337.691.707 1.028 1.076a4.01 4.01 0 005.665 0 4.094 4.094 0 000-5.669c-2.391-2.778-6.099-4.56-9.63-2.489a13.106 13.106 0 00-5.376 7.259c-1.878 5.669.241 11.787 4.173 16.059a4.01 4.01 0 005.665 0 4.077 4.077 0 000-5.669l-.016-.096z" fill="#E2E2E2"/><path d="M334.551 176.178a18.16 18.16 0 00-4.461 9.989 8.93 8.93 0 002.52 2.57 4.057 4.057 0 005.36-1.253 2.107 2.107 0 010-.337v-.161c.084-.46.191-.915.321-1.365 0-.241.144-.465.225-.706a4.208 4.208 0 00-1.413-2.714 1.62 1.62 0 01-.16-.161v-.112l-.096-.322v-.513c0-.177.096-.354.16-.53a14.28 14.28 0 01.979-1.606 17.276 17.276 0 012.07-2.12l.53-.321.417-.113h.241l.193.113a4.01 4.01 0 005.264-.305 4.082 4.082 0 000-5.685 6.647 6.647 0 00-.658-.514 18.906 18.906 0 00-11.492 6.166zm32.26-53.716a.58.58 0 00-.081-.177.832.832 0 01.081.177z" fill="#000"/><path d="M369.748 109.646a15.904 15.904 0 00-5.714 3.79 17.233 17.233 0 00-3.595 6.039 16.224 16.224 0 00-.85 6.6c.595.92 1.272 1.786 2.022 2.586a4.012 4.012 0 005.665 0c.235-.26.44-.545.61-.852a23.01 23.01 0 01-.225-.979v-.08c.01-.145.01-.29 0-.434v-2.313a.792.792 0 000-.257v-.256a3.716 3.716 0 00-.385-.498l-.465-.53c-.305-.354-.193-.321-.08-.177-.177-.305-.546-.707-.674-.931a31.48 31.48 0 01-.642-1.221c-.209-.417-.161-.401-.225-.61a9.24 9.24 0 01-.337-1.349v-.273c.128.61 0-.225 0-.305a12.054 12.054 0 010-1.317v-.466c.101-.418.224-.831.369-1.236.08-.177.161-.37.241-.514.08-.145.497-.675.642-1.012l.545.562a4.013 4.013 0 005.666 0 4.13 4.13 0 001.139-2.874 3.528 3.528 0 00-3.707-1.093zm-2.167 14.1s0-.032 0 0zm-2.439-9.009c.03-.046.057-.094.08-.144a.615.615 0 01-.08.144zm.112-.225c.112-.337.08-.192 0 0zm.803-1.397c-.081.129-.225.321 0 0zm.738-.787s.144-.128.192-.128l-.192.128z" fill="#000"/><path d="M333.862 291.052a10.745 10.745 0 00-1.445-2.489 8.37 8.37 0 00-.69-.803 1.06 1.06 0 00.69-1.124 4.09 4.09 0 00-.883-1.863 12.15 12.15 0 00-1.364-1.606 13.769 13.769 0 00-1.974-1.606c.562-1.22-.963-2.65-1.765-3.388a13.72 13.72 0 00-4.333-2.618 8.022 8.022 0 00-5.553-.402 19 19 0 00-5.12 3.036c-3.276 2.61-6.7 5.028-10.255 7.242a59.314 59.314 0 01-5.425 2.762c-.995.434-2.006.771-3.001 1.205a1.153 1.153 0 00-.803 1.076 9.244 9.244 0 00.803 3.035c.401 1.188.85 2.377 1.22 3.565a12.7 12.7 0 01.481 6.906h-.08a.397.397 0 00-.288.342.408.408 0 00.043.23c.037.07.095.128.165.166a.384.384 0 00.595.31.382.382 0 00.159-.213.866.866 0 000-.161c6.179-1.606 12.679-.449 18.841-2.088a15.92 15.92 0 006.725-3.452 15.087 15.087 0 003.579-5.653l3.467 2.73a9.93 9.93 0 004.028 2.521 2.108 2.108 0 001.91-.482 1.99 1.99 0 00.417-1.718 5.42 5.42 0 00-1.059-1.959c-.161-.225-.353-.434-.53-.659l.129.081c.577.337 1.508.658 1.797-.225a4.33 4.33 0 00-.481-2.698z" fill="#D1D1D1"/><path d="M299.452 296.351a11.6 11.6 0 00-5.232-7.644l-1.476.594a1.155 1.155 0 00-.803 1.076 9.244 9.244 0 00.803 3.035c.401 1.189.85 2.377 1.22 3.566.797 2.212.963 4.603.481 6.905h-.08a.397.397 0 00-.288.342.405.405 0 00.208.397.384.384 0 00.754.096.866.866 0 000-.161 27.265 27.265 0 014.397-.722c.54-2.465.545-5.017.016-7.484z" fill="#000"/><path d="M287.432 295.035c.337 0 .674.241.995.289-.802-.128-.674-.305-.289-.112l.45.257c.288.192.674.61-.129-.145l.305.273c.273.241.498.498.738.755.514.578-.529-.803-.128-.145l.225.354c.111.182.213.369.305.562.289.53-.161-.386-.145-.386.145.319.253.653.321.996.019.212.057.421.112.626-.096-.08-.096-1.124 0-.337v1.076c0 .353.225-1.044 0-.305 0 .176-.08.353-.128.53a4.925 4.925 0 01-.16.514c0 .16-.305.787 0 .144.305-.642 0 0 0 .113 0 .112-.161.321-.257.481a4.437 4.437 0 01-.305.45c-.369.578.481-.562.176-.193-.304.37-.481.562-.738.819l-.417.37c-.482.465.61-.418.209-.145-.402.273-.658.45-1.012.643l5.489 5.492a13.074 13.074 0 001.059-8.576 44.595 44.595 0 00-2.134-6.552 4.015 4.015 0 00-4.935-2.802 4.01 4.01 0 00-2.915 3.375 4.02 4.02 0 00.114 1.563c.658 1.927 1.509 3.806 1.974 5.797 0 .209.097.418.129.627.009.123.009.246 0 .369v-.434a2.45 2.45 0 000 .755v.626c0 .209-.097.482 0 .627 0-.611.112-.771 0-.45a2.691 2.691 0 01-.081.353 7.272 7.272 0 00-.208.723l.225-.498c0 .145-.145.289-.225.434a4.097 4.097 0 00.626 4.818 4.157 4.157 0 004.814.642 12.85 12.85 0 006.709-11.643 11.518 11.518 0 00-8.57-10.519 4.01 4.01 0 00-4.935 2.803 4.017 4.017 0 002.8 4.938l-.064.048z" fill="#E2E2E2"/><path d="M224.902 154.34a7.72 7.72 0 01-1.428-1.606 8.589 8.589 0 01-.578-1.782 4.46 4.46 0 00-1.38-2.521 4.805 4.805 0 00-1.605-.643 2.102 2.102 0 01-1.605-1.606 3.946 3.946 0 00-1.733-2.376 4.816 4.816 0 00-3.13-.37 12.991 12.991 0 00-3.53 1.462 7.353 7.353 0 01-5.024.674 14.867 14.867 0 00-8.618.321c-2.857 1.124-4.815 3.421-7.286 5.043-2.472 1.622-5.184 2.136-6.998 4.4a8.335 8.335 0 00-1.605 3.372c-.288 1.301 0 2.682-.272 3.967-.273 1.285-2.135 2.136-3.066 3.067a9.01 9.01 0 00-2.054 3.02 9.635 9.635 0 001.188 8.029 59.093 59.093 0 014.365 7.805 4.127 4.127 0 001.701 2.473 6.284 6.284 0 001.605.257c.818.161 1.22 1.253 1.605 1.927l5.553 9.282 2.6 4.368a.652.652 0 00.259.419.644.644 0 00.479.111 37.908 37.908 0 008.891-3.019 68.227 68.227 0 008.025-4.143 13.214 13.214 0 005.312-5.894 21.088 21.088 0 001.316-8.286 51.679 51.679 0 01.273-9.331 17.663 17.663 0 014.269-8.029c1.605-2.056 3.595-4.352 3.659-7.147a4.39 4.39 0 00-1.188-3.244z" fill="#F15928"/><path d="M291.314 309.486a21.782 21.782 0 001.461-11.675 15.425 15.425 0 00-2.154-5.668 15.422 15.422 0 00-4.169-4.401 3.607 3.607 0 00-1.814 2.345 4.681 4.681 0 000 1.702 3.606 3.606 0 00-.53 3.212c.658 1.927 1.509 3.806 1.974 5.797 0 .193.097.402.129.595a2.645 2.645 0 000 .722v1.156c0 .097-.145.418-.177.595a4 4 0 002.852 6.002 3.993 3.993 0 002.525-.462l-.097.08zm-3.097-14.228a.86.86 0 01-.369-.113l.369.113zm.674.466l-.193-.177.129.112.064.065zM192.5 183.774c-4.172 5.251 1.878 12.751 7.447 13.554a.837.837 0 00.899-.37.82.82 0 00-.128-.979 18.28 18.28 0 00-2.135-1.51l-.626 1.478c.834.275 1.695.458 2.568.546 1.043.08 1.027-1.526 0-1.606a9.188 9.188 0 01-2.263-.498.82.82 0 00-.915.483.822.822 0 00.289.994c.642.37 1.253.788 1.83 1.253l.77-1.349a9.424 9.424 0 01-6.099-3.967c-1.412-1.927-2.279-4.817-.625-6.889.625-.803-.498-1.943-1.14-1.14h.128z" fill="#000"/><path d="M236.46 193.539c-.385-2.794-1.284-5.46-1.733-8.238a5.623 5.623 0 01.818-4.176 1.907 1.907 0 00.129-2.296c-.658-.899-1.814-1.413-2.568-2.248a12.49 12.49 0 01-2.279-3.79c-1.092-2.666-1.509-5.557-2.408-8.287a22.751 22.751 0 00-10.03-12.51.357.357 0 00-.418 0 .438.438 0 00-.288.112c-1.878 1.895-4.671 2.554-6.227 4.818-1.557 2.265-1.974 5.894-4.927 6.906-1.248.212-2.452.63-3.563 1.236a5.514 5.514 0 00-1.814 2.698 11.764 11.764 0 00.899 8.03c1.268 3.035 2.873 5.942 4.349 8.881a19.983 19.983 0 012.135 4.817c.087.462.087.936 0 1.397-.257.996-1.188.402-1.605 0-.418-.401-1.284-1.349-1.91-2.023-1.156-1.221-2.295-2.457-3.467-3.678a11.533 11.533 0 00-3.21-2.585 4.457 4.457 0 00-5.954 1.381 7.33 7.33 0 00.755 7.58 8.764 8.764 0 007.27 3.726 6.886 6.886 0 01-2.135 3.565 9.72 9.72 0 01-4.927 2.216.32.32 0 00-.257.209.39.39 0 00-.112.273c.035.85-.13 1.697-.481 2.473a.576.576 0 000 .241v.128a.407.407 0 000 .177c2.551 2.874 6.419 3.918 9.998 4.561 4.815.819 9.63 1.317 14.541 1.814a.292.292 0 00.179-.029.29.29 0 00.126-.131.37.37 0 00.176-.225c.289-1.429.578-2.843.851-4.256 1.29.234 2.592.395 3.9.482 2.907.335 5.851.067 8.65-.787a8.46 8.46 0 005.056-4.448 15.422 15.422 0 00.481-8.014z" fill="#16205B"/><path d="M213.604 204.908a.407.407 0 00-.359.178.396.396 0 00-.066.197c-.005.07.009.14.04.203l-.16 5.027 4.108.433a.286.286 0 00.179-.03.283.283 0 00.126-.13.362.362 0 00.177-.225c.289-1.429.577-2.843.85-4.256h.45a85.718 85.718 0 01-5.297-1.461l-.048.064zm-6.58-13.969c-.658-.642-1.284-1.349-1.91-2.023-1.155-1.221-2.295-2.457-3.467-3.678a11.543 11.543 0 00-3.209-2.585 5.555 5.555 0 00-2.52-.563c2.937.547 4.815 3.293 6.741 5.509.642.867 2.792 3.742 4.365 3.34zm4.431-33.982c-1.605 2.28-1.974 5.894-4.927 6.905a11.471 11.471 0 00-3.563 1.237 5.514 5.514 0 00-1.814 2.698 11.765 11.765 0 00.899 8.03c.321.77.658 1.525 1.011 2.264-.128-.45-.273-.915-.369-1.381-.626-2.843-1.14-6.697.321-9.395.915-1.606 2.471-1.879 4.044-2.601a6.099 6.099 0 002.568-2.249c1.605-2.569 1.605-6.118 4.478-7.82a8.687 8.687 0 00-2.648 2.312zm2.775-2.41a13.468 13.468 0 004.029-2.585.38.38 0 00-.289 0c-.107 0-.21.04-.289.112a17.248 17.248 0 01-3.451 2.473z" fill="#000"/><path d="M288.796 291.097a17.259 17.259 0 00-12.261-7.243c-5.666-.819-11.235.37-16.836 1.446a100.04 100.04 0 01-10.496 1.493c-3.418.305-6.853.53-10.271.996-.819.112-1.605.257-2.456.401 2.424-4.448 4.815-8.928 6.901-13.505a68.2 68.2 0 006.099-17.521 30.392 30.392 0 00-1.412-16.445 25.096 25.096 0 00-10.368-11.755 45.902 45.902 0 00-10.946-4.705 24.67 24.67 0 00-4.814-11.723 14.445 14.445 0 00-5.971-4.256 28.511 28.511 0 00-7.43-1.413 46.417 46.417 0 01-8.282-1.221c-2.76-.755-5.408-1.847-8.024-2.858a33.464 33.464 0 00-16.322-2.506c-4.815.675-9.982 3.004-12.165 7.677a.77.77 0 000 .835 21.455 21.455 0 00-5.601 3.34c-6.131 5.091-8.827 13.201-10.047 20.877-1.605 9.636-1.284 19.56-2.76 29.244a110.092 110.092 0 01-3.724 14.453 48.473 48.473 0 00-2.166 14.453c0 9.845 2.776 19.416 5.777 28.73a59.975 59.975 0 00-14.332 24.169c-3.883 12.27-4.14 25.326-2.423 37.98a160.626 160.626 0 004.654 21.616l-44.84 47.632-25.52 27.092c-3.483 3.709-7.11 7.547-9.164 12.269a17.334 17.334 0 00.385 14.598 42.137 42.137 0 008.522 12.076 24.31 24.31 0 0012.31 6.922c11.09 2.071 20.96-4.818 28.551-12.141 8.763-8.351 17.173-17.103 25.679-25.695 8.506-8.592 17.477-17.424 26.128-26.241 4.301-4.384 8.586-8.816 12.839-13.281a104.805 104.805 0 0010.785-12.622 49.604 49.604 0 006.773-15.305 155.186 155.186 0 003.723-17.488 169.283 169.283 0 019.549 16.059c3.017 5.91 5.633 12.029 8.105 18.179a464.638 464.638 0 00-14.926 12.607 451.092 451.092 0 00-29.658 28.649c-4.173 4.417-8.908 8.961-8.763 15.497.128 6.247 3.852 11.948 7.623 16.67 3.531 4.448 8.025 8.736 13.546 10.422 6.419 1.927 12.582-.899 18.424-3.212a226.762 226.762 0 0035.308-17.552 232.76 232.76 0 0016.402-11.065 158.072 158.072 0 0014.926-12.205 43.629 43.629 0 0010.784-15.256 46.215 46.215 0 003.002-18.308c-.402-13.457-5.906-26.112-12.165-37.819-6.051-11.242-12.952-22.162-19.259-33.323-6.308-11.161-11.973-22.483-15.472-34.624v-.16c8.587.755 17.381-2.57 25.021-6.328 5.264-2.585 10.416-5.476 15.904-7.596 5.104-1.991 10.753-2.922 15.327-6.086a20.109 20.109 0 008.137-11.241 17.22 17.22 0 00-2.311-13.683z" fill="#fff"/><path d="M226.751 336.724a51.908 51.908 0 01-16.755-4.818 32.566 32.566 0 01-7.784-4.93 23.204 23.204 0 01-4.975-6.633 40.992 40.992 0 01-3.21-9.025c-.241-1.012-1.734-.578-1.605.434a41.199 41.199 0 0012.845 23.304 41.161 41.161 0 0024.405 10.581c-1.027-3.004-2.038-5.894-2.921-8.913z" fill="#000"/><path d="M159.938 309.97a3.86 3.86 0 00-1.397-.53l-1.605-.45-7.222-1.991a.824.824 0 10-1.605.369 6.42 6.42 0 001.3 4.818 6.154 6.154 0 002.648 1.365c1.011.3 2.049.504 3.098.61 1.797.193 4.157.161 5.087-1.702a1.96 1.96 0 00-.304-2.489z" fill="#E2E2E2"/><path d="M189.017 402.871l.193-1.22c-8.024-13.715-17.975-26.402-22.581-41.754a50.83 50.83 0 01-2.247-15.738c0-.514-.786-.514-.802 0-.466 19.48 11.378 35.989 21.233 51.775 1.444 2.28 2.872 4.593 4.204 6.937zm29.804 23.271c.401-.321-.176-.883-.561-.562a542.24 542.24 0 01-11.636 9.459c.096.225.193.434.273.659l-2.6 2.152a870.945 870.945 0 0014.524-11.708zm5.777-132.668c8.361-4.818 18.007-6.633 27.428-8.303.497-.08.288-.851-.209-.771-9.501 1.606-19.259 3.453-27.621 8.383a.402.402 0 00.402.691zm1.977 42.735v-.097c-7.126-1.076-14.445-2.441-20.495-6.616a30.671 30.671 0 01-11.892-17.986c-2.119-8.656-.835-17.489 1.941-25.824a128.046 128.046 0 003.788-12.847 82.646 82.646 0 001.733-12.558c.53-9.106-1.524-20.331 5.666-27.462.369-.369-.209-.931-.578-.562-6.179 6.135-5.714 15.369-5.746 23.399a87.038 87.038 0 01-4.814 27.461 69.873 69.873 0 00-3.403 13.008 43.39 43.39 0 00.113 12.847 32.631 32.631 0 0010.544 19.432c6.548 5.621 15.134 7.259 23.431 8.511l-.288-.706zm-9.151-113.602a83.008 83.008 0 0111.523 2.377c-.754-.241-1.492-.498-2.246-.723 0-.24-.097-.497-.145-.738a83.215 83.215 0 00-9.132-1.719c-.513-.064-.513.739 0 .803zm-53.811-14.584a.807.807 0 00.096.771l-.369.16a31.017 31.017 0 0116.258-.385c.497.128.706-.659.208-.771a31.799 31.799 0 00-16.193.225z" fill="#0075E7"/><path d="M189.291 231.47c.69-5.107 1.797-13.361-2.76-17.151-2.183-1.783-5.441-2.056-8.025-2.65l-10.608-2.329c-7.078-1.606-14.14-3.212-21.249-4.657-5.313-1.06-12.15-2.457-16.627 1.462-4.478 3.918-5.633 10.968-6.42 16.476a165.552 165.552 0 00-1.268 32.761c0 3.613.097 7.211.145 10.824.192 11.948-.979 26.578 8.313 35.732 4.526 4.464 10.673 5.604 16.643 6.889l20.864 4.497c5.489 1.172 12.197 3.211 17.028-.819 4.831-4.031 4.012-12.141 3.21-17.569-.979-7.066-2.52-13.924-2.889-21.07a147.153 147.153 0 01.626-20.877c.77-7.259 2.07-14.357 3.017-21.519z" fill="#D1D1D1"/><path d="M122.381 242.439c15.257 5.106 30.6 9.983 46.028 14.629.979.306 1.413-1.252.418-1.605a1690.01 1690.01 0 01-46.013-14.63c-.979-.338-1.412 1.22-.433 1.606z" fill="#fff"/><path d="M185.344 312.522c4.814-3.967 4.012-12.141 3.209-17.569-.979-7.066-2.519-13.923-2.888-21.07a147.005 147.005 0 01.626-20.877c.706-7.21 2.006-14.308 2.953-21.471.69-5.106 1.797-13.361-2.761-17.151a10.851 10.851 0 00-4.51-1.927 19.815 19.815 0 00-8.73 11.338 79.037 79.037 0 00-2.969 14.726c-.803 5.733-1.381 11.498-1.605 17.296a181.876 181.876 0 001.476 33.821 59.999 59.999 0 003.82 15.063c1.605 4.031 4.253 8.222 8.442 9.523a10.087 10.087 0 002.937-1.702z" fill="#E2E2E2"/><path d="M163.613 219.589a35.691 35.691 0 00-2.166 13.955c0 1.028 1.604 1.044 1.604 0a34.385 34.385 0 012.119-13.521c.353-.964-1.204-1.381-1.605-.434h.048zm-5.697-.614a37.417 37.417 0 00-1.605 12.928c0 1.028 1.605 1.028 1.605 0a36.226 36.226 0 011.461-12.51c.304-.98-1.252-1.413-1.605-.418h.144zm-4.574-1.284a29.715 29.715 0 00-1.894 12.51c0 1.027 1.605 1.044 1.605 0a28.185 28.185 0 011.846-12.077c.369-.963-1.188-1.381-1.605-.433h.048zm-24.911 21.665a.806.806 0 00.803-.803.806.806 0 00-.803-.803.804.804 0 000 1.606zm-1.25 9.394a.802.802 0 10.001-1.604.802.802 0 00-.001 1.604zm53.044 46.571a30.884 30.884 0 00.722 10.229c.056.204.151.395.281.561a1.593 1.593 0 001.068.609 1.607 1.607 0 001.749-2.021 27.707 27.707 0 01-.61-9.378 1.607 1.607 0 00-1.605-1.606 1.605 1.605 0 00-1.605 1.606zm-18.219 9.412c6.195 0 6.211-9.635 0-9.635s-6.211 9.635 0 9.635zm-13.561-2.504c6.211 0 6.211-9.635 0-9.635s-6.195 9.635 0 9.635zm16.772-50.201a.806.806 0 00.802-.803.806.806 0 00-.802-.803.802.802 0 100 1.606zm-.708 7.387a.803.803 0 10-.001-1.606.803.803 0 00.001 1.606z" fill="#fff"/><path d="M171.959 495.662a16.045 16.045 0 00-8.169-3.581 14.12 14.12 0 00-9.068 2.087c-3.852 2.281-7.511 4.979-11.234 7.468l-11.556 7.757a.75.75 0 00-.746.629.768.768 0 00.024.35l7.752 25.984a.791.791 0 00.468.527.794.794 0 00.703-.045 620.374 620.374 0 0121.378-11.386 747.043 747.043 0 0111.009-5.492 12.336 12.336 0 004.269-2.586 8.027 8.027 0 001.348-4.416c.707-6.247-1.187-13.185-6.178-17.296z" fill="#D1D1D1"/><path d="M178.058 514.047c0-.369.096-.738.128-1.092.032-.353 0-.53 0-.803a282.04 282.04 0 01-15.182 7.339 48.502 48.502 0 00-.851-2.971h.193l15.808-8.399c0-.562-.16-1.124-.257-1.606l-16.29 8.64a34.962 34.962 0 00-1.235-3.003.678.678 0 00.337-.096l16.257-8.945a17.372 17.372 0 00-.593-1.51l-16.467 9.074a.869.869 0 00-.192.144c-.482-.947-.995-1.895-1.605-2.826a.516.516 0 00.192 0l15.552-10.15a19.7 19.7 0 00-1.124-1.188l-15.23 9.957a.642.642 0 00-.209.209 39.499 39.499 0 00-1.877-2.666c4.814-3.212 9.452-6.424 14.042-9.925a14.754 14.754 0 00-1.604-.819c-4.35 3.212-8.747 6.424-13.273 9.363a.841.841 0 00-.177.16 48.01 48.01 0 00-2.246-2.537 456.76 456.76 0 0111.587-8.11 13.261 13.261 0 00-2.76 0 528.8 528.8 0 00-9.951 7.034c-.546-.514-1.107-.996-1.605-1.478l-1.348.916a40.655 40.655 0 0114.348 26.498l1.605-.755a40.725 40.725 0 00-.546-3.212h.225c4.804-2.409 9.587-4.823 14.348-7.243z" fill="#F8FBFF"/><path d="M148.703 522.257c6.195 0 6.195-9.636 0-9.636s-6.211 9.636 0 9.636zm-3.677 9.312a5.653 5.653 0 00-3.209 0 37.289 37.289 0 00-4.237-20.588c-1.477-2.73-3.692-5.316-7.078-5.075-1.88.284-3.718.796-5.473 1.526a40.067 40.067 0 01-5.649 1.333c-5.922.915-13.401.417-16.482 6.745a25.027 25.027 0 00-1.878 10.342 86.663 86.663 0 00.738 11.53c.433 3.919.947 7.821 1.075 11.756a60.332 60.332 0 01-1.011 11.899 41.957 41.957 0 00-.85 11.322 17.528 17.528 0 003.547 9.058 14.445 14.445 0 0017.156 4.641c6.323-2.907 9.196-9.861 10.881-16.172 1.942-7.291 3.659-14.566 6.789-21.455a61.036 61.036 0 015.328-9.475 9.23 9.23 0 002.343-4.48 2.878 2.878 0 00-.497-1.795 2.878 2.878 0 00-1.493-1.112z" fill="#0975E7"/><path d="M123.2 539.565c-.097-8.559-.097-23.607-10.143-27.204a9.184 9.184 0 00-8.346.658 9.507 9.507 0 00-1.749 2.473 25.036 25.036 0 00-1.942 10.359 86.663 86.663 0 00.738 11.53c.433 3.918.947 7.821 1.075 11.755a60.336 60.336 0 01-1.011 11.9 41.957 41.957 0 00-.85 11.322 17.521 17.521 0 003.547 9.057 15.09 15.09 0 008.457 5.444 14.269 14.269 0 008.571-6.825c6.756-11.851 1.797-27.654 1.653-40.469z" fill="#0C6ABF"/><path d="M135.157 519.67a5.79 5.79 0 00-2.456-4.368 3.654 3.654 0 00-4.62.24 3.663 3.663 0 00-.692 4.578 4.497 4.497 0 003.707 2.778 3.973 3.973 0 002.494-.693 3.968 3.968 0 001.534-2.085.26.26 0 000-.225s.049-.145.033-.225zm-3.644 2.393a3.562 3.562 0 01-3.209-1.863 3.369 3.369 0 01.224-3.918 3.012 3.012 0 013.435-.466 4.81 4.81 0 012.359 3.854v.209a3.12 3.12 0 01-2.809 2.184z" fill="#fff"/><path d="M143.183 531.361c-7.045 5.926-9.629 15.289-14.733 22.756v.097l-.722.337a58.44 58.44 0 0114.235-23.447V529.9a59.187 59.187 0 00-14.636 23.238l-.145-16.349a47.727 47.727 0 00-.738-8.945 39.732 39.732 0 00-2.696-8.431 20.04 20.04 0 00-9.1-10.085c-.53 0-1.043.129-1.605.193a17.808 17.808 0 019.357 9.041 39.01 39.01 0 013.916 17.055c.208 12.028.288 24.089.321 36.117 0 4.32-.321 9.25-2.665 12.96.56-.396 1.096-.825 1.605-1.285a22.501 22.501 0 001.846-7.949c.176-3.212 0-6.424 0-9.636v-10.31a11.76 11.76 0 019.501-.738c.08-.257.16-.514.257-.771a12.624 12.624 0 00-7.511-.241c4.815-7.5 7.511-16.83 14.813-22.483a6.218 6.218 0 00-1.3.08z" fill="#fff"/><path d="M68.536 503.367a16.27 16.27 0 00-8.667-2.601 14.327 14.327 0 00-8.875 3.211c-3.61 2.763-6.949 5.91-10.4 8.881l-10.688 9.218a.77.77 0 00-.61 1.076c3.66 8.394 7.313 16.803 10.962 25.229a.828.828 0 00.913.482.827.827 0 00.338-.145 639.049 639.049 0 0120.142-14.067 650.634 650.634 0 0110.432-6.874 12.332 12.332 0 003.964-3.115 8.18 8.18 0 00.834-4.625c-.064-6.376-2.808-13.137-8.345-16.67z" fill="#D1D1D1"/><path d="M76.95 521.163v-1.927a297.394 297.394 0 01-14.445 9.234 34.839 34.839 0 00-1.22-2.874l.193-.097 14.91-10.374a19.191 19.191 0 00-.466-1.606l-15.44 10.583a41.812 41.812 0 00-1.604-2.858.65.65 0 00.321-.145 7794.988 7794.988 0 0015.295-11 17.854 17.854 0 00-.787-1.43L58.22 519.798a.564.564 0 00-.16.177c-.61-.899-1.236-1.799-1.91-2.65l.192-.112 14.444-12.125c-.41-.369-.838-.717-1.284-1.044L55.38 515.912a1.263 1.263 0 00-.192.241c-.706-.851-1.429-1.606-2.215-2.457 4.446-3.758 8.747-7.692 12.952-11.707a16.598 16.598 0 00-1.702-.627c-3.98 3.79-8.024 7.484-12.229 11.033a.85.85 0 00-.16.193c-.835-.787-1.686-1.606-2.584-2.281a1081.9 1081.9 0 0110.688-9.635 13.16 13.16 0 00-2.776.305 482.47 482.47 0 00-9.18 8.287c-.61-.45-1.236-.868-1.862-1.285l-1.252 1.092a41.19 41.19 0 0117.654 24.94l1.445-.948a48.603 48.603 0 00-.947-3.212 1.2 1.2 0 00.224-.08 285.023 285.023 0 0013.706-8.608z" fill="#F8FBFF"/><path d="M48.331 532.997c6.243-.755 5.088-10.454-1.171-9.635-6.26.819-5.072 10.454 1.171 9.635zm-2.551 9.813a5.932 5.932 0 00-3.21.37 37.966 37.966 0 00-6.788-20.219c-1.814-2.553-4.366-4.898-7.736-4.239a24.918 24.918 0 00-5.296 2.168 37.693 37.693 0 01-5.505 2.023c-5.858 1.606-13.45 2.056-15.792 8.801a25.436 25.436 0 00-.69 10.663 87.316 87.316 0 002.134 11.53c.915 3.887 1.91 7.773 2.504 11.724a61.2 61.2 0 01.45 12.108 42.459 42.459 0 00.513 11.499 17.96 17.96 0 004.67 8.736 14.63 14.63 0 0017.846 2.569c6.019-3.693 8.025-11.048 8.988-17.665 1.075-7.58 1.926-15.112 4.237-22.483a59.991 59.991 0 014.22-10.181c.771-1.462 1.943-3.052 1.814-4.818a2.956 2.956 0 00-2.359-2.586z" fill="#0975E7"/><path d="M24.756 553.54c-1.14-8.624-2.97-23.768-13.513-26.177a9.349 9.349 0 00-8.33 1.686 9.653 9.653 0 00-1.46 2.698 25.44 25.44 0 00-.69 10.664 87.316 87.316 0 002.134 11.53c.915 3.886 1.91 7.773 2.504 11.723a61.07 61.07 0 01.45 12.109 42.451 42.451 0 00.513 11.498 17.953 17.953 0 004.67 8.704 15.358 15.358 0 009.18 4.433 14.58 14.58 0 007.816-7.917c5.425-12.751-1.573-28.056-3.274-40.951z" fill="#0C6ABF"/><path d="M34.387 532.033a5.867 5.867 0 00-3.002-4.095 3.98 3.98 0 00-4.43.674 4.083 4.083 0 00-.336 4.818 4.602 4.602 0 004.06 2.345 4.015 4.015 0 003.724-3.292.403.403 0 000-.241.354.354 0 00-.016-.209zm-3.339 2.859a3.598 3.598 0 01-3.45-1.494 3.405 3.405 0 01-.257-3.983 3.05 3.05 0 013.386-.867 4.825 4.825 0 012.89 3.581.21.21 0 00.08.113v.096a3.213 3.213 0 01-2.649 2.554z" fill="#fff"/><path d="M43.904 542.843c-6.42 6.825-7.896 16.573-12.085 24.715a.225.225 0 000 .096c-.24.129-.465.289-.69.434a59.294 59.294 0 0111.475-25.358v-1.22a60.058 60.058 0 00-11.924 25.197 5741.551 5741.551 0 00-2.135-16.461 48.545 48.545 0 00-1.83-8.913 40.433 40.433 0 00-3.739-8.174 20.332 20.332 0 00-10.512-9.057l-1.605.385a18.073 18.073 0 0110.529 8.03 39.264 39.264 0 016.018 16.701c1.605 12.093 3.21 24.217 4.702 36.326.546 4.368.819 9.379-1.107 13.393.503-.46.975-.954 1.412-1.477a22.64 22.64 0 00.883-8.238c-.193-3.212-.706-6.424-1.123-9.636-.418-3.212-.819-6.311-1.236-9.475l-.113-.883a11.899 11.899 0 019.47-1.895c0-.273.112-.546.176-.819a12.831 12.831 0 00-7.607.658c3.98-8.126 5.537-17.841 12.197-24.378a5.257 5.257 0 00-1.156.049z" fill="#fff"/><path d="M304.845 300.877c5.167 0 5.167-8.029 0-8.029-5.168 0-5.168 8.029 0 8.029z" fill="#0075E7"/><path d="M333.012 294.103a94.12 94.12 0 00-9.405-7.323c-.433-.289-.834.402-.401.691a92.619 92.619 0 0110.705 8.511 6.891 6.891 0 00-.915-1.509c-.161-.225-.353-.434-.53-.659l.129.08.417.209zm-.597-5.543a8.37 8.37 0 00-.69-.803c.163-.064.307-.169.417-.305a50.823 50.823 0 00-7.029-4.593c-.45-.241-.867.45-.401.69a49.272 49.272 0 018.024 5.38c-.16-.128-.225-.257-.321-.369zm-4.22-7.096c.088-.207.121-.434.097-.658a41.653 41.653 0 00-6.276-2.698c-.497-.161-.706.61-.224.771a41.171 41.171 0 017.286 3.211c-.289-.192-.578-.481-.883-.626z" fill="#000"/><path opacity=".21" d="M175.794 200.286a33.45 33.45 0 0116.322 2.505c2.665 1.012 5.313 2.104 8.025 2.859a46.495 46.495 0 008.281 1.22c2.529.139 5.028.615 7.431 1.413a14.445 14.445 0 016.018 4.272 20.724 20.724 0 013.724 7.082 44.116 44.116 0 0019.032-17.841 44.151 44.151 0 00-4.105-49.689 44.083 44.083 0 00-69.114.86 44.15 44.15 0 00-2.868 49.776 19.815 19.815 0 017.254-2.457z" fill="#fff"/><path opacity=".39" d="M178.056 176.709a40.149 40.149 0 011.332-4.352l.321-.803c-.161.386.24-.53.272-.61.332-.728.685-1.434 1.06-2.12a36.967 36.967 0 012.391-3.87 26.463 26.463 0 012.456-3.051 34.14 34.14 0 0113.866-9.379 4.126 4.126 0 002.808-4.93 4.056 4.056 0 00-4.943-2.81 42.833 42.833 0 00-17.37 11.476 42.861 42.861 0 00-9.913 18.314 4.017 4.017 0 002.801 4.938 4.01 4.01 0 004.935-2.803h-.016zm36.912-25.742c5.152 0 5.168-8.029 0-8.029s-5.184 8.029 0 8.029z" fill="#fff"/><path d="M170.48 189.539c.496.408.943.871 1.332 1.381l-.626-.819a8.531 8.531 0 011.076 1.847l-.401-.964c.031.068.057.138.08.209a4.607 4.607 0 001.845 2.409c.447.286.963.447 1.493.466.525.144 1.08.144 1.605 0l.947-.402a3.895 3.895 0 001.444-1.445l.401-.964a4.009 4.009 0 000-2.135 12.379 12.379 0 00-3.514-5.188 3.224 3.224 0 00-1.3-.835 3.73 3.73 0 00-3.098 0 3.217 3.217 0 00-1.284.835l-.626.819a3.912 3.912 0 00-.545 2.024l.144 1.06a3.934 3.934 0 001.027 1.766v-.064z" fill="#D1D1D1"/><path d="M170.69 191.983l.193.225-.497-.659c.115.16.211.333.288.514.199.365.486.674.835.899.313.277.687.475 1.091.579.421.112.864.112 1.284 0a2.312 2.312 0 001.188-.386l.642-.498a3.2 3.2 0 00.834-1.413l.113-.851a3.213 3.213 0 00-.434-1.606 3.208 3.208 0 00-.224-.401v-.081l-.53-.69-.144-.177a2.315 2.315 0 00-1.044-.658 2.325 2.325 0 00-1.235-.289 2.367 2.367 0 00-1.236.289 2.26 2.26 0 00-1.027.658l-.498.642a3.106 3.106 0 00-.449 1.606l.112.868a3.34 3.34 0 00.835 1.413l-.097.016z" fill="#fff"/><path d="M172.309 189.572c-2.857 3.067-7.415 3.212-11.347 3.212-4.814 0-9.549-.723-14.347-.819-6.885-.145-14.669 1.236-19.484 6.616-4.815 5.38-5.12 13.281-4.815 20.315a82.894 82.894 0 01-2.311 25.695c-4.542 15.963-18.986 32.52-12.261 49.864 2.664 6.793 8.024 11.851 12.582 17.376a43.874 43.874 0 015.794 9.153 62.372 62.372 0 004.67 8.961c4.366 6.312 12.631 9.218 19.259 4.433 6.42-4.545 6.596-13.024 6.131-20.171-.369 0-.722 0-1.059-.08a14.396 14.396 0 01-2.183-.385c.449 6.086.786 14.035-4.67 17.97a10.004 10.004 0 01-9.855 1.012 14.999 14.999 0 01-6.419-6.729c-1.509-2.73-2.68-5.637-4.109-8.415a44.932 44.932 0 00-5.424-8.03c-4.334-5.267-9.758-10.197-12.069-16.798-2.809-8.029-.369-16.765 2.905-24.297s7.174-14.453 9.421-22.258a75.839 75.839 0 002.776-23.784c-.257-6.729-1.172-14.582 2.921-20.427 4.734-6.761 14.139-7.098 21.57-6.617 7.431.482 18.569 2.811 24.475-3.533 1.524-1.509-.739-3.774-2.151-2.264z" fill="#16205B"/><path d="M200.524 440.883a376.392 376.392 0 00-8.618 7.387 451.123 451.123 0 00-29.659 28.65c-3.081 3.211-6.419 6.6-8.024 10.759a100.545 100.545 0 0114.845-16.83 4863.431 4863.431 0 0121.361-20.379l10.095-9.587zm-13.225-29.582c-2.359 15.898-13.545 29.067-24.507 40.308-13.866 14.245-27.925 28.297-41.888 42.445a13249.324 13249.324 0 00-20.767 21.021 44.106 44.106 0 003.21-2.971c8.762-8.35 17.172-17.103 25.678-25.694 8.506-8.592 17.477-17.425 26.128-26.241 4.301-4.384 8.586-8.817 12.839-13.281a104.815 104.815 0 0010.785-12.623 49.575 49.575 0 006.773-15.304 121.22 121.22 0 001.813-7.596l-.064-.064z" fill="#000"/><path d="M513.706 309.054c3.691-1.494 6.965-3.292 8.361-7.291 1.204-3.453.449-7.596-.337-11.065a24.4 24.4 0 00-4.526-10.246 10.464 10.464 0 00-10.576-3.597 4.06 4.06 0 00-2.407 5.91 45.481 45.481 0 014.445 9.073c.562 1.606 1.059 3.212 1.461 4.947.208.835.385 1.606.545 2.521.097.498.177.98.257 1.477l.096.643v.208a4.13 4.13 0 004.061 4.063c1.958-.096 4.285-1.782 4.012-4.014a56.03 56.03 0 00-7.912-22.933l-2.391 5.91c.706-.193-.209-.129.208 0h.385c-.449 0 .578.193.562.177-.385-.113-.176-.097.08 0 .257.096.45.24.658.385-.545-.353.097.128.209.241.193.177.37.37.53.578.192.209.176.209 0 0l.224.337c.289.514.594 1.028.851 1.606.257.578-.177-.466 0 .161.128.305.241.626.353.931.445 1.269.82 2.561 1.123 3.87.241 1.022.423 2.057.546 3.1.065.581.097 1.166.096 1.75v.964c0 .321.177-.45 0 0-.176.45-.144.61-.256.899.16-.385.08-.16 0 0-.418.61.128 0-.177.209 0 0-.594.514-.273.273.321-.241-.513.305-.497.305l-.658.337-.658.322c-1.108.513.706-.273-.418.176a4.127 4.127 0 00-2.808 4.93c.61 1.879 2.856 3.646 4.943 2.811l-.112.032z" fill="#0065AA"/><path d="M522.485 300.122a48.145 48.145 0 00-10.929 2.361 6.146 6.146 0 01-.514-2.055c0-.948.77-1.365 1.461-1.847a41.318 41.318 0 013.37-2.184 45.569 45.569 0 016.419-3.019c0-.289-.096-.546-.16-.819a44.22 44.22 0 00-8.137 4.063c-.69.433-1.364.883-2.022 1.365a7.5 7.5 0 00-1.348 1.059v.257c.096.498.176.98.257 1.478v.787c-.191.097-.374.21-.546.337.144.482.337.915.481 1.285a.387.387 0 00.45.176 47.924 47.924 0 0110.865-2.425c.134-.265.252-.539.353-.819zm-17.654-16.329a41.082 41.082 0 017.238-4.401 33.026 33.026 0 012.183-.947l.433-.193a9.547 9.547 0 00-.867-.514l-.706.305a40.575 40.575 0 00-8.682 5.075c.144.225.273.45.401.675zm5.216 9.859a51.494 51.494 0 017.206-3.517 16.866 16.866 0 013.579-1.237.839.839 0 01.45 0 23.144 23.144 0 00-.273-.963c-.847.18-1.67.455-2.456.819a49.582 49.582 0 00-8.586 3.982 11.759 11.759 0 01-1.99-3.212c-.241-.835 0-.819.562-1.156l.931-.578c.674-.401 1.348-.803 2.054-1.172a53.766 53.766 0 017.543-3.373c-.129-.225-.257-.465-.401-.69a52.917 52.917 0 00-8.827 4.079c-.797.432-1.569.909-2.311 1.429-.112.079-.215.17-.305.273a46.52 46.52 0 011.444 3.517l.241.771c.208.305.385.61.594.899a.398.398 0 00.545.129z" fill="#fff"/><path d="M331.79 446.92a11.25 11.25 0 00.273 12.189 15.951 15.951 0 0011.395 6.664c4.791.943 9.753.474 14.283-1.349a12.059 12.059 0 007.158-10.84 4.044 4.044 0 00-2.455-3.661 4.123 4.123 0 00-4.382.819c-.369.305-.385.321 0 0l-.609.433a18.94 18.94 0 01-2.6 1.413c.754-.321-.626.209-.771.257-.942.305-1.909.53-2.889.675.883-.145-.609 0-.77 0-.438.024-.878.024-1.316 0h-1.284l-.738-.08c.449 0 .433 0 0 0a22.165 22.165 0 01-2.857-.755l-.69-.257c.385.16.369.16 0 0-.369-.161-.883-.45-1.3-.707-.432-.243-.85-.511-1.252-.803.738.546-.77-.899-.224-.16a4.144 4.144 0 00-5.489-1.446c-1.605 1.076-2.777 3.71-1.429 5.509 3.403 4.544 9.469 6.664 15.006 6.825a22.556 22.556 0 0015.054-5.268l-6.853-2.842c0 .193-.144 1.188 0 .401a5.836 5.836 0 01-.305 1.044c.337-.883-.786 1.14-.256.45a6.23 6.23 0 01-.755.835s-.947.707-.353.305c-.257.177-.529.337-.802.498-.273.161-.835.401-.417.225a18.483 18.483 0 01-8.779.642c.401 0-.61-.112-.706-.128a11.025 11.025 0 01-1.22-.273 12.026 12.026 0 01-.995-.289l-.578-.193a10.181 10.181 0 01-1.942-1.124c.449.353-.305-.305-.353-.354-.048-.048-.674-.786-.369-.401.305.385-.241-.385-.289-.466-.048-.08-.562-1.108-.225-.321a7.247 7.247 0 01-.337-.996c0-.112-.176-1.059-.112-.497.064.562 0-.386 0-.498 0-.916-.225.61 0-.273 0-.225.433-1.028 0-.321.166-.304.349-.599.546-.884a4.032 4.032 0 00-1.445-5.492 4.12 4.12 0 00-5.489 1.445l-.08.049z" fill="#0075E7"/><path d="M351.228 466.079a96.311 96.311 0 01-.273-9.877.401.401 0 00-.401-.401c-1.605.144-3.082.257-4.639.417-.946.097-1.444.37-1.492 1.365-.161 2.763 0 5.541 0 8.303l.802.112v-6.263c-.04-.582-.04-1.167 0-1.75 0-.498.193-.803.69-.964.306-.067.619-.094.931-.08l3.306-.305a96.592 96.592 0 00.273 9.507l.803-.064zm-12.57-1.861v-2.408a34.895 34.895 0 011.428-9.636.417.417 0 00-.288-.498l-2.408-.722a2.352 2.352 0 00-1.605-.145c-1.027.418-1.524 2.168-1.893 3.083a20.657 20.657 0 00-1.365 5.718c.241.321.466.642.723.947a20.15 20.15 0 01.818-4.818 18.96 18.96 0 011.444-3.469c.658-1.204 2.536-.401 3.724 0a34.918 34.918 0 00-1.316 11.146v.578l.85.401a1.172 1.172 0 00-.112-.177zm18.057-12.013a.4.4 0 00-.353-.353l-.241.144h-.16v.129c.394 4.27.49 8.563.289 12.847l.818-.321c.161-4.152.043-8.31-.353-12.446z" fill="#fff"/><path d="M53.595 490.652a18.204 18.204 0 00-.802 2.264c1.942-5.155 6.05-9.49 9.63-13.537l11.442-12.848-11.138 11.836c-3.434 3.726-7.077 7.564-9.132 12.285z" fill="#000"/><path d="M386.695 106.467a19.43 19.43 0 00-19.259 2.843c-5.232 4.272-6.724 11.097-5.328 17.52a35.008 35.008 0 009.629 16.301c2.52 2.569 6.308 5.909 9.63 2.489a15.411 15.411 0 002.423-4.127 59.604 59.604 0 002.119-4.995 54.457 54.457 0 003.29-22.37 4.029 4.029 0 00-7.88-1.06 229.467 229.467 0 01-7.945 22.659l7.479 2.04 1.027-26.883c.145-4.561-6.692-5.396-7.88-1.076a156.144 156.144 0 00-4.349 22.049h8.025a97.124 97.124 0 00-2.536-17.264 4 4 0 00-4.414-2.874 4.046 4.046 0 00-3.466 3.95 68.512 68.512 0 001.059 17.553 4.032 4.032 0 004.927 2.81 4.09 4.09 0 002.809-4.946 59.804 59.804 0 01-.771-15.417l-7.88 1.06a85.31 85.31 0 012.215 15.064 4.012 4.012 0 108.024 0 142.79 142.79 0 014.061-19.914l-7.848-.995-.931 26.883a4.019 4.019 0 002.965 3.877 4.007 4.007 0 004.514-1.854 257.212 257.212 0 008.747-24.586l-7.88-1.076a47.86 47.86 0 01-1.06 13.778 50.732 50.732 0 01-2.038 6.729 39.767 39.767 0 01-1.22 2.811c-.256.53-.513 1.059-.786 1.606-.128.256-.273.513-.417.77-.482.771-.337.707.433-.192l2.022-.546h-.401l2.022.546c.177.257.129.257-.112 0l-.626-.562-1.027-.964a32.733 32.733 0 01-2.119-2.264 32.252 32.252 0 01-3.354-4.577 17.822 17.822 0 01-2.921-9.893 8.573 8.573 0 014.574-6.953 12.353 12.353 0 0110.336-.161 4.041 4.041 0 004.895-2.874 4.098 4.098 0 00-2.777-4.915zm19.69 137.496a4.044 4.044 0 00-5.665 0c-10.336 12.125-20.72 24.217-31.007 36.374-9.212 10.904-19.772 23.752-19.853 38.879a24.97 24.97 0 008.442 19.384 4.042 4.042 0 006.503-1.356 4.052 4.052 0 00.206-2.546c-2.279-9.636 2.295-19.095 6.853-27.301 4.028-7.275 8.136-14.453 12.229-21.76.883-.916 1.765-1.831 2.68-2.698a3.534 3.534 0 00.995-3.87 3.987 3.987 0 00-1.974-5.236c1.412-1.606 2.809-3.212 4.221-4.946l16.37-19.271a4.115 4.115 0 000-5.653zm104.417 41.58a23.099 23.099 0 00-9.339-9.781 23.08 23.08 0 00-13.21-2.874 60.285 60.285 0 00-13.978 3.613 73.598 73.598 0 01-13.225 3.357 64.769 64.769 0 00-12.614 2.521 25.145 25.145 0 00-11.026 7.612c-6.741 8.11-11.828 18.083-16.049 27.686a159.032 159.032 0 00-10.047 30.978 4.032 4.032 0 002.68 4.722 4.18 4.18 0 002.263.819c18.184 1.027 36.913-.851 54.053-7.034 8.53-2.991 16.625-7.1 24.074-12.221 7.928-5.557 14.348-12.237 17.654-21.471a35.47 35.47 0 00-1.236-27.927z" fill="#EAEAEA"/><path d="M494.013 195.657a93.093 93.093 0 00-7.174-16.059c-3.065-5.396-6.772-10.358-10.127-15.561a82.006 82.006 0 01-8.281-16.878 173.06 173.06 0 01-5.12-17.906c-.369-1.478-.722-2.971-1.075-4.449a.705.705 0 00-.481-.53 275.904 275.904 0 00-11.604-36.23 238.991 238.991 0 00-3.739-8.88.741.741 0 00.096-.9 18.477 18.477 0 00-13.561-8.896 23.567 23.567 0 00-17.654 5.348c-4.671 3.741-8.025 8.832-12.968 12.317-4.943 3.485-11.379 3.967-15.552 8.335-4.172 4.368-4.557 10.342-3.209 15.738a18.633 18.633 0 00-2.841 2.039c-4.911 4.288-7.318 10.696-8.185 17.007a81.395 81.395 0 00.481 21.985 129.572 129.572 0 005.152 21.616 170.735 170.735 0 002.52 7.274 100.603 100.603 0 00-12.839-7.435c-5.441-2.553-11.572-4.673-17.654-4.464a18.668 18.668 0 00-13.249 6.658 18.698 18.698 0 00-4.229 14.219 22.28 22.28 0 007.11 13.794 40.88 40.88 0 007.479 5.075c2.792 1.606 5.537 3.212 8.201 5.091 5.344 3.629 10.432 7.628 15.68 11.386a47.235 47.235 0 0016.675 8.078 34.03 34.03 0 0014.621.224c-5.81 14.727-12.342 29.164-19.179 43.36-7.88 16.461-16.178 32.713-24.25 49.061-8.073 16.348-15.905 32.664-22.95 49.398-6.95 16.493-14.605 34.511-12.326 52.819 1.605 13.586 10.608 28.296 25.357 29.982 8.25.948 16.708-2.409 23.432-6.969a61.695 61.695 0 0015.889-16.252 126.516 126.516 0 0012.165-23.688c3.627-8.848 7.045-17.777 10.56-26.69 3.515-8.913 7.126-18.131 10.705-27.188 3.434-8.688 6.965-17.344 11.026-25.775a198.99 198.99 0 0113.16-22.949c4.814-7.194 9.774-14.212 14.444-21.503a182.077 182.077 0 004.526-7.58.759.759 0 00.738 0 59.972 59.972 0 0021.859-20.556 67.916 67.916 0 0010.303-28.906 79.836 79.836 0 00-3.932-34.56z" fill="#fff"/><path d="M473.471 177.015a1.786 1.786 0 00-1.477-1.269 3.816 3.816 0 00-2.167.771l-4.702 2.634-2.054 1.14a7.493 7.493 0 00-2.006 1.285 1.29 1.29 0 00-.177.273.885.885 0 00-.616.455.905.905 0 00-.042.765 3.208 3.208 0 003.515 1.606 15.317 15.317 0 004.445-1.606c2.167-1.028 6.356-2.955 5.281-6.054z" fill="#E2E2E2"/><path d="M487.322 145.619c-5.393-20.267-11.042-40.887-21.987-58.97a36.005 36.005 0 00-8.667-10.71 12.657 12.657 0 00-5.778-2.49 13.3 13.3 0 00-7.158 1.237 126.194 126.194 0 00-14.155 7.58 210.906 210.906 0 00-13.898 8.993 166.972 166.972 0 00-6.5 4.817 28.901 28.901 0 00-5.409 4.818 9.913 9.913 0 00-2.247 6.263 19.29 19.29 0 001.878 7.355 118.925 118.925 0 007.848 14.566c2.793 4.673 5.473 9.379 7.864 14.261a156.628 156.628 0 0111.235 30.705c1.075 4.207 1.604 8.929 4.092 12.638a9.775 9.775 0 004.815 3.919c2.245.674 4.639.674 6.885 0a34.004 34.004 0 006.933-2.762c4.686-2.425 9.309-4.963 13.834-7.693a141.986 141.986 0 0013.048-8.527 23.862 23.862 0 008.201-10.182c2.071-5.09.546-10.615-.834-15.818z" fill="#D1D1D1"/><path d="M447.294 183.647c.369-7.789-2.055-15.802-4.189-23.205a218.327 218.327 0 00-7.864-22.644 212.22 212.22 0 00-9.87-21.021c-3.018-5.605-6.677-11.242-12.069-14.791a16.051 16.051 0 00-7.72-2.955 19.42 19.42 0 00-1.749 1.879 9.913 9.913 0 00-2.247 6.263 19.272 19.272 0 001.878 7.355 118.79 118.79 0 007.848 14.566c2.792 4.673 5.472 9.379 7.864 14.261a156.665 156.665 0 0111.234 30.705c1.075 4.207 1.605 8.929 4.093 12.638a9.773 9.773 0 004.814 3.919c1.687.553 3.483.685 5.232.385a11.245 11.245 0 002.745-7.355z" fill="#E2E2E2"/><path d="M436.334 128.934a.802.802 0 100-1.605.802.802 0 000 1.605zm3.324 7.402a.798.798 0 00.802-.803.798.798 0 00-.235-.567.8.8 0 00-1.134 0 .8.8 0 000 1.135c.15.151.354.235.567.235zm26.078-32.906a.798.798 0 00.802-.803.802.802 0 10-.802.803zm3.051 6.953a.798.798 0 00.802-.803.798.798 0 00-.235-.567.8.8 0 00-1.135 0 .802.802 0 00.568 1.37zm-33.478 25.168a1040.026 1040.026 0 0038.277-32.119c.594-.514-.257-1.365-.851-.851a1155.333 1155.333 0 01-38.277 32.118c-.61.482.257 1.333.851.852zm.754 40.146a47.868 47.868 0 012.696 9.876 1.2 1.2 0 00.547.801 1.206 1.206 0 001.709-.475 1.201 1.201 0 00.055-.968 47.1 47.1 0 00-2.68-9.876 1.206 1.206 0 10-2.327.642zM424.52 99.964a56.088 56.088 0 016.661 10.615 1.204 1.204 0 001.605.434 1.24 1.24 0 00.433-1.606 59.386 59.386 0 00-7.046-11.113 1.2 1.2 0 00-1.701 0 1.236 1.236 0 000 1.702l.048-.032zm4.738-3.15a41.761 41.761 0 016.885 10.197 1.204 1.204 0 002.07-1.204 43.641 43.641 0 00-7.254-10.695c-1.059-1.14-2.744.562-1.701 1.702zm3.787-2.924a54.586 54.586 0 017.029 10.648 1.214 1.214 0 00.73.651 1.212 1.212 0 00.972-.106 1.205 1.205 0 00.369-1.75 56.77 56.77 0 00-7.399-11.145 1.205 1.205 0 00-1.701 0 1.22 1.22 0 000 1.703z" fill="#fff"/><path opacity=".21" d="M386.454 95.835c.128-.145.224-.305.369-.45 4.172-4.368 10.736-4.898 15.551-8.334 4.815-3.437 8.298-8.576 12.968-12.318a23.568 23.568 0 0117.654-5.348 19.126 19.126 0 018.169 3.212 43.101 43.101 0 002.741-25.1 43.077 43.077 0 00-11.79-22.323 43.016 43.016 0 00-47.36-9.224 43.048 43.048 0 00-19.296 16.27 43.085 43.085 0 0021.042 63.68l-.048-.065z" fill="#fff"/><path opacity=".5" d="M392.536 29.108a32.258 32.258 0 0126.882 8.993c3.675 3.645 9.357-2.024 5.682-5.67a40.46 40.46 0 00-16.046-9.616 40.434 40.434 0 00-18.653-1.368 4.046 4.046 0 00-2.808 4.818 4.143 4.143 0 004.943 2.81v.033zM433.46 46.13v-.224a3.904 3.904 0 00-2.455-3.678 3.21 3.21 0 00-1.605-.337l-1.059.145a4.062 4.062 0 00-1.782 1.027l-.626.82a4.071 4.071 0 00-.545 2.023v.225a3.04 3.04 0 00.353 1.605c.155.493.437.936.818 1.285a2.97 2.97 0 001.3.835 2.857 2.857 0 001.605.338l1.075-.129a4.04 4.04 0 001.766-1.044l.626-.803a3.92 3.92 0 00.545-2.04l-.016-.047z" fill="#fff"/><path d="M468.928 169.483c6.195 0 6.211-9.635 0-9.635s-6.211 9.635 0 9.635zm-11.442 7.738c6.195 0 6.211-9.635 0-9.635s-6.211 9.635 0 9.635z" fill="#fff"/><path d="M440.811 60.392a5.835 5.835 0 00-.882-3.212 2.7 2.7 0 00-1.605-1.22 2.55 2.55 0 00-2.215.738 7.843 7.843 0 00-2.103 4.69v.401l-.096.642a4.824 4.824 0 001.332 4.481c1.493 1.044 3.066-.128 3.98-1.349a8.158 8.158 0 001.605-4.127 9.117 9.117 0 000-.964l-.016-.08z" fill="#D1D1D1"/><path d="M437.457 59.8c-.179.312-.329.64-.449.98a2.7 2.7 0 00-.144.481c0 .29-.081.578-.113.851s0 .16 0 .241v.24c0 .081 0 .579.113.868l4.397-1.863-.096-.176.241.562a.434.434 0 010-.21l.08.643a.783.783 0 010-.273l-.08.643c.012-.133.045-.263.096-.386l-.241.578c.072-.16.164-.312.273-.45l-.385.482a.74.74 0 01.112-.112l.369-.498c.175-.269.275-.579.289-.9a1.38 1.38 0 000-.625 1.79 1.79 0 00-.289-.9l-.369-.498-.497-.369a1.799 1.799 0 00-.899-.289 1.91 1.91 0 00-.947 0h-.08l-.594.257h-.129l-.529.401-.096.097-.386.514a.266.266 0 000 .112c-.117.213-.208.44-.272.675-.043.146-.07.297-.081.45a1.982 1.982 0 000 .866c.011.153.038.303.081.45 0 .209.224.562.272.675.17.576.498 1.094.947 1.493a1.8 1.8 0 00.899.29 1.955 1.955 0 001.781-.434 1.61 1.61 0 00.61-.675l.257-.578a2.5 2.5 0 000-1.285l-.257-.562a2.33 2.33 0 00-.85-.867l.481.37a.595.595 0 01-.144-.145l.369.498-.096-.193.24.578a.94.94 0 010-.225v.642V62v.626-.193l-.24.578a.904.904 0 01.128-.208l-.385.498a.594.594 0 01.144-.145l-.481.37.208-.113-.577.24-2.344-4.03c-.176.209-.337.434-.497.658l-.144.21c-.129.24-.225.513-.337.77a1.454 1.454 0 00-.081.24v.113a5.74 5.74 0 00-.096.739 1.96 1.96 0 000 .53c.007.175.04.348.096.514 0 .193.161.417.241.61a.703.703 0 000 .112 2.76 2.76 0 001.444 1.109l.642.08a1.7 1.7 0 00.931-.209c.199-.057.381-.162.53-.305.264-.161.476-.395.61-.674l.256-.579c.113-.42.113-.863 0-1.284a1.055 1.055 0 010-.113l.097.643a2.27 2.27 0 010-.659l-.097.627c.032-.228.097-.45.193-.659l-.241.578a1.46 1.46 0 01.177-.353c.175-.269.274-.58.289-.9a1.964 1.964 0 00-.434-1.782 1.886 1.886 0 00-.674-.61l-.577-.257a2.487 2.487 0 00-1.284 0l-.578.257c-.351.207-.644.5-.851.85l.048-.08z" fill="#fff"/><path d="M506.419 148.172c-2.76-6.247-7.399-11.354-12.069-16.236-4.67-4.882-9.068-9.876-10.56-16.75-2.6-12.028 1.605-25.004-3.788-36.518-6.885-14.55-24.683-16.317-38.742-17.071-2.071-.113-2.071 3.1 0 3.211 11.956.627 26.85 1.606 34.329 12.527 6.548 9.635 3.482 22.21 4.349 33.033a31.247 31.247 0 005.104 15.626c3.466 4.978 8.024 8.977 12.004 13.586a35.007 35.007 0 018.587 17.055 25.711 25.711 0 01-3.387 17.553 22.478 22.478 0 01-14.893 10.39 20.246 20.246 0 01-15.44-3.629 16.465 16.465 0 01-2.904 1.782 23.881 23.881 0 0030.284-.353c10.047-8.255 12.214-22.595 7.126-34.206z" fill="#16205B"/><path d="M330.04 168.439c.639 0 1.251-.254 1.702-.706a2.406 2.406 0 000-3.406 2.404 2.404 0 00-3.404 0 2.405 2.405 0 00-.705 1.703 2.405 2.405 0 002.407 2.409zm21.941-55.356h.145c.317.005.631-.066.914-.209a2.127 2.127 0 001.284-1.285c.141-.284.213-.598.209-.915l-.096-.643a2.483 2.483 0 00-.61-1.076l-.498-.369a2.254 2.254 0 00-1.203-.321h-.145a1.82 1.82 0 00-.931.193 1.936 1.936 0 00-.77.497c-.238.223-.41.506-.498.819a1.711 1.711 0 00-.208.932v.626c.108.408.325.78.626 1.076l.481.37a2.55 2.55 0 001.22.337l.08-.032z" fill="#0075E7"/><path d="M315.836 153.039a33.534 33.534 0 008.923 8.881c.225.144.417-.193.209-.337a33.032 33.032 0 01-8.586-8.448c.015.209.058.414.128.611l-.578-.595-.096-.112zm-8.969-3.664l.193.883h-.145a66.547 66.547 0 004.301 6.601 84.891 84.891 0 006.869 8.639c.193.193.466-.096.289-.289a86.629 86.629 0 01-7.013-8.816 63.003 63.003 0 01-4.494-7.018zm-1.366 6.972a.558.558 0 00-.145.129 83.534 83.534 0 009.517 11.851.197.197 0 00.281.008.198.198 0 00.008-.281 84.083 84.083 0 01-10.432-13.281c.222.542.479 1.068.771 1.574zm-.575 5.877a74.376 74.376 0 008.024 10.599c.177.193.45-.096.273-.289a73.313 73.313 0 01-8.249-11.081c.076.187.162.369.257.546-.11.064-.212.139-.305.225zm46.621-58.551a96.188 96.188 0 01-2.985-9.957 30.88 30.88 0 00-1.75-4.721 34.245 34.245 0 01-2.503-5.107 2.13 2.13 0 01-.129-.707c.37-.9.899-1.22 1.605-.931.452.176.874.42 1.252.722a24.428 24.428 0 012.054 1.606 34.028 34.028 0 013.419 3.389 86.324 86.324 0 016.115 8.142c.144.209.481 0 .337-.209-3.21-4.818-6.677-9.636-11.459-13.072-.787-.562-1.846-1.381-2.889-.964-1.043.418-.947 1.462-.658 2.297a31.958 31.958 0 002.07 4.207 30.133 30.133 0 011.926 4.818c1.091 3.533 1.765 7.162 3.21 10.583.096.225.497.129.385-.112v.016zm-9.645-2.603a24.6 24.6 0 015.28-7.21c.193-.177-.096-.466-.272-.29a24.777 24.777 0 00-5.361 7.308c-.112.225.241.433.353.192zm2.601-5.748c-2.407-2.41-4.815-4.818-7.334-7.115.208.21.417.45.642.659l-.995-.61a3.352 3.352 0 00-.418-.21 286.977 286.977 0 017.816 7.565c.177.225.466-.065.289-.29zm-2.249 3.209c.193.177.482-.112.289-.289a271.634 271.634 0 01-7.062-6.6.224.224 0 00-.192 0c-.851.305-1.204 1.172-1.958 1.606-1.059.546-1.525-.707-1.717-1.799a2.989 2.989 0 000 .402 1.726 1.726 0 00-.305 0c0 .209.096.417.176.626.125.493.436.919.867 1.188 1.22.53 1.829-1.011 2.664-1.477.369-.193.61.209.867.45l.85.819 1.878 1.766c1.22 1.14 2.423 2.264 3.643 3.308z" fill="#000"/><path d="M599.022 332.771c-2.629.614-5.347.75-8.025.402a17.787 17.787 0 01-6.419-2.762c-4.189-2.747-8.025-6.199-11.877-9.347a.353.353 0 00-.208-.096 23.277 23.277 0 01-.867-6.231c5.81 5.829 12.839 12.237 21.747 10.775.513-.08.288-.851-.209-.77-8.763 1.429-15.728-5.284-21.377-10.969h-.129v-1.285a20.362 20.362 0 011.685-6.07c.686.993 1.46 1.923 2.311 2.778a39.053 39.053 0 003.419 3.1 14.436 14.436 0 008.169 2.425c.513 0 .513-.755 0-.803a13.4 13.4 0 01-8.025-2.489 26.629 26.629 0 01-5.537-5.846 18.345 18.345 0 014.253-5.428c.402-.337-.176-.899-.561-.562a.21.21 0 00-.177 0c-6.756 2.521-14.219 0-20.992-1.285l-.754-.128a.363.363 0 00-.235-.19.352.352 0 00-.295.061c-2.14-.385-4.28-.755-6.42-1.108a.319.319 0 00-.417 0 572.447 572.447 0 00-8.923-1.365.805.805 0 01-.77.61h-.835a.356.356 0 000 .257 30.661 30.661 0 002.921 7.5 21.931 21.931 0 00-5.409 12.928h.803a21.25 21.25 0 015.039-12.157 31.166 31.166 0 003.595 4.946 20.058 20.058 0 00-1.861 6.809h.802a19.294 19.294 0 011.605-6.118 30.5 30.5 0 005.585 4.657c-.08.401-.144.787-.225 1.188h.835c0-.257 0-.53.096-.771.514.305 1.043.562 1.605.835h.353c.514 0 .995.145 1.493.225a.31.31 0 00-.193-.257 28.657 28.657 0 01-3.017-1.606c.388-1.7.958-3.353 1.701-4.93a52.42 52.42 0 004.815 5.541 33.158 33.158 0 00-.722 1.766l.786.209c.177-.466.369-.932.562-1.381a53.119 53.119 0 002.84 2.537c.498.209.979.482 1.477.723a.34.34 0 000-.53 48.27 48.27 0 01-3.964-3.517 29.18 29.18 0 012.07-3.646 76.878 76.878 0 0011.138 12.848.37.37 0 00.417 0c.273.674.562 1.333.867 1.991l1.605 1.253a29.153 29.153 0 01-2.231-5.123l5.954 4.818a59.591 59.591 0 005.938 4.432 16.962 16.962 0 006.42 2.569c2.641.266 5.307.104 7.896-.481.594-.241.369-1.012-.128-.932zm-42.049-33.499c1.06.192 2.135.433 3.21.658a26 26 0 00-2.953 2.666 45.009 45.009 0 01-1.396-3.533l1.139.209zm-8.57-1.51c1.91.321 3.82.643 5.73.996a33.389 33.389 0 00-4.285 3.549 51.876 51.876 0 01-1.91-4.208l.465-.337zm-9.966-1.525c2.84.417 5.665.835 8.474 1.284v.305a39.394 39.394 0 00-5.826 5.396 29.93 29.93 0 01-2.648-7.066v.081zm6.564 12.558a30.213 30.213 0 01-3.467-4.818 37.966 37.966 0 015.746-5.38 50.13 50.13 0 001.974 4.32 25.81 25.81 0 00-4.253 5.798v.08zm5.986 5.251a29.878 29.878 0 01-5.425-4.625 25.578 25.578 0 014.077-5.765 46.704 46.704 0 003.21 5.187 25.839 25.839 0 00-1.862 5.123v.08zm2.311-6.006a48.279 48.279 0 01-3.065-4.978 31.994 31.994 0 014.814-3.935 57.289 57.289 0 001.605 4.079 25.74 25.74 0 00-3.354 4.754v.08zm5.248 6.311a47.455 47.455 0 01-4.734-5.572 25.073 25.073 0 013.21-4.818 53.908 53.908 0 003.723 6.568 30.498 30.498 0 00-2.199 3.742v.08zm2.664-4.496a52.543 52.543 0 01-3.627-6.424 24.619 24.619 0 013.547-3.212 50.783 50.783 0 009.004 1.333 30.64 30.64 0 00-8.924 8.222v.081zm.466.69a30.308 30.308 0 019.918-9.009 19.276 19.276 0 004.686-.674 19.049 19.049 0 00-3.209 4.657.122.122 0 000 .08 20.373 20.373 0 00-1.974 6.649 24.103 24.103 0 001.283 10.775 75.078 75.078 0 01-10.752-12.51l.048.032z" fill="#fff"/><path d="M424.427 193.909c-2.167-6.022-4.815-11.964-5.938-18.292a36.78 36.78 0 01-.353-2.73c0-.498-.851-.514-.803 0 .048.514.161 1.462.273 2.184a.779.779 0 000 .193c1.509 9.909 6.227 19.11 6.901 29.18a25.164 25.164 0 01-3.21 14.838 29.822 29.822 0 01-9.95 9.861c-3.675 2.28-9.838 4.817-8.859 4.641-.626 1.606-1.284 3.131-1.91 4.689a37.492 37.492 0 006.003-1.959 38.38 38.38 0 0013.079-9.09 27.8 27.8 0 007.688-14.887c.867-6.407-.819-12.719-2.921-18.628z" fill="#000"/><path d="M421.184 188.627a94.784 94.784 0 01-3.21-12.591 96.268 96.268 0 01-.626-13.441c-.16-8.142-1.605-16.493-6.419-23.238-.289-.418-.995 0-.69.401 4.285 5.974 5.89 13.233 6.259 20.46.208 3.822 0 7.644.224 11.466.25 3.631.874 7.225 1.862 10.728 2.022 7.515 5.007 14.854 5.473 22.707a24.595 24.595 0 01-7.318 19.528 37.718 37.718 0 01-8.667 6.231 41.73 41.73 0 01-7.013 3.116c.497 0 1.011-.161 1.508-.273-.112.273-.224.53-.321.787a42.625 42.625 0 0011.893-6.569 25.866 25.866 0 0010.415-16.3c1.188-7.82-1.107-15.609-3.37-23.012zm-33.993 8.845a1477.5 1477.5 0 00-6.532-16.444l-1.155-.739 6.917 17.392c.273.418.963.273.77-.209zm-3.707-86.349l-.707.465a18.525 18.525 0 0113.578.081c.481.192.69-.595.208-.787a19.248 19.248 0 00-13.208-.386c.129.209.129.434.129.627zm95.299 111.579a129.21 129.21 0 01-13.658 57.01.701.701 0 00.642 0l.369-.225a129.856 129.856 0 0013.449-56.753.39.39 0 00-.106-.288.394.394 0 00-.279-.129.39.39 0 00-.288.106.398.398 0 00-.129.279z" fill="#0075E7"/><path d="M361.721 516.073a14.462 14.462 0 00-1.605-4.385.573.573 0 00-.177-.208.51.51 0 00-.561-.482c-7.111.552-14.258.428-21.346-.37-3.45-.497-6.756-1.525-10.271-1.075-1.605.208-3.21.594-4.815.883-1.871.32-3.766.481-5.665.482-7.286.08-14.589-.209-21.875-.322l-21.891-.353-5.569-.096c-1.107 0-2.824-.402-3.579.674a7.024 7.024 0 00-.353 4.304 4.999 4.999 0 001.204 3.453c1.043.835 2.873.642 4.108.722l5.361.37c3.707.241 7.398.466 11.106.674 7.265.429 14.54.798 21.826 1.108 3.628.161 7.271.37 10.898.322 3.627-.049 7.029-.755 10.544-.836a14.441 14.441 0 015.232.868c1.442.539 2.938.921 4.462 1.14 3.459.273 6.933.321 10.399.144 1.798 0 3.611-.112 5.409-.273a14.1 14.1 0 004.092-.706 5.444 5.444 0 003.066-6.038zM604.69 326.575a32.315 32.315 0 00-2.696-4.69c-1.14-1.766-2.263-3.549-3.387-5.331a917.396 917.396 0 01-6.628-10.712c-2.183-3.581-4.285-7.082-6.42-10.631-2.134-3.549-3.98-6.986-6.243-10.31a41.963 41.963 0 00-3.242-4.256 21.01 21.01 0 01-3.418-4.561c-.835-1.605-1.412-3.452-2.215-5.138a40.861 40.861 0 00-2.696-4.818 76.698 76.698 0 00-6.709-8.544c-1.203-1.333-2.375-2.714-3.643-3.998a5.937 5.937 0 00-3.547-2.008 6.643 6.643 0 00-6.307 5.38 6.206 6.206 0 001.749 4.063l1.509 1.959c.353.514.69 1.028 1.059 1.526 2.022 2.794 4.35 5.364 6.163 8.286a23.832 23.832 0 012.231 4.818 45.415 45.415 0 001.797 4.946c1.605 3.308 4.735 5.268 7.062 8.03a86.758 86.758 0 016.725 9.796c2.311 3.597 4.638 7.195 6.949 10.808 4.574 7.082 9.067 14.244 13.738 21.278a6.757 6.757 0 003.097 2.859 3.93 3.93 0 003.643-.691c2.552-2.023 2.6-5.331 1.429-8.061z" fill="#E1EAF9"/><path d="M306.256 510.755c.112.513.882.305.77-.209a22.255 22.255 0 00-6.998-11.531.288.288 0 00-.176-.16 22.32 22.32 0 00-12.246-5.316l-1.925.691c2.211.051 4.402.435 6.499 1.14a50.928 50.928 0 00-14.187 4.4c-3.868 2.023-7.174 5.492-7.575 10.005 0 .514.754.514.802 0 .418-4.625 4.141-7.917 8.121-9.78a57.954 57.954 0 0113.995-4.031s.096 0 .144-.096a21.573 21.573 0 015.2 3.035c-8.024.739-17.926 2.441-21.024 11.097-.176.498.594.706.77.225 3.066-8.576 13.273-9.925 21.089-10.599a21.392 21.392 0 014.253 5.106 17.355 17.355 0 00-12.342 5.348c-.353.369.209.931.562.562a16.626 16.626 0 0112.245-5.123 21.702 21.702 0 012.023 5.236zm43.797-17.408a10.073 10.073 0 00-10.223 2.281.327.327 0 00-.112.321c-1.316 3.035-1.605 6.729.754 9.346 2.359 2.618 6.42 2.827 9.308 1.735a7.595 7.595 0 005.12-7.227 7.708 7.708 0 00-4.847-6.456zm.69 12.334a8.653 8.653 0 01-8.779-.113c-3.065-2.12-2.856-6.423-1.476-9.411a9.627 9.627 0 018.024-2.424 7.102 7.102 0 015.457 4.946 6.427 6.427 0 01-3.226 7.002z" fill="#fff"/><path d="M331.663 482.156c-1.765 1.606-3.547 3.212-5.28 4.818a22.92 22.92 0 00-.658-6.616c2.028.199 4.039.542 6.018 1.028.116-.264.279-.504.482-.707a43.477 43.477 0 00-6.693-1.14 23.416 23.416 0 00-7.543-11.611c-.401-.321-.963.241-.561.562a22.617 22.617 0 017.238 10.952 44.504 44.504 0 00-6.693 0 24.07 24.07 0 00-4.301-5.122.412.412 0 00-.273 0l-.353.513a.297.297 0 000 .145 23.036 23.036 0 013.98 4.673 43.687 43.687 0 00-8.024 1.606l-.193-.193c-.385-.337-.947.225-.561.578a30.894 30.894 0 013.611 3.887 48.962 48.962 0 00-6.821.755 18.22 18.22 0 00-.915-1.044.294.294 0 00-.145-.1.294.294 0 00-.176.003l-.289.225a.367.367 0 000 .434c.193.209.369.433.546.642a48.72 48.72 0 00-2.937.691l-.353.257a.396.396 0 00.246.538.408.408 0 00.219.008 50.327 50.327 0 013.419-.787 24.163 24.163 0 012.567 3.982h-2.664a85.816 85.816 0 00-15.022 1.703l-1.38.514a.407.407 0 00.103.366.398.398 0 00.363.115 84.565 84.565 0 0115.583-1.846h3.435a23.23 23.23 0 011.813 14.678v.096a30.862 30.862 0 00-1.508 3.678c-.161.481.609.706.77.208 2.311-7.05 7.174-12.285 12.342-17.376l.417-.385a338.479 338.479 0 0110.544-9.844 1.609 1.609 0 01-.353-.884zm-6.789-1.862c.565 2.157.803 4.388.706 6.616a48.569 48.569 0 00-4.814-.948 24.109 24.109 0 00-2.327-5.685 42.663 42.663 0 016.435.017zm-15.198 1.605a41.482 41.482 0 017.896-1.493 22.672 22.672 0 012.359 5.476 47.787 47.787 0 00-7.093-.385 32.31 32.31 0 00-3.178-3.646l.016.048zm-4.093 5.107a46.764 46.764 0 016.853-.69 20.589 20.589 0 012.841 5.46 36.398 36.398 0 00-7.126-.643 25.368 25.368 0 00-2.568-4.175v.048zm10.384 10.342a43.082 43.082 0 00-5.392 7.275 24.341 24.341 0 00-2.055-12.703c2.35-.004 4.694.228 6.998.691.411 1.527.563 3.112.449 4.689v.048zm.835-.915a13.977 13.977 0 00-.402-3.581c.955.246 1.889.568 2.793.963h.096c-.818.819-1.605 1.687-2.487 2.57v.048zm3.209-3.212l-.16.177a.34.34 0 00-.193-.225 19.78 19.78 0 00-3.45-1.172 19.81 19.81 0 00-2.777-5.669 47.937 47.937 0 016.773.433c.463 1.838.695 3.726.69 5.621l-.883.835zm1.605-1.606a24.587 24.587 0 00-.593-4.818c1.604.241 3.065.53 4.574.916-1.333 1.285-2.665 2.553-3.981 3.838v.064zM551.34 268.759a8.177 8.177 0 00-9.116-2.344 7.506 7.506 0 00-4.558 8.029 9.396 9.396 0 005.521 7.098l.241.081c.544.245 1.108.444 1.685.594a.35.35 0 00.353-.097 7.262 7.262 0 007.126-3.629 8.644 8.644 0 00-1.252-9.732zm1.284 7.853a6.59 6.59 0 01-3.403 4.17 6.59 6.59 0 01-5.376.246 8.952 8.952 0 01-5.055-5.187 7.005 7.005 0 012.455-8.029 7.232 7.232 0 018.394.433 8.259 8.259 0 012.985 8.335v.032z" fill="#fff"/></svg>