<svg width="350" height="371" viewBox="0 0 350 371" fill="none" xmlns="http://www.w3.org/2000/svg">
<path d="M349.998 57.1523H29.9707V274.643H349.998V57.1523Z" fill="#F15928"/>
<path d="M316.858 126.621H284.766C281.209 126.621 278.326 129.504 278.326 133.061V144.511C278.326 148.067 281.209 150.95 284.766 150.95H316.858C320.414 150.95 323.297 148.067 323.297 144.511V133.061C323.297 129.504 320.414 126.621 316.858 126.621Z" fill="#16205B"/>
<path d="M246.6 126.621H214.508C210.951 126.621 208.068 129.504 208.068 133.061V144.511C208.068 148.067 210.951 150.95 214.508 150.95H246.6C250.156 150.95 253.039 148.067 253.039 144.511V133.061C253.039 129.504 250.156 126.621 246.6 126.621Z" fill="#16205B"/>
<path d="M322.068 91.7031H211.705C208.149 91.7031 205.266 94.5861 205.266 98.1425V109.593C205.266 113.149 208.149 116.032 211.705 116.032H322.068C325.624 116.032 328.507 113.149 328.507 109.593V98.1425C328.507 94.5861 325.624 91.7031 322.068 91.7031Z" fill="#16205B"/>
<path d="M322.068 88.5508H211.705C208.149 88.5508 205.266 91.4338 205.266 94.9902V106.44C205.266 109.997 208.149 112.88 211.705 112.88H322.068C325.624 112.88 328.507 109.997 328.507 106.44V94.9902C328.507 91.4338 325.624 88.5508 322.068 88.5508Z" fill="#0075E7"/>
<path opacity="0.19" d="M322.068 88.5511H211.768C210.922 88.5497 210.083 88.7152 209.301 89.0382C208.518 89.3612 207.807 89.8353 207.208 90.4334C206.609 91.0315 206.134 91.7419 205.81 92.5238C205.485 93.3058 205.318 94.144 205.318 94.9905V106.43C205.319 108.068 205.947 109.643 207.073 110.832L324.505 89.0028C323.73 88.6963 322.902 88.5429 322.068 88.5511Z" fill="white"/>
<path d="M66.1498 281.776C66.1396 281.698 66.1147 281.623 66.0762 281.555C61.4962 273.55 57.0456 265.469 52.7247 257.31C52.6727 257.224 52.5969 257.156 52.5065 257.113C52.4162 257.07 52.3152 257.054 52.216 257.067C52.1168 257.08 52.0236 257.123 51.9479 257.188C51.8722 257.254 51.8172 257.34 51.7898 257.436C45.802 263.655 39.9089 269.933 34.1102 276.271C32.5135 278.029 30.9273 279.78 29.3516 281.523C28.9944 281.292 28.3957 281.523 28.5532 282.07C30.743 289.211 34.2057 295.898 38.7744 301.808C39.3416 302.554 39.9299 303.279 40.5392 303.993C41.1484 304.707 41.5896 305.432 42.4195 305.548C43.2494 305.663 43.9427 304.813 44.5205 304.277L46.842 302.039C49.9374 299.035 53.0118 296.017 56.0652 292.984C59.5108 289.553 62.9353 286.093 66.3389 282.605C66.3937 282.543 66.4329 282.468 66.4533 282.388C66.4737 282.307 66.4747 282.223 66.4563 282.142C66.4378 282.061 66.4004 281.986 66.3471 281.922C66.2939 281.858 66.2262 281.808 66.1498 281.776Z" fill="#16205B"/>
<path d="M117.992 340.981C117.992 339.153 117.908 337.336 117.845 335.519C117.719 331.961 117.537 328.407 117.299 324.856C117.183 323.06 117.089 321.253 116.889 319.468C116.886 319.169 116.823 318.874 116.702 318.602C116.58 318.329 116.405 318.084 116.185 317.881C115.512 317.499 114.754 317.29 113.979 317.272C106.081 316.005 98.0722 315.555 90.0811 315.927C89.9858 315.935 89.8941 315.967 89.8152 316.021C89.7363 316.075 89.673 316.149 89.6315 316.235C89.59 316.321 89.5719 316.417 89.5789 316.512C89.5859 316.607 89.6178 316.699 89.6714 316.778C89.5768 320.381 89.5348 323.985 89.5768 327.588C89.5768 329.416 89.5768 331.243 89.6819 333.082L89.7764 335.697C89.645 336.383 89.7554 337.092 90.0887 337.705C90.422 338.318 90.9577 338.797 91.6043 339.059C92.3606 339.521 93.1274 339.952 93.9153 340.362C95.3545 341.128 96.8461 341.801 98.3483 342.462C101.39 343.847 104.555 344.941 107.803 345.729C109.394 346.086 111.028 346.214 112.656 346.108C114.219 346.078 115.745 345.632 117.078 344.816C118.223 343.902 118.024 342.273 117.992 340.981Z" fill="#16205B"/>
<path d="M103.779 325.015C108.218 326.103 112.845 326.182 117.319 325.246C117.319 325.12 117.319 324.983 117.319 324.857C117.214 323.229 117.12 321.601 116.962 319.983C112.947 320.967 108.748 320.92 104.755 319.846C101.023 319.098 97.4414 317.735 94.1561 315.812C92.8115 315.812 91.4564 315.865 90.1013 315.928C90.006 315.935 89.9143 315.968 89.8354 316.022C89.7565 316.076 89.6932 316.15 89.6517 316.236C89.6103 316.322 89.5921 316.417 89.5991 316.513C89.6061 316.608 89.638 316.7 89.6916 316.779C89.6916 317.535 89.6916 318.292 89.6916 319.048C93.6519 322.178 98.9358 323.922 103.779 325.015Z" fill="black"/>
<path d="M117.843 335.517C117.79 334.173 117.727 332.839 117.664 331.494C114.66 331.41 112.853 334.131 112.769 337.093C112.873 338.157 112.751 339.231 112.412 340.245C112.219 340.64 111.95 340.993 111.62 341.283C111.29 341.573 110.906 341.795 110.489 341.936C108.608 342.565 106.597 342.698 104.649 342.324C102.114 341.904 99.6896 340.983 97.5159 339.614C97.2363 339.432 96.9218 339.309 96.5924 339.254C96.263 339.199 95.9257 339.213 95.6019 339.295C95.2782 339.377 94.9749 339.525 94.7113 339.73C94.4477 339.935 94.2294 340.193 94.0703 340.486C95.4674 341.211 96.8961 341.862 98.3458 342.482C101.387 343.866 104.553 344.96 107.8 345.749C109.391 346.106 111.026 346.233 112.653 346.127C113.105 346.127 113.599 346.022 114.092 345.938C115.252 345.226 116.213 344.232 116.887 343.049C117.47 341.94 117.827 340.726 117.937 339.478C117.916 338.133 117.885 336.82 117.843 335.517ZM117.16 336.662H117.464C117.363 336.673 117.261 336.673 117.16 336.662Z" fill="black"/>
<path d="M51.7931 257.447C50.7426 258.581 49.6081 259.737 48.5156 260.882C54.9655 268.02 60.1456 276.209 63.8316 285.095C64.6509 284.265 65.4808 283.446 66.3002 282.606C66.3563 282.546 66.3978 282.474 66.4212 282.396C66.4447 282.317 66.4494 282.234 66.4351 282.154C66.4208 282.073 66.3879 281.997 66.3389 281.931C66.29 281.866 66.2263 281.812 66.1531 281.776C66.143 281.698 66.118 281.623 66.0796 281.555C61.6956 273.908 57.4412 266.204 53.3163 258.445L52.1608 257.121C52.0797 257.146 52.0048 257.188 51.9413 257.244C51.8779 257.3 51.8273 257.369 51.7931 257.447Z" fill="black"/>
<path d="M44.6803 298.593C44.4334 298.724 44.198 298.875 43.9764 299.045C42.0416 296.529 40.5821 293.681 39.6695 290.641C38.619 287.542 37.8417 284.338 35.8247 281.66C34.8195 280.34 33.5492 279.245 32.0955 278.445L29.3223 281.544C28.9651 281.313 28.3664 281.544 28.5239 282.09C28.5975 282.343 28.6815 282.574 28.7655 282.815C29.6068 283.125 30.3765 283.603 31.0282 284.218C31.68 284.834 32.2003 285.575 32.5578 286.397C33.8814 288.982 34.3961 291.923 35.4991 294.602C36.6377 297.567 38.2404 300.333 40.2472 302.795C40.7122 303.361 41.287 303.827 41.937 304.165C42.5869 304.502 43.2986 304.705 44.029 304.76L44.5017 304.277L46.8232 302.039L49.3864 299.518C48.809 298.873 48.0373 298.434 47.1881 298.268C46.339 298.101 45.4586 298.215 44.6803 298.593Z" fill="black"/>
<path d="M143.98 160.845C143.626 151.7 142.767 142.582 141.407 133.532C141.312 132.913 140.44 133.112 140.356 133.69C127.383 137.481 113.788 138.67 100.354 137.188C96.9611 136.81 93.442 136.327 90.4901 134.499C90.4513 134.433 90.3975 134.378 90.3332 134.337C90.2689 134.297 90.1959 134.272 90.1201 134.265C90.0444 134.257 89.968 134.268 89.8972 134.296C89.8264 134.324 89.7632 134.368 89.7128 134.425C85.702 138.911 82.9828 144.4 81.8447 150.309C80.6444 156.707 80.7552 163.283 82.1703 169.637C82.6325 171.885 83.2208 174.102 83.8931 176.287C82.2334 190.72 81.0288 205.192 80.2795 219.703C80.0834 223.625 79.9223 227.543 79.7963 231.458C78.3466 232.34 76.9075 233.254 75.5103 234.21C65.8717 240.73 57.4136 248.844 50.4985 258.203C50.4496 258.272 50.42 258.352 50.4127 258.436C50.4055 258.521 50.4209 258.605 50.4574 258.681C50.4938 258.757 50.55 258.822 50.62 258.869C50.69 258.916 50.7714 258.944 50.8556 258.949C55.7579 267.058 60.3695 275.34 64.6904 283.793L50.0993 298.499C50.0447 298.553 50.0029 298.617 49.9771 298.689C49.9512 298.761 49.942 298.838 49.9501 298.914C49.9582 298.989 49.9834 299.062 50.0238 299.127C50.0642 299.192 50.1187 299.247 50.1833 299.287C51.3494 303.132 52.5994 307.103 55.047 310.349C56.1794 312.008 57.7306 313.338 59.5431 314.204C60.3984 314.551 61.3267 314.678 62.2438 314.576C63.161 314.473 64.038 314.143 64.7955 313.616C66.4072 312.37 67.8235 310.89 68.9974 309.225C70.5941 307.25 72.1803 305.275 73.756 303.3C76.8864 299.371 79.9959 295.425 83.0843 291.461C83.683 290.694 84.2608 289.917 84.8596 289.15C85.0697 297.806 85.2447 306.462 85.3848 315.118C85.3901 315.203 85.4153 315.286 85.4583 315.359C85.4584 315.424 85.4714 315.488 85.4967 315.548C85.522 315.607 85.5589 315.661 85.6054 315.706C87.8839 317.687 90.5593 319.159 93.4525 320.024C96.4042 321.062 99.4746 321.725 102.592 321.998C108.747 322.541 114.944 321.672 120.712 319.456C123.965 318.215 127.067 316.608 129.957 314.666C130.053 314.635 130.135 314.57 130.187 314.483C130.239 314.396 130.258 314.293 130.24 314.193C129.148 304.739 128.073 295.285 127.015 285.83C125.958 276.376 124.939 266.869 123.958 257.31C123.405 252.051 122.852 246.798 122.299 241.553C129.809 231.552 137.005 221.058 140.377 208.915C142.531 201.288 143.235 193.326 143.718 185.447C144.215 177.232 144.303 169.032 143.98 160.845Z" fill="#0075E7"/>
<path d="M211.149 108.699C209.094 104.068 207.308 99.3226 205.802 94.4857C205.79 94.445 205.767 94.4081 205.737 94.3783C205.707 94.3485 205.67 94.3269 205.629 94.3154C205.588 94.3038 205.545 94.3028 205.503 94.3124C205.462 94.322 205.424 94.3418 205.392 94.3702C205.402 94.3391 205.404 94.3064 205.4 94.2742C205.396 94.242 205.385 94.211 205.369 94.1832C205.352 94.1555 205.329 94.1316 205.302 94.1131C205.276 94.0947 205.245 94.082 205.214 94.076C197.34 92.5375 189.176 94.0389 182.366 98.2779C180.506 99.4405 178.777 100.8 177.208 102.333C173.244 87.7859 165.524 74.5374 154.822 63.9169C151.83 60.784 148.493 58 144.874 55.6181C143.072 54.4841 141.13 53.5906 139.097 52.9604C136.812 52.3196 134.438 52.057 132.069 52.183C129.605 52.3234 127.15 52.5969 124.716 53.0024C122.121 53.3806 119.516 53.7167 116.911 53.9794C111.847 54.4836 106.773 54.7357 101.689 54.7777C96.8464 54.7777 91.9197 54.7777 87.2976 56.4375C83.1776 58.0444 79.3486 60.3155 75.963 63.1605C69.5296 68.2727 63.8686 74.2875 59.1554 81.0186C54.4005 87.8035 50.6369 95.2316 47.9783 103.079C46.6342 106.973 45.5808 110.962 44.8269 115.012C43.878 119.729 43.5495 124.549 43.8499 129.351C44.5327 137.534 48.2724 145.854 55.8253 149.814C62.6114 153.365 70.9102 152.966 77.9379 150.35C79.6819 149.718 81.3717 148.945 82.9907 148.039C83.0273 148.021 83.0577 147.992 83.0783 147.956C83.0988 147.921 83.1085 147.88 83.1062 147.839C83.5889 143.591 85.4311 139.611 88.3586 136.494C90.1826 137.378 92.1041 138.044 94.0837 138.48C96.7326 139.029 99.4187 139.38 102.12 139.53C104.946 139.719 107.761 139.866 110.587 139.992C116.19 140.338 121.812 140.215 127.394 139.625C132.216 139.036 137.542 138.112 141.355 134.866C144.622 132.093 146.366 127.996 147.248 123.857C154.235 130.512 163.388 134.425 173.027 134.877C181.272 135.11 189.382 132.742 196.207 128.11C203.032 123.478 208.226 116.815 211.054 109.066C211.113 109.028 211.155 108.969 211.172 108.901C211.19 108.833 211.181 108.761 211.149 108.699ZM76.6878 126.336C77.4142 123.976 77.8654 121.541 78.0324 119.077C78.0324 119.077 79.0829 124.75 80.1334 126.588C79.0317 126.252 77.869 126.166 76.7298 126.336H76.6878Z" fill="#E1EAF9"/>
<path d="M91.7923 77.4891C91.7154 77.4303 91.6212 77.3984 91.5244 77.3984C91.4276 77.3984 91.3335 77.4303 91.2566 77.4891C91.1934 77.4559 91.1231 77.4386 91.0517 77.4386C90.9804 77.4386 90.9101 77.4559 90.8469 77.4891C89.7595 78.1844 88.8826 79.1633 88.3106 80.3203C87.7386 81.4772 87.4932 82.7684 87.6009 84.0546C87.6021 84.1799 87.6509 84.3 87.7375 84.3907C87.7832 84.4399 87.8384 84.4792 87.8998 84.5063C87.9612 84.5334 88.0275 84.5477 88.0946 84.5483C90.3068 84.6708 92.5247 84.6463 94.7336 84.4747H94.8282C94.8989 84.4854 94.9711 84.4806 95.0398 84.4606C95.1084 84.4406 95.1719 84.4059 95.2259 84.3589C95.2798 84.312 95.3229 84.2539 95.3522 84.1886C95.3815 84.1234 95.3962 84.0525 95.3954 83.981C95.3775 82.6856 95.039 81.4147 94.4103 80.2819C93.7816 79.1491 92.8821 78.1896 91.7923 77.4891Z" fill="#0075E7"/>
<path d="M91.2987 78.9907C94.6812 78.9907 94.6917 73.7383 91.2987 73.7383C87.9056 73.7383 87.9161 78.9907 91.2987 78.9907Z" fill="white"/>
<path d="M142.748 23.7829C144.542 23.2834 145.28 20.3049 144.396 17.1304C143.512 13.9558 141.341 11.7873 139.547 12.2869C137.753 12.7864 137.015 15.7649 137.899 18.9394C138.783 22.114 140.954 24.2825 142.748 23.7829Z" stroke="black" stroke-width="0.75" stroke-miterlimit="10"/>
<path d="M130.448 0.646893C127.832 -0.519135 125.049 0.195192 122.328 0.457811C119.334 0.751945 116.382 0.100648 113.388 0.0376191C108.083 -0.088438 102.663 2.13857 98.272 4.98536C94.0716 7.53714 90.9682 11.5577 89.5636 16.2675C88.1875 21.4358 89.1434 26.9928 91.0132 31.9091C92.694 36.3316 95.2151 40.7436 99.1229 43.4643C99.8926 43.9919 100.712 44.4423 101.571 44.8089C102.926 46.7838 105.478 47.141 107.705 47.2355C110.368 47.3696 113.033 47.0062 115.563 46.164C116.811 45.7446 118.017 45.2101 119.166 44.5673C120.292 43.7981 121.479 43.1235 122.717 42.5504C123.326 42.294 124.007 42.2605 124.639 42.4559C125.168 42.7072 125.657 43.0365 126.089 43.4328C126.484 43.7773 126.969 44.0033 127.488 44.085C128.006 44.1668 128.537 44.1009 129.019 43.895C131.499 42.7815 131.352 39.5565 131.278 37.2875C131.235 35.8275 131.101 34.3716 130.879 32.928C130.52 31.4216 130.305 29.8845 130.238 28.3375C130.402 27.0069 130.954 25.7539 131.824 24.7343C132.622 23.7112 133.325 22.6177 133.925 21.4673C134.994 19.0102 135.633 16.3881 135.816 13.7148C136.299 8.89314 135.417 2.8739 130.448 0.646893Z" fill="#0075E7"/>
<path d="M102.476 22.3924C102.255 22.388 102.04 22.4582 101.864 22.5917C101.689 22.7252 101.564 22.9141 101.509 23.1278C101.215 24.0856 100.608 24.9175 99.7866 25.4913C97.9587 26.3948 95.3536 26.2267 93.4837 26.0901C93.3125 26.082 93.1422 26.1185 92.9894 26.1962C92.8367 26.2738 92.7067 26.3899 92.6124 26.533C92.5181 26.676 92.4626 26.8412 92.4515 27.0122C92.4403 27.1832 92.4738 27.3541 92.5488 27.5083C92.4516 27.6308 92.3863 27.7756 92.3588 27.9296C92.3313 28.0836 92.3424 28.242 92.3912 28.3907C92.8408 30.2855 92.6525 32.2758 91.8555 34.0527C92.3863 35.2373 92.9897 36.388 93.6623 37.4983C93.7439 37.4568 93.8213 37.4076 93.8934 37.3512C95.611 36.0341 96.7427 34.0951 97.0448 31.9518C97.1384 31.0112 96.9977 30.062 96.6351 29.189C97.6642 29.2286 98.6886 29.031 99.629 28.6113C100.982 27.9745 102.089 26.9118 102.78 25.5859C103.232 25.0108 103.561 24.3495 103.747 23.6425C103.786 23.4684 103.78 23.2873 103.729 23.1163C103.679 22.9452 103.585 22.7899 103.458 22.6648C103.331 22.5397 103.174 22.4491 103.002 22.4015C102.83 22.3538 102.649 22.3507 102.476 22.3924Z" fill="black"/>
<path d="M143.195 25.5235C143.443 25.3231 143.606 25.0369 143.653 24.7217C143.7 24.4066 143.626 24.0854 143.447 23.8217C142.912 22.9708 142.25 22.1935 141.703 21.3531C140.524 19.4714 139.478 17.5092 138.573 15.4809C137.802 13.5791 136.699 11.8291 135.317 10.3126C135.298 10.3048 135.279 10.3008 135.259 10.3008C135.239 10.3008 135.219 10.3048 135.201 10.3126H135.117C135.072 10.3307 135.032 10.3596 135.001 10.3966C135.001 10.3966 135.001 10.3966 135.001 10.4492C134.992 10.4907 134.992 10.5337 135.001 10.5752C135.524 13.2774 135.223 16.0744 134.137 18.6032C133.05 21.132 131.229 23.2758 128.909 24.7567C128.564 24.9194 128.281 25.1881 128.1 25.5235C127.992 26.2227 128.02 26.9362 128.184 27.6245C128.31 29.1476 128.436 30.6603 128.541 32.1835C128.772 35.335 129.003 38.4864 129.077 41.6378C129.077 42.016 129.077 42.5307 128.667 42.6883C128.51 42.724 128.346 42.7206 128.191 42.6785C128.035 42.6364 127.892 42.5568 127.774 42.4467C127.154 41.9004 127.291 40.871 127.322 40.1356C127.375 38.6755 127.396 37.2153 127.322 35.7656C127.265 33.0525 126.728 30.3709 125.736 27.8451C124.864 25.7441 123.425 23.307 121.377 22.2145C120.981 21.9575 120.512 21.8351 120.041 21.8654C119.57 21.8957 119.121 22.077 118.761 22.3826C118.183 23.0856 117.9 23.9858 117.973 24.8932C118.125 26.6265 118.691 28.2981 119.622 29.7674C120.523 31.6416 121.994 33.1824 123.824 34.1689C123.577 36.4451 122.741 38.6174 121.398 40.4718C119.868 42.3359 117.735 43.6068 115.368 44.0644C112.987 44.6391 110.535 44.8656 108.088 44.7367C105.561 44.7079 103.039 44.4832 100.546 44.0644H100.462C100.427 44.0583 100.391 44.0583 100.357 44.0644C100.357 44.0644 100.357 44.0644 100.357 44.1484C100.336 44.174 100.318 44.2022 100.304 44.2325C100.189 45.472 99.9996 46.7011 99.8945 47.9407C99.8971 48.0095 99.9256 48.0748 99.9743 48.1235C100.023 48.1722 100.088 48.2007 100.157 48.2033C107.09 48.5464 114.023 48.592 120.957 48.3398C121.026 48.3398 121.093 48.3122 121.142 48.2629C121.192 48.2137 121.219 48.1469 121.219 48.0772C121.303 46.5225 121.482 44.9258 121.671 43.4341C125.032 43.8963 128.383 44.3901 131.766 44.6947C133.667 45.0048 135.608 44.9835 137.502 44.6317C138.286 44.4244 139.017 44.0533 139.647 43.5426C140.277 43.032 140.792 42.3935 141.157 41.6693C141.942 39.9685 142.278 38.0953 142.134 36.2279C142.048 34.1086 141.785 32.0002 141.346 29.925C141.168 29.0216 140.632 27.698 141.063 26.7736C141.493 25.8491 142.533 26.1118 143.195 25.5235Z" fill="#16205B"/>
<path d="M110.785 46.3309C114.24 46.0579 117.468 44.4985 119.829 41.9609C118.503 42.9628 116.983 43.6782 115.365 44.0619C112.984 44.6366 110.531 44.863 108.085 44.7342C105.557 44.7054 103.036 44.4807 100.543 44.0619H100.459C100.424 44.0558 100.388 44.0558 100.354 44.0619C100.354 44.0619 100.354 44.0619 100.354 44.1459C100.332 44.1714 100.315 44.1997 100.301 44.23C100.301 44.5661 100.228 44.9023 100.186 45.2804C103.305 46.9927 107.287 46.7721 110.785 46.3309Z" fill="black"/>
<path d="M117.899 24.819C118.05 26.5523 118.616 28.2238 119.548 29.6932C120.39 31.4038 121.679 32.8554 123.277 33.8951C123.078 33.5625 122.834 33.2586 122.552 32.9917C121.752 32.1548 121.067 31.2151 120.514 30.1974C119.43 28.3578 118.922 26.2358 119.054 24.1047C119.254 22.4449 120.189 22.0037 121.313 22.1193C120.917 21.8623 120.448 21.7399 119.977 21.7701C119.506 21.8004 119.057 21.9818 118.697 22.2873C118.11 22.9941 117.823 23.9031 117.899 24.819Z" fill="black"/>
<path d="M103.906 21.562C103.9 21.106 103.848 20.6518 103.748 20.2069C103.544 19.3505 103.117 18.5637 102.508 17.9273C101.719 17.1346 100.654 16.6789 99.5355 16.6562C98.5841 16.6622 97.6518 16.9234 96.8358 17.4126C96.2483 17.7612 95.8161 18.3211 95.6278 18.9778C95.6278 18.9778 95.6278 19.0513 95.6278 19.0934C95.6278 19.1354 95.5752 19.1774 95.5542 19.2299C95.2728 19.7896 95.1084 20.4008 95.071 21.0262C95.0251 21.9128 95.2212 22.7952 95.6383 23.5789C95.7333 23.7864 95.8494 23.9835 95.9849 24.1671C96.2283 24.529 96.5139 24.8605 96.8358 25.1546C97.1372 25.4319 97.4684 25.6749 97.8232 25.8794C98.2068 26.0853 98.6168 26.2373 99.0418 26.3311C99.6552 26.4571 100.288 26.4571 100.901 26.3311C101.32 26.2454 101.719 26.0815 102.078 25.8479C102.513 25.5796 102.89 25.2265 103.186 24.8096C103.482 24.3927 103.691 23.9206 103.8 23.4213C103.906 22.9381 103.906 21.709 103.906 21.562Z" fill="white"/>
<path d="M122.542 43.6337L119.926 42.8668C119.887 42.8575 119.846 42.8569 119.807 42.8651C119.768 42.8732 119.731 42.8899 119.699 42.914C119.667 42.9381 119.64 42.9689 119.621 43.0043C119.603 43.0397 119.592 43.0789 119.59 43.1189C119.558 44.1901 119.722 45.258 120.073 46.2704L120.577 48.4554H120.861C120.931 48.4554 120.997 48.4277 121.047 48.3784C121.096 48.3292 121.124 48.2624 121.124 48.1927C121.208 46.638 121.386 45.0413 121.575 43.5496L122.542 43.6337Z" fill="black"/>
<path d="M101.667 54.8109C106.751 54.8109 111.825 54.5167 116.888 54.0125C119.493 53.7499 122.141 53.4137 124.693 53.0356C126.216 52.8149 127.729 52.5943 129.263 52.4263C123.38 47.5626 115.607 46.3125 108.159 46.3125C100.364 46.3125 91.9604 48.3189 87.4959 55.2836C87.3764 55.4521 87.298 55.6463 87.2669 55.8506C87.2359 56.0549 87.2532 56.2637 87.3173 56.4601C91.9289 54.8424 96.8346 54.8529 101.667 54.8109Z" fill="#FFD215"/>
<path d="M116.889 54.0128C119.494 53.7502 122.142 53.414 124.694 53.0359C126.217 52.8153 127.73 52.5947 129.264 52.4266C128.536 51.8338 127.775 51.2831 126.984 50.7773C119.935 52.1828 112.807 53.1546 105.639 53.6872C99.5983 54.1284 92.9278 53.6872 87.2657 55.9667C87.2291 56.1292 87.2291 56.2979 87.2657 56.4604C91.8773 54.8427 96.783 54.8532 101.615 54.8112C106.752 54.7692 111.826 54.5696 116.889 54.0128Z" fill="black"/>
<path d="M99.0821 22.9701C98.724 21.2246 97.7603 19.6618 96.3613 18.5581C94.7751 17.5077 92.9473 18.2325 91.7497 19.5246C90.7239 20.6409 90.0769 22.0526 89.9009 23.5584C87.9203 24.2807 86.2799 25.7152 85.2998 27.5817C84.6941 28.7822 84.3785 30.1081 84.3785 31.4527C84.3785 32.7974 84.6941 34.1233 85.2998 35.3237C84.3406 36.636 83.8621 38.2384 83.9447 39.8618C83.9315 41.1238 84.2974 42.3607 84.9952 43.4124C85.3508 43.9003 85.7879 44.3231 86.2873 44.6625C85.1899 46.0539 84.4666 47.7029 84.1863 49.4526C84.0582 50.3756 84.1139 51.3148 84.35 52.2162C84.5862 53.1176 84.9982 53.9634 85.5624 54.705C84.617 56.4998 84.1879 58.5216 84.3229 60.5457C84.3407 61.5335 84.5871 62.5037 85.0428 63.3804C85.4984 64.257 86.1509 65.0162 86.9491 65.5985C86.1092 66.9268 85.6863 68.4762 85.735 70.0471C85.7837 71.6179 86.3017 73.1382 87.2222 74.412C87.808 75.2671 88.6619 75.9028 89.6492 76.2186C90.6365 76.5343 91.7008 76.5122 92.6742 76.1558C93.6703 75.6956 94.5086 74.9518 95.0841 74.0175C95.6596 73.0833 95.9467 72 95.9096 70.9034C95.7828 68.7152 94.9747 66.6216 93.5986 64.9157C94.5049 63.5349 94.9465 61.9008 94.8592 60.2515C94.6955 58.2286 93.8894 56.3109 92.5586 54.7786C94.0158 53.2404 94.8808 51.2356 95.0001 49.1202C95.1193 47.0047 94.485 44.9155 93.2099 43.2233C93.6343 42.047 93.7641 40.7847 93.5881 39.5467C93.3846 38.2385 92.9125 36.9867 92.2014 35.87C93.294 34.7805 93.98 33.3493 94.1448 31.8151C94.3154 30.3847 94.2193 28.9351 93.8612 27.5397C94.9432 27.8444 96.0882 27.8444 97.1702 27.5397C97.6068 27.4529 98.0134 27.2544 98.3504 26.9635C98.6873 26.6726 98.943 26.2992 99.0926 25.88C99.3632 24.9284 99.3595 23.9197 99.0821 22.9701Z" fill="#0075E7"/>
<path d="M135.326 10.3126C135.308 10.3048 135.288 10.3008 135.268 10.3008C135.249 10.3008 135.229 10.3048 135.211 10.3126H135.127C135.082 10.3307 135.042 10.3596 135.011 10.3966C135.011 10.3966 135.011 10.3966 135.011 10.4492C135.002 10.4907 135.002 10.5337 135.011 10.5752C135.534 13.2774 135.233 16.0744 134.146 18.6032C133.06 21.132 131.238 23.2758 128.918 24.7567C128.574 24.9194 128.29 25.1881 128.109 25.5235C130.975 24.1314 133.378 21.9431 135.032 19.2206C136.335 16.957 136.887 14.3383 136.608 11.7413C136.261 11.2484 135.874 10.7846 135.452 10.3546L135.326 10.3126Z" fill="black"/>
<path d="M115.763 30.7636C115.773 29.9538 116.061 29.1721 116.579 28.5501C117.098 27.9282 117.815 27.5042 118.61 27.3495C118.936 27.2865 118.799 26.7823 118.473 26.8453C117.573 27.0365 116.765 27.5289 116.183 28.2413C115.6 28.9536 115.278 29.8434 115.27 30.7636C115.27 30.8332 115.297 30.9 115.346 30.9493C115.396 30.9985 115.462 31.0262 115.532 31.0262C115.602 31.0262 115.669 30.9985 115.718 30.9493C115.767 30.9 115.795 30.8332 115.795 30.7636H115.763Z" fill="black"/>
<path d="M123.863 24.6498C130.838 22.6224 137.519 19.7861 144.557 17.8007C144.613 17.7717 144.657 17.7242 144.682 17.6664C144.707 17.6085 144.711 17.5438 144.694 17.4832C144.677 17.4227 144.639 17.3699 144.587 17.334C144.535 17.298 144.473 17.2811 144.41 17.286C137.424 19.3134 130.701 22.1602 123.705 24.1876C123.645 24.211 123.595 24.256 123.565 24.3139C123.536 24.3718 123.529 24.4386 123.546 24.5012C123.563 24.5639 123.603 24.6181 123.657 24.6533C123.712 24.6885 123.778 24.7022 123.842 24.6918L123.863 24.6498Z" fill="black"/>
<path d="M253.62 78.2967L229.963 78.4542C229.847 78.4521 229.734 78.491 229.644 78.564C229.553 78.637 229.492 78.7395 229.47 78.8534C227.466 81.5255 224.97 83.7897 222.116 85.524C219.955 85.3739 217.787 85.6781 215.75 86.4169C211.958 87.9506 209.195 91.1965 207.105 94.6001C207.069 94.6539 207.045 94.7146 207.033 94.7783C207.021 94.842 207.023 94.9074 207.038 94.9704C207.053 95.0335 207.08 95.0928 207.119 95.1447C207.157 95.1967 207.206 95.2401 207.263 95.2724C208.752 98.2474 209.995 101.339 210.981 104.517C211.017 104.615 211.078 104.702 211.16 104.769C211.184 104.855 211.231 104.934 211.296 104.996C211.36 105.059 211.44 105.104 211.527 105.126C211.614 105.149 211.706 105.148 211.792 105.124C211.879 105.1 211.958 105.053 212.021 104.989C214.364 102.647 217.83 101.68 220.898 100.661C224.322 99.5163 227.799 98.5078 231.224 97.3418C237.18 95.3039 243.126 92.6777 247.748 88.2867C248.725 87.3623 250.343 85.9021 249.471 84.421L249.418 84.3579C249.964 83.9377 250.469 83.507 251.015 83.0448C252.35 81.9958 253.428 80.6556 254.166 79.1266C254.191 79.0444 254.191 78.9566 254.166 78.8744C254.18 78.7983 254.176 78.72 254.154 78.6458C254.132 78.5717 254.092 78.5037 254.039 78.4475C253.986 78.3913 253.92 78.3483 253.848 78.3221C253.775 78.2959 253.697 78.2872 253.62 78.2967Z" fill="#16205B"/>
<path d="M208.828 92.0273C208.345 92.6576 207.903 93.3089 207.473 93.9707C208.764 96.5157 209.656 99.2437 210.12 102.059C210.414 102.879 210.698 103.709 210.95 104.539C210.985 104.637 211.047 104.724 211.128 104.791C211.153 104.877 211.2 104.956 211.264 105.018C211.329 105.081 211.409 105.126 211.496 105.148C211.583 105.171 211.674 105.17 211.761 105.146C211.848 105.122 211.927 105.075 211.99 105.011C212.147 104.854 212.326 104.717 212.494 104.56C212.204 100.164 210.953 95.886 208.828 92.0273Z" fill="black"/>
<path d="M246.844 79.4001L254.114 78.8433C254.123 78.7739 254.117 78.7033 254.096 78.6365C254.075 78.5696 254.04 78.508 253.993 78.4561C253.946 78.4041 253.888 78.363 253.824 78.3355C253.76 78.3081 253.69 78.295 253.62 78.2971L229.963 78.4547C229.847 78.4525 229.734 78.4914 229.644 78.5644C229.553 78.6374 229.492 78.7399 229.469 78.8539C229 79.4841 228.496 80.0934 227.957 80.6817L232.926 80.356C231.001 82.67 228.673 84.6167 226.055 86.1021C224.868 85.8185 223.681 85.5034 222.484 85.2302C222.368 85.3038 222.253 85.3983 222.127 85.4719H221.076C222.641 85.766 224.228 86.2072 225.74 86.5223C227.718 87.0165 229.743 87.2982 231.781 87.3627C233.932 87.411 236.083 87.21 238.188 86.7639C238.228 86.7893 238.273 86.8027 238.32 86.8027C238.366 86.8027 238.412 86.7893 238.451 86.7639L238.64 86.6379C240.305 86.2631 241.931 85.7284 243.493 85.0412C245.164 84.3058 247.916 82.7511 249.492 84.3373L249.439 84.2743L249.817 83.9697C249.292 83.5637 248.673 83.2969 248.018 83.194C247.362 83.0912 246.691 83.1556 246.067 83.3814C245.097 83.7289 244.15 84.1359 243.231 84.6C242.184 85.0616 241.106 85.4512 240.006 85.766C242.548 83.9452 244.846 81.8057 246.844 79.4001ZM231.276 86.9005C229.739 86.8405 228.209 86.6436 226.707 86.3122C229.37 84.7513 231.723 82.7146 233.65 80.3035L239.249 79.9358C238.388 80.8287 237.506 81.7111 236.613 82.562C235.023 84.2259 233.23 85.6834 231.276 86.9005ZM238.357 86.2807C236.347 86.729 234.292 86.944 232.232 86.9215C233.885 85.7891 235.425 84.5017 236.833 83.0768C237.884 82.0263 238.934 80.9758 239.985 79.9253L246.099 79.4946C243.89 82.1447 241.281 84.4342 238.367 86.2807H238.357Z" fill="black"/>
<path d="M203.09 94.5719C203.892 97.281 204.882 99.9311 206.052 102.503C207.103 104.846 208.269 107.325 210.254 109.058C210.496 109.309 210.785 109.51 211.106 109.648C211.426 109.786 211.77 109.859 212.119 109.862C212.468 109.866 212.814 109.8 213.136 109.668C213.459 109.536 213.753 109.342 214 109.096C214.247 108.849 214.442 108.557 214.575 108.234C214.707 107.911 214.774 107.566 214.772 107.217C214.769 106.868 214.697 106.524 214.56 106.203C214.423 105.882 214.223 105.592 213.973 105.35C213.752 105.15 213.542 104.951 213.342 104.74L213.059 104.415C213.237 104.667 213.248 104.667 213.059 104.415C212.765 103.995 212.491 103.564 212.239 103.123C211.641 102.072 211.105 100.948 210.611 99.8348C210.485 99.5721 210.37 99.3095 210.254 99.0469L210.065 98.5847C209.834 98.0174 209.603 97.4397 209.393 96.8514C208.951 95.6539 208.552 94.4458 208.195 93.2167C208.103 92.8843 207.947 92.5732 207.735 92.3011C207.523 92.0291 207.26 91.8014 206.96 91.6312C206.66 91.461 206.329 91.3515 205.987 91.3091C205.645 91.2666 205.297 91.2919 204.965 91.3837C204.632 91.4754 204.321 91.6317 204.049 91.8437C203.777 92.0557 203.549 92.3192 203.379 92.6191C203.209 92.9191 203.1 93.2496 203.057 93.5919C203.015 93.9341 203.04 94.2814 203.132 94.6139L203.09 94.5719Z" fill="#FFD215"/>
<path d="M82.6522 131.421C80.3411 128.207 79.2696 124.068 78.4503 120.265C75.5176 106.969 75.03 93.2504 77.0111 79.7797C77.0111 79.4436 76.5489 79.307 76.5069 79.6432C75.191 88.4892 74.9336 97.4604 75.7401 106.367C76.1374 110.826 76.8039 115.257 77.7359 119.635C77.8095 119.971 77.8935 120.318 77.9671 120.685C78.0316 120.173 78.0667 119.657 78.0721 119.141C78.0721 119.141 79.1226 124.814 80.1731 126.652L79.5848 126.515C80.1464 128.179 80.9046 129.769 81.8433 131.253C83.4373 133.577 85.5341 135.512 87.9781 136.915C88.0831 136.789 88.1777 136.663 88.2932 136.547L88.6819 136.726C86.3191 135.405 84.2638 133.596 82.6522 131.421Z" fill="#F15928"/>
<path d="M72.0432 129.875C74.1063 129.263 75.9158 127.999 77.201 126.272L76.7283 126.335C76.7283 126.335 76.7913 126.136 76.8859 125.789C75.6729 127.51 73.915 128.772 71.8961 129.371C71.8293 129.391 71.7729 129.436 71.7394 129.497C71.7059 129.558 71.698 129.63 71.7175 129.697C71.737 129.764 71.7823 129.82 71.8434 129.854C71.9044 129.887 71.9763 129.895 72.0432 129.875Z" fill="#F15928"/>
<path d="M177.776 109.643C177.776 109.979 178.312 109.979 178.301 109.643C178.202 107.074 177.928 104.516 177.482 101.985L177.167 102.279C177.019 101.754 176.862 101.228 176.715 100.703C177.309 103.649 177.664 106.639 177.776 109.643Z" fill="#F15928"/>
<path d="M147.197 123.898C138.222 113.546 131.621 101.356 127.858 88.1816C126.749 84.2677 125.921 80.2798 125.379 76.2482C125.379 75.9225 124.812 75.912 124.854 76.2482C125.842 83.496 127.719 90.5946 130.442 97.3838C134.404 107.293 140.02 116.457 147.05 124.486C147.103 124.276 147.155 124.066 147.197 123.898Z" fill="#F15928"/>
<path d="M61.887 313.763C68.1898 313.763 68.0007 305.874 67.9902 301.451C67.9902 295.306 64.4186 283.288 64.6917 283.814L50.4473 298.195C50.7414 299.245 51.1826 300.295 51.4977 301.251C52.2185 303.21 53.0533 305.126 53.9979 306.987C55.5841 310.023 58.0737 313.784 61.887 313.763Z" fill="#0C4F8C"/>
<path d="M162.343 369.881C162.28 365.322 161.859 360.584 159.023 356.823C156.576 353.577 152.983 351.445 149.317 349.827C145.031 347.926 140.535 346.508 136.091 345.026C132.289 343.766 128.286 342.327 125.355 339.469C124.075 337.99 122.933 336.397 121.941 334.711C120.891 333.303 119.473 332.043 117.624 332.368C116.69 332.554 115.865 333.098 115.326 333.882C114.786 334.667 114.574 335.631 114.735 336.57C115.023 337.669 114.994 338.827 114.651 339.911C114.221 340.818 113.53 341.575 112.666 342.085C110.565 343.377 107.97 343.136 105.68 342.526C103.259 341.901 100.905 341.039 98.6523 339.953C97.6018 339.427 96.4883 338.902 95.4378 338.251C94.3874 337.6 93.4735 336.948 92.444 336.381C90.7737 335.478 88.4102 335.131 87.1916 336.927C85.9731 338.724 86.7084 340.846 86.7924 342.684C86.8152 345.409 86.5654 348.129 86.0466 350.804C85.1842 355.894 85.071 361.082 85.7104 366.204C85.889 367.486 86.1201 368.757 86.3932 370.017C86.406 370.094 86.439 370.165 86.4889 370.224C86.5388 370.283 86.6038 370.328 86.6769 370.353C86.7187 370.424 86.779 370.482 86.8511 370.521C86.9233 370.559 87.0047 370.578 87.0866 370.574H161.67C161.753 370.577 161.836 370.558 161.909 370.519C161.983 370.48 162.045 370.423 162.091 370.353C162.176 370.311 162.247 370.242 162.292 370.157C162.337 370.073 162.355 369.976 162.343 369.881Z" fill="#F15928"/>
<path d="M45.9291 300.273C45.4707 300.099 44.9729 300.055 44.4908 300.145C44.0088 300.236 43.5613 300.459 43.1979 300.788C41.0234 298.939 40.7398 295.483 39.9099 292.931C38.8075 289.569 37.1686 286.409 35.0567 283.571C34.0422 282.207 32.9218 280.925 31.7057 279.737C30.4976 278.55 29.2055 277.331 27.4197 277.289C25.7073 277.405 24.0669 278.022 22.7031 279.064C21.0927 280.144 19.4234 281.133 17.7028 282.027C16.0092 282.862 14.2531 283.565 12.4504 284.128C10.8222 284.653 9.17295 285.105 7.57623 285.735C6.07386 286.232 4.696 287.047 3.53603 288.124C2.37606 289.2 1.46111 290.514 0.853179 291.975C-0.333859 295.126 -0.113259 298.593 0.496017 301.818C1.28097 305.554 2.42427 309.205 3.91007 312.722C5.3177 316.293 6.83039 319.844 7.93339 323.521C9.09947 327.451 9.8218 331.499 10.0869 335.59C10.5701 342.849 10.1814 351.011 15.1922 356.905C17.2723 359.266 20.0981 360.845 23.1997 361.378C26.3013 361.911 29.492 361.367 32.2414 359.836C38.2606 356.337 40.6977 349.068 41.5591 342.545C42.6096 334.75 41.6642 326.788 42.7777 319.045C43.2289 315.319 44.3649 311.707 46.1287 308.394C47.1061 307.008 47.7267 305.402 47.9355 303.719C48.0011 303.007 47.843 302.293 47.4834 301.675C47.1238 301.058 46.5804 300.568 45.9291 300.273Z" fill="#F15928"/>
<path d="M30.5514 330.978C28.8916 324.36 27.2283 317.745 25.5616 311.134C24.1224 305.388 23.1455 298.844 19.5949 293.938C15.9287 288.822 8.91155 285.671 3.13393 289.368C2.58031 289.725 2.05365 290.122 1.55821 290.556C1.28759 291.008 1.05566 291.482 0.864898 291.974C-0.32214 295.125 -0.10154 298.592 0.507736 301.817C1.29269 305.553 2.43599 309.204 3.92178 312.721C5.32942 316.292 6.84211 319.843 7.94511 323.519C9.11119 327.45 9.83352 331.498 10.0986 335.589C10.5818 342.848 10.1931 351.01 15.2039 356.904C16.5212 358.413 18.1545 359.615 19.9881 360.423C21.8217 361.231 23.8106 361.625 25.8137 361.578C27.3475 361.019 28.7164 360.083 29.795 358.857C31.809 356.306 33.016 353.212 33.2616 349.97C34.0494 343.563 32.0956 337.144 30.5514 330.978Z" fill="#D83F16"/>
<path d="M102.394 364.942H85.5859L85.649 365.467H162.124C162.124 365.289 162.124 365.121 162.124 364.942H137.963C137.966 364.921 137.966 364.9 137.963 364.879C137.996 364.832 138.014 364.775 138.014 364.716C138.014 364.658 137.996 364.601 137.963 364.554C137.676 361.343 138.367 358.121 139.943 355.309C141.52 352.497 143.909 350.227 146.797 348.796L146.167 348.534C143.327 350.037 140.987 352.337 139.434 355.151C137.882 357.965 137.184 361.17 137.427 364.375C132.679 363.892 128.887 360.457 126.176 356.738C123.298 352.788 121.197 348.334 117.941 344.626C116.742 343.265 115.364 342.074 113.844 341.086C113.729 341.216 113.606 341.339 113.476 341.454C121.281 346.275 123.372 356.854 130.788 362.243C132.757 363.725 135.091 364.647 137.543 364.911H102.394V364.942Z" fill="white"/>
<path d="M42.2814 324.845C42.2814 324.677 42.2814 324.499 42.2814 324.33C38.9829 324.099 35.5688 324.803 33.2578 327.23C34.3083 322.555 35.3587 317.849 36.6508 313.237C37.7275 308.737 39.7389 304.514 42.5545 300.842C42.6595 300.716 42.7646 300.6 42.8802 300.485C42.7426 300.356 42.6128 300.219 42.4915 300.075C38.048 305.201 36.1886 312.46 34.6759 318.984L32.722 327.272C32.6695 327.125 32.617 326.967 32.554 326.82C31.2756 323.343 30.2711 319.771 29.5496 316.137C28.8668 312.523 28.4361 308.867 27.7218 305.264C26.5347 299.256 24.3287 292.932 19.423 288.929C16.4448 286.541 12.7356 285.25 8.91825 285.274C8.45604 285.431 7.99383 285.599 7.54213 285.778L7.33203 285.873C11.0915 285.497 14.8646 286.44 18.0049 288.541C23.0472 291.997 25.5368 298.048 26.8394 303.815C27.6272 307.281 28.0684 310.811 28.6567 314.319C29.2229 317.752 30.0589 321.134 31.1568 324.436C31.577 325.707 32.0287 326.967 32.4909 328.228C32.4867 328.26 32.4902 328.294 32.5012 328.325C32.5121 328.356 32.5302 328.384 32.554 328.406C34.5079 333.774 36.5668 339.132 37.092 344.846C37.6294 349.592 36.612 354.384 34.1927 358.502C34.64 358.122 35.0677 357.718 35.4743 357.294C36.9057 354.434 37.6775 351.29 37.7328 348.092C37.8904 341.191 35.3903 334.678 33.0687 328.291C35.2642 325.391 38.8673 324.593 42.2814 324.845Z" fill="white"/>
<path d="M108.842 257.711C103.065 265.022 97.427 272.435 91.9295 279.95C89.5764 283.15 87.2549 286.378 84.9648 289.635C84.9648 289.929 84.9648 290.234 84.9648 290.528C89.727 283.791 94.5907 277.138 99.556 270.569C105.229 263.082 111.034 255.694 116.973 248.404C118.738 246.229 120.523 244.076 122.32 241.922C122.32 241.775 122.32 241.628 122.32 241.481L124.232 238.918C119 245.102 113.87 251.366 108.842 257.711Z" fill="white"/>
<path d="M94.8817 180.258C95.2703 179.092 95.68 177.947 96.1212 176.802C96.6243 175.643 97.0662 174.457 97.4448 173.251C98.0856 170.772 96.8986 168.514 96.2473 166.182C94.6928 160.559 94.6928 154.619 96.2473 148.996C96.2577 148.932 96.2439 148.866 96.2087 148.812C96.1735 148.757 96.1194 148.718 96.0567 148.701C95.994 148.684 95.9273 148.69 95.8694 148.72C95.8114 148.749 95.7665 148.799 95.7431 148.859C94.408 153.718 94.2103 158.818 95.1653 163.766C95.4074 165.016 95.723 166.25 96.1107 167.463C96.6158 168.697 96.9686 169.989 97.1612 171.308C97.1537 172.67 96.8301 174.011 96.2158 175.226C95.7431 176.403 95.3019 177.579 94.8817 178.777C91.5405 188.32 89.891 198.374 90.0075 208.484C90.0745 214.07 90.6867 219.636 91.8353 225.103C87.854 226.994 83.8096 228.801 79.8809 230.818C79.8809 231.017 79.8809 231.217 79.8809 231.416C83.9147 229.315 88.0956 227.477 92.1819 225.523C92.2184 225.52 92.2537 225.509 92.2853 225.49C92.317 225.472 92.3443 225.447 92.3653 225.417C92.3862 225.387 92.4005 225.353 92.4069 225.316C92.4133 225.28 92.4119 225.243 92.4025 225.208C90.3094 215.268 89.9894 205.037 91.4571 194.986C92.1705 189.987 93.3163 185.059 94.8817 180.258Z" fill="#F15928"/>
<path d="M322.068 56.7734H211.705C208.149 56.7734 205.266 59.6565 205.266 63.2129V74.663C205.266 78.2194 208.149 81.1025 211.705 81.1025H322.068C325.624 81.1025 328.507 78.2194 328.507 74.663V63.2129C328.507 59.6565 325.624 56.7734 322.068 56.7734Z" fill="#16205B"/>
<path d="M322.068 19.9961H211.705C208.149 19.9961 205.266 22.8791 205.266 26.4355V37.8857C205.266 41.4421 208.149 44.3251 211.705 44.3251H322.068C325.624 44.3251 328.507 41.4421 328.507 37.8857V26.4355C328.507 22.8791 325.624 19.9961 322.068 19.9961Z" fill="#FFBF1B"/>
<path d="M322.068 53.6211H211.705C208.149 53.6211 205.266 56.5041 205.266 60.0605V71.5107C205.266 75.0671 208.149 77.9501 211.705 77.9501H322.068C325.624 77.9501 328.507 75.0671 328.507 71.5107V60.0605C328.507 56.5041 325.624 53.6211 322.068 53.6211Z" fill="#FFBF1B"/>
<g style="mix-blend-mode:hard-light">
<path d="M205.266 60.0622V71.5019C205.266 72.3484 205.433 73.1866 205.757 73.9685C206.081 74.7505 206.556 75.4608 207.155 76.0589C207.754 76.657 208.466 77.1311 209.248 77.4541C210.031 77.7771 210.869 77.9427 211.716 77.9413H322.068C322.915 77.9427 323.753 77.7771 324.536 77.4541C325.318 77.1311 326.029 76.657 326.628 76.0589C327.227 75.4608 327.703 74.7505 328.027 73.9685C328.351 73.1866 328.518 72.3484 328.518 71.5019V60.0622C328.514 59.0505 328.273 58.0538 327.814 57.1523H205.959C205.503 58.0547 205.266 59.0513 205.266 60.0622Z" fill="#0075E7"/>
</g>
<path d="M316.858 123.469H284.766C281.209 123.469 278.326 126.352 278.326 129.908V141.358C278.326 144.915 281.209 147.798 284.766 147.798H316.858C320.414 147.798 323.297 144.915 323.297 141.358V129.908C323.297 126.352 320.414 123.469 316.858 123.469Z" fill="#0075E7"/>
<path d="M246.6 123.469H214.508C210.951 123.469 208.068 126.352 208.068 129.908V141.358C208.068 144.915 210.951 147.798 214.508 147.798H246.6C250.156 147.798 253.039 144.915 253.039 141.358V129.908C253.039 126.352 250.156 123.469 246.6 123.469Z" fill="#0075E7"/>
<path opacity="0.19" d="M322.068 19.9961H211.768C210.922 19.9947 210.083 20.1603 209.301 20.4833C208.518 20.8063 207.807 21.2804 207.208 21.8785C206.609 22.4766 206.134 23.1869 205.81 23.9689C205.485 24.7508 205.319 25.589 205.319 26.4355V37.8752C205.308 39.4204 205.865 40.9157 206.884 42.0771L324.506 20.4793C323.733 20.1582 322.905 19.9939 322.068 19.9961Z" fill="white"/>
<path opacity="0.19" d="M322.068 53.6218H211.768C210.922 53.6204 210.083 53.7859 209.301 54.1089C208.518 54.4319 207.807 54.906 207.208 55.5041C206.609 56.1022 206.134 56.8126 205.81 57.5945C205.485 58.3765 205.318 59.2147 205.318 60.0612V71.5009C205.322 72.4973 205.557 73.4793 206.005 74.3691C206.454 75.2589 207.103 76.032 207.903 76.6272L326.522 55.3446C325.317 54.215 323.72 53.5974 322.068 53.6218Z" fill="white"/>
<path opacity="0.19" d="M316.847 123.469H284.766C283.057 123.472 281.419 124.152 280.212 125.362C279.004 126.571 278.326 128.21 278.326 129.919V141.358C278.328 142.343 278.555 143.314 278.99 144.197C279.426 145.08 280.057 145.852 280.837 146.453L318.202 123.605C317.756 123.514 317.302 123.468 316.847 123.469Z" fill="white"/>
<path opacity="0.19" d="M246.6 123.469H214.518C212.808 123.469 211.167 124.148 209.957 125.358C208.748 126.567 208.068 128.208 208.068 129.919V141.358C208.07 142.352 208.301 143.332 208.743 144.221C209.186 145.11 209.829 145.885 210.621 146.485L251.821 126.158C251.228 125.326 250.445 124.648 249.536 124.18C248.628 123.712 247.621 123.468 246.6 123.469Z" fill="white"/>
</svg>
