<svg width="408" height="338" viewBox="0 0 408 338" fill="none" xmlns="http://www.w3.org/2000/svg">
<path d="M372.305 75.4685H31.8727V265.056H372.305V75.4685Z" fill="#0075E7"/>
<path d="M230.161 326.786C229.153 324.588 227.505 322.664 226.039 320.649C224.482 318.635 223.017 316.62 221.826 314.33C220.727 312.04 220.086 309.567 219.72 307.003C219.353 304.438 219.262 301.874 219.079 299.309C218.987 298.302 218.804 297.295 218.071 296.562C217.338 295.829 216.239 295.646 215.232 295.554C210.652 295.188 206.073 294.547 201.952 292.257C200.944 291.708 200.028 290.975 199.204 290.242C199.021 290.059 198.838 290.059 198.654 290.151C196.731 289.235 194.441 288.502 192.976 290.517C191.602 292.44 190.778 294.822 189.862 296.928C188.946 299.035 187.847 301.508 185.924 302.973C184.458 304.072 182.26 304.896 182.26 307.003C182.169 309.476 184.641 310.758 186.382 311.857C188.397 313.139 190.228 314.879 192.243 316.07C193.251 316.711 194.35 317.169 195.449 317.535C196.731 317.993 197.739 318.635 198.746 319.55C200.669 321.291 202.776 322.573 204.974 323.947C209.737 326.969 214.591 329.991 219.353 333.014C221.643 334.479 223.933 335.853 226.314 337.044C226.772 337.319 227.23 337.593 227.779 337.502C228.329 337.41 228.604 337.044 228.878 336.677C229.52 335.67 230.069 334.479 230.435 333.289C231.168 331.365 231.168 328.984 230.161 326.786Z" fill="#0975E7"/>
<path d="M216.972 289.235C216.789 288.96 216.331 288.777 216.056 288.685C215.415 288.502 214.866 288.319 214.224 288.136C211.752 287.403 209.279 286.762 206.806 286.029C204.15 285.296 201.494 284.655 198.746 284.014C198.655 283.923 198.563 283.923 198.471 283.923C198.197 283.831 198.105 284.197 198.288 284.289C197.647 286.029 197.098 287.769 196.456 289.418C196.182 290.334 195.815 291.158 195.541 292.074C195.357 292.715 194.808 293.539 195.174 294.18C195.449 294.73 196.182 295.188 196.64 295.646C197.189 296.104 197.83 296.562 198.471 296.928C199.754 297.661 201.219 298.302 202.684 298.668C204.333 299.126 206.073 299.218 207.813 299.126C207.905 299.126 207.996 299.035 207.996 298.943H208.088C210.469 298.577 212.851 297.936 215.049 297.02C215.781 296.745 216.423 296.287 216.606 295.463C216.789 294.364 216.789 293.081 216.881 291.982C216.972 291.433 216.972 290.792 217.064 290.242C217.155 289.876 217.155 289.51 216.972 289.235Z" fill="#16205B"/>
<path d="M123.736 256.813C120.072 252.508 116.5 248.112 113.111 243.624C113.111 243.532 113.02 243.532 113.02 243.441C112.837 243.258 112.47 243.441 112.562 243.624C111.096 244.448 109.723 245.364 108.257 246.188C106.883 247.013 105.418 247.745 104.044 248.753C103.037 249.486 103.495 250.859 103.678 251.867C103.953 253.058 104.319 254.157 104.777 255.256C105.784 257.454 107.341 259.469 109.173 261.117C110.089 261.942 111.096 262.583 112.195 263.224C112.653 263.499 113.203 263.682 113.661 263.865C114.119 264.048 114.668 264.323 115.126 264.14C115.493 264.048 115.767 263.682 115.951 263.499C116.317 263.224 116.683 262.857 117.05 262.583C117.691 262.033 118.423 261.484 119.065 260.934C120.53 259.743 121.995 258.461 123.461 257.271C123.827 257.087 123.827 256.904 123.736 256.813Z" fill="#16205B"/>
<path d="M264.415 45.4276C276.959 45.4276 287.129 35.2583 287.129 22.7138C287.129 10.1693 276.959 0 264.415 0C251.87 0 241.701 10.1693 241.701 22.7138C241.701 35.2583 251.87 45.4276 264.415 45.4276Z" fill="#1D99EE"/>
<path d="M259.835 35.8109C270.918 35.8109 276.962 26.6521 276.962 18.6839C276.962 18.4092 276.962 18.1344 276.962 17.8597C278.153 17.0354 279.161 15.9363 279.985 14.7457C278.886 15.2036 277.787 15.57 276.504 15.6615C277.787 14.9288 278.703 13.7382 279.161 12.3644C277.97 13.0971 276.688 13.555 275.314 13.8298C274.215 12.6391 272.658 11.9064 270.918 11.9064C267.62 11.9064 264.873 14.5625 264.873 17.9512C264.873 18.4092 264.964 18.8671 265.056 19.3251C260.019 19.0503 255.622 16.669 252.6 13.0055C252.05 13.9214 251.776 14.9288 251.776 16.0279C251.776 18.1344 252.875 19.9662 254.432 21.0652C253.424 21.0652 252.508 20.7905 251.684 20.3325V20.4241C251.684 23.3549 253.791 25.7362 256.538 26.3773C255.989 26.5605 255.531 26.5605 254.981 26.5605C254.615 26.5605 254.249 26.5605 253.882 26.4689C254.615 28.8502 256.905 30.5904 259.469 30.682C257.363 32.3305 254.798 33.2464 251.959 33.2464C251.501 33.2464 250.951 33.2464 250.493 33.1548C253.241 34.8034 256.447 35.8109 259.835 35.8109Z" fill="white"/>
<path d="M113.111 243.624C113.111 243.532 113.02 243.532 113.02 243.441C112.836 243.258 112.47 243.441 112.562 243.624C111.463 244.357 110.272 244.998 109.173 245.731C110.638 249.394 113.02 252.783 115.95 255.439C116.866 256.263 118.332 256.355 119.156 255.439C119.98 254.523 120.072 253.058 119.156 252.233C118.24 251.409 117.416 250.585 116.683 249.577C116.592 249.486 116.5 249.302 116.408 249.211C116.408 249.211 116.408 249.119 116.317 249.119C116.134 248.845 115.95 248.661 115.767 248.387C115.401 247.837 115.035 247.379 114.76 246.83C114.485 246.28 114.21 245.822 113.935 245.273C113.844 244.998 113.661 244.723 113.569 244.448L113.478 244.265C113.478 244.173 113.386 244.082 113.386 243.99C113.294 243.807 113.203 243.716 113.111 243.624Z" fill="black"/>
<path d="M209.553 293.356C210.744 293.448 211.843 292.257 211.843 291.067C211.843 289.784 210.836 288.868 209.553 288.777C209.187 288.777 208.821 288.777 208.454 288.685C208.271 288.685 208.088 288.685 207.997 288.594H207.905C207.172 288.502 206.531 288.319 205.89 288.136C204.425 287.769 203.326 287.311 202.135 286.762C200.669 286.029 199.479 285.296 198.38 284.381C197.83 285.846 197.372 287.403 196.823 288.868C200.486 291.616 204.974 293.081 209.553 293.356Z" fill="black"/>
<path d="M231.626 206.256C230.893 201.585 229.611 196.914 228.512 192.243C227.413 187.572 226.222 182.993 225.123 178.322C223.933 173.651 222.834 169.071 221.735 164.4C221.185 162.111 220.635 159.913 220.086 157.623C219.811 156.432 219.536 155.242 219.262 154.143C219.17 153.593 219.078 153.044 218.987 152.494C218.895 151.944 218.254 148.647 218.071 147.548C217.979 147.09 217.979 146.999 217.796 147.273C210.836 145.716 203.966 144.159 197.006 142.694C190.137 141.229 183.268 140.038 176.307 139.122C172.735 138.664 169.071 138.023 165.866 136.283C165.5 136.1 165.408 136.558 165.5 136.832C163.485 141.229 160.645 144.892 159.546 149.472C158.447 153.868 158.722 158.447 159.913 162.843C161.195 167.24 163.21 171.453 165.408 175.483C167.789 179.787 170.171 184.092 172.46 188.396C174.2 191.785 175.941 195.266 177.589 198.746C169.529 203.6 161.47 208.454 153.41 213.308C144.343 218.804 135.275 224.207 126.117 229.703C120.988 232.725 115.95 235.839 110.822 238.861C110.638 238.953 110.547 239.228 110.638 239.319C110.638 239.411 110.638 239.503 110.638 239.594C111.921 247.837 116.408 255.439 122.82 260.659C124.651 262.125 126.575 263.407 128.59 264.506C128.773 264.598 128.956 264.598 129.139 264.414C129.231 264.414 129.322 264.414 129.414 264.323C141.87 256.263 154.417 248.295 166.873 240.235C178.963 232.45 190.961 224.665 202.501 216.239C203.966 215.14 205.432 214.041 206.897 212.942C205.981 222.101 204.699 231.26 203.234 240.418C201.677 249.852 200.028 259.286 198.196 268.719C197.281 273.848 196.273 279.069 195.266 284.197C195.174 284.564 195.54 284.747 195.815 284.747C200.852 289.418 207.813 291.982 214.682 291.616C216.697 291.525 218.895 291.158 220.544 289.968C220.635 289.968 220.635 289.876 220.635 289.876C220.727 289.784 220.819 289.784 220.819 289.601C223.108 280.534 224.94 271.284 226.406 262.033C227.871 252.783 229.062 243.441 230.069 234.19C230.619 229.519 231.168 224.848 231.626 220.177C232.267 215.598 232.359 210.927 231.626 206.256Z" fill="#F15928"/>
<path d="M166.324 15.8447C165.774 15.2952 164.95 15.8447 164.492 16.2111C163.851 16.8522 163.485 17.7681 163.118 18.5924C162.569 19.8746 162.019 21.1568 161.47 22.4391C161.195 21.1568 159.913 20.4241 158.722 20.0578C156.799 19.5082 154.875 19.1419 152.86 18.9587C152.311 18.9587 149.014 18.684 149.93 20.1494C150.296 20.7905 151.395 21.0652 152.036 21.34C152.677 21.6148 153.41 21.8895 154.143 22.1643C152.952 22.8054 151.853 23.6297 150.754 24.454C150.662 24.5456 150.571 24.6372 150.388 24.7288C146.999 26.3773 143.793 28.3923 141.503 31.5063C138.298 35.7193 137.29 41.0314 135.917 45.9772C135.092 48.908 134.176 51.8388 132.619 54.4948C132.528 54.4948 132.528 54.5864 132.436 54.678C129.78 63.3789 127.307 72.0797 124.834 80.7806C122.453 89.2983 119.797 97.9075 118.515 106.7C118.24 108.715 117.965 110.821 117.965 112.836C117.874 114.485 117.965 116.225 118.423 117.874C118.881 119.431 119.706 120.896 120.896 121.904C122.178 122.911 123.735 123.461 125.292 123.644C129.231 124.01 132.803 122.087 136.1 120.163C140.038 117.965 143.976 115.767 147.915 113.478C148.922 112.928 149.93 112.378 150.845 111.829C151.487 111.463 152.494 111.096 152.769 110.272C153.044 109.448 152.586 108.44 152.402 107.616C152.128 106.517 151.945 105.418 151.761 104.319C150.937 99.9225 150.296 95.4347 149.93 90.8553C149.838 89.9394 149.838 88.9319 149.746 88.016C149.93 87.9245 150.113 87.8329 150.204 87.6497C150.479 87.4665 150.204 87.1002 149.93 87.2833C149.838 87.3749 149.746 87.4665 149.655 87.4665C149.563 87.2833 149.197 87.2833 149.197 87.5581C149.197 87.6497 149.655 87.9245 149.655 88.016C146.907 89.8478 143.702 91.4964 140.954 93.3281C142.145 85.2684 143.427 77.3003 144.892 69.3321C145.442 66.1265 146.083 62.9209 146.724 59.7154C146.816 59.7154 146.816 59.6238 146.816 59.5322C146.816 57.7004 146.816 55.7771 147.182 53.9453C147.64 52.1136 148.556 50.5566 149.655 48.9996C150.754 47.4426 151.853 45.8856 152.952 44.4202C154.051 42.9548 155.333 41.5809 156.341 40.0239C157.623 38.1006 158.356 35.9941 158.814 33.796C160.371 32.3306 161.928 30.8652 162.843 28.8502C163.851 26.6521 164.584 24.2708 165.316 21.8895C165.683 20.6989 166.049 19.5082 166.324 18.3176C166.599 17.6765 166.873 16.4858 166.324 15.8447Z" fill="#16205B"/>
<path d="M150.113 87.3749C150.021 87.4665 149.93 87.5581 149.838 87.5581C149.747 87.3749 149.38 87.3749 149.38 87.6497C149.38 87.7413 149.838 88.016 149.838 88.1076C150.021 88.016 150.205 87.9245 150.296 87.7413C150.571 87.6497 150.296 87.1918 150.113 87.3749Z" fill="black"/>
<path d="M151.762 104.41C150.937 100.014 150.296 95.5262 149.93 90.9468C149.838 90.031 149.838 89.0235 149.747 88.1076C149.38 88.3824 149.014 88.6571 148.556 88.8403C146.633 96.5337 147.274 104.777 150.113 112.195C150.296 112.104 150.571 111.92 150.754 111.829C151.395 111.463 152.403 111.096 152.677 110.272C152.952 109.448 152.494 108.44 152.311 107.616C152.219 106.608 152.036 105.509 151.762 104.41Z" fill="black"/>
<path d="M275.955 54.4032C275.13 51.8387 273.94 49.549 273.024 47.0762C272.566 45.8855 272.016 44.1453 272.016 44.1453C271.65 44.3285 268.261 45.336 265.972 45.336C266.246 44.6949 267.254 41.9472 267.437 41.3061C267.712 40.2987 268.353 38.6501 267.803 37.6426C267.62 37.2762 267.162 37.0015 266.704 37.0931C266.063 37.1847 265.697 37.9174 265.33 38.3753C264.323 39.7491 263.407 41.1229 262.491 42.4968C262.308 42.7715 261.026 44.878 260.843 45.1528C259.652 44.9696 258.736 44.6949 258.187 44.6033C258.003 46.2519 258.37 46.893 258.645 48.5416C258.919 49.8238 259.102 51.0144 259.377 52.2967C259.469 53.6705 259.56 55.1359 259.652 56.5097C259.835 59.8985 260.293 63.3788 259.744 66.7676C259.286 70.0647 258.095 73.1787 256.996 76.2927C254.615 82.7039 252.05 89.115 249.394 95.4346C247.654 99.4645 245.914 103.586 244.174 107.616C242.159 103.769 240.052 99.9224 238.037 96.0757C238.037 95.9841 238.129 95.9841 238.129 95.8925C238.312 95.6178 237.946 95.4346 237.762 95.6178C237.579 95.5262 237.305 95.7094 237.488 95.8925C237.488 95.8925 237.488 95.9841 237.579 95.9841C234.374 101.113 231.168 106.15 227.963 111.279C227.596 111.92 227.23 112.47 226.772 113.111C226.406 113.661 225.948 114.21 225.764 114.851C225.49 116.042 226.497 117.324 226.955 118.332C228.329 120.988 229.703 123.552 231.168 126.117C232.634 128.681 234.099 131.154 235.656 133.627C236.938 135.733 238.312 137.84 240.052 139.58C241.518 141.045 243.441 142.328 245.547 142.328C247.654 142.328 249.486 141.229 250.86 139.672C252.508 137.931 253.516 135.733 254.615 133.535C255.805 131.062 256.996 128.589 258.003 126.025C260.11 120.988 261.942 115.767 263.499 110.455C266.704 99.8308 269.086 88.9319 271.833 78.1245C272.474 75.4684 273.207 72.7208 273.94 70.0647C274.672 67.3171 275.68 64.5695 276.229 61.7302C276.871 59.4405 276.779 56.8761 275.955 54.4032Z" fill="#16205B"/>
<path d="M238.495 96.7169C238.403 96.4421 238.22 96.259 238.129 95.9842C238.129 95.8926 238.22 95.8926 238.22 95.801C238.22 95.7094 238.22 95.7094 238.22 95.6179C237.946 95.8926 237.579 96.1674 237.304 96.3506C234.19 101.296 231.076 106.242 227.962 111.279C227.596 111.921 227.23 112.47 226.772 113.111C226.405 113.661 225.948 114.21 225.764 114.851C225.581 115.767 226.131 116.775 226.589 117.599C226.772 117.507 226.863 117.416 227.047 117.324C227.779 116.866 228.42 116.225 228.97 115.676C231.351 113.203 232.908 110.089 234.282 106.975C235.747 103.586 236.847 100.014 238.495 96.7169Z" fill="black"/>
<path d="M240.876 92.4122C240.144 91.6795 239.045 91.4047 238.22 90.8552C237.304 90.3057 236.389 89.573 235.564 88.8403C232.359 85.7263 230.161 81.6964 226.497 79.0404C224.116 77.3002 221.277 76.2927 218.346 76.1096C218.163 76.1096 218.071 76.2927 218.163 76.3843C215.507 77.2086 215.049 80.5974 214.957 82.9787C214.865 86.7338 215.507 90.5805 216.239 94.3356C217.521 101.754 219.353 108.99 221.735 116.133C222.101 117.141 222.376 118.148 222.742 119.156C223.017 119.797 223.2 120.621 223.933 120.896C225.398 121.629 226.68 120.072 227.321 118.973C227.413 118.881 227.413 118.79 227.321 118.698C226.863 117.874 226.406 116.958 226.039 116.133C228.97 113.752 231.168 110.547 232.908 107.158C233.916 105.235 234.74 103.311 235.564 101.296C236.297 99.6477 237.03 97.9075 238.037 96.4421C238.587 97.5411 239.136 98.5486 239.777 99.5561C239.777 99.6477 239.869 99.6477 239.961 99.6477C240.052 99.6477 240.235 99.6477 240.235 99.4645C240.785 98.1823 241.151 96.8084 241.426 95.343C241.701 94.3356 241.792 93.2365 240.876 92.4122Z" fill="#E1EAF9"/>
<path d="M198.838 56.0518C198.288 53.4874 197.464 50.9229 196.548 48.45C196.09 47.2594 195.632 45.8856 194.716 44.9697C193.892 44.237 192.701 43.8707 191.785 44.5118C191.511 44.6949 191.511 44.9697 191.694 45.1529C191.602 47.6258 191.877 50.0986 192.61 52.3883C193.251 54.4033 194.075 56.7846 195.815 57.9752C196.548 58.4331 197.647 58.8911 198.38 58.3415C199.112 57.9752 198.929 56.8761 198.838 56.0518Z" fill="#045FAA"/>
<path d="M217.338 79.9563C216.789 76.7507 216.056 73.5451 215.049 70.4312C214.682 69.1489 214.224 67.8667 213.308 66.8592C212.393 65.8518 211.202 65.3938 209.92 65.3938C208.729 65.3022 207.447 65.577 206.256 65.8518C206.165 65.7602 206.073 65.7602 205.89 65.8518C200.944 67.4088 197.464 71.805 195.815 76.5676C193.617 82.7039 194.167 89.4815 194.625 95.801C195.54 109.814 196.456 123.827 197.372 137.84C197.464 139.58 197.647 141.32 197.739 143.06C197.83 144.434 197.647 146.174 198.38 147.365C199.112 148.556 200.578 148.739 201.768 148.922C203.417 149.197 205.157 149.38 206.806 149.472C208.546 149.563 210.194 149.655 211.935 149.655C212.759 149.655 213.675 149.655 214.499 149.655C215.232 149.655 216.056 149.746 216.697 149.472C217.979 149.014 217.796 147.182 217.796 146.083C217.796 144.343 217.888 142.602 217.888 140.862C217.979 133.902 218.163 126.941 218.254 119.889C218.346 113.111 218.621 106.334 218.621 99.5561C218.712 92.9618 218.437 86.4591 217.338 79.9563Z" fill="#E1EAF9"/>
<path d="M221.277 37.0931C221.368 35.6277 219.994 34.9866 219.17 33.9791C218.437 33.0633 218.621 31.3231 217.155 31.1399C216.789 31.0483 216.239 31.3231 216.056 30.8652C215.873 30.5904 215.873 30.224 215.69 29.8577C215.323 29.2166 214.774 29.0334 214.133 28.9418C213.766 28.8502 213.308 28.8502 213.034 28.667C212.667 28.3923 212.484 28.0259 212.301 27.6596C211.843 27.0185 211.294 26.4689 210.652 26.1026C209.279 25.2783 207.538 25.0035 205.981 25.553C205.249 25.8278 204.608 26.1942 204.058 26.7437C203.783 27.0185 203.509 27.2932 203.325 27.6596C202.959 28.2091 202.593 27.7512 202.226 27.4764C201.036 26.7437 199.112 25.6446 197.647 26.1026C197.006 26.2858 196.639 26.8353 196.456 27.568C196.365 27.9343 196.365 28.2091 196.273 28.5755C196.09 29.0334 195.815 29.125 195.357 29.2166C193.983 29.3997 192.518 30.0409 192.335 31.6894C192.335 32.1474 192.335 32.6053 191.968 33.0633C191.694 33.4296 191.327 33.7044 191.053 33.9791C190.411 34.4371 189.77 34.9866 189.221 35.6277C188.213 36.8184 187.114 38.5585 187.939 40.1155C188.213 40.7566 188.854 41.2146 189.312 41.7641C189.862 42.3136 190.228 42.9548 190.32 43.6875C190.503 44.9697 190.411 46.5267 191.602 47.351C192.243 47.8089 193.068 47.8089 193.8 47.8089C194.716 47.8089 195.449 47.8089 196.182 48.3585C197.464 49.2743 198.105 50.8313 199.295 51.9304C200.486 53.0294 202.226 54.2201 203.966 54.0369C205.798 53.7621 206.989 52.2051 207.905 50.8313C209.004 49.2743 210.194 47.7173 211.66 46.4351C213.217 45.0613 215.049 44.0538 216.789 42.9548C217.705 42.4052 218.529 41.8557 219.445 41.2146C219.628 41.123 219.628 40.9398 219.628 40.8482C219.72 40.7567 219.72 40.6651 219.72 40.5735C219.628 39.1081 221.185 38.4669 221.277 37.0931Z" fill="#0075E7"/>
<path d="M224.849 96.6253C224.94 93.8777 224.94 91.13 224.757 88.3824C224.665 86.1843 224.391 83.9862 223.658 81.8796C223.292 80.8722 222.834 79.9563 222.193 79.132C221.552 78.2161 220.636 77.575 219.903 76.7507C218.987 75.8348 218.621 74.7358 218.529 73.4535C218.529 72.3545 218.529 71.2554 218.621 70.1564C218.712 68.1414 218.804 66.0349 217.888 64.1116C217.43 63.1041 216.606 62.463 215.873 61.7303C215.049 60.9976 214.499 59.8985 213.583 59.2574C211.843 58.1584 209.553 58.3415 207.539 58.7079C206.256 58.9827 204.974 59.4406 203.6 59.5322C203.234 59.5322 202.776 59.6238 202.41 59.5322V59.4406C202.318 59.1658 201.952 59.1658 201.768 59.349C201.311 59.0742 200.944 58.4331 200.486 58.0668C198.838 56.6929 196.548 56.5098 194.441 56.6014C191.877 56.6929 189.313 57.1509 186.84 57.9752C184.916 58.7079 182.901 59.7154 182.077 61.7303C181.344 63.7452 181.802 65.8517 181.894 67.9583C181.894 68.9657 181.894 69.8816 181.528 70.7975C178.872 70.7059 176.215 70.7975 173.559 71.0723C173.285 71.0723 173.01 71.347 173.101 71.6218C174.75 75.6517 176.399 79.8647 177.04 84.2609C177.681 88.5656 177.04 92.7786 174.842 96.5337C173.651 98.5487 172.277 100.289 170.629 101.937C170.445 101.937 170.262 102.121 170.262 102.395C169.987 105.418 169.713 108.349 169.072 111.279C168.43 114.21 167.057 116.866 166.049 119.614C165.133 122.087 164.675 124.651 164.126 127.216C163.668 129.689 163.118 132.161 161.745 134.268C161.103 135.367 160.004 136.283 160.188 137.748C160.462 139.031 161.561 140.038 162.569 140.862C162.752 140.954 162.935 140.954 163.027 140.862C163.118 140.862 163.21 140.771 163.302 140.679C163.668 139.855 164.034 139.031 164.492 138.298C166.324 139.031 168.064 140.038 169.804 140.862C172.094 141.961 174.475 142.969 176.857 143.885C181.711 145.716 186.748 147.273 191.969 148.006C194.808 148.464 197.739 148.647 200.669 148.647C200.853 148.647 200.944 148.556 201.036 148.464C201.311 148.464 201.494 148.189 201.494 147.915C201.127 145.533 200.944 143.152 201.219 140.771C201.402 138.389 201.952 136.1 202.318 133.718C202.776 131.429 203.051 129.139 203.142 126.849C203.142 124.56 203.051 122.178 202.776 119.889C202.593 117.507 202.318 115.218 202.135 112.836C202.043 110.455 202.043 108.074 202.135 105.693C202.41 101.113 202.868 96.5337 202.501 91.9543C202.226 87.9244 201.402 83.9862 199.479 80.4142C202.41 74.2778 202.868 67.0424 200.486 60.3565C202.684 60.3565 206.989 59.7154 209.187 59.4406C210.195 59.349 211.202 59.4406 212.118 59.7154C213.217 60.0817 213.767 60.8144 214.408 61.7303C215.049 62.5546 216.056 63.1041 216.606 64.02C216.789 64.2947 216.881 64.5695 217.064 64.8443C215.873 65.7602 214.682 66.676 213.583 67.5919C212.667 68.3246 211.752 69.0573 211.568 70.248C211.385 71.4386 211.752 72.7208 212.118 73.8199C212.484 75.1021 212.851 76.4759 213.217 77.7582C214.591 83.2535 215.507 88.8403 215.873 94.5188C216.239 100.197 215.965 105.876 215.415 111.554C215.14 114.393 214.774 117.324 214.682 120.163C214.591 123.094 214.682 126.025 214.866 128.956C215.049 132.253 215.324 135.459 215.415 138.756C215.415 142.053 215.232 145.35 215.049 148.647C215.049 148.922 215.232 149.014 215.415 149.105C215.507 149.105 215.507 149.197 215.598 149.197C216.514 149.288 217.43 149.105 218.254 149.014C218.254 149.197 218.346 149.38 218.346 149.563C218.437 149.838 218.438 150.387 218.621 150.662C219.903 150.754 221.002 150.571 221.643 150.296C223.658 149.472 223.658 148.098 223.383 146.083C223.2 144.709 222.834 143.427 222.651 142.145C222.467 140.771 222.284 139.488 222.284 138.115C222.193 135.367 222.284 132.619 222.376 129.872C223.017 118.881 224.574 107.799 224.849 96.6253Z" fill="white"/>
<path d="M220.636 42.4052C219.445 38.9249 217.796 35.6277 215.781 32.6053C215.781 32.3305 215.507 32.3305 215.415 32.5137C215.324 32.6053 215.324 32.6969 215.324 32.7885C215.232 33.7044 214.774 34.5286 213.858 34.9866C212.942 35.4445 211.843 35.0782 210.927 35.4445C210.103 35.7193 209.645 36.5436 208.912 36.9099C207.905 37.3679 206.806 36.9099 205.798 37.0931C204.15 37.3679 203.234 38.9249 203.509 40.5734C203.6 41.5809 204.058 42.4968 204.058 43.5043C204.058 44.5117 203.509 45.2444 202.868 45.9771C202.318 46.6183 201.952 47.351 201.86 48.1753C201.769 49.1827 202.135 50.0986 202.043 51.1061C202.043 51.2892 202.043 51.3808 201.952 51.564C201.86 51.8388 201.86 51.9304 201.585 51.9304C201.219 51.9304 201.127 51.7472 201.036 51.3808C200.853 50.8313 200.853 50.0986 200.944 49.4575C200.944 48.3584 201.127 47.2594 200.944 46.1603C200.761 44.6033 199.754 42.9547 198.013 42.8631C196.365 42.7716 195.174 44.6949 194.625 46.0687C193.159 49.4575 194.35 53.3958 197.189 55.6855C195.541 58.891 193.8 61.9134 191.785 64.9358C191.785 65.0274 191.785 65.0274 191.785 65.119C191.785 65.2106 191.785 65.3938 191.969 65.3938C194.716 66.0349 197.464 66.4928 200.212 67.2255C200.853 67.4087 201.311 67.6835 201.677 68.3246C201.952 68.8741 201.952 69.4237 202.043 69.9732C202.135 71.347 202.043 72.8124 201.769 74.1862C201.769 74.2778 201.769 74.2778 201.769 74.3694C201.769 74.461 201.769 74.6442 201.952 74.6442C204.608 75.56 207.63 75.4685 210.195 74.2778C210.286 74.2778 210.286 74.1862 210.286 74.0946L210.378 74.0031C210.469 72.2629 210.561 70.5227 210.744 68.8741C212.484 69.4237 214.408 69.2405 216.148 68.5078C218.621 67.3171 220.269 64.7527 221.185 62.2798C223.292 55.777 222.651 48.6332 220.636 42.4052Z" fill="#16205B"/>
<path d="M210.927 68.7826C209.553 68.3246 208.18 67.5919 206.989 66.7676C204.333 64.9359 202.226 62.2798 200.761 59.4406C200.761 59.349 200.669 59.349 200.669 59.349C200.578 59.0742 200.12 59.1658 200.211 59.4406C201.219 62.0966 202.318 64.6611 203.692 67.134C205.066 69.6069 206.623 71.8966 208.912 73.6367C209.187 73.8199 209.553 74.0947 209.828 74.2778C209.92 74.2778 209.92 74.1863 210.011 74.1863C210.103 74.1863 210.103 74.0947 210.103 74.0031L210.195 73.9115C210.286 72.1713 210.378 70.4312 210.561 68.7826C210.652 68.7826 210.836 68.7826 210.927 68.7826C210.927 68.8742 210.927 68.8742 210.927 68.7826Z" fill="black"/>
<path d="M202.501 69.2405C202.501 67.9583 201.86 66.8592 200.669 66.4013C199.845 66.0349 198.838 66.0349 198.013 65.9433C197.281 65.8517 196.456 65.7602 195.724 65.6686C194.441 65.4854 193.251 65.3938 191.969 65.2106C194.716 65.8517 197.372 66.3097 200.12 67.0424C200.761 67.2256 201.219 67.5003 201.585 68.1414C201.86 68.691 201.86 69.2405 201.952 69.79C202.043 71.1639 201.952 72.6293 201.677 74.0031C201.677 74.0947 201.677 74.0947 201.677 74.1862C201.677 74.2778 201.677 74.3694 201.768 74.461C201.952 73.5451 202.043 72.7208 202.226 71.805C202.226 70.9807 202.501 70.0648 202.501 69.2405Z" fill="black"/>
<path d="M211.843 35.1698C211.477 35.1698 211.202 35.1698 210.836 35.353C210.011 35.6277 209.554 36.452 208.821 36.8184C207.813 37.2763 206.714 36.8184 205.707 37.0016C204.058 37.2763 203.142 38.8333 203.417 40.4819C203.509 41.4894 203.967 42.4052 203.967 43.4127C203.967 44.4202 203.417 45.1529 202.776 45.8856C202.318 46.4351 201.952 46.9847 201.86 47.7174C202.135 47.1678 202.501 46.7099 202.868 46.2519C203.417 45.7024 203.967 45.0613 204.241 44.3286C204.608 43.5043 204.608 42.5884 204.425 41.6725C204.333 40.7567 204.058 39.8408 204.333 38.9249C204.608 37.9174 205.432 37.6427 206.348 37.6427C207.172 37.6427 207.997 37.6427 208.729 37.3679C209.37 37.1847 210.011 36.7268 210.561 36.2689C211.019 35.9941 211.385 35.6277 211.843 35.1698Z" fill="black"/>
<path d="M201.769 51.8388C201.769 51.8388 201.677 51.9304 201.494 51.9304C201.127 51.9304 201.036 51.7473 200.944 51.3809C200.761 50.8314 200.761 50.0987 200.853 49.4576C200.853 48.3585 201.036 47.2594 200.853 46.1604C200.669 44.6034 199.662 42.9548 197.922 42.8632C197.83 42.8632 197.647 42.8632 197.556 42.8632C198.746 43.2296 199.662 44.5118 199.937 45.7024C200.486 47.6258 200.212 49.7323 200.853 51.5641C201.036 52.1136 201.585 52.1136 201.769 51.8388Z" fill="black"/>
<path d="M219.262 149.105C219.17 149.105 219.079 149.105 219.079 149.197C218.895 149.197 218.621 149.288 218.437 149.288C218.437 149.472 218.529 149.563 218.529 149.746C218.621 150.021 218.621 150.571 218.804 150.845C220.086 150.937 221.185 150.754 221.826 150.479C223.2 149.929 223.658 149.105 223.658 147.915C223.566 147.915 223.383 147.915 223.292 147.823C222.559 147.731 221.826 148.098 221.093 148.372C220.452 148.647 219.811 148.922 219.262 149.105Z" fill="#A0A0A0"/>
<path d="M164.584 138.481C163.759 137.932 162.935 137.382 162.019 137.016C161.561 136.832 160.92 136.832 160.462 136.924C160.371 137.29 160.279 137.657 160.371 138.023C160.645 139.305 161.744 140.313 162.752 141.137C162.935 141.229 163.118 141.229 163.21 141.137C163.301 141.137 163.393 141.046 163.485 140.954C163.851 140.13 164.217 139.397 164.584 138.481C164.584 138.573 164.675 138.573 164.584 138.481Z" fill="#A0A0A0"/>
<path d="M177.406 86.1843C177.131 81.0553 176.215 76.018 173.742 71.5302C173.742 71.4386 173.559 71.4386 173.468 71.4386C168.705 72.1713 163.851 75.2853 160.096 77.9413C158.081 79.3152 156.066 80.5974 153.868 81.6049C152.769 82.1544 151.67 82.6123 150.479 83.0703C149.655 83.4366 148.739 83.803 148.006 84.3525C146.174 85.7263 145.991 88.016 146.266 90.1225C146.266 90.2141 146.358 90.2141 146.449 90.2141C147.365 89.6646 148.281 89.1151 149.105 88.5656C148.464 92.5038 148.281 96.6253 148.739 100.564C149.105 104.227 150.388 107.707 151.67 111.188C150.754 111.737 149.838 112.287 148.922 112.836C148.831 112.836 148.831 112.928 148.831 112.928C149.288 114.577 150.113 116.866 152.219 116.866C153.135 116.866 153.959 116.225 154.601 115.584C155.333 114.851 156.066 114.027 156.799 113.203C159.546 110.363 162.935 108.257 166.141 106.059C169.163 103.952 172.185 101.663 174.2 98.5486C176.765 94.9767 177.681 90.4889 177.406 86.1843Z" fill="#E1EAF9"/>
<path d="M240.419 97.8159C240.693 97.0832 240.877 96.2589 240.877 95.4347C240.877 94.9767 240.602 93.7861 239.869 93.9693C239.594 94.0608 239.32 94.4272 239.045 94.702C238.77 94.9767 238.587 95.3431 238.404 95.6178C238.221 95.9842 238.037 96.3505 237.854 96.8085C237.946 96.7169 238.037 96.5337 238.037 96.4421C238.495 97.4496 239.045 98.3655 239.594 99.2814C239.961 98.7318 240.236 98.2739 240.419 97.8159Z" fill="#8FA5C6"/>
<path d="M227.138 118.057C226.772 117.416 226.497 116.775 226.131 116.134C226.406 115.95 226.589 115.767 226.864 115.492C226.406 115.767 226.039 116.042 225.581 116.408C224.94 116.866 224.299 117.599 224.207 118.423C224.207 118.79 224.208 119.156 224.482 119.431C224.849 119.705 225.307 119.614 225.673 119.431C226.222 119.064 226.68 118.606 227.138 118.057Z" fill="#8FA5C6"/>
<path d="M152.494 115.676C152.861 115.309 152.769 114.76 152.769 114.21C152.677 113.661 152.586 113.111 152.403 112.653C152.219 112.012 151.945 111.371 151.578 110.821C151.67 111.005 151.67 111.096 151.761 111.279C150.846 111.829 149.93 112.378 149.014 112.928H148.922C149.197 113.752 149.655 114.485 150.204 115.126C150.662 115.676 151.761 116.5 152.494 115.676Z" fill="#8FA5C6"/>
<path d="M149.838 86.6423C149.93 86.1843 150.113 85.6348 149.747 85.2684C149.38 84.9937 148.922 85.0853 148.556 85.36C147.823 85.9096 147.365 86.8254 147.09 87.7413C146.907 88.2908 146.816 88.8404 146.724 89.3899C146.633 89.6647 146.633 90.031 146.633 90.3058C147.457 89.7563 148.373 89.2983 149.197 88.7488C149.38 88.0161 149.655 87.2834 149.838 86.6423Z" fill="#8FA5C6"/>
<path d="M214.591 77.575C215.781 77.2087 216.972 76.6591 217.979 75.8348C218.071 75.7432 218.163 75.6517 218.071 75.5601C217.979 75.4685 217.888 75.3769 217.796 75.4685C216.789 76.2012 215.69 76.7507 214.591 77.1171C214.224 77.2087 214.316 77.6666 214.591 77.575Z" fill="#0075E7"/>
<path d="M182.718 72.1713C186.382 76.2928 191.969 78.5824 197.464 78.3077C197.739 78.3077 197.739 77.8497 197.464 77.8497C192.06 78.1245 186.656 75.9264 182.993 71.8965C182.81 71.6218 182.535 71.8965 182.718 72.1713Z" fill="#0075E7"/>
<path d="M198.288 81.6049C199.937 85.6348 200.761 90.031 200.669 94.4272C200.669 98.915 199.387 103.403 199.387 107.891C199.387 112.378 200.211 116.775 200.486 121.263C200.669 123.461 200.669 125.75 200.395 127.948C200.211 130.147 199.753 132.253 199.387 134.451C198.563 139.031 197.738 143.793 199.021 148.373C199.112 148.647 199.57 148.556 199.479 148.281C198.288 144.068 198.929 139.672 199.753 135.367C200.12 133.352 200.578 131.246 200.852 129.231C201.127 127.033 201.219 124.834 201.127 122.636C200.944 118.149 200.028 113.752 199.937 109.264C199.845 104.685 200.944 100.289 201.127 95.7095C201.31 90.9469 200.486 86.0927 198.746 81.6049C198.654 81.2386 198.196 81.3302 198.288 81.6049Z" fill="#0075E7"/>
<path d="M216.697 148.647C216.972 143.976 216.972 139.214 216.606 134.543C216.422 132.161 216.148 129.872 216.056 127.49C215.873 125.201 216.056 122.819 216.239 120.53C217.064 111.463 218.254 102.304 217.979 93.145C217.796 88.2908 217.155 83.4366 215.507 78.8572C215.415 78.5825 214.957 78.6741 215.049 78.9488C218.071 87.1918 217.705 96.259 217.155 104.868C216.88 109.539 216.422 114.21 215.965 118.881C215.69 121.171 215.507 123.552 215.598 125.842C215.69 128.132 215.965 130.421 216.148 132.803C216.606 138.115 216.606 143.335 216.331 148.647C216.239 148.922 216.697 148.922 216.697 148.647Z" fill="#0075E7"/>
<path d="M244.265 107.524C243.533 106.15 242.8 104.777 242.067 103.403C241.335 108.165 240.602 112.928 239.869 117.691C239.869 117.965 240.144 118.148 240.327 117.874C241.976 114.119 243.716 110.364 244.723 106.425C244.54 106.792 244.449 107.158 244.265 107.524Z" fill="black"/>
<path d="M266.887 47.2594C267.071 47.6258 267.162 48.0837 267.345 48.4501C267.437 48.6332 267.529 48.8164 267.62 48.9996C267.712 49.1828 267.712 49.366 267.895 49.4575C267.986 49.5491 268.078 49.4575 268.17 49.4575C268.261 49.366 268.261 49.366 268.261 49.2744C268.261 49.1828 268.17 49.0912 268.078 49.0912C268.078 48.9996 267.986 48.908 267.986 48.908C267.986 48.8164 267.895 48.7248 267.895 48.6333C267.803 48.4501 267.712 48.2669 267.62 48.0837C267.437 47.7174 267.345 47.351 267.162 47.0763C266.979 46.5267 266.704 45.9772 266.521 45.4277C266.338 45.4277 266.155 45.4277 266.063 45.4277C266.429 45.9772 266.613 46.6183 266.887 47.2594Z" fill="black"/>
<path d="M265.33 48.1753C264.873 47.7173 265.147 47.351 265.33 46.893C265.514 46.3435 265.788 45.8856 265.972 45.336C266.155 44.7865 266.887 42.8632 267.254 41.8557C267.345 41.6725 267.345 41.4893 267.437 41.3062C267.529 41.0314 267.62 40.7566 267.712 40.4819C267.162 41.7641 266.521 42.9547 265.972 44.237C265.605 45.0613 265.33 45.794 264.964 46.6183C264.689 47.351 264.415 47.8089 264.964 48.3584C267.254 50.7397 268.811 53.4874 269.269 56.7845C269.269 57.0593 269.727 56.9677 269.727 56.6929C269.269 53.8537 268.078 51.1061 266.155 48.908C265.88 48.7248 265.605 48.45 265.33 48.1753Z" fill="black"/>
<path d="M270.093 48.8164C270.185 49.0912 270.551 48.9996 270.551 48.7248C270.276 47.4426 269.91 46.1603 269.544 44.8781C269.36 44.8781 269.269 44.9697 269.086 44.9697C269.544 46.2519 269.91 47.5342 270.093 48.8164Z" fill="black"/>
<path d="M258.828 49.2743C258.919 49.9154 259.103 50.5565 259.194 51.1976C259.194 50.7397 259.194 50.2818 259.194 49.9154C259.286 48.7248 259.56 47.7173 260.11 46.6182C260.385 46.1603 260.66 45.6108 260.843 45.1528V45.2444C260.66 45.2444 260.476 45.1528 260.385 45.1528C260.11 45.7024 259.835 46.2519 259.56 46.8014C259.103 47.5341 258.919 48.3584 258.828 49.2743Z" fill="black"/>
<path d="M159.088 21.5231C158.722 22.6222 158.722 23.7213 158.997 24.8203C158.997 25.0035 159.272 25.1867 159.455 25.1867C159.638 25.1867 159.913 25.0951 159.913 24.8203C160.004 23.9044 160.096 22.9886 159.913 22.1643C159.913 21.8895 159.73 21.7063 159.455 21.7063C159.272 21.7063 158.997 21.8895 158.997 22.1643C159.088 22.9886 159.088 23.8128 158.997 24.6371C159.272 24.6371 159.546 24.6371 159.913 24.6371C159.73 23.7213 159.73 22.8054 160.004 21.8895C160.096 21.7063 159.913 21.34 159.73 21.34C159.455 21.1568 159.18 21.34 159.088 21.5231Z" fill="white"/>
<path d="M152.219 27.6596C152.311 27.568 152.402 27.4764 152.494 27.3848C152.494 27.3848 152.586 27.3848 152.494 27.3848C152.494 27.3848 152.586 27.3848 152.586 27.2932C152.677 27.2932 152.677 27.2016 152.769 27.2016C152.769 27.2016 152.86 27.2016 152.769 27.2016C152.769 27.2016 152.769 27.2016 152.86 27.2016H152.769C152.769 27.2016 152.769 27.2016 152.86 27.2016H152.769C152.769 27.2016 152.86 27.2016 152.769 27.2016C152.769 27.2016 152.769 27.2016 152.677 27.2016C152.677 27.2016 152.677 27.2932 152.677 27.2016C152.677 27.2016 152.677 27.2932 152.677 27.2016C152.677 27.11 152.677 27.2932 152.677 27.2016V27.11V27.2016V27.11C152.677 27.11 152.677 27.11 152.677 27.2016C152.586 27.2932 152.586 27.3848 152.494 27.568C152.494 27.568 152.402 27.6596 152.494 27.568C152.586 27.4764 152.494 27.568 152.494 27.568C152.311 27.4764 152.311 27.568 152.219 27.6596C152.128 27.6596 152.219 27.6596 152.219 27.6596C152.128 27.7512 152.036 27.8427 152.128 27.7511C152.128 27.7511 152.036 27.7511 152.036 27.8427C151.945 27.8427 151.945 27.9343 151.853 27.9343C151.761 27.9343 151.761 28.0259 151.67 28.0259H151.761C151.761 28.0259 151.853 28.0259 151.945 28.0259C152.036 28.0259 152.036 28.1175 152.128 28.1175C152.219 28.3923 152.219 28.4839 152.219 28.3007C152.219 28.2091 152.219 28.3923 152.219 28.3923V28.3007V28.2091V28.1175C152.219 28.1175 152.219 28.1175 152.219 28.0259C152.219 28.0259 152.219 28.1175 152.219 28.0259C152.219 27.9343 152.311 27.8427 152.311 27.7511C152.402 27.568 152.402 27.2932 152.219 27.2016C152.036 27.11 151.761 27.11 151.578 27.2016C151.395 27.4764 151.12 27.6596 151.12 28.0259C151.12 28.2091 151.12 28.3007 151.212 28.4839C151.303 28.667 151.487 28.7586 151.67 28.8502C151.761 28.8502 151.945 28.8502 152.036 28.7586C152.128 28.667 152.219 28.5754 152.219 28.4839C152.219 28.3923 152.219 28.2091 152.128 28.1175C152.036 28.0259 151.945 27.9343 151.853 27.9343C151.853 27.9343 151.945 28.0259 151.945 27.9343C152.036 28.0259 152.036 28.0259 152.036 27.9343C152.128 28.0259 152.036 27.9343 152.036 27.9343V28.0259V27.9343V28.0259C152.036 28.0259 152.036 28.1175 152.036 28.0259C152.036 28.0259 152.036 28.0259 152.036 27.9343C152.036 27.8427 152.036 28.0259 152.036 27.9343L152.128 27.8427C152.128 27.8427 152.036 27.9343 152.128 27.8427L152.219 27.7511C151.945 27.568 151.761 27.3848 151.487 27.2016C151.395 27.3848 151.303 27.568 151.212 27.8427C151.212 27.9343 151.12 28.0259 151.12 28.2091C151.12 28.3923 151.212 28.5754 151.395 28.7586C151.67 28.9418 151.945 28.7586 152.219 28.667C152.402 28.5754 152.586 28.4839 152.677 28.3007C152.952 28.0259 153.227 27.7511 153.318 27.4764C153.41 27.2016 153.593 26.9269 153.41 26.6521C153.318 26.3773 153.044 26.1942 152.677 26.1942C152.402 26.1942 152.128 26.2857 151.945 26.4689C151.761 26.6521 151.578 26.7437 151.395 26.9269C151.303 27.0184 151.303 27.11 151.303 27.2932C151.303 27.3848 151.395 27.568 151.395 27.6596C151.67 27.8427 152.036 27.8427 152.219 27.6596Z" fill="white"/>
<path d="M150.754 27.2016C151.029 27.11 151.395 26.9268 151.578 26.6521C151.761 26.3773 152.036 26.1025 152.128 25.7362C152.219 25.4614 152.128 25.2783 152.036 25.0035C151.945 24.8203 151.761 24.6371 151.578 24.6371C151.12 24.5455 150.754 24.8203 150.571 25.1867C150.296 25.4614 150.113 25.8278 150.021 26.1941C149.93 26.3773 150.113 26.6521 150.296 26.7437C150.479 26.8352 150.754 26.7437 150.846 26.5605C151.029 26.2857 151.12 26.011 151.303 25.8278C151.395 25.6446 151.395 25.2783 151.12 25.1867C150.937 25.0951 150.571 25.0951 150.479 25.3698C150.296 25.6446 150.204 25.9194 150.021 26.1025C150.296 26.1941 150.571 26.3773 150.846 26.4689C150.846 26.3773 150.846 26.3773 150.937 26.2857C150.937 26.2857 150.937 26.2857 150.937 26.1941C150.937 26.2857 150.937 26.2857 150.937 26.1941V26.1025C151.029 26.011 151.029 25.9194 151.12 25.8278C151.12 25.8278 151.12 25.8278 151.12 25.9194C151.12 25.9194 151.12 25.8278 151.212 25.8278C151.212 25.7362 151.303 25.7362 151.303 25.7362C151.303 25.7362 151.303 25.7362 151.395 25.6446C151.395 25.6446 151.487 25.6446 151.487 25.553C151.487 25.553 151.487 25.553 151.395 25.553C151.395 25.553 151.395 25.553 151.487 25.553H151.395C151.395 25.553 151.395 25.553 151.487 25.553H151.395C151.395 25.553 151.303 25.4614 151.303 25.553C151.395 25.553 151.303 25.553 151.303 25.553C151.303 25.553 151.212 25.4614 151.303 25.553V25.4614C151.303 25.4614 151.303 25.4614 151.303 25.553V25.4614V25.553V25.4614V25.553C151.303 25.553 151.303 25.553 151.303 25.6446C151.303 25.6446 151.303 25.7362 151.212 25.7362V25.8278C151.212 25.9194 151.12 25.9194 151.12 26.011C151.12 26.011 151.12 26.1025 151.029 26.1025C150.937 26.1941 151.12 26.011 151.029 26.1025C151.029 26.1941 150.937 26.1941 150.937 26.2857C150.937 26.2857 150.846 26.2857 150.846 26.3773C150.937 26.3773 150.937 26.2857 150.846 26.3773C150.754 26.3773 150.754 26.4689 150.662 26.4689H150.571C150.296 26.4689 150.204 26.8352 150.296 27.0184C150.296 27.11 150.479 27.2016 150.754 27.2016Z" fill="white"/>
<path d="M141.137 93.4197C141.137 93.145 141.229 92.8702 141.229 92.5954C141.046 92.9618 141.046 93.4197 141.046 93.7861C140.954 94.5188 140.862 95.2515 140.771 96.0758C140.405 99.2814 140.13 102.487 139.763 105.693C139.763 105.784 139.855 105.784 139.947 105.784C139.947 105.876 140.13 105.876 140.13 105.784C141.87 101.113 143.335 96.2589 144.526 91.4048C143.335 92.0459 142.236 92.687 141.137 93.4197Z" fill="black"/>
<path d="M132.162 55.4107C131.887 56.235 131.704 57.0593 131.429 57.792C134.268 63.1957 140.679 64.7527 146.358 62.5546C146.449 61.9135 146.632 61.2723 146.724 60.6312C141.137 63.3789 134.176 61.8219 132.162 55.4107Z" fill="black"/>
<path d="M161.653 21.8895C161.561 22.0727 161.47 22.2559 161.47 22.439C161.378 22.2559 161.378 22.0727 161.287 21.7979C160.92 22.9886 160.554 24.1792 160.279 25.3698C160.279 24.7287 160.279 24.0876 160.371 23.4465C160.371 22.7138 160.462 21.7063 160.004 21.0652C160.004 20.9736 160.004 20.9736 159.913 20.882C158.997 19.9662 157.532 20.4241 156.432 20.7904C155.517 21.0652 154.692 21.5232 153.868 21.9811C153.96 21.9811 154.051 22.0727 154.143 22.0727C152.952 22.7138 151.853 23.5381 150.754 24.3624C150.662 24.454 150.571 24.5456 150.388 24.6371C150.296 24.6371 150.205 24.7287 150.113 24.7287C149.93 25.0035 149.838 25.3698 149.747 25.6446C149.655 26.4689 150.296 27.3848 151.212 27.2932C151.12 27.4764 151.12 27.7511 151.12 27.9343C151.212 28.8502 151.945 29.0334 152.677 28.8502C153.227 28.667 153.685 28.3922 154.234 28.1175C154.601 27.9343 154.967 27.7511 155.333 27.568C155.15 28.1175 155.059 28.5754 154.876 29.125C154.784 29.3997 154.784 29.7661 154.601 30.0408C154.418 30.3156 153.96 30.3156 153.685 30.4072C151.395 30.8651 149.38 32.2389 148.006 34.1623C147.823 34.4371 148.19 34.6202 148.373 34.4371C149.105 33.338 150.113 32.4221 151.304 31.781C151.853 31.4147 152.494 31.2315 153.135 31.0483C153.593 30.9567 154.143 30.8651 154.601 30.6819C154.967 30.4988 155.059 30.224 155.15 29.8577C155.425 29.125 155.608 28.3922 155.791 27.6595C155.791 27.568 155.883 27.4764 155.883 27.2932C155.975 27.2016 155.975 27.11 155.975 26.9268C156.341 25.7362 156.707 24.5456 156.982 23.3549C157.165 22.8054 157.348 22.1643 157.623 21.7063C157.806 21.34 158.173 20.9736 158.631 20.882C159.272 20.6989 159.546 21.1568 159.638 21.7063C159.73 22.3474 159.73 23.1717 159.638 23.8129C159.638 24.5456 159.638 25.2783 159.546 26.011C159.363 29.125 159.089 32.2389 158.539 35.2613C158.722 34.7118 158.814 34.1623 158.905 33.6128C158.997 33.5212 159.18 33.338 159.272 33.2464C159.546 31.2315 159.73 29.3081 159.913 27.2932C159.913 27.11 159.913 26.9268 159.913 26.6521C160.004 26.6521 160.004 26.5605 160.096 26.4689C160.737 25.1867 161.195 23.5381 161.653 21.8895ZM156.524 23.5381C156.158 24.7287 155.791 26.011 155.425 27.2016C154.509 27.7511 153.593 28.3007 152.586 28.667C152.311 28.7586 152.036 28.8502 151.762 28.667C151.487 28.5754 151.487 28.3007 151.487 28.0259C151.578 27.4764 151.945 26.9268 152.311 26.5605C153.044 25.7362 153.868 25.0035 154.692 24.2708C155.333 23.7213 156.066 23.1717 156.799 22.6222C156.707 22.9886 156.616 23.2633 156.524 23.5381ZM157.806 21.0652C157.532 21.34 157.348 21.6147 157.165 21.8895C155.425 23.0801 153.776 24.3624 152.403 25.8278C152.128 26.1026 151.762 26.4689 151.487 26.9268C150.937 27.2932 150.296 26.7437 150.205 26.1941C150.205 25.553 150.571 25.0035 151.029 24.6371C151.762 23.9044 152.769 23.2633 153.593 22.7138C154.509 22.1643 155.517 21.6147 156.524 21.2484C156.982 21.0652 157.623 20.882 158.173 20.7904C157.989 20.882 157.898 20.9736 157.806 21.0652Z" fill="black"/>
<path d="M150.021 19.4167C150.296 19.5999 150.754 19.6914 151.12 19.5999C151.487 19.5083 151.761 19.2335 151.944 18.9587C151.212 18.9587 150.296 19.0503 149.93 19.3251C149.93 19.3251 149.93 19.3251 150.021 19.4167Z" fill="white"/>
<path d="M264.598 39.9323C264.781 40.2071 265.056 40.2071 265.331 40.0239C265.88 39.566 266.338 38.9249 266.613 38.3753C266.704 38.2837 266.796 38.1006 266.796 37.9174C266.796 37.9174 266.796 37.9174 266.796 37.8258C266.796 37.8258 266.796 37.7342 266.888 37.7342C266.979 37.551 266.796 37.2763 266.613 37.1847C266.613 37.1847 266.521 37.1847 266.43 37.1847C265.88 37.3679 265.605 38.009 265.239 38.3753C264.964 38.8333 264.689 39.1996 264.415 39.6576C264.506 39.7492 264.506 39.8407 264.598 39.9323Z" fill="white"/>
<path d="M180.062 203.234C179.238 201.677 178.23 200.211 177.223 198.837C176.49 199.295 175.757 199.753 175.025 200.211C176.49 201.402 177.956 202.593 179.329 203.783C179.787 204.15 180.337 203.692 180.062 203.234Z" fill="black"/>
<path d="M211.568 201.402C211.843 202.226 212.026 203.051 212.209 203.875C212.118 203.875 212.118 203.966 212.118 204.058C212.301 207.813 208.821 210.194 206.806 212.942C206.623 215.14 206.348 217.247 206.073 219.445C207.905 216.972 209.645 214.407 211.11 211.66C211.935 210.103 212.576 208.454 212.759 206.714C212.942 204.882 212.576 202.959 211.935 201.219C211.935 200.944 211.477 201.127 211.568 201.402Z" fill="black"/>
<path d="M197.281 168.705C194.991 163.668 192.793 158.63 190.869 153.501C193.434 152.219 195.998 151.029 198.471 149.746C198.746 149.655 198.471 149.197 198.196 149.38C195.632 150.662 192.976 151.944 190.411 153.135C190.32 153.135 190.228 153.318 190.32 153.41C193.709 162.385 197.83 170.995 201.952 179.696C204.058 184 206.073 188.396 208.088 192.701C209.095 194.899 210.103 197.189 211.019 199.479C211.843 201.677 212.301 204.058 211.568 206.348C210.927 208.271 209.553 209.92 208.088 211.293C207.08 212.301 206.073 213.217 205.157 214.316C205.798 213.858 206.348 213.4 206.989 212.942C206.989 213.034 206.989 213.034 206.989 213.125C208.729 211.477 210.469 209.828 211.568 207.63C213.675 203.508 211.477 199.112 209.828 195.266C205.707 186.29 201.31 177.589 197.281 168.705Z" fill="#0075E7"/>
<path d="M180.429 203.692C179.421 202.043 178.505 200.394 177.498 198.746C177.406 198.837 177.223 198.929 177.131 199.021C178.047 200.669 179.055 202.318 180.062 203.966C180.154 204.15 180.612 203.966 180.429 203.692Z" fill="#0075E7"/>
<path d="M125.201 257.912C124.102 257.179 123.003 256.538 121.904 255.988C120.805 255.439 119.706 254.889 118.515 254.34C117.599 253.973 116.408 253.332 115.493 254.065C114.668 254.706 114.21 255.988 113.661 256.904C113.02 258.095 112.47 259.194 111.921 260.385C111.371 261.484 110.913 262.674 110.364 263.773C107.891 262.766 105.418 261.758 102.945 260.843C101.846 260.385 100.655 260.11 99.3731 259.927C98.0909 259.835 96.8086 259.927 95.5264 260.11C94.2442 260.385 92.9619 260.659 91.6797 261.117C90.4891 261.484 89.2984 261.85 88.1994 262.491C87.2835 263.041 87.5582 264.14 87.833 265.056C88.1078 266.063 88.6573 266.979 89.2068 267.895C89.7564 268.811 90.3975 269.727 90.947 270.734C91.4965 271.833 91.8629 272.932 92.1376 274.123C92.4124 275.313 92.6872 276.596 93.0535 277.786C93.4199 279.069 93.9694 280.259 94.5189 281.45C96.6255 286.396 98.6404 291.341 100.93 296.195C102.029 298.577 103.22 300.866 104.502 303.156C104.96 303.98 105.601 304.896 106.7 304.896C107.708 304.896 108.898 304.438 109.723 303.98C111.646 302.973 113.203 301.324 114.027 299.309C114.943 297.203 115.309 294.913 115.218 292.624C115.218 289.967 114.76 287.403 114.577 284.839C114.394 282.183 114.485 279.618 115.218 277.054C115.859 274.764 117.05 272.566 118.515 270.734C119.889 268.902 121.537 267.345 123.003 265.605C123.735 264.781 124.377 263.957 125.018 263.041C125.567 262.216 126.3 261.117 126.483 260.11C126.941 259.011 126.025 258.461 125.201 257.912Z" fill="#0975E7"/>
<path d="M219.628 290.883C219.628 289.601 219.17 288.594 217.796 288.411C216.239 288.227 214.591 288.319 213.034 288.502C211.477 288.594 209.737 288.777 208.271 289.235C206.989 289.693 206.531 290.792 206.623 292.074C206.806 293.814 207.264 295.554 207.63 297.295C207.996 299.126 208.454 300.958 208.821 302.881C208.729 303.065 208.729 303.248 208.912 303.339C210.469 304.988 212.118 306.637 213.766 308.285C215.14 309.659 216.606 311.399 218.529 311.857C218.804 311.949 219.17 311.765 219.079 311.399C218.804 307.919 218.987 304.438 219.17 300.958C219.445 297.661 219.72 294.272 219.628 290.883Z" fill="#0975E7"/>
<path d="M88.3825 264.689C87.6498 262.4 86.9171 260.018 86.0928 257.729C85.7265 256.629 85.0854 255.256 86.0928 254.34C86.4592 254.065 86.8256 253.882 87.2835 253.699C87.833 253.516 88.3826 253.241 88.9321 253.241C90.2143 253.241 90.5807 254.615 90.947 255.53C91.3134 256.538 91.6797 257.545 91.9545 258.553C92.5956 260.476 93.3283 262.4 94.3358 264.14C95.4348 265.788 96.9002 267.254 97.5413 269.177C97.9077 270.276 97.8161 271.558 97.9993 272.657C98.0909 273.756 98.3656 274.764 98.732 275.771C99.4647 277.969 100.472 280.076 101.388 282.183C102.304 284.381 103.22 286.487 104.136 288.685C106.242 293.631 108.349 298.577 110.547 303.523C110.638 303.797 111.096 303.523 110.913 303.248C108.807 298.577 106.792 293.906 104.777 289.143C103.769 286.762 102.762 284.289 101.754 281.908C100.839 279.618 99.7395 277.328 99.0068 274.947C98.6404 273.756 98.4572 272.566 98.4572 271.284C98.3656 270.185 98.2741 269.177 97.8161 268.17C96.9918 266.246 95.3432 264.781 94.3358 262.949C93.2367 260.934 92.5956 258.828 91.8629 256.629C91.3134 255.164 90.7638 252.416 88.6573 252.691C87.7414 252.783 86.6424 253.241 85.8181 253.882C84.9938 254.523 84.8106 255.439 85.0854 256.446C85.4517 257.82 86.0013 259.194 86.3676 260.568C86.8256 261.942 87.2835 263.407 87.7414 264.781C88.0162 265.147 88.4741 264.964 88.3825 264.689Z" fill="white"/>
<path d="M101.663 281.083C106.151 275.771 108.349 269.177 111.005 262.949C111.738 261.392 112.47 259.743 113.203 258.278C113.569 257.545 114.027 256.813 114.485 256.08C114.943 255.347 115.493 254.614 116.317 254.34C117.324 254.065 118.332 254.706 119.248 255.164C120.164 255.622 121.08 256.08 121.995 256.538C122.911 256.996 123.827 257.545 124.743 258.003C125.567 258.461 126.666 259.011 126.392 260.11C126.117 261.117 125.476 262.033 124.926 262.857C124.285 263.773 123.644 264.598 123.003 265.422C121.721 266.979 120.255 268.353 118.973 269.91C118.79 270.093 119.065 270.459 119.339 270.276C121.812 267.437 124.743 264.781 126.483 261.392C126.85 260.751 127.216 259.927 126.85 259.194C126.483 258.461 125.751 258.095 125.018 257.728C123.094 256.629 121.08 255.622 119.065 254.615C118.24 254.248 117.416 253.79 116.5 253.882C115.767 253.973 115.218 254.431 114.76 254.981C113.569 256.263 112.837 258.003 112.012 259.652C110.364 263.041 108.99 266.521 107.525 270.001C105.876 273.848 103.953 277.695 101.205 280.9C101.113 280.992 101.48 281.358 101.663 281.083Z" fill="white"/>
<path d="M101.48 281.358C107.524 281.816 112.928 285.938 115.035 291.616C115.126 291.891 115.584 291.799 115.493 291.524C113.294 285.663 107.708 281.45 101.48 280.992C101.113 280.9 101.113 281.358 101.48 281.358Z" fill="white"/>
<path d="M113.294 288.502C114.119 290.792 114.393 293.356 113.569 295.738C112.928 297.752 111.554 299.493 109.631 300.5C109.356 300.592 109.631 301.05 109.906 300.866C111.829 299.859 113.294 298.119 113.935 296.012C114.76 293.539 114.485 290.792 113.661 288.411C113.569 288.136 113.203 288.227 113.294 288.502Z" fill="white"/>
<path d="M108.166 296.745C111.005 293.906 113.02 289.784 111.371 285.846C111.28 285.571 110.822 285.663 110.913 285.938C112.47 289.784 110.547 293.631 107.799 296.379C107.616 296.653 107.891 296.928 108.166 296.745Z" fill="white"/>
<path d="M105.235 281.999C106.059 284.381 106.609 287.311 104.594 289.326C104.41 289.51 104.685 289.876 104.96 289.693C107.066 287.586 106.517 284.472 105.693 281.999C105.601 281.633 105.143 281.725 105.235 281.999Z" fill="white"/>
<path d="M115.584 291.433C114.577 284.014 111.829 276.87 107.616 270.642C107.433 270.368 107.067 270.642 107.25 270.917C111.463 277.054 114.21 284.197 115.218 291.524C115.218 291.891 115.584 291.799 115.584 291.433Z" fill="white"/>
<path d="M109.448 265.971C111.829 269.727 113.295 273.94 114.668 278.153C114.76 278.427 115.218 278.336 115.126 278.061C113.753 273.848 112.379 269.543 109.906 265.697C109.723 265.513 109.356 265.697 109.448 265.971Z" fill="white"/>
<path d="M117.05 273.482C116.775 268.994 114.943 264.689 111.921 261.3C111.738 261.117 111.371 261.392 111.554 261.667C114.485 264.964 116.225 269.085 116.5 273.482C116.683 273.756 117.141 273.756 117.05 273.482Z" fill="white"/>
<path d="M109.448 266.704C113.386 265.513 117.691 265.513 121.629 266.704C121.904 266.796 121.995 266.338 121.721 266.246C117.691 264.964 113.386 265.056 109.356 266.246C108.99 266.338 109.082 266.796 109.448 266.704Z" fill="white"/>
<path d="M107.524 271.009C110.913 268.902 115.035 269.36 118.698 270.368C118.973 270.459 119.065 270.001 118.79 269.91C114.943 268.994 110.73 268.444 107.25 270.642C107.067 270.734 107.341 271.192 107.524 271.009Z" fill="white"/>
<path d="M106.059 273.94C109.448 272.657 113.111 273.298 116.5 273.94C116.775 274.031 116.866 273.573 116.592 273.482C113.02 272.841 109.356 272.199 105.876 273.482C105.693 273.573 105.784 274.031 106.059 273.94Z" fill="white"/>
<path d="M102.212 280.992C105.509 277.42 110.547 276.687 115.126 277.328C115.401 277.328 115.401 276.87 115.126 276.87C110.455 276.229 105.235 276.962 101.846 280.717C101.663 280.809 102.029 281.175 102.212 280.992Z" fill="white"/>
<path d="M90.4891 253.79C93.2368 252.874 95.9844 251.592 98.4573 250.127C100.93 248.661 103.678 246.188 106.883 247.013C107.158 247.104 107.25 246.646 106.975 246.555C103.953 245.731 101.297 247.745 98.9152 249.302C96.2592 250.951 93.3284 252.325 90.306 253.424C90.1228 253.424 90.2144 253.882 90.4891 253.79Z" fill="white"/>
<path d="M101.663 260.843C100.472 261.667 98.9151 261.667 97.7244 261.026C96.3506 260.293 95.6179 258.919 95.6179 257.454C95.6179 255.897 96.4422 254.157 97.9992 253.699C99.5562 253.241 101.205 254.065 102.029 255.439C102.853 256.813 103.403 259.286 102.029 260.476C101.846 260.659 102.121 261.026 102.395 260.843C103.769 259.652 103.403 257.362 102.762 255.897C102.029 254.248 100.472 252.966 98.5487 253.149C96.717 253.332 95.4347 254.981 95.16 256.629C94.8852 258.278 95.4347 260.018 96.8085 261.026C98.274 262.125 100.38 262.216 101.846 261.209C102.121 261.117 101.937 260.751 101.663 260.843Z" fill="white"/>
<path d="M210.469 320.833C211.477 318.451 211.385 315.795 211.019 313.322C210.561 310.392 209.92 307.552 209.279 304.622C208.637 301.691 208.088 298.76 207.447 295.829C207.172 294.364 206.897 292.898 206.989 291.433C207.08 290.7 207.355 290.059 208.088 289.693C208.637 289.418 209.279 289.326 209.92 289.326C211.66 289.143 213.4 289.052 215.14 288.868C216.422 288.777 219.353 288.319 219.353 290.334C219.353 290.609 219.811 290.609 219.811 290.334C219.811 289.143 218.804 288.41 217.705 288.319C216.972 288.227 216.331 288.319 215.598 288.319C214.682 288.41 213.858 288.502 212.942 288.502C211.477 288.594 209.92 288.594 208.546 288.96C207.447 289.235 206.714 289.967 206.623 291.158C206.439 292.624 206.806 294.181 207.08 295.646C207.355 297.295 207.722 298.852 208.088 300.5C208.729 303.706 209.37 307.003 210.103 310.208C210.744 313.597 211.66 317.261 210.194 320.558C209.92 320.833 210.378 321.107 210.469 320.833Z" fill="white"/>
<path d="M197.097 306.636C195.54 307.278 193.709 306.82 192.61 305.537C191.51 304.255 191.144 302.24 192.06 300.775C192.976 299.401 194.716 298.76 196.273 299.126C197.738 299.401 199.021 300.683 199.387 302.149C199.845 303.889 198.929 305.721 197.464 306.636C197.189 306.82 197.464 307.186 197.738 307.003C199.295 306.087 200.211 304.347 200.028 302.515C199.845 300.866 198.654 299.401 197.097 298.76C195.449 298.21 193.434 298.668 192.243 299.951C190.961 301.416 191.053 303.614 191.968 305.171C193.068 307.003 195.357 307.827 197.372 307.003C197.464 307.003 197.372 306.545 197.097 306.636Z" fill="white"/>
<path d="M194.075 291.891C194.625 294.547 197.006 296.287 199.296 297.478C201.86 298.852 204.699 299.676 207.63 299.401C207.905 299.401 207.905 298.943 207.63 298.943C204.882 299.218 202.135 298.485 199.754 297.203C197.555 296.012 195.083 294.364 194.625 291.799C194.441 291.433 193.983 291.524 194.075 291.891Z" fill="white"/>
<path d="M185.08 304.713C186.545 305.812 188.01 306.911 189.476 308.01C190.85 309.018 192.132 309.934 193.689 310.758C194.33 311.124 195.063 311.399 195.795 311.582C196.62 311.857 197.444 312.04 198.268 312.315C199.917 312.865 201.016 314.238 202.115 315.429C204.405 317.81 207.152 319.825 209.992 321.657C213.106 323.764 216.22 325.778 219.334 327.793C222.905 330.175 226.477 332.464 230.049 334.846C230.324 335.029 230.507 334.571 230.324 334.479C224.005 330.358 217.685 326.145 211.365 322.023C208.526 320.1 205.687 318.177 203.214 315.795C202.115 314.696 201.199 313.414 199.825 312.59C198.452 311.765 196.803 311.582 195.246 310.941C193.506 310.208 191.857 309.201 190.3 308.01C188.652 306.82 187.003 305.629 185.446 304.347C185.08 304.164 184.896 304.53 185.08 304.713Z" fill="white"/>
<path d="M211.091 321.84C214.388 318.085 219.792 317.719 224.188 319.825C224.463 319.917 224.646 319.55 224.463 319.459C219.975 317.261 214.296 317.627 210.816 321.565C210.633 321.749 210.908 322.115 211.091 321.84Z" fill="white"/>
<path d="M213.472 320.008C215.579 321.291 216.952 323.58 216.952 326.053C216.952 326.328 217.41 326.328 217.41 326.053C217.41 323.397 215.945 320.924 213.655 319.55C213.472 319.459 213.197 319.825 213.472 320.008Z" fill="white"/>
<path d="M217.96 318.818C221.898 321.291 224.371 325.778 224.279 330.449C224.279 330.724 224.737 330.724 224.737 330.449C224.829 325.595 222.264 320.924 218.143 318.451C217.96 318.268 217.776 318.635 217.96 318.818Z" fill="white"/>
<path d="M222.264 319.276C225.745 322.939 229.5 327.61 228.309 333.014C228.218 333.289 228.676 333.38 228.767 333.105C229.958 327.519 226.203 322.756 222.631 318.909C222.448 318.818 222.081 319.092 222.264 319.276Z" fill="white"/>
<path d="M210.999 318.635C212.831 315.063 216.037 312.315 219.883 310.941C220.158 310.85 220.066 310.392 219.792 310.483C215.853 311.857 212.556 314.696 210.633 318.36C210.45 318.635 210.816 318.818 210.999 318.635Z" fill="white"/>
<path d="M210.45 312.407C212.648 309.659 215.67 307.827 219.059 307.095C219.334 307.003 219.242 306.637 218.967 306.637C215.487 307.369 212.373 309.293 210.175 312.132C209.992 312.315 210.266 312.681 210.45 312.407Z" fill="white"/>
<path d="M209.809 308.835C211.732 305.629 215.029 303.339 218.693 302.698C218.967 302.607 218.876 302.24 218.601 302.24C214.846 302.881 211.366 305.263 209.442 308.56C209.259 308.835 209.717 309.109 209.809 308.835Z" fill="white"/>
<path d="M209.004 303.889C211.568 300.775 215.049 298.577 218.987 297.478C219.262 297.386 219.17 296.928 218.895 297.02C214.957 298.119 211.385 300.409 208.729 303.523C208.546 303.797 208.821 304.072 209.004 303.889Z" fill="white"/>
<path d="M207.996 298.668C212.393 299.676 215.507 303.156 218.346 306.453C218.529 306.636 218.895 306.362 218.712 306.087C215.781 302.698 212.667 299.126 208.088 298.21C207.905 298.119 207.722 298.577 207.996 298.668Z" fill="white"/>
<path d="M208.709 304.347C212.373 305.812 215.67 308.102 218.326 311.124C218.509 311.307 218.876 311.033 218.693 310.758C216.036 307.736 212.648 305.354 208.893 303.889C208.526 303.797 208.435 304.255 208.709 304.347Z" fill="white"/>
<path d="M209.717 309.384C215.395 310.483 219.608 314.696 223.089 319.093C223.272 319.367 223.638 319.001 223.455 318.726C219.975 314.33 215.67 310.025 209.9 308.926C209.534 308.926 209.442 309.384 209.717 309.384Z" fill="white"/>
<path d="M103.495 247.837C103.037 253.516 105.876 259.286 110.638 262.308C110.913 262.491 111.096 262.033 110.913 261.942C106.242 258.919 103.495 253.332 103.953 247.837C103.953 247.562 103.495 247.562 103.495 247.837Z" fill="white"/>
<path d="M145.442 53.8538C145.259 53.3042 144.709 53.3042 144.251 53.3042C140.771 53.121 137.474 51.564 135.001 48.9996L135.092 48.908C135.184 48.5416 135.367 48.1753 135.459 47.8089C135.459 47.7174 135.459 47.5342 135.276 47.5342C135.276 47.5342 135.276 47.5342 135.184 47.5342C135.092 47.5342 135.001 47.5342 134.909 47.5342C132.711 49.2744 130.879 52.2052 131.062 55.136C131.154 57.9752 133.81 59.9901 136.1 61.0892C137.474 61.7303 139.031 62.1883 140.588 62.2798C141.229 62.2798 141.961 62.3714 142.511 62.1883C143.152 61.9135 143.427 61.1808 143.702 60.6313C144.434 59.1659 144.892 57.5173 145.167 55.8687C145.442 55.3192 145.625 54.4033 145.442 53.8538Z" fill="#FFD215"/>
<path d="M149.93 53.6706C149.38 53.3042 148.739 53.4874 148.19 53.6706C148.006 53.7621 147.915 53.8537 147.823 54.0369C147.823 54.0369 147.823 54.0369 147.823 54.1285C147.64 55.5023 147.457 56.8761 147.274 58.1584C147.182 58.7995 147.09 59.4406 146.999 60.1733C146.999 60.4481 146.907 60.7228 147.09 60.9976C147.274 61.1808 147.548 61.2724 147.823 61.3639C149.014 61.5471 149.747 60.3565 149.93 59.349C150.204 58.0668 150.388 56.693 150.388 55.4107C150.479 54.7696 150.388 54.0369 149.93 53.6706Z" fill="#A7C3EA"/>
<path d="M148.464 51.9303C148.373 51.8387 148.281 51.8387 148.19 51.8387C148.098 51.8387 148.006 51.8387 148.006 51.9303C147.823 52.2967 147.732 52.5714 147.548 52.9378C145.991 53.6705 144.343 53.7621 142.694 53.4873C141.137 53.2126 139.672 52.5714 138.023 52.663C136.924 52.7546 135.642 53.121 135.001 54.0369C134.177 55.0443 134.36 56.5097 134.818 57.6088C135.825 59.9901 137.932 61.7302 140.313 62.4629C142.786 63.1957 145.808 62.9209 147.64 60.9059C148.648 59.7153 149.197 58.1583 149.38 56.6013C149.472 55.1359 149.38 53.2126 148.464 51.9303Z" fill="#FFAB17"/>
<path d="M139.397 58.1583C141.137 58.1583 141.137 55.4107 139.397 55.4107C137.657 55.4107 137.657 58.1583 139.397 58.1583Z" fill="#FFD215"/>
<path d="M144.526 59.2574C146.266 59.2574 146.266 56.5098 144.526 56.5098C142.694 56.5098 142.694 59.2574 144.526 59.2574Z" fill="#FFD215"/>
<path d="M148.098 58.2499C149.289 58.2499 149.289 56.4182 148.098 56.4182C146.907 56.4182 146.907 58.2499 148.098 58.2499Z" fill="#FFD215"/>
<path d="M138.573 51.564C136.924 54.3117 135.367 57.1509 133.902 59.9901C133.627 60.5396 134.451 60.9976 134.726 60.448C136.191 57.6088 137.748 54.7696 139.397 52.022C139.672 51.564 138.847 51.1061 138.573 51.564Z" fill="#A7C3EA"/>
<path d="M150.296 58.7079C151.487 58.7079 151.487 56.8761 150.296 56.8761C149.105 56.8761 149.105 58.7079 150.296 58.7079Z" fill="#6884A5"/>
<path d="M92.6871 148.647C92.6871 123.094 71.9882 102.304 46.3436 102.304C41.3062 102.304 36.4521 103.128 31.8727 104.593V192.518C36.4521 193.983 41.3062 194.808 46.3436 194.808C71.9882 194.899 92.6871 174.2 92.6871 148.647Z" fill="#17205B"/>
<path d="M46.3435 185.832C71.9383 185.832 92.687 165.083 92.687 139.488C92.687 113.894 71.9383 93.145 46.3435 93.145C20.7487 93.145 0 113.894 0 139.488C0 165.083 20.7487 185.832 46.3435 185.832Z" fill="url(#paint0_linear_3_259)"/>
<path d="M46.3436 115.584C54.1285 115.584 55.0444 115.584 58.1584 115.767C60.9976 115.859 62.5546 116.408 63.5621 116.775C64.9359 117.324 65.8518 117.965 66.9509 118.973C67.9583 119.98 68.5994 120.988 69.149 122.362C69.5153 123.369 70.0648 124.926 70.1564 127.765C70.3396 130.879 70.3396 131.795 70.3396 139.58C70.3396 147.365 70.3396 148.281 70.1564 151.395C70.0648 154.234 69.5153 155.791 69.149 156.799C68.5994 158.172 67.9583 159.088 66.9509 160.187C65.9434 161.195 64.9359 161.836 63.5621 162.385C62.5546 162.752 60.9976 163.301 58.1584 163.393C55.0444 163.576 54.1285 163.576 46.3436 163.576C38.5586 163.576 37.6427 163.576 34.5287 163.393C31.6895 163.301 30.1325 162.752 29.125 162.385C27.7512 161.836 26.8353 161.195 25.7363 160.187C24.7288 159.18 24.0877 158.172 23.5381 156.799C23.1718 155.791 22.6223 154.234 22.5307 151.395C22.3475 148.281 22.3475 147.365 22.3475 139.58C22.3475 131.795 22.3475 130.879 22.5307 127.765C22.6223 124.926 23.1718 123.369 23.5381 122.362C24.0877 120.988 24.7288 120.072 25.7363 118.973C26.7437 117.965 27.7512 117.324 29.125 116.775C30.1325 116.408 31.6895 115.859 34.5287 115.767C37.6427 115.584 38.5586 115.584 46.3436 115.584ZM46.3436 110.364C38.467 110.364 37.4595 110.364 34.3455 110.547C31.2315 110.73 29.125 111.188 27.2933 111.921C25.3699 112.653 23.7213 113.661 22.1643 115.309C20.5157 116.958 19.5083 118.515 18.7756 120.438C18.0429 122.27 17.5849 124.376 17.4018 127.49C17.2186 130.604 17.2186 131.612 17.2186 139.488C17.2186 147.365 17.2186 148.373 17.4018 151.487C17.5849 154.601 18.0429 156.707 18.7756 158.539C19.5083 160.462 20.5157 162.111 22.1643 163.668C23.8129 165.316 25.3699 166.324 27.2933 167.056C29.125 167.789 31.2315 168.247 34.3455 168.43C37.4595 168.613 38.467 168.613 46.3436 168.613C54.2201 168.613 55.2276 168.613 58.3416 168.43C61.4556 168.247 63.5621 167.789 65.3938 167.056C67.3172 166.324 68.9658 165.316 70.5228 163.668C72.1714 162.019 73.1788 160.462 73.9115 158.539C74.6442 156.707 75.1022 154.601 75.2853 151.487C75.4685 148.373 75.4685 147.365 75.4685 139.488C75.4685 131.612 75.4685 130.604 75.2853 127.49C75.1022 124.376 74.6442 122.27 73.9115 120.438C73.1788 118.515 72.1714 116.866 70.5228 115.309C68.8742 113.661 67.3172 112.653 65.3938 111.921C63.5621 111.188 61.4556 110.73 58.3416 110.547C55.3192 110.364 54.3117 110.364 46.3436 110.364Z" fill="white"/>
<path d="M46.3436 124.468C38.1007 124.468 31.4148 131.154 31.4148 139.397C31.4148 147.64 38.1007 154.326 46.3436 154.326C54.5865 154.326 61.2725 147.64 61.2725 139.397C61.2725 131.154 54.6781 124.468 46.3436 124.468ZM46.3436 149.197C40.9399 149.197 36.6353 144.801 36.6353 139.488C36.6353 134.085 41.0315 129.78 46.3436 129.78C51.6557 129.78 56.052 134.176 56.052 139.488C56.1435 144.801 51.7473 149.197 46.3436 149.197Z" fill="white"/>
<path d="M61.9136 127.399C63.8357 127.399 65.3939 125.841 65.3939 123.919C65.3939 121.996 63.8357 120.438 61.9136 120.438C59.9914 120.438 58.4332 121.996 58.4332 123.919C58.4332 125.841 59.9914 127.399 61.9136 127.399Z" fill="white"/>
<path d="M279.252 228.237C261.85 228.237 247.837 242.342 247.837 259.652C247.837 261.484 248.02 263.315 248.295 265.056H310.209C310.483 263.315 310.666 261.484 310.666 259.652C310.758 242.342 296.653 228.237 279.252 228.237Z" fill="#16205B"/>
<path d="M286.579 292.898C303.929 292.898 317.993 278.834 317.993 261.484C317.993 244.134 303.929 230.069 286.579 230.069C269.229 230.069 255.164 244.134 255.164 261.484C255.164 278.834 269.229 292.898 286.579 292.898Z" fill="url(#paint1_linear_3_259)"/>
<path d="M276.413 263.773L280.168 274.123C280.168 274.123 280.626 275.13 281.175 275.13C281.633 275.13 289.143 267.437 289.143 267.437L297.386 251.501L276.596 261.209L276.413 263.773Z" fill="#C1DAEA"/>
<path d="M281.358 266.429L280.626 274.031C280.626 274.031 280.351 276.321 282.641 274.031C284.93 271.742 287.22 269.91 287.22 269.91L281.358 266.429Z" fill="#9CC6D9"/>
<path d="M276.504 264.14L268.811 261.667C268.811 261.667 267.895 261.3 268.17 260.476C268.261 260.293 268.353 260.11 268.719 259.927C270.459 258.736 300.225 248.02 300.225 248.02C300.225 248.02 301.05 247.745 301.599 247.929C301.782 248.02 301.966 248.112 302.057 248.478C302.057 248.57 302.149 248.844 302.149 249.119C302.149 249.302 302.149 249.486 302.149 249.76C301.966 252.691 296.562 274.489 296.562 274.489C296.562 274.489 296.196 275.771 295.097 275.771C294.639 275.771 294.181 275.68 293.54 275.13C291.25 273.207 283.373 267.895 281.633 266.704C281.542 266.613 281.542 266.521 281.45 266.429C281.45 266.338 281.542 266.155 281.542 266.155C281.542 266.155 295.28 253.973 295.646 252.691C295.646 252.6 295.554 252.508 295.463 252.6C294.547 252.966 278.702 262.949 276.962 264.048C276.779 264.231 276.504 264.14 276.504 264.14Z" fill="white"/>
<path d="M372.305 148.464C371.756 148.464 371.298 148.464 370.748 148.464C350.232 148.464 333.655 165.041 333.655 185.557C333.655 206.073 350.232 222.65 370.748 222.65C371.298 222.65 371.756 222.65 372.305 222.65V148.464Z" fill="#16205B"/>
<path d="M370.748 215.232C391.234 215.232 407.841 198.625 407.841 178.139C407.841 157.653 391.234 141.045 370.748 141.045C350.262 141.045 333.655 157.653 333.655 178.139C333.655 198.625 350.262 215.232 370.748 215.232Z" fill="#FD0000"/>
<path d="M394.469 166.232C393.92 164.126 392.271 162.385 390.073 161.836C386.226 160.828 370.748 160.828 370.748 160.828C370.748 160.828 355.27 160.828 351.423 161.836C349.317 162.385 347.576 164.034 347.027 166.232C346.019 170.079 346.019 178.139 346.019 178.139C346.019 178.139 346.019 186.198 347.027 190.045C347.576 192.152 349.225 193.892 351.423 194.441C355.27 195.449 370.748 195.449 370.748 195.449C370.748 195.449 386.226 195.449 390.073 194.441C392.18 193.892 393.92 192.243 394.469 190.045C395.477 186.198 395.477 178.139 395.477 178.139C395.477 178.139 395.477 170.079 394.469 166.232ZM365.802 185.557V170.72L378.625 178.139L365.802 185.557Z" fill="white"/>
<path d="M290.334 89.6646C290.334 102.395 300.683 112.745 313.414 112.745C326.145 112.745 336.494 102.395 336.494 89.6646C336.494 84.261 334.662 79.4068 331.64 75.4685H295.279C292.165 79.4068 290.334 84.3525 290.334 89.6646Z" fill="#16205B"/>
<path d="M318.085 108.165C330.832 108.165 341.165 97.8321 341.165 85.0852C341.165 72.3384 330.832 62.0051 318.085 62.0051C305.338 62.0051 295.005 72.3384 295.005 85.0852C295.005 97.8321 305.338 108.165 318.085 108.165Z" fill="#2967B0"/>
<path d="M319.825 81.9712C320.192 81.5133 320.558 81.1469 320.924 80.7806C322.115 79.6815 323.58 79.0404 325.229 79.132C326.145 79.132 327.061 79.2236 327.885 79.4984C329.9 80.0479 331.091 81.4217 331.64 83.4366C332.098 84.9021 332.098 86.3675 332.098 87.9245C332.098 91.13 332.098 94.3356 332.098 97.4496C332.098 97.7244 332.006 97.816 331.732 97.816C330.083 97.816 328.434 97.816 326.786 97.816C326.511 97.816 326.42 97.7244 326.42 97.4496C326.42 94.4272 326.42 91.4048 326.42 88.3824C326.42 87.6497 326.328 86.8254 326.145 86.0927C325.778 84.7189 324.771 84.0778 323.306 84.0778C321.382 84.1693 320.375 85.1768 320.1 87.1002C320.008 87.5581 320.008 88.016 320.008 88.5656C320.008 91.4964 320.008 94.4272 320.008 97.4496C320.008 97.7244 319.917 97.816 319.642 97.816C317.993 97.816 316.345 97.816 314.696 97.816C314.422 97.816 314.33 97.7244 314.33 97.4496C314.33 91.588 314.33 85.7263 314.33 79.9563C314.33 79.6815 314.422 79.5899 314.696 79.5899C316.253 79.5899 317.81 79.5899 319.367 79.5899C319.642 79.5899 319.734 79.6815 319.734 79.9563C319.825 80.5058 319.825 81.2385 319.825 81.9712Z" fill="#FDFDFD"/>
<path d="M310.85 88.6572C310.85 91.588 310.85 94.4273 310.85 97.3581C310.85 97.7244 310.758 97.816 310.483 97.816C308.835 97.816 307.186 97.816 305.538 97.816C305.263 97.816 305.171 97.7244 305.171 97.4497C305.171 91.588 305.171 85.7264 305.171 79.8648C305.171 79.59 305.263 79.4984 305.446 79.4984C307.094 79.4984 308.743 79.4984 310.483 79.4984C310.758 79.4984 310.85 79.59 310.85 79.8648C310.85 82.7956 310.85 85.7264 310.85 88.6572Z" fill="#FDFDFD"/>
<path d="M311.308 73.7283C311.308 75.5601 309.842 77.0255 308.01 77.0255C306.179 77.0255 304.713 75.5601 304.713 73.7283C304.713 71.8966 306.179 70.4312 308.01 70.4312C309.842 70.4312 311.308 71.8966 311.308 73.7283Z" fill="#FDFDFD"/>
<defs>
<linearGradient id="paint0_linear_3_259" x1="47.0119" y1="96.8574" x2="45.7876" y2="179.503" gradientUnits="userSpaceOnUse">
<stop offset="0.00318287" stop-color="#4656DB"/>
<stop offset="0.1532" stop-color="#A52BB7"/>
<stop offset="0.3972" stop-color="#F21F8B"/>
<stop offset="0.6881" stop-color="#FE454E"/>
<stop offset="0.9947" stop-color="#FEDA71"/>
</linearGradient>
<linearGradient id="paint1_linear_3_259" x1="286.597" y1="292.95" x2="286.597" y2="230.06" gradientUnits="userSpaceOnUse">
<stop stop-color="#0093D4"/>
<stop offset="1" stop-color="#00B1E5"/>
</linearGradient>
</defs>
</svg>
